<svg
    width="18"
    height="20"
    viewBox="0 0 18 20"
    fill="none"
    xmlns="http://www.w3.org/2000/svg">
    <path
        fill-rule="evenodd"
        clip-rule="evenodd"
        d="M5.45249 3.01521C4.69214 3.89804 4.27343 5.03403 4.275 6.20989V7.13291C4.6188 7.12985 4.9938 7.12862 5.4 7.12923H12.6C15.1452 7.12923 16.4187 7.12923 17.2089 7.93733C18 8.74451 18 10.9647 18 13.5646C18 17.0839 18 18.3847 17.2089 19.1919C16.4187 20 15.1452 20 12.6 20H5.4C2.8548 20 1.5813 20 0.7911 19.1919C0 18.3847 0 17.0839 0 13.5646C0 10.9647 0 8.74451 0.7911 7.93733C1.269 7.44916 1.9215 7.2561 2.925 7.1798V6.20989C2.92397 4.6987 3.46281 3.23906 4.44041 2.10484C5.41802 0.970623 6.76721 0.239778 8.23482 0.0494364C9.70244 -0.140905 11.1876 0.222339 12.4117 1.07101C13.6358 1.91969 14.5146 3.19546 14.8833 4.65896C14.9223 4.83397 14.8929 5.01759 14.8014 5.17083C14.71 5.32407 14.5636 5.43484 14.3935 5.4796C14.2233 5.52437 14.0428 5.4996 13.8903 5.41057C13.7377 5.32154 13.6251 5.17525 13.5765 5.0028C13.2902 3.86389 12.6067 2.87093 11.6544 2.21036C10.7021 1.5498 9.54644 1.26706 8.4045 1.41526C7.26256 1.56345 6.21285 2.13238 5.45249 3.01521ZM5.10123 12.0142C5.10123 11.7026 4.85184 11.45 4.54421 11.45C4.23657 11.45 3.98718 11.7026 3.98718 12.0142V12.5418L3.53563 12.2778C3.26921 12.122 2.92854 12.2144 2.77472 12.4843C2.6209 12.7541 2.71218 13.0991 2.9786 13.2549L3.42944 13.5185L2.9786 13.7822C2.71218 13.9379 2.6209 14.283 2.77472 14.5528C2.92854 14.8226 3.26921 14.9151 3.53563 14.7593L3.98718 14.4952V15.0229C3.98718 15.3345 4.23657 15.587 4.54421 15.587C4.85184 15.587 5.10123 15.3345 5.10123 15.0229V14.4961L5.5513 14.7593C5.81771 14.9151 6.15838 14.8226 6.3122 14.5528C6.46603 14.283 6.37475 13.9379 6.10833 13.7822L5.65748 13.5185L6.10833 13.2549C6.37475 13.0991 6.46603 12.7541 6.3122 12.4843C6.15838 12.2144 5.81771 12.122 5.5513 12.2778L5.10123 12.541V12.0142ZM9.55745 12.0142C9.55745 11.7026 9.30807 11.45 9.00043 11.45C8.6928 11.45 8.44341 11.7026 8.44341 12.0142V12.5414L7.9926 12.2778C7.72618 12.122 7.38551 12.2144 7.23169 12.4843C7.07787 12.7541 7.16915 13.0991 7.43557 13.2549L7.88641 13.5185L7.43557 13.7822C7.16915 13.9379 7.07787 14.283 7.23169 14.5528C7.38551 14.8226 7.72618 14.9151 7.9926 14.7593L8.44341 14.4957V15.0229C8.44341 15.3345 8.6928 15.587 9.00043 15.587C9.30807 15.587 9.55745 15.3345 9.55745 15.0229V14.4957L10.0083 14.7593C10.2747 14.9151 10.6154 14.8226 10.7692 14.5528C10.923 14.283 10.8317 13.9379 10.5653 13.7822L10.1145 13.5185L10.5653 13.2549C10.8317 13.0991 10.923 12.7541 10.7692 12.4843C10.6154 12.2144 10.2747 12.122 10.0083 12.2778L9.55745 12.5414V12.0142ZM14.0136 12.0142C14.0136 11.7026 13.7642 11.45 13.4565 11.45C13.1489 11.45 12.8995 11.7026 12.8995 12.0142V12.5414L12.4487 12.2778C12.1823 12.122 11.8416 12.2144 11.6878 12.4843C11.534 12.7541 11.6253 13.0991 11.8917 13.2549L12.3422 13.5183L11.891 13.7821C11.6245 13.9379 11.5332 14.2829 11.687 14.5527C11.8408 14.8226 12.1815 14.9151 12.4479 14.7593L12.8995 14.4953V15.0229C12.8995 15.3345 13.1489 15.587 13.4565 15.587C13.7642 15.587 14.0136 15.3345 14.0136 15.0229V14.4957L14.4644 14.7593C14.7308 14.9151 15.0715 14.8226 15.2253 14.5528C15.3791 14.283 15.2878 13.9379 15.0214 13.7822L14.5705 13.5185L15.0213 13.2549C15.2878 13.0992 15.3791 12.7542 15.2253 12.4843C15.0715 12.2145 14.7309 12.122 14.4644 12.2777L14.0136 12.5413V12.0142Z"
        fill="#574FC1" />
</svg>
