<svg
    width="18"
    height="18"
    viewBox="0 0 18 18"
    fill="none"
    xmlns="http://www.w3.org/2000/svg">
    <path
        d="M6.858 15.282C7.29183 15.3305 7.73102 15.2807 8.14297 15.1363C8.55492 14.9919 8.92905 14.7565 9.2376 14.4477L11.6271 12.0582C12.7886 12.2602 13.9824 12.1644 15.0968 11.7799C16.2113 11.3954 17.2101 10.7347 18 9.8595C17.9946 13.5351 17.9091 15.4557 16.6833 16.6815C15.363 18 13.2426 18 9 18C4.7574 18 2.6361 18 1.3176 16.6815C0 15.3648 0 13.2426 0 9C0 4.7574 0 2.6361 1.3176 1.3176C2.5443 0.0918 4.4649 0.0063 8.1405 0C7.26544 0.789789 6.60481 1.78847 6.22032 2.90277C5.83582 4.01706 5.74 5.21063 5.9418 6.372L3.5523 8.7624C3.24362 9.07085 3.00834 9.44483 2.86391 9.85662C2.71948 10.2684 2.66961 10.7074 2.718 11.1411L2.8917 12.708C2.9556 13.2813 3.2121 13.815 3.6207 14.2236L3.7764 14.3802C4.1842 14.7881 4.71875 15.0449 5.292 15.1083L6.858 15.282Z"
        fill="#574FC1" />
    <path
        fill-rule="evenodd"
        clip-rule="evenodd"
        d="M17.9667 5.7708C17.8348 6.93341 17.3114 8.01661 16.4826 8.8425C15.8459 9.48028 15.0537 9.94073 14.1844 10.1783C13.3151 10.4159 12.3989 10.4223 11.5263 10.197C11.391 10.159 11.2482 10.1569 11.1119 10.1909C10.9756 10.2248 10.8504 10.2936 10.7487 10.3905L9.3717 11.7675L9.3699 11.7648L8.0577 10.467C7.93036 10.3411 7.75821 10.2709 7.57913 10.2719C7.40005 10.2729 7.22871 10.3451 7.1028 10.4724C6.97689 10.5997 6.90672 10.7719 6.90773 10.951C6.90875 11.13 6.98086 11.3014 7.1082 11.4273L8.4177 12.7215L7.965 13.1751C7.84729 13.293 7.7045 13.3827 7.54727 13.4378C7.39003 13.4928 7.22241 13.5116 7.0569 13.4928L5.4909 13.3191C5.32402 13.3005 5.16846 13.2256 5.0499 13.1067L4.8933 12.951C4.77439 12.8324 4.69947 12.6769 4.6809 12.51L4.5072 10.9431C4.48842 10.7776 4.50723 10.61 4.56224 10.4527C4.61725 10.2955 4.70703 10.1527 4.8249 10.035L7.6095 7.2513C7.70642 7.1496 7.77522 7.02443 7.80914 6.8881C7.84307 6.75177 7.84095 6.60896 7.803 6.4737C7.57768 5.60114 7.58413 4.68487 7.8217 3.81557C8.05927 2.94627 8.51972 2.15408 9.1575 1.5174C9.98339 0.688556 11.0666 0.165205 12.2292 0.0332999C13.0446 0.0638999 13.7412 0.1206 14.3424 0.2277C15.1254 0.468 15.8634 0.8973 16.4826 1.5174C17.0823 2.1136 17.5254 2.8488 17.7723 3.6576C17.8803 4.2588 17.9361 4.9554 17.9667 5.7708ZM11.6892 4.1895C11.8274 4.0455 11.993 3.93052 12.1762 3.85131C12.3594 3.77211 12.5566 3.73025 12.7562 3.72821C12.9558 3.72617 13.1538 3.76397 13.3386 3.83942C13.5234 3.91486 13.6913 4.02642 13.8324 4.16756C13.9736 4.3087 14.0851 4.47659 14.1606 4.66139C14.236 4.8462 14.2738 5.04419 14.2718 5.24379C14.2697 5.44339 14.2279 5.64057 14.1487 5.82379C14.0695 6.00701 13.9545 6.17258 13.8105 6.3108C13.5273 6.58266 13.1488 6.73267 12.7562 6.72865C12.3636 6.72464 11.9883 6.56691 11.7107 6.28931C11.4331 6.01171 11.2754 5.63635 11.2713 5.24379C11.2673 4.85122 11.4173 4.47272 11.6892 4.1895Z"
        fill="#574FC1" />
</svg>
