<svg
    width="18"
    height="20"
    viewBox="0 0 18 20"
    fill="none"
    xmlns="http://www.w3.org/2000/svg">
    <path
        fill-rule="evenodd"
        clip-rule="evenodd"
        d="M9.00031 0.5C9.88986 0.5 10.3354 0.500327 10.6859 0.644727C10.917 0.739482 11.1277 0.879232 11.3048 1.05571C11.4819 1.23221 11.6225 1.44245 11.7184 1.67358C11.8073 1.88529 11.8411 2.13215 11.8553 2.49277C11.8619 2.75333 11.9346 3.00836 12.0662 3.23311C12.1979 3.45787 12.3846 3.64591 12.6083 3.77861C12.8369 3.90613 13.0943 3.97392 13.3559 3.97529C13.6174 3.97662 13.8753 3.91119 14.1052 3.78604C14.4253 3.61697 14.6578 3.52422 14.887 3.4938C15.3885 3.42818 15.8958 3.56287 16.2987 3.86953C16.5988 4.09946 16.8201 4.48021 17.2618 5.24072L17.2664 5.25C17.7117 6.01665 17.9341 6.4009 17.9843 6.7752C18.0164 7.02253 17.9991 7.27378 17.9344 7.5146C17.8695 7.75568 17.7579 7.98199 17.6059 8.17979C17.4648 8.36211 17.2669 8.51493 16.9602 8.70767C16.5093 8.98887 16.2192 9.4699 16.2192 10C16.2192 10.5301 16.5092 11.0111 16.9611 11.2933C17.2669 11.4851 17.4649 11.6379 17.605 11.8202C17.7571 12.0179 17.8693 12.2435 17.9344 12.4845C17.9993 12.7254 18.0163 12.9773 17.9843 13.2248C17.9341 13.6001 17.7117 13.9833 17.2664 14.75C16.8222 15.5165 16.5999 15.9006 16.2987 16.1305C15.897 16.4373 15.389 16.5727 14.887 16.5062C14.6578 16.4758 14.4253 16.383 14.1052 16.214C13.8755 16.089 13.6181 16.0243 13.3568 16.0256C13.0953 16.027 12.8378 16.094 12.6093 16.2214C12.1481 16.4865 11.8742 16.9772 11.8553 17.5072C11.8411 17.8679 11.8073 18.1147 11.7184 18.3264C11.6225 18.5575 11.4819 18.7678 11.3048 18.9443C11.1277 19.1208 10.917 19.2605 10.6859 19.3553C10.3354 19.4997 9.88986 19.5 9.00031 19.5C8.11077 19.5 7.66523 19.4997 7.31471 19.3553C6.8469 19.1624 6.47547 18.7918 6.28226 18.3264C6.19335 18.1147 6.15955 17.8679 6.14534 17.5072C6.12545 16.9772 5.85256 16.4874 5.39228 16.2214C5.1637 16.0939 4.90634 16.0261 4.64477 16.0247C4.38319 16.0234 4.1253 16.0888 3.89541 16.214C3.57528 16.383 3.34288 16.4758 3.11367 16.5062C2.61158 16.5718 2.10358 16.4373 1.70191 16.1305C1.40187 15.9005 1.18054 15.5198 0.738846 14.7593L0.73422 14.75C0.288972 13.9833 0.0665234 13.5991 0.0163146 13.2248C-0.0157406 12.9775 0.00153951 12.7262 0.066272 12.4854C0.131128 12.2443 0.242717 12.018 0.394695 11.8202C0.535787 11.6379 0.733734 11.4851 1.04044 11.2923C1.49137 11.0111 1.78147 10.5301 1.78147 10C1.78147 9.4699 1.49139 8.98889 1.03952 8.70674C0.733741 8.51495 0.535769 8.36211 0.39562 8.17979C0.0869051 7.77997 -0.0498428 7.27472 0.0163146 6.7752C0.0665234 6.39995 0.288972 6.01665 0.73422 5.25C1.17845 4.48347 1.40069 4.09942 1.70191 3.86953C2.10478 3.56287 2.61214 3.42818 3.11367 3.4938C3.34288 3.52422 3.57528 3.61697 3.89541 3.78604C4.12513 3.911 4.3825 3.97567 4.64385 3.97437C4.90533 3.97304 5.16281 3.90601 5.39136 3.77861C5.61528 3.64602 5.80162 3.45787 5.93349 3.23311C6.06531 3.00832 6.13858 2.75346 6.14534 2.49277C6.15955 2.1331 6.19335 1.88529 6.28226 1.67358C6.37818 1.44246 6.51876 1.23221 6.6958 1.05571C6.87292 0.879233 7.0836 0.739482 7.31471 0.644727C7.66618 0.500327 8.11077 0.5 9.00031 0.5ZM9.00031 5.725C8.62856 5.725 8.32681 6.0276 8.32681 6.40039V9.32461H5.40986C5.03823 9.32475 4.73729 9.6273 4.73729 10C4.73729 10.3727 5.03823 10.6752 5.40986 10.6754H8.32681V13.5996C8.32681 13.9724 8.62856 14.275 9.00031 14.275C9.37194 14.2749 9.67289 13.9723 9.67289 13.5996V10.6754H12.5898L12.6592 10.6717C12.9984 10.6369 13.2633 10.3493 13.2633 10C13.2633 9.65065 12.9984 9.36308 12.6592 9.32832L12.5898 9.32461H9.67289V6.40039C9.67289 6.02769 9.37194 5.72514 9.00031 5.725Z"
        fill="#574FC1" />
</svg>
