<svg
    width="20"
    height="20"
    viewBox="0 0 20 20"
    fill="none"
    xmlns="http://www.w3.org/2000/svg">
    <path
        d="M13.4045 4.25171C13.7384 3.92665 13.9149 3.57739 13.9149 3.21809C13.9149 2.85878 13.7384 2.50952 13.4045 2.18446C13.0703 1.85917 12.5829 1.56279 11.9746 1.31231C10.7584 0.811492 9.07294 0.5 7.20745 0.5C5.34195 0.5 3.65654 0.811492 2.44026 1.31231C1.83195 1.56279 1.34457 1.85917 1.01043 2.18446C0.676532 2.50952 0.5 2.85878 0.5 3.21809C0.5 3.57739 0.676532 3.92665 1.01043 4.25171C1.34457 4.57701 1.83195 4.87338 2.44026 5.12386C3.65654 5.62468 5.34195 5.93617 7.20745 5.93617C9.07294 5.93617 10.7584 5.62468 11.9746 5.12386C12.5829 4.87338 13.0703 4.57701 13.4045 4.25171Z"
        fill="#574FC1" />
    <path
        d="M8.40547 7.2337C7.51641 7.94895 6.79128 8.85729 6.29275 9.89739C4.65264 9.80557 3.20309 9.47233 2.163 8.99015C1.63761 8.74659 1.22004 8.46656 0.934785 8.16345C0.649909 7.86075 0.5 7.53858 0.5 7.20745V5.56597C2.02248 6.70097 4.62866 7.28192 7.20745 7.28192C7.60899 7.28192 8.00854 7.26325 8.40547 7.2337Z"
        fill="#574FC1" />
    <path
        d="M0.5 9.55533C1.74645 10.4843 3.7201 11.0359 5.80555 11.2072C5.63449 11.8405 5.53723 12.504 5.53723 13.1915C5.53723 13.4068 5.54835 13.6194 5.56618 13.8289C4.11356 13.6793 2.85101 13.337 1.94862 12.8747C1.0222 12.4 0.5 11.8127 0.5 11.1968V9.55533Z"
        fill="#574FC1" />
    <path
        fill-rule="evenodd"
        clip-rule="evenodd"
        d="M6.88298 13.1915C6.88298 9.7132 9.7132 6.88298 13.1915 6.88298C16.6698 6.88298 19.5 9.7132 19.5 13.1915C19.5 16.6698 16.6698 19.5 13.1915 19.5C9.7132 19.5 6.88298 16.6698 6.88298 13.1915ZM15.7317 10.9826C15.7317 10.8423 15.6761 10.7078 15.577 10.6086C15.4778 10.5095 15.3433 10.4539 15.203 10.4539C15.0628 10.4539 14.9283 10.5095 14.8291 10.6086L10.596 14.8418C10.5025 14.9421 10.4516 15.0748 10.454 15.2119C10.4564 15.3489 10.512 15.4797 10.6089 15.5767C10.7059 15.6736 10.8367 15.7292 10.9738 15.7316C11.1108 15.734 11.2435 15.6831 11.3438 15.5896L15.577 11.3565C15.6761 11.2573 15.7317 11.1228 15.7317 10.9826ZM11.8215 11.8342C11.9538 11.7019 12.0282 11.5224 12.0282 11.3353C12.0282 11.1482 11.9538 10.9688 11.8215 10.8364C11.6892 10.7041 11.5098 10.6298 11.3227 10.6298C11.1355 10.6298 10.9561 10.7041 10.8238 10.8364C10.6915 10.9688 10.6171 11.1482 10.6171 11.3353C10.6171 11.5224 10.6915 11.7019 10.8238 11.8342C10.9561 11.9665 11.1355 12.0408 11.3227 12.0408C11.5098 12.0408 11.6892 11.9665 11.8215 11.8342ZM15.3492 15.3618C15.2169 15.4941 15.0374 15.5685 14.8503 15.5685C14.6632 15.5685 14.4837 15.4941 14.3514 15.3618C14.2191 15.2295 14.1448 15.0501 14.1448 14.863C14.1448 14.6758 14.2191 14.4964 14.3514 14.3641C14.4837 14.2318 14.6632 14.1574 14.8503 14.1574C15.0374 14.1574 15.2169 14.2318 15.3492 14.3641C15.4815 14.4964 15.5558 14.6758 15.5558 14.863C15.5558 15.0501 15.4815 15.2295 15.3492 15.3618Z"
        fill="#574FC1" />
</svg>
