<svg
    width="18"
    height="22"
    viewBox="0 0 18 22"
    fill="none"
    xmlns="http://www.w3.org/2000/svg">
    <path
        d="M9 21C17 21 17 18.985 17 16.5C17 14.6117 14.9317 12.9948 12 12.3272V15.2693C12 15.7083 11.7934 16.1011 11.4678 16.3639L9.4839 17.9656C9.35329 18.0711 9.18443 18.1346 9 18.1346M9 21C1 21 1 18.985 1 16.5C1 14.6117 3.06828 12.9948 6 12.3272L6 15.2693C6 15.7083 6.2067 16.1011 6.5322 16.3639L8.5161 17.9656C8.64671 18.0711 8.81558 18.1346 9 18.1346M9 21V18.1346M9 13.8366V15.2692M13 5C13 7.20914 11.2091 9 9 9C6.79086 9 5 7.20914 5 5C5 2.79086 6.79086 1 9 1C11.2091 1 13 2.79086 13 5Z"
        stroke="#574FC1"
        stroke-width="1.3"
        stroke-miterlimit="10"
        stroke-linecap="round"
        stroke-linejoin="round" />
</svg>
