<svg
    width="24"
    height="22"
    viewBox="0 0 24 22"
    fill="none"
    xmlns="http://www.w3.org/2000/svg">
    <path
        d="M11.5038 10.7889C11.5038 11.1203 11.7724 11.3889 12.1038 11.3889C12.4352 11.3889 12.7038 11.1203 12.7038 10.7889H11.5038ZM12.7038 3.82222C12.7038 3.49085 12.4352 3.22222 12.1038 3.22222C11.7724 3.22222 11.5038 3.49085 11.5038 3.82222H12.7038ZM13.2534 5.85416C13.2534 6.18553 13.522 6.45416 13.8534 6.45416C14.1848 6.45416 14.4534 6.18553 14.4534 5.85416H13.2534ZM10.9542 8.75694C10.9542 8.42557 10.6855 8.15694 10.3541 8.15694C10.0228 8.15694 9.75415 8.42557 9.75415 8.75694H10.9542ZM9 16.4C8.66863 16.4 8.4 16.6686 8.4 17C8.4 17.3314 8.66863 17.6 9 17.6V16.4ZM15 17.6C15.3314 17.6 15.6 17.3314 15.6 17C15.6 16.6686 15.3314 16.4 15 16.4V17.6ZM21.9009 20.5333C21.9193 20.8642 22.2024 21.1175 22.5333 21.0991C22.8642 21.0807 23.1175 20.7976 23.0991 20.4667L21.9009 20.5333ZM15.7463 20.4667C15.7279 20.7976 15.9812 21.0807 16.3121 21.0991C16.6429 21.1175 16.926 20.8642 16.9444 20.5333L15.7463 20.4667ZM7.05556 20.5333C7.07395 20.8642 7.35708 21.1175 7.68794 21.0991C8.0188 21.0807 8.2721 20.7976 8.25372 20.4667L7.05556 20.5333ZM0.900925 20.4667C0.882536 20.7976 1.13584 21.0807 1.4667 21.0991C1.79756 21.1175 2.08069 20.8642 2.09908 20.5333L0.900925 20.4667ZM17.3359 7.30556C17.3359 10.1779 14.996 12.5111 12.1038 12.5111V13.7111C15.6536 13.7111 18.5359 10.8458 18.5359 7.30556H17.3359ZM12.1038 12.5111C9.21163 12.5111 6.87172 10.1779 6.87172 7.30556H5.67172C5.67172 10.8458 8.55406 13.7111 12.1038 13.7111V12.5111ZM6.87172 7.30556C6.87172 4.43318 9.21163 2.1 12.1038 2.1V0.9C8.55406 0.9 5.67172 3.76529 5.67172 7.30556H6.87172ZM12.1038 2.1C14.996 2.1 17.3359 4.43318 17.3359 7.30556H18.5359C18.5359 3.76529 15.6536 0.9 12.1038 0.9V2.1ZM11.5038 10.2083V10.7889H12.7038V10.2083H11.5038ZM11.5038 3.82222V4.40277H12.7038V3.82222H11.5038ZM14.4534 5.85416C14.4534 4.62166 13.2918 3.80277 12.1038 3.80277V5.00277C12.8485 5.00277 13.2534 5.48433 13.2534 5.85416H14.4534ZM12.1038 3.80277C10.9157 3.80277 9.75415 4.62166 9.75415 5.85416H10.9542C10.9542 5.48433 11.3591 5.00277 12.1038 5.00277V3.80277ZM9.75415 5.85416C9.75415 7.08666 10.9157 7.90555 12.1038 7.90555V6.70555C11.3591 6.70555 10.9542 6.224 10.9542 5.85416H9.75415ZM12.1038 7.90555C12.8485 7.90555 13.2534 8.3871 13.2534 8.75694H14.4534C14.4534 7.52444 13.2918 6.70555 12.1038 6.70555V7.90555ZM13.2534 8.75694C13.2534 9.12677 12.8485 9.60833 12.1038 9.60833V10.8083C13.2918 10.8083 14.4534 9.98944 14.4534 8.75694H13.2534ZM12.1038 9.60833C11.3591 9.60833 10.9542 9.12677 10.9542 8.75694H9.75415C9.75415 9.98944 10.9157 10.8083 12.1038 10.8083V9.60833ZM9 17.6H12.1038V16.4H9V17.6ZM12.1038 17.6H15V16.4H12.1038V17.6ZM12.7038 17V13.1111H11.5038V17H12.7038ZM20.369 14.6505C20.369 15.1667 19.9479 15.5898 19.4227 15.5898V16.7898C20.6055 16.7898 21.569 15.8346 21.569 14.6505H20.369ZM19.4227 15.5898C18.8974 15.5898 18.4763 15.1667 18.4763 14.6505H17.2763C17.2763 15.8346 18.2398 16.7898 19.4227 16.7898V15.5898ZM18.4763 14.6505C18.4763 14.1343 18.8974 13.7111 19.4227 13.7111V12.5111C18.2398 12.5111 17.2763 13.4664 17.2763 14.6505H18.4763ZM19.4227 13.7111C19.9479 13.7111 20.369 14.1343 20.369 14.6505H21.569C21.569 13.4664 20.6055 12.5111 19.4227 12.5111V13.7111ZM23.0991 20.4667C23.0563 19.697 22.9144 18.8636 22.3133 18.2432C21.7057 17.616 20.7581 17.3344 19.4227 17.3344V18.5344C20.6259 18.5344 21.1758 18.7936 21.4515 19.0782C21.7338 19.3696 21.8612 19.8191 21.9009 20.5333L23.0991 20.4667ZM19.4227 17.3344C18.0873 17.3344 17.1397 17.616 16.532 18.2432C15.931 18.8636 15.7891 19.697 15.7463 20.4667L16.9444 20.5333C16.9841 19.8191 17.1115 19.3696 17.3939 19.0782C17.6696 18.7936 18.2194 18.5344 19.4227 18.5344V17.3344ZM5.52369 14.6505C5.52369 15.1667 5.10256 15.5898 4.57729 15.5898V16.7898C5.76013 16.7898 6.72369 15.8346 6.72369 14.6505H5.52369ZM4.57729 15.5898C4.05203 15.5898 3.6309 15.1667 3.6309 14.6505H2.4309C2.4309 15.8346 3.39446 16.7898 4.57729 16.7898V15.5898ZM3.6309 14.6505C3.6309 14.1343 4.05203 13.7111 4.57729 13.7111V12.5111C3.39446 12.5111 2.4309 13.4664 2.4309 14.6505H3.6309ZM4.57729 13.7111C5.10256 13.7111 5.52369 14.1343 5.52369 14.6505H6.72369C6.72369 13.4664 5.76013 12.5111 4.57729 12.5111V13.7111ZM8.25372 20.4667C8.21094 19.697 8.06902 18.8636 7.46798 18.2432C6.86032 17.616 5.91272 17.3344 4.57732 17.3344V18.5344C5.78058 18.5344 6.3304 18.7936 6.60612 19.0782C6.88846 19.3696 7.01587 19.8191 7.05556 20.5333L8.25372 20.4667ZM4.57732 17.3344C3.24192 17.3344 2.29432 17.616 1.68666 18.2432C1.08562 18.8636 0.943704 19.697 0.900925 20.4667L2.09908 20.5333C2.13877 19.8191 2.26618 19.3696 2.54852 19.0782C2.82424 18.7936 3.37406 18.5344 4.57732 18.5344V17.3344Z"
        fill="#574FC1" />
</svg>
