<svg
    width="20"
    height="20"
    viewBox="0 0 20 20"
    fill="none"
    xmlns="http://www.w3.org/2000/svg">
    <path
        fill-rule="evenodd"
        clip-rule="evenodd"
        d="M5.15335 2.58707C5.15335 1.14542 6.34472 0 7.78533 0C9.22365 0 10.4135 1.1418 10.4173 2.58023L14.2725 3.82987C14.8377 3.0106 15.7939 2.47636 16.8681 2.47636C18.5848 2.47636 20 3.84063 20 5.55223C20 7.26383 18.5848 8.6281 16.8681 8.6281C16.2559 8.6281 15.682 8.45457 15.197 8.15365L12.2827 10.2379C12.856 11.1986 13.1851 12.3182 13.1851 13.5154C13.1851 17.1072 10.223 20 6.59255 20C2.96212 20 0 17.1072 0 13.5154C0 9.92368 2.96212 7.03088 6.59255 7.03088C8.57099 7.03088 10.351 7.88998 11.5612 9.25313L14.2909 7.30096C13.9417 6.80595 13.7363 6.2043 13.7363 5.55223C13.7363 5.34871 13.7563 5.15009 13.7944 4.9581L10.1275 3.76947C9.68869 4.6074 8.79866 5.17415 7.78533 5.17415C6.34472 5.17415 5.15335 4.02873 5.15335 2.58707ZM6.59255 9.38057C6.92963 9.38057 7.20288 9.65383 7.20288 9.9909V10.0376C8.17368 10.2607 8.99755 11.0044 8.99755 12.0469C8.99755 12.384 8.7243 12.6572 8.38722 12.6572C8.05015 12.6572 7.77689 12.384 7.77689 12.0469C7.77689 11.6819 7.36673 11.1887 6.59255 11.1887C5.81837 11.1887 5.40821 11.6819 5.40821 12.0469C5.40821 12.4118 5.81837 12.9051 6.59255 12.9051C7.80088 12.9051 8.99755 13.7277 8.99755 14.984C8.99755 16.0264 8.17368 16.7702 7.20288 16.9933V17.04C7.20288 17.3771 6.92963 17.6503 6.59255 17.6503C6.25548 17.6503 5.98222 17.3771 5.98222 17.04V16.9933C5.01143 16.7702 4.18756 16.0264 4.18756 14.984C4.18756 14.6469 4.46081 14.3737 4.79789 14.3737C5.13496 14.3737 5.40821 14.6469 5.40821 14.984C5.40821 15.3489 5.81837 15.8422 6.59255 15.8422C7.36674 15.8422 7.77689 15.3489 7.77689 14.984C7.77689 14.619 7.36673 14.1258 6.59255 14.1258C5.38423 14.1258 4.18756 13.3032 4.18756 12.0469C4.18756 11.0044 5.01143 10.2607 5.98222 10.0376V9.9909C5.98222 9.65383 6.25548 9.38057 6.59255 9.38057Z"
        fill="#574FC1" />
</svg>
