<svg
    width="22"
    height="18"
    viewBox="0 0 22 18"
    fill="none"
    xmlns="http://www.w3.org/2000/svg">
    <path
        d="M16 7.75556C17.3807 7.75556 18.5 6.64124 18.5 5.26667C18.5 3.89209 17.3807 2.77778 16 2.77778M17.8182 9.81314C19.6805 10.2205 21 11.2352 21 12.4222C21 13.4106 21 14.2795 19.6941 14.7778M6 7.75556C4.61929 7.75556 3.5 6.64124 3.5 5.26667C3.5 3.89209 4.61929 2.77778 6 2.77778M4.18182 9.81314C2.31945 10.2205 1 11.2352 1 12.4222C1 13.4106 1 14.2795 2.30592 14.7778M14.1818 4.2C14.1818 5.96731 12.7573 7.4 11 7.4C9.24273 7.4 7.81818 5.96731 7.81818 4.2C7.81818 2.43269 9.24273 1 11 1C12.7573 1 14.1818 2.43269 14.1818 4.2ZM17.3636 13.4C17.3636 15.388 17.3636 17 11 17C4.63636 17 4.63636 15.388 4.63636 13.4C4.63636 11.412 7.48568 9.8 11 9.8C14.5143 9.8 17.3636 11.412 17.3636 13.4Z"
        stroke="#574FC1"
        stroke-width="1.3"
        stroke-linecap="round" />
</svg>
