<svg
    width="22"
    height="22"
    viewBox="0 0 22 22"
    fill="none"
    xmlns="http://www.w3.org/2000/svg">
    <path
        d="M7.0001 10.5C7 10 7 9.71251 7 9.25C7 8.0075 8.791 7 11 7C13.209 7 15 8.0075 15 9.25C15 9.71251 15 10 15 10.5M19 16C19 14.8955 18.2281 14 17.2759 14H11M3 16C3 14.8955 3.77194 14 4.72414 14H11M11 16V14M11 14V11M13 3C13 4.10457 12.1046 5 11 5C9.89543 5 9 4.10457 9 3C9 1.89543 9.89543 1 11 1C12.1046 1 13 1.89543 13 3ZM4.5 19.5C4.5 20.3284 3.82843 21 3 21C2.17157 21 1.5 20.3284 1.5 19.5C1.5 18.6716 2.17157 18 3 18C3.82843 18 4.5 18.6716 4.5 19.5ZM12.5 19.5C12.5 20.3284 11.8284 21 11 21C10.1716 21 9.5 20.3284 9.5 19.5C9.5 18.6716 10.1716 18 11 18C11.8284 18 12.5 18.6716 12.5 19.5ZM20.5 19.5C20.5 20.3284 19.8284 21 19 21C18.1716 21 17.5 20.3284 17.5 19.5C17.5 18.6716 18.1716 18 19 18C19.8284 18 20.5 18.6716 20.5 19.5Z"
        stroke="#574FC1"
        stroke-width="1.3"
        stroke-miterlimit="10"
        stroke-linecap="round"
        stroke-linejoin="round" />
</svg>
