<svg
    width="18"
    height="18"
    viewBox="0 0 18 18"
    fill="none"
    xmlns="http://www.w3.org/2000/svg">
    <path
        fill-rule="evenodd"
        clip-rule="evenodd"
        d="M7.91449 9.405H6.8264L7.37 7.6635L7.91449 9.405Z"
        fill="#574FC1" />
    <path
        fill-rule="evenodd"
        clip-rule="evenodd"
        d="M0 9C0 4.7574 0 2.6361 1.3176 1.3176C2.637 0 4.7574 0 9 0C13.2426 0 15.3639 0 16.6815 1.3176C18 2.637 18 4.7574 18 9C18 13.2426 18 15.3639 16.6815 16.6815C15.3648 18 13.2426 18 9 18C4.7574 18 2.6361 18 1.3176 16.6815C0 15.3648 0 13.2426 0 9ZM7.76999 4.85562C7.88592 4.9409 7.97155 5.06101 8.01439 5.1984L10.2644 12.3984C10.3179 12.5693 10.3012 12.7545 10.2182 12.9131C10.1352 13.0718 9.9925 13.1909 9.8216 13.2444C9.65069 13.2979 9.46554 13.2813 9.30689 13.1982C9.14823 13.1152 9.02906 12.9725 8.9756 12.8016L8.3366 10.755H6.4034L5.7644 12.8016C5.71093 12.9725 5.59176 13.1152 5.4331 13.1982C5.27445 13.2813 5.0893 13.2979 4.9184 13.2444C4.74749 13.1909 4.60482 13.0718 4.52178 12.9131C4.43874 12.7545 4.42213 12.5693 4.4756 12.3984L6.7256 5.1984C6.76844 5.06101 6.85407 4.9409 6.97 4.85562C7.08593 4.77033 7.22608 4.72433 7.37 4.72433C7.51391 4.72433 7.65407 4.77033 7.76999 4.85562ZM11.8427 13.0773C11.9693 13.2039 12.141 13.275 12.32 13.275C12.4991 13.275 12.6732 13.2019 12.7995 13.0751C12.9267 12.9486 13 12.7745 13 12.595V9.675V8.325V6.075V5.39499C13 5.21597 12.9289 5.04428 12.8023 4.91769C12.6952 4.81059 12.5558 4.74321 12.407 4.725C12.38 4.72169 12.3526 4.72 12.325 4.72C12.146 4.72 11.9466 4.82054 11.82 4.94712C11.7099 5.07273 11.645 5.23213 11.645 5.4V12.6C11.645 12.779 11.7161 12.9507 11.8427 13.0773Z"
        fill="#574FC1" />
</svg>
