<svg
    width="18"
    height="20"
    viewBox="0 0 18 20"
    fill="none"
    xmlns="http://www.w3.org/2000/svg">
    <path
        d="M8.60201 9.27087L8.93849 7.42862L10.1314 7.63172C10.5499 7.70294 10.7789 7.88234 10.9019 8.06118C11.0323 8.25057 11.0806 8.49314 11.0363 8.73541C10.992 8.9777 10.8606 9.18971 10.671 9.32467C10.4918 9.45211 10.2129 9.54501 9.79452 9.47372L8.60201 9.27087Z"
        fill="#574FC1" />
    <path
        d="M8.35058 10.6474L9.54311 10.8503C9.96142 10.9216 10.1905 11.1011 10.3136 11.2799C10.444 11.4694 10.4923 11.712 10.448 11.9543C10.4038 12.1966 10.2724 12.4086 10.0827 12.5436C9.90364 12.671 9.62487 12.764 9.20649 12.6928L8.0141 12.4897L8.35058 10.6474Z"
        fill="#574FC1" />
    <path
        fill-rule="evenodd"
        clip-rule="evenodd"
        d="M0.5 8.49615C0.5 5.45805 0.5 3.939 0.857 3.4279C1.21306 2.91775 2.63256 2.4285 5.4725 1.45095L6.01367 1.26475C7.49361 0.7546 8.23311 0.5 9 0.5C9.76689 0.5 10.5064 0.7546 11.9863 1.26475L12.5275 1.45095C15.3674 2.4285 16.7869 2.91775 17.143 3.4279C17.5 3.939 17.5 5.459 17.5 8.49615V9.99145C17.5 15.3476 13.4965 17.9477 10.9843 19.0506L10.981 19.0521C10.3022 19.3504 9.96178 19.5 9 19.5C8.03822 19.5 7.69776 19.3504 7.01901 19.0521L7.01572 19.0506C4.5035 17.9468 0.5 15.3485 0.5 9.99145V8.49615ZM9.23222 5.8204C9.30165 5.44027 9.03876 5.07777 8.64504 5.01074C8.25132 4.9437 7.87586 5.19752 7.80643 5.57765L7.76412 5.8093L7.52495 5.76858C7.13123 5.70155 6.75577 5.95536 6.68634 6.33549C6.61691 6.71562 6.8798 7.07812 7.27352 7.14516L7.5127 7.18588L6.58833 12.2469L6.34977 12.2063C5.95605 12.1392 5.58058 12.393 5.51113 12.7731C5.44168 13.1533 5.70454 13.5158 6.09826 13.5828L6.3369 13.6235L6.2946 13.8551C6.22517 14.2352 6.48806 14.5977 6.88178 14.6647C7.2755 14.7318 7.65096 14.478 7.72039 14.0978L7.76267 13.8663L8.24271 13.9481L8.20051 14.1801C8.13135 14.5603 8.39449 14.9226 8.78826 14.9893C9.18203 15.0561 9.55731 14.8021 9.62646 14.4219L9.68353 14.1082C10.1603 14.0746 10.5876 13.9208 10.9418 13.6688C11.4577 13.3016 11.771 12.7596 11.8738 12.1971C11.9766 11.6347 11.8742 11.0219 11.5195 10.5064C11.5119 10.4953 11.5042 10.4843 11.4963 10.4734C11.5076 10.4656 11.5188 10.4578 11.5299 10.4499C12.0459 10.0828 12.3593 9.54076 12.4621 8.97833C12.5649 8.4159 12.4626 7.80306 12.1078 7.28757C11.8641 6.93354 11.5169 6.64793 11.0804 6.45894L11.1377 6.14479C11.2071 5.76464 10.9441 5.40219 10.5504 5.33524C10.1567 5.26828 9.78127 5.52216 9.71191 5.90231L9.66969 6.13373L9.18991 6.05205L9.23222 5.8204Z"
        fill="#574FC1" />
</svg>
