<svg
    width="20"
    height="20"
    viewBox="0 0 20 20"
    fill="none"
    xmlns="http://www.w3.org/2000/svg">
    <path
        fill-rule="evenodd"
        clip-rule="evenodd"
        d="M11.7793 0.152C11.4093 -4.96705e-08 10.9393 0 10.0003 0C9.06129 0 8.59229 -4.96705e-08 8.22129 0.152C7.97718 0.251745 7.7552 0.398782 7.56814 0.584647C7.38107 0.770512 7.23261 0.991536 7.13129 1.235C7.03729 1.458 7.00129 1.719 6.98629 2.098C6.97916 2.3725 6.90236 2.64068 6.76312 2.87736C6.62388 3.11403 6.42677 3.31142 6.1903 3.451C5.94904 3.5851 5.67784 3.65615 5.40183 3.65754C5.12581 3.65894 4.8539 3.59065 4.6113 3.459C4.2733 3.281 4.0283 3.183 3.7863 3.151C3.25689 3.08192 2.72157 3.2242 2.29631 3.547C1.97831 3.789 1.74331 4.193 1.27431 5C0.804314 5.807 0.570315 6.21 0.517315 6.605C0.447316 7.131 0.591315 7.663 0.917314 8.084C1.06531 8.276 1.27431 8.437 1.59731 8.639C2.07431 8.936 2.38031 9.442 2.38031 10C2.38031 10.558 2.07431 11.064 1.59831 11.36C1.27431 11.563 1.06531 11.724 0.916314 11.916C0.755881 12.1242 0.638064 12.362 0.569601 12.6158C0.501138 12.8696 0.48337 13.1343 0.517315 13.395C0.570315 13.789 0.804314 14.193 1.27431 15L1.27992 15.0096C1.74618 15.8102 1.97958 16.211 2.29631 16.453C2.72031 16.776 3.25631 16.918 3.7863 16.849C4.0283 16.817 4.2733 16.719 4.6113 16.541C4.85403 16.4092 5.12612 16.3408 5.40233 16.3422C5.67854 16.3436 5.94992 16.4147 6.1913 16.549C6.6773 16.829 6.96529 17.344 6.98629 17.902C7.00129 18.282 7.03729 18.542 7.13129 18.765C7.33529 19.255 7.72729 19.645 8.22129 19.848C8.59129 20 9.06129 20 10.0003 20C10.9393 20 11.4093 20 11.7793 19.848C12.0234 19.7483 12.2454 19.6012 12.4324 19.4154C12.6195 19.2295 12.768 19.0085 12.8693 18.765C12.9633 18.542 12.9993 18.282 13.0143 17.902C13.0343 17.344 13.3233 16.828 13.8103 16.549C14.0515 16.4149 14.3227 16.3439 14.5987 16.3425C14.8748 16.3411 15.1467 16.4093 15.3893 16.541C15.7273 16.719 15.9723 16.817 16.2143 16.849C16.7443 16.919 17.2803 16.776 17.7043 16.453C18.0223 16.211 18.2573 15.807 18.7263 15C19.1963 14.193 19.4303 13.79 19.4833 13.395C19.5171 13.1343 19.4991 12.8695 19.4305 12.6157C19.3619 12.3619 19.2439 12.1241 19.0833 11.916C18.9353 11.724 18.7263 11.563 18.4033 11.361C17.9263 11.064 17.6203 10.558 17.6203 10C17.6203 9.442 17.9263 8.936 18.4023 8.64C18.7263 8.437 18.9353 8.276 19.0843 8.084C19.2447 7.87579 19.3625 7.63799 19.431 7.38422C19.4994 7.13044 19.5172 6.86565 19.4833 6.605C19.4303 6.211 19.1963 5.807 18.7263 5L18.7206 4.99036C18.2544 4.18979 18.021 3.78903 17.7043 3.547C17.279 3.2242 16.7437 3.08192 16.2143 3.151C15.9723 3.183 15.7273 3.281 15.3893 3.459C15.1465 3.59083 14.8745 3.65922 14.5982 3.65782C14.322 3.65642 14.0506 3.58528 13.8093 3.451C13.573 3.3113 13.3761 3.11385 13.237 2.87719C13.098 2.64052 13.0213 2.37241 13.0143 2.098C12.9993 1.718 12.9633 1.458 12.8693 1.235C12.768 0.991536 12.6195 0.770512 12.4324 0.584647C12.2454 0.398782 12.0234 0.251745 11.7793 0.152ZM7.22638 7.77838C7.43055 7.77126 7.61792 7.88587 7.6965 8.06594L9.2275 11.5744C9.33157 11.8129 9.21346 12.0867 8.9637 12.1861C8.71393 12.2855 8.4271 12.1727 8.32303 11.9342L8.0659 11.345H6.67878L6.48424 11.9022C6.39868 12.1473 6.12123 12.2798 5.86454 12.1981C5.60785 12.1164 5.46912 11.8515 5.55469 11.6064L6.77949 8.09793C6.84409 7.91286 7.0222 7.7855 7.22638 7.77838ZM7.65764 10.4094H7.00539L7.29528 9.57902L7.65764 10.4094ZM10.7962 10.4679H11.5311C11.9046 10.4679 12.2629 10.3262 12.527 10.074C12.7912 9.82174 12.9396 9.47966 12.9396 9.12297C12.9396 8.76628 12.7912 8.4242 12.527 8.17198C12.2629 7.91976 11.9046 7.77807 11.5311 7.77807H10.7349L10.7108 7.77794C10.6307 7.77735 10.4915 7.77631 10.3655 7.81598C10.2469 7.85282 10.1391 7.91572 10.0507 7.99963C9.96159 8.08419 9.8947 8.18768 9.8555 8.30164L9.85435 8.30503C9.81472 8.42328 9.81567 8.5543 9.81623 8.63196L9.81635 8.65518V11.7543C9.81635 12.0127 10.0357 12.2221 10.3063 12.2221C10.5768 12.2221 10.7962 12.0127 10.7962 11.7543V10.4679ZM11.5311 8.71365H10.7962V9.53229H11.5311C11.6448 9.53229 11.7538 9.48917 11.8342 9.4124C11.9146 9.33564 11.9597 9.23153 11.9597 9.12297C11.9597 9.01441 11.9146 8.9103 11.8342 8.83354C11.7538 8.75678 11.6448 8.71365 11.5311 8.71365ZM13.9807 7.77807C14.2512 7.77807 14.4706 7.98751 14.4706 8.24586V11.7543C14.4706 12.0127 14.2512 12.2221 13.9807 12.2221C13.7101 12.2221 13.4907 12.0127 13.4907 11.7543V8.24586C13.4907 7.98751 13.7101 7.77807 13.9807 7.77807Z"
        fill="#574FC1" />
</svg>
