<svg
    width="28"
    height="36"
    viewBox="0 0 28 36"
    fill="none"
    xmlns="http://www.w3.org/2000/svg">
    <path
        fill-rule="evenodd"
        clip-rule="evenodd"
        d="M6.40534 7.92746C6.40534 3.58167 9.77422 0 14 0C18.2258 0 21.5947 3.58167 21.5947 7.92746C21.5947 12.2733 18.2258 15.8549 14 15.8549C9.77422 15.8549 6.40534 12.2733 6.40534 7.92746ZM4.34623 20.8421C6.87584 19.3503 10.2916 18.4663 14 18.4663C17.7084 18.4663 21.1242 19.3503 23.6538 20.8421C26.1524 22.3156 27.9998 24.532 27.9998 27.2332C27.9998 27.2898 27.9998 27.3469 27.9999 27.4044C28.0017 29.353 28.0039 31.7701 25.9728 33.5042C24.9668 34.3631 23.5564 34.9759 21.6484 35.3808C19.7362 35.7866 17.2447 36 14 36C10.7553 36 8.2638 35.7866 6.35159 35.3808C4.44358 34.9759 3.03318 34.3631 2.02719 33.5042C-0.00391396 31.7701 -0.00168729 29.353 0.000107815 27.4044C0.000160718 27.3469 0.000213294 27.2898 0.000213294 27.2332C0.000213294 24.532 1.8476 22.3156 4.34623 20.8421Z"
        fill="#BBC0CE" />
</svg>
