<svg
    width="44"
    height="40"
    viewBox="0 0 44 40"
    fill="none"
    xmlns="http://www.w3.org/2000/svg">
    <path
        d="M38.5 14.6667V28C38.5 30.2057 36.6496 32 34.375 32V33.3333C34.375 35.539 32.5246 37.3333 30.25 37.3333H27.2467C26.6774 38.882 25.1653 40 23.375 40H22C19.7254 40 17.875 38.2057 17.875 36C17.875 33.7943 19.7254 32 22 32H23.375C25.1653 32 26.6771 33.118 27.2467 34.6667H30.25C31.0087 34.6667 31.625 34.069 31.625 33.3333V32C30.1091 32 28.875 30.8033 28.875 29.3333V18.6667C28.875 17.1967 30.1091 16 31.625 16H34.375C34.8593 16 35.3179 16.0963 35.75 16.2457V14.6667C35.75 8.04933 30.1991 2.66667 23.375 2.66667H20.625C13.8009 2.66667 8.25 8.04933 8.25 14.6667V16.2457C8.68209 16.0963 9.14066 16 9.625 16H12.375C13.8909 16 15.125 17.1967 15.125 18.6667V29.3333C15.125 30.8033 13.8909 32 12.375 32H9.625C7.35041 32 5.5 30.2057 5.5 28V14.6667C5.5 6.57933 12.2849 0 20.625 0H23.375C31.7151 0 38.5 6.57933 38.5 14.6667ZM0 22.6667V25.3333C0 27.539 1.85041 29.3333 4.125 29.3333V18.6667C1.85041 18.6667 0 20.461 0 22.6667ZM39.875 18.6667V29.3333C42.1496 29.3333 44 27.539 44 25.3333V22.6667C44 20.461 42.1496 18.6667 39.875 18.6667Z"
        fill="#BBC0CE" />
</svg>
