<svg
    width="18"
    height="18"
    viewBox="0 0 18 18"
    fill="none"
    xmlns="http://www.w3.org/2000/svg">
    <path
        fill-rule="evenodd"
        clip-rule="evenodd"
        d="M4.45508 0C4.80243 0 4.97714 0.000326187 5.14453 0.015625C5.86531 0.0831015 6.54909 0.366135 7.10645 0.828125C7.23601 0.936105 7.35893 1.05815 7.60547 1.30469L8.11523 1.81543C8.30519 2.00515 8.47083 2.16981 8.61914 2.31445C9.03619 2.72118 9.31895 2.96685 9.64062 3.14551C9.88202 3.28005 10.1386 3.38596 10.4043 3.46191C10.8884 3.59956 11.4077 3.59961 12.4453 3.59961H12.7822L13.6162 3.60156C15.4404 3.61103 16.4322 3.68643 17.1055 4.29199C17.1761 4.35576 17.2432 4.42329 17.3066 4.49414C17.9996 5.26364 18 6.44956 18 8.81836V10.7998C18 14.1937 17.9992 15.8905 16.9453 16.9453C15.8914 18.0001 14.1937 18 10.7998 18H7.2002L6.00488 17.998C3.39203 17.9835 1.97765 17.8675 1.05469 16.9453C-0.000112414 15.8914 0 14.1937 0 10.7998V4.45508C0 3.66153 0.000536591 3.26375 0.0634766 2.93262C0.197975 2.22165 0.543025 1.56631 1.05469 1.05469C1.56651 0.543024 2.22147 0.197778 2.93262 0.0634766C3.26375 0.000536591 3.66063 0 4.45508 0ZM9 10.6162C8.07295 10.6162 7.21931 10.838 6.58691 11.2109C5.96226 11.5793 5.5 12.1333 5.5 12.8086C5.5 12.8227 5.50001 12.8373 5.5 12.8516C5.49955 13.3386 5.49924 13.9426 6.00684 14.376C6.25832 14.5907 6.61094 14.7435 7.08789 14.8447C7.56594 14.9462 8.18883 15 9 15C9.81117 15 10.4341 14.9462 10.9121 14.8447C11.3891 14.7435 11.7417 14.5907 11.9932 14.376C12.5008 13.9426 12.5004 13.3386 12.5 12.8516C12.5 12.8373 12.5 12.8227 12.5 12.8086C12.5 12.1333 12.0377 11.5793 11.4131 11.2109C10.7807 10.838 9.92705 10.6162 9 10.6162ZM9 6C7.94369 6 7.10178 6.89519 7.10156 7.98145C7.10156 9.06789 7.94356 9.96387 9 9.96387C10.0564 9.96387 10.8984 9.06789 10.8984 7.98145C10.8982 6.89519 10.0563 6 9 6Z"
        fill="#574FC1" />
    <path
        d="M12.8545 0.900391C13.1829 0.900391 13.3478 0.899991 13.4863 0.917969C14.4025 1.04397 15.1314 1.7669 15.2988 2.7002C15.1618 2.66945 15.0231 2.64475 14.8838 2.62695C14.3079 2.55141 13.5803 2.55176 12.6787 2.55176H12.3789C11.5311 2.55176 11.2085 2.54733 10.916 2.46094C10.7458 2.41057 10.5824 2.33979 10.4287 2.25098C10.1623 2.09799 9.9313 1.86598 9.33203 1.24512L9 0.900391H12.8545Z"
        fill="#574FC1" />
</svg>
