<svg
    width="20"
    height="18"
    viewBox="0 0 20 18"
    fill="none"
    xmlns="http://www.w3.org/2000/svg">
    <path
        d="M17.6744 10.575C17.6744 10.396 17.6009 10.2243 17.4701 10.0977C17.3392 9.97112 17.1618 9.9 16.9767 9.9H14.186C14.001 9.9 13.8236 9.97112 13.6927 10.0977C13.5619 10.2243 13.4884 10.396 13.4884 10.575V16.65H12.093V2.025C12.093 1.3698 12.0912 0.945 12.0484 0.6336C12.0074 0.3411 11.9414 0.2493 11.8884 0.198C11.8353 0.1467 11.7405 0.0828001 11.4381 0.0432001C11.1153 0.00180009 10.6772 0 10 0C9.32279 0 8.88372 0.00180009 8.56186 0.0432001C8.25954 0.0828001 8.16465 0.1467 8.11163 0.198C8.05861 0.2493 7.99256 0.3411 7.95163 0.6336C7.90884 0.9459 7.90698 1.3698 7.90698 2.025V16.65H6.51163V6.075C6.51163 5.89598 6.43812 5.72429 6.30728 5.5977C6.17644 5.47112 5.99899 5.4 5.81395 5.4H3.02326C2.83822 5.4 2.66076 5.47112 2.52993 5.5977C2.39909 5.72429 2.32558 5.89598 2.32558 6.075V16.65H0.697674C0.51264 16.65 0.335183 16.7211 0.204344 16.8477C0.0735048 16.9743 0 17.146 0 17.325C0 17.504 0.0735048 17.6757 0.204344 17.8023C0.335183 17.9289 0.51264 18 0.697674 18H19.3023C19.4874 18 19.6648 17.9289 19.7957 17.8023C19.9265 17.6757 20 17.504 20 17.325C20 17.146 19.9265 16.9743 19.7957 16.8477C19.6648 16.7211 19.4874 16.65 19.3023 16.65H17.6744V10.575Z"
        fill="#574FC1" />
</svg>
