<svg
    width="18"
    height="18"
    viewBox="0 0 18 18"
    fill="none"
    xmlns="http://www.w3.org/2000/svg">
    <path
        d="M5.175 0.666667C5.175 0.489856 5.10388 0.320286 4.9773 0.195262C4.85071 0.0702379 4.67902 0 4.5 0C4.32098 0 4.14929 0.0702379 4.0227 0.195262C3.89612 0.320286 3.825 0.489856 3.825 0.666667V2.07111C2.529 2.17333 1.6794 2.424 1.0548 3.04178C0.4293 3.65867 0.1755 4.49867 0.0711 5.77778H17.9289C17.8245 4.49778 17.5707 3.65867 16.9452 3.04178C16.3206 2.424 15.4701 2.17333 14.175 2.07022V0.666667C14.175 0.489856 14.1039 0.320286 13.9773 0.195262C13.8507 0.0702379 13.679 0 13.5 0C13.321 0 13.1493 0.0702379 13.0227 0.195262C12.8961 0.320286 12.825 0.489856 12.825 0.666667V2.01156C12.2265 2 11.5551 2 10.8 2H7.2C6.4449 2 5.7735 2 5.175 2.01156V0.666667Z"
        fill="#574FC1" />
    <path
        fill-rule="evenodd"
        clip-rule="evenodd"
        d="M18 9.11111V10.8889C18 14.2409 18 15.9173 16.9452 16.9582C15.8904 17.9991 14.1939 18 10.8 18H7.2C3.8061 18 2.1087 18 1.0548 16.9582C0.000899935 15.9164 0 14.2409 0 10.8889V9.11111C0 8.36533 1.00583e-08 7.70222 0.0117 7.11111H17.9883C18 7.70222 18 8.36533 18 9.11111ZM13.05 14.4444C13.408 14.4444 13.7514 14.304 14.0046 14.0539C14.2578 13.8039 14.4 13.4647 14.4 13.1111C14.4 12.7575 14.2578 12.4184 14.0046 12.1683C13.7514 11.9183 13.408 11.7778 13.05 11.7778C12.692 11.7778 12.3486 11.9183 12.0954 12.1683C11.8422 12.4184 11.7 12.7575 11.7 13.1111C11.7 13.4647 11.8422 13.8039 12.0954 14.0539C12.3486 14.304 12.692 14.4444 13.05 14.4444Z"
        fill="#574FC1" />
</svg>
