<svg
    width="20"
    height="20"
    viewBox="0 0 20 20"
    fill="none"
    xmlns="http://www.w3.org/2000/svg">
    <path
        d="M5.5 2.38462V1M14.5 2.38462V1M1.45 7H18.55M1 9.76923C1 6.28831 1 4.54738 2.0548 3.46646C3.1096 2.38554 4.8061 2.38462 8.2 2.38462H11.8C15.1939 2.38462 16.8913 2.38462 17.9452 3.46646C18.9991 4.54831 19 6.28831 19 9.76923V11.6154C19 15.0963 19 16.8372 17.9452 17.9182C16.8904 18.9991 15.1939 19 11.8 19H8.2C4.8061 19 3.1087 19 2.0548 17.9182C1.0009 16.8363 1 15.0963 1 11.6154V9.76923ZM15.4 13.9231C15.4 14.6878 14.7956 15.3077 14.05 15.3077C13.3044 15.3077 12.7 14.6878 12.7 13.9231C12.7 13.1584 13.3044 12.5385 14.05 12.5385C14.7956 12.5385 15.4 13.1584 15.4 13.9231Z"
        stroke="#574FC1"
        stroke-width="1.3"
        stroke-linecap="round" />
</svg>
