<svg
    width="20"
    height="20"
    viewBox="0 0 20 20"
    fill="none"
    xmlns="http://www.w3.org/2000/svg">
    <path
        fill-rule="evenodd"
        clip-rule="evenodd"
        d="M9.02765 0.501692C11.2748 0.457384 13.4517 1.28463 15.1025 2.80992C16.7534 4.33527 17.7498 6.44063 17.8829 8.68438C18.0159 10.9279 17.2756 13.1358 15.8169 14.8455L19.2996 18.3283C19.4282 18.457 19.4999 18.6316 19.5 18.8135C19.5 18.9955 19.4283 19.1708 19.2996 19.2996C19.1709 19.4282 18.9963 19.4999 18.8144 19.5C18.6323 19.5 18.4571 19.4283 18.3283 19.2996L14.8455 15.8169C13.1358 17.2756 10.9279 18.0159 8.68438 17.8829C6.44063 17.7498 4.33527 16.7534 2.80991 15.1025C1.28464 13.4517 0.457398 11.2748 0.501691 9.02764C0.546081 6.7804 1.45807 4.63678 3.04742 3.04742C4.63678 1.45805 6.78038 0.546082 9.02765 0.501692ZM9.05084 9.1733C8.04427 9.1733 7.11658 9.40679 6.42997 9.80045C5.7519 10.1893 5.25087 10.7744 5.2508 11.4871C5.2508 11.502 5.25082 11.5174 5.2508 11.5325C5.25032 12.0468 5.2497 12.6846 5.80096 13.1422C6.074 13.3688 6.45673 13.5308 6.97455 13.6376C7.49358 13.7447 8.17013 13.8009 9.05084 13.8009C9.93147 13.8009 10.6081 13.7447 11.1271 13.6376C11.6448 13.5307 12.0277 13.3688 12.3007 13.1422C12.8519 12.6846 12.8514 12.0467 12.8509 11.5325C12.8509 11.5174 12.8509 11.502 12.8509 11.4871C12.8508 10.7743 12.3489 10.1893 11.6708 9.80045C10.9842 9.4069 10.0572 9.17332 9.05084 9.1733ZM9.05084 4.3008C7.90383 4.3008 6.98939 5.24604 6.98939 6.39286C6.98952 7.53957 7.90391 8.48492 9.05084 8.48492C10.1977 8.48483 11.1122 7.53951 11.1123 6.39286C11.1123 5.24609 10.1978 4.30089 9.05084 4.3008Z"
        fill="#574FC1" />
</svg>
