<svg
    width="20"
    height="16"
    viewBox="0 0 20 16"
    fill="none"
    xmlns="http://www.w3.org/2000/svg">
    <path
        d="M8.00025 0H11.0002C14.7712 0 16.6572 0 17.8282 1.172C18.6722 2.015 18.9083 3.229 18.9743 5.25H0.0262501C0.09225 3.229 0.32825 2.015 1.17225 1.172C2.34325 0 4.22925 0 8.00025 0Z"
        fill="#574FC1" />
    <path
        fill-rule="evenodd"
        clip-rule="evenodd"
        d="M11.0002 16H8.00025C4.22925 16 2.34425 15.999 1.17225 14.828C0.000249743 13.657 0.000250028 11.771 0.000250028 8C-0.000416709 7.55867 0.000250028 7.142 0.00225012 6.75H18.9982C18.9992 7.02377 18.9998 7.30958 19.0001 7.60741C18.4945 7.64878 18.0004 7.86286 17.6135 8.24967L17.0002 8.86299L16.3869 8.24967C15.5206 7.38341 14.1162 7.38341 13.2499 8.24967C12.3837 9.11592 12.3837 10.5204 13.2499 11.3866L13.8632 12L13.2499 12.6133C12.3837 13.4796 12.3837 14.884 13.2499 15.7503C13.3352 15.8356 13.4257 15.9125 13.5205 15.981C12.7885 16 11.9548 16 11.0002 16ZM3.25025 12C3.25025 11.8011 3.32927 11.6103 3.46992 11.4697C3.61057 11.329 3.80134 11.25 4.00025 11.25H8.00025C8.19916 11.25 8.38993 11.329 8.53058 11.4697C8.67123 11.6103 8.75025 11.8011 8.75025 12C8.75025 12.1989 8.67123 12.3897 8.53058 12.5303C8.38993 12.671 8.19916 12.75 8.00025 12.75H4.00025C3.80134 12.75 3.61057 12.671 3.46992 12.5303C3.32927 12.3897 3.25025 12.1989 3.25025 12Z"
        fill="#574FC1" />
    <path
        fill-rule="evenodd"
        clip-rule="evenodd"
        d="M14.2399 9.23964C14.5594 8.92012 15.0774 8.92012 15.397 9.23964L17.0002 10.8429L18.6035 9.23964C18.923 8.92012 19.4411 8.92012 19.7606 9.23964C20.0801 9.55916 20.0801 10.0772 19.7606 10.3967L18.1573 12L19.7606 13.6033C20.0801 13.9228 20.0801 14.4408 19.7606 14.7604C19.4411 15.0799 18.923 15.0799 18.6035 14.7604L17.0002 13.1571L15.397 14.7604C15.0774 15.0799 14.5594 15.0799 14.2399 14.7604C13.9204 14.4408 13.9204 13.9228 14.2399 13.6033L15.8432 12L14.2399 10.3967C13.9204 10.0772 13.9204 9.55916 14.2399 9.23964Z"
        fill="#574FC1" />
</svg>
