<svg
    width="20"
    height="16"
    viewBox="0 0 20 16"
    fill="none"
    xmlns="http://www.w3.org/2000/svg">
    <path
        d="M11.7076 0H7.80512C4.1261 0 2.2861 0 1.14366 1.10306C0.320244 1.89647 0.09 3.03906 0.0256098 4.94118H19.4871C19.4227 3.03906 19.1924 1.89647 18.369 1.10306C17.2266 0 15.3866 0 11.7076 0Z"
        fill="#574FC1" />
    <path
        fill-rule="evenodd"
        clip-rule="evenodd"
        d="M7.80512 15.0588H11.7076C11.7805 15.0588 11.8527 15.0588 11.9242 15.0588C11.856 14.9742 11.7912 14.883 11.7313 14.7844C11.4839 14.3777 11.3919 13.9668 11.3522 13.5837C11.3169 13.2444 11.317 12.8473 11.3171 12.4387V12.0318C11.317 11.6231 11.3169 11.2261 11.3522 10.8868C11.3919 10.5035 11.484 10.0931 11.7309 9.68668C11.9772 9.2817 12.3031 9.00287 12.6287 8.78108C12.9194 8.58302 13.2806 8.38499 13.6554 8.17953L14.0172 7.98116C14.3923 7.77526 14.7536 7.57686 15.0797 7.43662C15.4449 7.27952 15.8573 7.15292 16.3414 7.15292C16.8261 7.15292 17.2385 7.2799 17.6033 7.43692C17.9264 7.57598 18.2848 7.77248 18.6567 7.97628L19.0322 8.18214C19.1962 8.2721 19.3576 8.36067 19.5116 8.44845C19.5124 8.15604 19.5124 7.84997 19.5124 7.52941C19.5124 7.11404 19.5118 6.72188 19.5105 6.35294H0.0021952C0.000243979 6.72188 -0.000406518 7.11404 0.000243888 7.52941C0.000243888 11.0786 0.000243768 12.8536 1.14366 13.9558C2.28707 15.0579 4.1261 15.0588 7.80512 15.0588ZM3.17097 11.2941C3.17097 11.1069 3.24806 10.9274 3.38528 10.795C3.5225 10.6626 3.70862 10.5882 3.90268 10.5882H7.80512C7.99918 10.5882 8.18529 10.6626 8.32251 10.795C8.45973 10.9274 8.53682 11.1069 8.53682 11.2941C8.53682 11.4813 8.45973 11.6609 8.32251 11.7933C8.18529 11.9256 7.99918 12 7.80512 12H3.90268C3.70862 12 3.5225 11.9256 3.38528 11.7933C3.24806 11.6609 3.17097 11.4813 3.17097 11.2941Z"
        fill="#574FC1" />
    <path
        fill-rule="evenodd"
        clip-rule="evenodd"
        d="M16.3415 8.47059C15.8886 8.47059 15.476 8.69647 14.6516 9.14899L14.3728 9.30184C13.5476 9.75435 13.1358 9.98061 12.9093 10.3529C12.6829 10.7256 12.6829 11.1774 12.6829 12.0824V12.3881C12.6829 13.2928 12.6829 13.7453 12.9093 14.1176C13.1358 14.49 13.5476 14.7162 14.3728 15.1684L14.6516 15.3216C15.476 15.7737 15.8886 16 16.3415 16C16.7943 16 17.2065 15.7741 18.0313 15.3216L18.3102 15.1684C19.1346 14.7166 19.5472 14.49 19.7736 14.1176C20 13.7449 20 13.2932 20 12.3881V12.0824C20 11.1778 20 10.7253 19.7736 10.3529C19.5472 9.98061 19.1346 9.75435 18.3102 9.30184L18.0313 9.14899C17.2061 8.69685 16.7943 8.47059 16.3415 8.47059ZM14.8171 12.2353C14.8171 11.8609 14.9777 11.5018 15.2636 11.237C15.5494 10.9723 15.9372 10.8235 16.3415 10.8235C16.7458 10.8235 17.1335 10.9723 17.4194 11.237C17.7052 11.5018 17.8659 11.8609 17.8659 12.2353C17.8659 12.6097 17.7052 12.9688 17.4194 13.2336C17.1335 13.4983 16.7458 13.6471 16.3415 13.6471C15.9372 13.6471 15.5494 13.4983 15.2636 13.2336C14.9777 12.9688 14.8171 12.6097 14.8171 12.2353Z"
        fill="#574FC1" />
</svg>
