<svg
    width="20"
    height="16"
    viewBox="0 0 20 16"
    fill="none"
    xmlns="http://www.w3.org/2000/svg">
    <path
        d="M12 0H8C4.229 0 2.343 -1.19209e-07 1.172 1.172C0.328 2.015 0.092 3.229 0.026 5.25H19.974C19.908 3.229 19.672 2.015 18.828 1.172C17.657 -1.19209e-07 15.771 0 12 0Z"
        fill="#574FC1" />
    <path
        fill-rule="evenodd"
        clip-rule="evenodd"
        d="M12 16H8C4.229 16 2.343 16 1.172 14.828C0.000999928 13.656 0 11.771 0 8C0 7.55867 0.00066676 7.142 0.00200009 6.75H19.998C19.9993 7.142 20 7.55867 20 8C20 11.771 20 13.657 18.828 14.828C17.656 15.999 15.771 16 12 16ZM14.045 8.25C14.478 8.25 14.875 8.25 15.197 8.293C15.553 8.341 15.928 8.453 16.237 8.763C16.546 9.073 16.659 9.447 16.707 9.803C16.75 10.126 16.75 10.523 16.75 10.955V11.045C16.75 11.478 16.75 11.875 16.707 12.197C16.659 12.553 16.547 12.928 16.237 13.237C15.927 13.546 15.553 13.659 15.197 13.707C14.874 13.75 14.477 13.75 14.045 13.75H13.955C13.522 13.75 13.125 13.75 12.803 13.707C12.447 13.659 12.072 13.547 11.763 13.237C11.454 12.927 11.341 12.553 11.293 12.197C11.25 11.874 11.25 11.477 11.25 11.045V10.955C11.25 10.522 11.25 10.125 11.293 9.803C11.341 9.447 11.453 9.072 11.763 8.763C12.073 8.454 12.447 8.341 12.803 8.293C13.126 8.25 13.523 8.25 13.955 8.25H14.045ZM3.25 9.5C3.25 9.30109 3.32902 9.11032 3.46967 8.96967C3.61032 8.82902 3.80109 8.75 4 8.75H6C6.19891 8.75 6.38968 8.82902 6.53033 8.96967C6.67098 9.11032 6.75 9.30109 6.75 9.5C6.75 9.69891 6.67098 9.88968 6.53033 10.0303C6.38968 10.171 6.19891 10.25 6 10.25H4C3.80109 10.25 3.61032 10.171 3.46967 10.0303C3.32902 9.88968 3.25 9.69891 3.25 9.5ZM3.25 12.5C3.25 12.3011 3.32902 12.1103 3.46967 11.9697C3.61032 11.829 3.80109 11.75 4 11.75H8C8.19891 11.75 8.38968 11.829 8.53033 11.9697C8.67098 12.1103 8.75 12.3011 8.75 12.5C8.75 12.6989 8.67098 12.8897 8.53033 13.0303C8.38968 13.171 8.19891 13.25 8 13.25H4C3.80109 13.25 3.61032 13.171 3.46967 13.0303C3.32902 12.8897 3.25 12.6989 3.25 12.5Z"
        fill="#574FC1" />
    <path
        d="M12.823 9.823L12.826 9.822L12.836 9.817C12.8899 9.79789 12.946 9.78546 13.003 9.78C13.213 9.752 13.507 9.75 14 9.75C14.493 9.75 14.787 9.752 14.997 9.78C15.0576 9.78624 15.1171 9.80036 15.174 9.822L15.177 9.823L15.178 9.826L15.183 9.836C15.192 9.858 15.207 9.906 15.22 10.003C15.248 10.213 15.25 10.507 15.25 11C15.25 11.493 15.248 11.787 15.22 11.997C15.2138 12.0576 15.1996 12.1171 15.178 12.174L15.177 12.177L15.174 12.178L15.164 12.183C15.1101 12.2021 15.054 12.2145 14.997 12.22C14.787 12.248 14.493 12.25 14 12.25C13.507 12.25 13.213 12.248 13.003 12.22C12.9424 12.2138 12.8829 12.1996 12.826 12.178L12.823 12.177L12.822 12.174L12.817 12.164C12.7979 12.1101 12.7855 12.054 12.78 11.997C12.752 11.787 12.75 11.493 12.75 11C12.75 10.507 12.752 10.213 12.78 10.003C12.7862 9.94242 12.8004 9.88292 12.822 9.826L12.823 9.823Z"
        fill="#574FC1" />
</svg>
