<svg
    width="20"
    height="16"
    viewBox="0 0 20 16"
    fill="none"
    xmlns="http://www.w3.org/2000/svg">
    <path
        d="M8.00025 0H11.2505C15.0215 0 16.9075 0 18.0785 1.172C18.9225 2.015 19.1585 3.229 19.2245 5.25H0.0262501C0.09225 3.229 0.32825 2.015 1.17225 1.172C2.34325 0 4.22925 0 8.00025 0Z"
        fill="#574FC1" />
    <path
        fill-rule="evenodd"
        clip-rule="evenodd"
        d="M11.2505 16H8.00025C4.22925 16 2.34425 15.999 1.17225 14.828C0.000249743 13.657 0.000250028 11.771 0.000250028 8C-0.000416709 7.55867 0.000250028 7.142 0.00225012 6.75H19.2485C19.2499 7.142 19.2505 7.55867 19.2505 8C19.2505 8.33409 19.2505 8.65338 19.2497 8.95868L18.7838 8.49275C18.5912 8.292 18.3615 8.13046 18.1072 8.01717C17.8435 7.89965 17.5588 7.83647 17.2701 7.83138C16.9814 7.82628 16.6947 7.87938 16.427 7.98752C16.1592 8.09565 15.9161 8.2566 15.7119 8.46076C15.5077 8.66492 15.3468 8.90811 15.2386 9.17583C15.1517 9.39112 15.1003 9.61873 15.0862 9.84975H13.2509C12.6807 9.84975 12.1338 10.0763 11.7306 10.4795C11.3274 10.8827 11.1009 11.4295 11.1009 11.9997C11.1009 12.57 11.3274 13.1168 11.7306 13.52C12.1338 13.9232 12.6807 14.1497 13.2509 14.1497H15.0862C15.1003 14.3808 15.1517 14.6084 15.2386 14.8237C15.3468 15.0914 15.5077 15.3346 15.7119 15.5387C15.8065 15.6334 15.9096 15.7188 16.0196 15.7939C14.8844 16 13.3633 16 11.2505 16ZM3.25025 12C3.25025 11.8011 3.32927 11.6103 3.46992 11.4697C3.61057 11.329 3.80134 11.25 4.00025 11.25H8.00025C8.19916 11.25 8.38993 11.329 8.53058 11.4697C8.67123 11.6103 8.75025 11.8011 8.75025 12C8.75025 12.1989 8.67123 12.3897 8.53058 12.5303C8.38993 12.671 8.19916 12.75 8.00025 12.75H4.00025C3.80134 12.75 3.61057 12.671 3.46992 12.5303C3.32927 12.3897 3.25025 12.1989 3.25025 12Z"
        fill="#574FC1" />
    <path
        fill-rule="evenodd"
        clip-rule="evenodd"
        d="M19.7809 12.5297C19.9214 12.3891 20.0002 12.1985 20.0002 11.9997C20.0002 11.801 19.9214 11.6103 19.7809 11.4697L17.7809 9.46972C17.7122 9.39604 17.6294 9.33694 17.5374 9.29594C17.4454 9.25495 17.3461 9.23291 17.2454 9.23113C17.1447 9.22936 17.0447 9.24788 16.9513 9.2856C16.8579 9.32332 16.7731 9.37947 16.7019 9.45069C16.6306 9.52191 16.5745 9.60674 16.5368 9.70013C16.4991 9.79352 16.4805 9.89354 16.4823 9.99425C16.4841 10.095 16.5061 10.1943 16.5471 10.2863C16.5881 10.3783 16.6472 10.4611 16.7209 10.5297L17.4409 11.2497H13.2509C13.052 11.2497 12.8612 11.3287 12.7206 11.4694C12.5799 11.61 12.5009 11.8008 12.5009 11.9997C12.5009 12.1986 12.5799 12.3894 12.7206 12.5301C12.8612 12.6707 13.052 12.7497 13.2509 12.7497H17.4409L16.7209 13.4697C16.6472 13.5384 16.5881 13.6212 16.5471 13.7132C16.5061 13.8052 16.4841 13.9045 16.4823 14.0052C16.4805 14.1059 16.4991 14.2059 16.5368 14.2993C16.5745 14.3927 16.6306 14.4775 16.7019 14.5488C16.7731 14.62 16.8579 14.6761 16.9513 14.7138C17.0447 14.7516 17.1447 14.7701 17.2454 14.7683C17.3461 14.7665 17.4454 14.7445 17.5374 14.7035C17.6294 14.6625 17.7122 14.6034 17.7809 14.5297L19.7809 12.5297Z"
        fill="#574FC1" />
</svg>
