<svg
    width="18"
    height="20"
    viewBox="0 0 18 20"
    fill="none"
    xmlns="http://www.w3.org/2000/svg">
    <path
        d="M10.9251 5.25C12.7577 5.25 14.0694 5.25134 15.0664 5.38639C16.0455 5.51901 16.627 5.77006 17.0549 6.20138C17.2668 6.41495 17.4349 6.66632 17.5666 6.98525C14.9055 8.72526 13.601 9.55158 12.2421 9.977C10.1308 10.6376 7.87015 10.6376 5.75888 9.97699C4.39898 9.55155 3.0942 8.72595 0.432884 6.98505C0.564602 6.66621 0.732722 6.41504 0.944685 6.20176C1.37324 5.77053 1.95506 5.51947 2.934 5.38674C3.93093 5.25158 5.24235 5.25 7.07487 5.25H10.9251Z"
        fill="#574FC1" />
    <path
        d="M12.6134 11.1804C14.0909 10.7179 15.4893 9.84409 17.8747 8.28632C17.9985 9.28007 18 10.579 18 12.375C18 14.2206 17.9987 15.5415 17.8646 16.5457C17.7329 17.5317 17.4836 18.1173 17.0553 18.5482C16.6268 18.9795 16.0449 19.2305 15.066 19.3633C14.0691 19.4984 12.7576 19.5 10.9251 19.5H7.07487C5.24225 19.5 3.93064 19.4987 2.93356 19.3636C1.95447 19.231 1.37298 18.9799 0.945063 18.5486C0.516872 18.117 0.267575 17.5311 0.135783 16.5452C0.00156922 15.5412 0 14.2205 0 12.375C0 10.5792 0.00125889 9.28012 0.12487 8.28629C2.51069 9.84489 3.90912 10.7179 5.38762 11.1805C7.74071 11.9167 10.2603 11.9167 12.6134 11.1804Z"
        fill="#574FC1" />
    <path
        fill-rule="evenodd"
        clip-rule="evenodd"
        d="M7.0902 3.24756C7.22995 2.84588 7.48863 2.49814 7.83064 2.25219C8.17265 2.00625 8.58118 1.87419 9 1.87419C9.41882 1.87419 9.82735 2.00625 10.1694 2.25219C10.5114 2.49814 10.7701 2.84588 10.9098 3.24756C10.9383 3.33396 10.9834 3.41374 11.0424 3.48223C11.1015 3.55072 11.1734 3.60657 11.2539 3.64651C11.3344 3.68645 11.422 3.70969 11.5114 3.71487C11.6008 3.72006 11.6904 3.70708 11.7748 3.6767C11.8593 3.64632 11.9369 3.59914 12.0033 3.53792C12.0696 3.4767 12.1233 3.40265 12.1613 3.3201C12.1992 3.23755 12.2206 3.14814 12.2242 3.05708C12.2279 2.96603 12.2136 2.87515 12.1824 2.78975C11.9497 2.12011 11.5187 1.54034 10.9487 1.13027C10.3786 0.720196 9.69768 0.5 8.99955 0.5C8.30142 0.5 7.62046 0.720196 7.05045 1.13027C6.48043 1.54034 6.0494 2.12011 5.8167 2.78975C5.78715 2.87482 5.77436 2.96498 5.77907 3.05508C5.78377 3.14518 5.80587 3.23345 5.8441 3.31486C5.88234 3.39627 5.93596 3.46922 6.0019 3.52955C6.06785 3.58988 6.14483 3.6364 6.22845 3.66646C6.39733 3.72717 6.58299 3.71715 6.7446 3.63859C6.90621 3.56003 7.03053 3.41937 7.0902 3.24756Z"
        fill="#574FC1" />
</svg>
