<svg
    width="22"
    height="20"
    viewBox="0 0 22 20"
    fill="none"
    xmlns="http://www.w3.org/2000/svg">
    <path
        d="M11.7308 19H13.1923M13.1923 19H16.1154M13.1923 19V16.0811M16.1154 19H19.0385M16.1154 19V12.1892M19.0385 19H20.5M19.0385 19V14.1351M18.0641 9.27027C18.0641 4.70273 14.3561 1 9.78205 1C5.208 1 1.5 4.70273 1.5 9.27027C1.5 13.3398 4.44352 16.7229 8.32051 17.4122M9.78205 13.4054V14.2324M9.78205 13.4054C11.1544 13.4054 12.2667 12.4791 12.2667 11.3378C12.2667 10.1965 11.1544 9.27027 9.78205 9.27027C8.40972 9.27027 7.29744 8.344 7.29744 7.2027C7.29744 6.06141 8.40972 5.13514 9.78205 5.13514M9.78205 13.4054C8.40972 13.4054 7.29744 12.4791 7.29744 11.3378M9.78205 4.30811V5.13514M9.78205 5.13514C11.1544 5.13514 12.2667 6.06141 12.2667 7.2027"
        stroke="#574FC1"
        stroke-width="1.3"
        stroke-linecap="round" />
</svg>
