<svg
    width="20"
    height="22"
    viewBox="0 0 20 22"
    fill="none"
    xmlns="http://www.w3.org/2000/svg">
    <path
        d="M9.16383 21C1 21 1 18.985 1 16.5C1 14.015 4.65535 12 9.16383 12C9.81619 12 10.4507 12.0422 11.0588 12.1219M13.2457 5C13.2457 7.20914 11.4182 9 9.16383 9C6.90945 9 5.08191 7.20914 5.08191 5C5.08191 2.79086 6.90945 1 9.16383 1C11.4182 1 13.2457 2.79086 13.2457 5ZM13.5592 13.9822C14.0956 13.026 14.3638 12.55 14.7647 12.55C15.1656 12.55 15.4338 13.026 15.9702 13.9822L16.1086 14.2286C16.261 14.5002 16.3373 14.6346 16.4558 14.7242C16.5758 14.8138 16.7241 14.8474 17.0205 14.9132L17.2887 14.9748C18.3305 15.2086 18.8514 15.3248 18.9756 15.7195C19.0998 16.1143 18.7441 16.5273 18.034 17.3505L17.8505 17.5633C17.6487 17.7971 17.547 17.9133 17.5019 18.0589C17.4567 18.2045 17.4722 18.3599 17.5019 18.6721L17.5301 18.9563C17.6374 20.0553 17.691 20.6055 17.3678 20.8491C17.0431 21.0941 16.5547 20.8701 15.5792 20.4249L15.3279 20.3101C15.0499 20.1841 14.9115 20.1197 14.7647 20.1197C14.6179 20.1197 14.4796 20.1841 14.2015 20.3101L13.9502 20.4249C12.9748 20.8701 12.4863 21.0941 12.1617 20.8491C11.837 20.6055 11.892 20.0553 11.9993 18.9563L12.0275 18.6721C12.0572 18.3599 12.0727 18.2045 12.0275 18.0589C11.9824 17.9133 11.8807 17.7971 11.6789 17.5633L11.4954 17.3505C10.7853 16.5273 10.4296 16.1157 10.5538 15.7195C10.678 15.3248 11.1989 15.2086 12.2407 14.9748L12.5089 14.9132C12.8054 14.8474 12.9536 14.8152 13.0736 14.7242C13.1921 14.6346 13.2684 14.5002 13.4208 14.2286L13.5592 13.9822Z"
        stroke="#574FC1"
        stroke-width="1.3"
        stroke-linecap="round" />
</svg>
