<svg
    width="20"
    height="20"
    viewBox="0 0 20 20"
    fill="none"
    xmlns="http://www.w3.org/2000/svg">
    <path
        d="M10.65 6.4C10.65 6.04101 10.359 5.75 10 5.75C9.64102 5.75 9.35 6.04101 9.35 6.4H10.65ZM10 10H9.35C9.35 10.1724 9.41848 10.3377 9.54038 10.4596L10 10ZM11.7904 12.7096C12.0442 12.9635 12.4558 12.9635 12.7096 12.7096C12.9635 12.4558 12.9635 12.0442 12.7096 11.7904L11.7904 12.7096ZM18.35 10C18.35 14.6116 14.6116 18.35 10 18.35V19.65C15.3295 19.65 19.65 15.3295 19.65 10H18.35ZM10 18.35C5.38842 18.35 1.65 14.6116 1.65 10H0.35C0.35 15.3295 4.67045 19.65 10 19.65V18.35ZM1.65 10C1.65 5.38842 5.38842 1.65 10 1.65V0.35C4.67045 0.35 0.35 4.67045 0.35 10H1.65ZM10 1.65C14.6116 1.65 18.35 5.38842 18.35 10H19.65C19.65 4.67045 15.3295 0.35 10 0.35V1.65ZM9.35 6.4V10H10.65V6.4H9.35ZM9.54038 10.4596L11.7904 12.7096L12.7096 11.7904L10.4596 9.54038L9.54038 10.4596Z"
        fill="#574FC1" />
</svg>
