<svg
    width="16"
    height="16"
    viewBox="0 0 16 16"
    fill="none"
    xmlns="http://www.w3.org/2000/svg">
    <path
        d="M5.33883 5.33835L5.33835 5.33883C5.13002 5.54743 5.01299 5.83019 5.01299 6.125C5.01299 6.41981 5.13002 6.70257 5.33835 6.91117L5.33859 6.91141L6.42718 8L5.33859 9.08859L5.33173 9.09545L5.32511 9.10255C5.1286 9.31344 5.02162 9.59238 5.0267 9.88059C5.03179 10.1688 5.14855 10.4438 5.35238 10.6476L5.74128 10.2587L5.35238 10.6476C5.5562 10.8515 5.83119 10.9682 6.11941 10.9733C6.40762 10.9784 6.68656 10.8714 6.89745 10.6749L6.90455 10.6683L6.91141 10.6614L8 9.57282L9.08859 10.6614L9.09545 10.6683L9.10255 10.6749C9.31344 10.8714 9.59238 10.9784 9.88059 10.9733C10.1688 10.9682 10.4438 10.8515 10.6476 10.6476L10.2587 10.2587L10.6476 10.6476C10.8515 10.4438 10.9682 10.1688 10.9733 9.88059C10.9784 9.59238 10.8714 9.31344 10.6749 9.10255L10.6683 9.09545L10.6614 9.08859L9.57282 8L10.6614 6.91141L10.6683 6.90455L10.6749 6.89745C10.8714 6.68656 10.9784 6.40762 10.9733 6.11941C10.9682 5.83119 10.8515 5.5562 10.6476 5.35238L10.2587 5.74128L10.6476 5.35238C10.4438 5.14855 10.1688 5.03179 9.8806 5.0267C9.59238 5.02162 9.31344 5.1286 9.10255 5.32511L9.09545 5.33173L9.08859 5.33859L8 6.42718L6.91141 5.33859L6.91117 5.33835C6.70257 5.13002 6.41981 5.01299 6.125 5.01299C5.83019 5.01299 5.54743 5.13002 5.33883 5.33835ZM14.95 8C14.95 11.8385 11.8385 14.95 8 14.95C4.16151 14.95 1.05 11.8385 1.05 8C1.05 4.16151 4.16151 1.05 8 1.05C11.8385 1.05 14.95 4.16151 14.95 8Z"
        fill="#574FC1"
        stroke="#574FC1"
        stroke-width="1.1" />
</svg>
