<svg
    width="18"
    height="20"
    viewBox="0 0 18 20"
    fill="none"
    xmlns="http://www.w3.org/2000/svg">
    <path
        d="M17.3989 7.80343C17.5158 8.73991 17.5 9.81867 17.5 11.511C17.5 13.2503 17.4985 14.4954 17.3718 15.4417C17.2475 16.3705 17.0123 16.9223 16.6081 17.3283C16.2034 17.7347 15.6537 17.9714 14.7294 18.0965C14.2817 18.1571 13.7663 18.1881 13.1633 18.2052C13.3105 17.7594 13.392 17.2829 13.392 16.7869C13.392 14.3234 11.4255 12.326 9 12.326C6.57455 12.326 4.60796 14.3234 4.60796 16.7869C4.60796 17.2828 4.68868 17.7595 4.83577 18.2052C4.233 18.1882 3.71822 18.1579 3.27062 18.0974C2.34606 17.9725 1.79693 17.7357 1.3928 17.3293C0.988392 16.9225 0.752671 16.3699 0.628201 15.4407C0.50149 14.4946 0.5 13.25 0.5 11.511C0.5 9.81879 0.518324 8.74 0.635025 7.80343C2.88814 9.27219 4.20904 10.0945 5.60535 10.5304C7.82769 11.2242 10.2072 11.2242 12.4295 10.5304C13.8249 10.0945 15.146 9.27151 17.3989 7.80343Z"
        fill="#574FC1" />
    <path
        d="M10.8179 4.79625C12.5486 4.79625 13.7877 4.79732 14.7294 4.92459C15.6539 5.04955 16.2031 5.28636 16.6072 5.69274C16.8073 5.89402 16.9661 6.13129 17.0905 6.43185C14.5774 8.07156 13.3454 8.85061 12.0621 9.25152C10.0681 9.8741 7.93282 9.87409 5.93886 9.25152C4.65452 8.85058 3.42204 8.07251 0.908583 6.43185C1.0329 6.13157 1.19187 5.89459 1.39187 5.69368C1.79656 5.28734 2.34632 5.05063 3.27062 4.92553C4.21217 4.79814 5.45142 4.79625 7.18213 4.79625H10.8179Z"
        fill="#574FC1" />
    <path
        d="M8.99816 0C9.81619 8.23077e-05 10.6139 0.263097 11.2818 0.752225C11.9498 1.24142 12.4552 1.9328 12.728 2.73162C12.7646 2.83351 12.7811 2.94242 12.7769 3.05105C12.7726 3.15962 12.7475 3.26644 12.7031 3.36487C12.6587 3.46312 12.5961 3.55144 12.5186 3.62436C12.4409 3.6974 12.3492 3.75392 12.2502 3.79016C12.1513 3.82636 12.046 3.84225 11.9412 3.83607C11.8366 3.82983 11.7339 3.80216 11.6396 3.75457C11.5453 3.70692 11.4617 3.63953 11.3925 3.55785C11.3232 3.47613 11.27 3.38084 11.2366 3.27775C11.0728 2.79868 10.7694 2.38423 10.3687 2.09087C9.96787 1.79743 9.48902 1.63934 8.99816 1.63934C8.50734 1.63937 8.0284 1.79746 7.6276 2.09087C7.22697 2.38424 6.92348 2.79872 6.75971 3.27775C6.68978 3.48272 6.5442 3.65053 6.35482 3.74426C6.16541 3.83799 5.94771 3.85042 5.74978 3.77799C5.65186 3.74212 5.5614 3.68691 5.48416 3.61499C5.40687 3.54301 5.34451 3.45545 5.2997 3.35831C5.25489 3.26119 5.22865 3.15573 5.22314 3.04824C5.21767 2.94082 5.23281 2.83304 5.26742 2.73162C5.54016 1.93277 6.0456 1.24143 6.7136 0.752225C7.38166 0.262972 8.17995 0 8.99816 0Z"
        fill="#574FC1" />
    <path
        fill-rule="evenodd"
        clip-rule="evenodd"
        d="M12.1635 16.7869C12.1635 15.0121 10.7474 13.5738 9 13.5738C7.25263 13.5738 5.83648 15.0121 5.83648 16.7869C5.83648 18.5616 7.25263 20 9 20C10.7474 20 12.1635 18.5616 12.1635 16.7869ZM10.7561 15.3864C10.5462 15.1736 10.2223 15.1469 9.9841 15.3068L9.88818 15.3864L8.43278 16.8637L8.11182 16.5377L8.0159 16.4581C7.77766 16.2981 7.45379 16.3247 7.24392 16.5377C7.03422 16.7507 7.00744 17.0798 7.1646 17.3218L7.24392 17.4192L7.99929 18.1874C8.23896 18.4306 8.62749 18.4305 8.86719 18.1874L10.7561 16.2689C10.9958 16.0254 10.9958 15.6299 10.7561 15.3864Z"
        fill="#574FC1" />
    <path
        fill-rule="evenodd"
        clip-rule="evenodd"
        d="M12.1635 16.7869C12.1635 15.0121 10.7474 13.5738 9 13.5738C7.25263 13.5738 5.83648 15.0121 5.83648 16.7869C5.83648 18.5616 7.25263 20 9 20C10.7474 20 12.1635 18.5616 12.1635 16.7869ZM10.7561 15.3864C10.5462 15.1736 10.2223 15.1469 9.9841 15.3068L9.88818 15.3864L8.43278 16.8637L8.11182 16.5377L8.0159 16.4581C7.77766 16.2981 7.45379 16.3247 7.24392 16.5377C7.03422 16.7507 7.00744 17.0798 7.1646 17.3218L7.24392 17.4192L7.99929 18.1874C8.23896 18.4306 8.62749 18.4305 8.86719 18.1874L10.7561 16.2689C10.9958 16.0254 10.9958 15.6299 10.7561 15.3864Z"
        fill="#574FC1" />
</svg>
