<svg
    width="18"
    height="18"
    viewBox="0 0 18 18"
    fill="none"
    xmlns="http://www.w3.org/2000/svg">
    <path
        d="M10.1138 7.44995C10.1138 8.07133 9.61537 8.57495 9.0001 8.57495C8.38521 8.57495 7.88637 8.07133 7.88637 7.44995C7.88637 6.82858 8.38521 6.32495 9.0001 6.32495C9.615 6.32495 10.1138 6.82858 10.1138 7.44995Z"
        fill="#574FC1" />
    <path
        fill-rule="evenodd"
        clip-rule="evenodd"
        d="M4.09091 0H13.9091C14.4463 0 14.9783 0.105815 15.4746 0.311402C15.9709 0.516989 16.4219 0.818323 16.8018 1.1982C17.1817 1.57808 17.483 2.02905 17.6886 2.52539C17.8942 3.02172 18 3.55368 18 4.09091V10.6364C18 11.1736 17.8942 11.7056 17.6886 12.2019C17.483 12.6982 17.1817 13.1492 16.8018 13.5291C16.4219 13.9089 15.9709 14.2103 15.4746 14.4159C14.9783 14.6215 14.4463 14.7273 13.9091 14.7273H4.09091C3.55368 14.7273 3.02172 14.6215 2.52539 14.4159C2.02905 14.2103 1.57808 13.9089 1.1982 13.5291C0.431005 12.7619 0 11.7213 0 10.6364V4.09091C0 3.00593 0.431005 1.96539 1.1982 1.1982C1.57808 0.818323 2.02905 0.516989 2.52539 0.311402C3.02172 0.105815 3.55368 0 4.09091 0ZM9.0001 3.69995C9.34605 3.69995 9.51921 3.69995 9.65552 3.75695C9.74546 3.79436 9.82724 3.84949 9.89616 3.91919C9.96508 3.98889 10.0198 4.07178 10.0571 4.16308C10.0917 4.2467 10.105 4.3442 10.1105 4.4867C10.1131 4.5896 10.1414 4.69015 10.1926 4.7789C10.2438 4.86765 10.3164 4.94169 10.4034 4.99408C10.4923 5.04443 10.5923 5.07111 10.6941 5.07163C10.7959 5.07216 10.8961 5.04651 10.9855 4.99708C11.11 4.93033 11.2003 4.89358 11.2895 4.88158C11.4845 4.85567 11.6817 4.90902 11.8384 5.03008C11.9551 5.12084 12.0411 5.27112 12.2129 5.57134L12.2149 5.57495C12.3881 5.87758 12.4743 6.02908 12.4938 6.17683C12.5063 6.27457 12.4998 6.37386 12.4746 6.46903C12.4493 6.5642 12.4059 6.65337 12.3468 6.73145C12.2919 6.80345 12.2149 6.86383 12.0956 6.93995C11.9202 7.05095 11.8075 7.2407 11.8075 7.44995C11.8075 7.6592 11.9202 7.84895 12.0959 7.96033C12.2149 8.03608 12.2919 8.09645 12.3465 8.16845C12.4056 8.2465 12.4491 8.33566 12.4744 8.43083C12.4997 8.526 12.5063 8.62531 12.4938 8.72308C12.4743 8.8712 12.3881 9.02233 12.2149 9.32495C12.0421 9.62758 11.9556 9.77908 11.8384 9.86983C11.6822 9.99095 11.4847 10.0446 11.2895 10.0183C11.2003 10.0063 11.11 9.96958 10.9855 9.90283C10.8961 9.85346 10.796 9.82785 10.6943 9.82837C10.5926 9.8289 10.4927 9.85554 10.4038 9.90583C10.2244 10.0105 10.1179 10.204 10.1105 10.4132C10.105 10.5557 10.0917 10.6532 10.0571 10.7368C10.0198 10.8281 9.96508 10.911 9.89616 10.9807C9.82724 11.0504 9.74546 11.1055 9.65552 11.143C9.51921 11.2 9.34605 11.2 9.0001 11.2C8.65416 11.2 8.481 11.2 8.34469 11.143C8.16269 11.0668 8.01827 10.9206 7.94311 10.7368C7.90848 10.6532 7.89521 10.5557 7.88969 10.4132C7.88195 10.204 7.77585 10.0108 7.59679 9.90583C7.50786 9.85547 7.40788 9.82879 7.30612 9.82827C7.20436 9.82775 7.10412 9.85339 7.01469 9.90283C6.89016 9.96958 6.7999 10.0063 6.71074 10.0183C6.51548 10.0442 6.31801 9.99095 6.1618 9.86983C6.04511 9.77906 5.95912 9.62878 5.78734 9.32857L5.78527 9.32495C5.61212 9.02233 5.52591 8.87083 5.50638 8.72308C5.49387 8.62533 5.50042 8.52604 5.52564 8.43087C5.55087 8.3357 5.59427 8.24653 5.65338 8.16845C5.70827 8.09645 5.78527 8.03608 5.90464 7.95995C6.08001 7.84895 6.19275 7.6592 6.19275 7.44995C6.19275 7.2407 6.08001 7.05095 5.90427 6.93958C5.78527 6.86383 5.70827 6.80345 5.65375 6.73145C5.53364 6.57358 5.48059 6.37408 5.50638 6.17683C5.52591 6.0287 5.61212 5.87758 5.78527 5.57495C5.95806 5.27233 6.04464 5.12083 6.1618 5.03008C6.31847 4.90902 6.5157 4.85567 6.71074 4.88158C6.7999 4.89358 6.89016 4.93033 7.01469 4.99708C7.10407 5.04645 7.20425 5.07205 7.30594 5.07153C7.40763 5.07101 7.50754 5.04436 7.59643 4.99408C7.68355 4.94173 7.75617 4.86771 7.80747 4.77896C7.85877 4.69021 7.88706 4.58964 7.88969 4.4867C7.89521 4.34458 7.90848 4.2467 7.94311 4.16308C7.98043 4.07178 8.03513 3.98889 8.10405 3.91919C8.17297 3.84949 8.25475 3.79436 8.34469 3.75695C8.48137 3.69995 8.65416 3.69995 9.0001 3.69995Z"
        fill="#574FC1" />
    <path
        d="M4.09091 18H13.9091C14.1261 18 14.3342 17.9138 14.4876 17.7604C14.6411 17.6069 14.7273 17.3988 14.7273 17.1818C14.7273 16.9648 14.6411 16.7567 14.4876 16.6033C14.3342 16.4498 14.1261 16.3636 13.9091 16.3636H4.09091C3.87391 16.3636 3.66581 16.4498 3.51237 16.6033C3.35893 16.7567 3.27273 16.9648 3.27273 17.1818C3.27273 17.3988 3.35893 17.6069 3.51237 17.7604C3.66581 17.9138 3.87391 18 4.09091 18Z"
        fill="#574FC1" />
</svg>
