<svg
    width="18"
    height="18"
    viewBox="0 0 18 18"
    fill="none"
    xmlns="http://www.w3.org/2000/svg">
    <path
        d="M4.03436 1.37587C4.51043 1.05781 5.01553 0.785506 5.5429 0.562603C6.81635 0.0243583 7.45262 -0.245218 8.26589 0.293934C9.07734 0.832179 9.07734 1.71352 9.07734 3.47711V5.29244C9.07734 7.00429 9.07734 7.85931 9.60923 8.3912C10.1411 8.92309 10.9961 8.92309 12.708 8.92309H14.5233C16.286 8.92309 17.1682 8.92309 17.7065 9.73545C18.2447 10.5478 17.9761 11.1841 17.4378 12.4584C16.6244 14.3821 15.1724 15.9664 13.3268 16.9441C11.4812 17.9218 9.3549 18.2331 7.30649 17.8255C5.54567 17.4753 3.92823 16.6109 2.65873 15.3415C1.38922 14.0721 0.524673 12.4547 0.17442 10.6939C-0.175834 8.93313 0.00394189 7.10802 0.69101 5.44941C1.37808 3.7908 2.54158 2.37319 4.03436 1.37587Z"
        fill="#574FC1" />
    <path
        fill-rule="evenodd"
        clip-rule="evenodd"
        d="M16.153 1.84741C16.4005 2.0949 16.4005 2.49617 16.153 2.74366L11.9745 6.92215C11.727 7.16964 11.3257 7.16964 11.0782 6.92215C10.8308 6.67466 10.8308 6.2734 11.0782 6.02591L15.2567 1.84741C15.5042 1.59992 15.9055 1.59992 16.153 1.84741Z"
        fill="#574FC1" />
    <path
        d="M16.255 6.25813C16.255 6.4613 16.1743 6.65615 16.0307 6.79982C15.887 6.94348 15.6921 7.02419 15.489 7.02419C15.2858 7.02419 15.091 6.94348 14.9473 6.79982C14.8036 6.65615 14.7229 6.4613 14.7229 6.25813C14.7229 6.05496 14.8036 5.86011 14.9473 5.71645C15.091 5.57278 15.2858 5.49207 15.489 5.49207C15.6921 5.49207 15.887 5.57278 16.0307 5.71645C16.1743 5.86011 16.255 6.05496 16.255 6.25813ZM12.4247 2.42784C12.4247 2.63102 12.344 2.82587 12.2004 2.96953C12.0567 3.11319 11.8619 3.1939 11.6587 3.1939C11.4555 3.1939 11.2607 3.11319 11.117 2.96953C10.9733 2.82587 10.8926 2.63102 10.8926 2.42784C10.8926 2.22467 10.9733 2.02982 11.117 1.88616C11.2607 1.7425 11.4555 1.66179 11.6587 1.66179C11.8619 1.66179 12.0567 1.7425 12.2004 1.88616C12.344 2.02982 12.4247 2.22467 12.4247 2.42784Z"
        fill="#574FC1" />
</svg>
