<svg
    width="20"
    height="20"
    viewBox="0 0 20 20"
    fill="none"
    xmlns="http://www.w3.org/2000/svg">
    <path
        fill-rule="evenodd"
        clip-rule="evenodd"
        d="M12.7907 0.5H14.6512C16.4056 0.5 17.2819 0.5 17.827 1.03658C18.3721 1.57316 18.3721 2.43571 18.3721 4.16265V18.1265H19.3023C19.4874 18.1265 19.6648 18.1989 19.7957 18.3276C19.9265 18.4564 20 18.6311 20 18.8133C20 18.9954 19.9265 19.1701 19.7957 19.2989C19.6648 19.4276 19.4874 19.5 19.3023 19.5H0.697674C0.51264 19.5 0.335183 19.4276 0.204344 19.2989C0.0735048 19.1701 0 18.9954 0 18.8133C0 18.6311 0.0735048 18.4564 0.204344 18.3276C0.335183 18.1989 0.51264 18.1265 0.697674 18.1265H1.62791V6.90964C1.62791 5.1827 1.62791 4.32014 2.17302 3.78357C2.71814 3.24699 3.59442 3.24699 5.34884 3.24699H9.06977C10.8242 3.24699 11.7005 3.24699 12.2456 3.78357C12.7907 4.32014 12.7907 5.1827 12.7907 6.90964V18.1265H14.186V6.82723C14.186 6.03518 14.186 5.30814 14.1051 4.71754C14.0167 4.06651 13.8074 3.37793 13.2326 2.81296C12.6577 2.24617 11.9581 2.04014 11.2977 1.95224C10.7051 1.87441 9.97861 1.87349 9.18698 1.87349C9.26512 1.51913 9.39628 1.25084 9.61488 1.03658C10.16 0.5 11.0363 0.5 12.7907 0.5ZM3.72093 5.99398C3.72093 5.81184 3.79444 5.63716 3.92527 5.50837C4.05611 5.37958 4.23357 5.30723 4.4186 5.30723H10C10.185 5.30723 10.3625 5.37958 10.4933 5.50837C10.6242 5.63716 10.6977 5.81184 10.6977 5.99398C10.6977 6.17611 10.6242 6.35079 10.4933 6.47958C10.3625 6.60837 10.185 6.68072 10 6.68072H4.4186C4.23357 6.68072 4.05611 6.60837 3.92527 6.47958C3.79444 6.35079 3.72093 6.17611 3.72093 5.99398ZM3.72093 8.74096C3.72093 8.55883 3.79444 8.38415 3.92527 8.25536C4.05611 8.12657 4.23357 8.05422 4.4186 8.05422H10C10.185 8.05422 10.3625 8.12657 10.4933 8.25536C10.6242 8.38415 10.6977 8.55883 10.6977 8.74096C10.6977 8.9231 10.6242 9.09778 10.4933 9.22657C10.3625 9.35536 10.185 9.42771 10 9.42771H4.4186C4.23357 9.42771 4.05611 9.35536 3.92527 9.22657C3.79444 9.09778 3.72093 8.9231 3.72093 8.74096ZM3.72093 11.488C3.72093 11.3058 3.79444 11.1311 3.92527 11.0023C4.05611 10.8736 4.23357 10.8012 4.4186 10.8012H10C10.185 10.8012 10.3625 10.8736 10.4933 11.0023C10.6242 11.1311 10.6977 11.3058 10.6977 11.488C10.6977 11.6701 10.6242 11.8448 10.4933 11.9736C10.3625 12.1023 10.185 12.1747 10 12.1747H4.4186C4.23357 12.1747 4.05611 12.1023 3.92527 11.9736C3.79444 11.8448 3.72093 11.6701 3.72093 11.488ZM7.2093 15.3795C7.39434 15.3795 7.57179 15.4519 7.70263 15.5807C7.83347 15.7095 7.90698 15.8841 7.90698 16.0663V18.1265H6.51163V16.0663C6.51163 15.8841 6.58513 15.7095 6.71597 15.5807C6.84681 15.4519 7.02427 15.3795 7.2093 15.3795Z"
        fill="#574FC1" />
</svg>
