<svg
    width="20"
    height="20"
    viewBox="0 0 20 20"
    fill="none"
    xmlns="http://www.w3.org/2000/svg">
    <path
        d="M6.86842 1.45V19M1.5 10H3.28947M1.5 13.6H3.28947M1.5 6.4H3.28947M10 5.05H14.4737M10 8.2H14.4737M2.39474 6.4C2.39474 3.8548 2.39474 2.5813 3.18121 1.7911C3.96679 1 5.23284 1 7.76316 1H13.1316C15.6619 1 16.9279 1 17.7135 1.7911C18.5 2.5813 18.5 3.8548 18.5 6.4V13.6C18.5 16.1452 18.5 17.4187 17.7135 18.2089C16.9279 19 15.6619 19 13.1316 19H7.76316C5.23284 19 3.96679 19 3.18121 18.2089C2.39474 17.4187 2.39474 16.1452 2.39474 13.6V6.4Z"
        stroke="#574FC1"
        stroke-width="1.3"
        stroke-linecap="round" />
</svg>
