<svg
    width="20"
    height="18"
    viewBox="0 0 20 18"
    fill="none"
    xmlns="http://www.w3.org/2000/svg">
    <path
        d="M17.3077 13.8913C16.7376 13.8913 16.2044 13.6059 15.8814 13.128L15.0345 11.8746C14.0368 13.6946 12.1402 14.8695 10 14.8695C7.01361 14.8695 4.54987 12.5488 4.2594 9.58695H4.80772C5.02194 9.58695 5.21858 9.46617 5.3183 9.27323C5.41803 9.08032 5.40447 8.84703 5.28311 8.66744L3.16772 5.53698C3.06014 5.37774 2.88233 5.28256 2.69233 5.28256C2.66858 5.28256 2.64503 5.28403 2.62174 5.28693C2.59846 5.28983 2.57553 5.2942 2.55299 5.29988C2.49667 5.31415 2.44292 5.33692 2.39358 5.36732C2.32452 5.40985 2.26397 5.46728 2.2169 5.53694L0.101514 8.6674C-0.0198525 8.84699 -0.0334072 9.08032 0.0663192 9.27318C0.166046 9.46605 0.362686 9.58695 0.576943 9.58695H1.17225C1.30952 11.77 2.21081 13.8032 3.74487 15.364C5.41569 17.0638 7.63713 18 10 18C12.3629 18 14.5843 17.0638 16.2552 15.364C16.6993 14.9121 17.0927 14.4163 17.4304 13.8864C17.3896 13.8894 17.3488 13.8913 17.3077 13.8913Z"
        fill="#574FC1" />
    <path
        d="M19.9337 8.72674C19.8339 8.53383 19.6373 8.41301 19.423 8.41301H18.8277C18.6905 6.22996 17.7892 4.19677 16.2551 2.63599C14.5843 0.936157 12.3629 0 10 0C7.63717 0 5.41565 0.936157 3.74487 2.63603C3.30069 3.08793 2.90737 3.58367 2.56967 4.11355C2.61034 4.11061 2.6512 4.1087 2.69233 4.1087C3.26245 4.1087 3.79561 4.39405 4.11854 4.87198L4.96549 6.12536C5.96318 4.30538 7.85978 3.13046 9.99997 3.13046C12.9864 3.13046 15.4501 5.45122 15.7406 8.41305H15.1923C14.9781 8.41305 14.7814 8.53383 14.6817 8.72678C14.582 8.91968 14.5955 9.15297 14.7169 9.33256L16.8323 12.463C16.8592 12.5028 16.8905 12.5386 16.9252 12.57C17.0295 12.6639 17.1652 12.7174 17.3077 12.7174C17.4977 12.7174 17.6755 12.6223 17.7831 12.463L19.8985 9.3326C20.0199 9.15289 20.0334 8.9196 19.9337 8.72674Z"
        fill="#574FC1" />
    <path
        fill-rule="evenodd"
        clip-rule="evenodd"
        d="M9.28616 5.64302C8.31303 5.88401 7.5 6.60694 7.5 7.61111C7.5 8.85449 8.74651 9.66667 10 9.66667C10.7191 9.66667 11.0714 10.0989 11.0714 10.3889C11.0714 10.6788 10.7191 11.1111 10 11.1111C9.28087 11.1111 8.92857 10.6788 8.92857 10.3889C8.92857 10.0207 8.60878 9.72222 8.21429 9.72222C7.8198 9.72222 7.5 10.0207 7.5 10.3889C7.5 11.3931 8.31303 12.116 9.28616 12.357C9.2995 12.7142 9.61399 13 10 13C10.386 13 10.7005 12.7142 10.7138 12.357C11.687 12.116 12.5 11.3931 12.5 10.3889C12.5 9.14551 11.2535 8.33333 10 8.33333C9.28087 8.33333 8.92857 7.90107 8.92857 7.61111C8.92857 7.32115 9.28087 6.88889 10 6.88889C10.7191 6.88889 11.0714 7.32115 11.0714 7.61111C11.0714 7.9793 11.3912 8.27778 11.7857 8.27778C12.1802 8.27778 12.5 7.9793 12.5 7.61111C12.5 6.60694 11.687 5.88401 10.7138 5.64302C10.7005 5.28578 10.386 5 10 5C9.61399 5 9.2995 5.28578 9.28616 5.64302Z"
        fill="#574FC1" />
</svg>
