<svg
    width="18"
    height="20"
    viewBox="0 0 18 20"
    fill="none"
    xmlns="http://www.w3.org/2000/svg">
    <path
        d="M15.615 4.76258C15.626 4.91965 15.6316 5.07821 15.6316 5.23809C15.6316 8.91999 12.6625 11.9048 9 11.9048C5.33748 11.9048 2.36842 8.91999 2.36842 5.23809C2.36842 5.07824 2.37402 4.91969 2.38503 4.76265C1.67112 4.77438 1.01946 4.81864 0.551366 5.25406C0.237096 5.54639 0.109368 5.91322 0.0525945 6.30457C-4.03919e-05 6.66738 -2.12406e-05 7.1202 9.04565e-07 7.64379V8.28233C-1.20209e-05 8.69232 -2.30705e-05 9.04291 0.0305063 9.33444C0.0631971 9.64662 0.134171 9.93491 0.302141 10.2102C0.468212 10.4825 0.691769 10.6817 0.954806 10.8632C1.20708 11.0373 1.53099 11.2179 1.91829 11.4339L4.3984 12.8178C4.95144 13.1264 5.15453 13.2431 5.29118 13.3607C5.60272 13.6285 5.78221 13.9278 5.86593 14.3018L5.86634 14.3036C5.90275 14.4637 5.90625 14.665 5.90625 15.2527L5.90625 16.5745C5.90623 16.9291 5.90621 17.2426 5.93667 17.503C5.96987 17.7867 6.04331 18.0585 6.22461 18.3109C6.40312 18.5601 6.63696 18.7215 6.89386 18.8532C7.11978 18.969 7.40229 19.0804 7.72851 19.207L7.79434 19.2326C7.89909 19.2732 8.00372 19.3145 8.1084 19.3557C8.64731 19.5682 9.18762 19.7812 9.75224 19.9139C10.2739 20.0366 10.7937 20.06 11.2633 19.7687C11.7452 19.4699 11.934 18.9903 12.0163 18.4731C12.0938 17.9857 12.0938 17.3496 12.0938 16.5924L12.0937 15.2518C12.0937 14.6653 12.0972 14.4636 12.1338 14.3024L12.1348 14.2975C12.2138 13.9344 12.413 13.6064 12.7024 13.3662L12.7098 13.3597C12.8447 13.2438 13.0455 13.1281 13.5908 12.823L13.615 12.8095L16.0945 11.426C16.4751 11.2139 16.7949 11.0357 17.0445 10.864C17.3075 10.6831 17.5322 10.4837 17.6983 10.2104C17.866 9.93516 17.9369 9.64679 17.9695 9.33469C18 9.04286 18 8.69194 18 8.28146V7.6371C18 7.11664 18.0001 6.66594 17.9477 6.30462C17.8911 5.91333 17.7633 5.54629 17.4485 5.25391C16.9808 4.8184 16.3288 4.77429 15.615 4.76258Z"
        fill="#574FC1" />
    <path
        fill-rule="evenodd"
        clip-rule="evenodd"
        d="M3.78947 5.23809C3.78947 2.34517 6.12231 0 9 0C11.8777 0 14.2105 2.34517 14.2105 5.23809C14.2105 8.13101 11.8777 10.4762 9 10.4762C6.12231 10.4762 3.78947 8.13101 3.78947 5.23809ZM8.44203 2.41206C7.68146 2.61494 7.04602 3.22352 7.04602 4.06887C7.04602 5.11559 8.02026 5.79931 8.99996 5.79931C9.56201 5.79931 9.83737 6.16321 9.83737 6.40731C9.83737 6.6514 9.56201 7.0153 8.99996 7.0153C8.43791 7.0153 8.16256 6.65141 8.16256 6.40731C8.16256 6.09735 7.91261 5.84608 7.60429 5.84608C7.29596 5.84608 7.04602 6.09735 7.04602 6.40731C7.04602 7.25266 7.68146 7.86125 8.44204 8.06412C8.45247 8.36486 8.69826 8.60544 8.99996 8.60544C9.30166 8.60544 9.54746 8.36486 9.55788 8.06412C10.3185 7.86125 10.9539 7.25266 10.9539 6.40731C10.9539 5.36059 9.97966 4.67687 8.99996 4.67687C8.43791 4.67687 8.16256 4.31297 8.16256 4.06887C8.16256 3.82477 8.43791 3.46088 8.99996 3.46088C9.56201 3.46088 9.83737 3.82478 9.83737 4.06887C9.83737 4.37883 10.0873 4.6301 10.3956 4.6301C10.704 4.6301 10.9539 4.37883 10.9539 4.06887C10.9539 3.22352 10.3185 2.61494 9.55789 2.41206C9.54746 2.11132 9.30166 1.87074 8.99996 1.87074C8.69827 1.87074 8.45246 2.11132 8.44203 2.41206Z"
        fill="#574FC1" />
</svg>
