<svg
    width="42"
    height="42"
    viewBox="0 0 42 42"
    fill="none"
    xmlns="http://www.w3.org/2000/svg">
    <path
        fill-rule="evenodd"
        clip-rule="evenodd"
        d="M1 21.2425C1 32.3289 9.67108 41 20.7575 41C31.8439 41 40.515 32.3289 40.515 21.2425C40.515 21.1481 40.5144 21.0527 40.513 20.9567C40.5077 20.6038 40.3328 20.275 40.0432 20.0733C39.7535 19.8716 39.3844 19.8217 39.0516 19.9393C38.6732 20.0728 38.2649 20.146 37.8371 20.146C36.2817 20.146 35.1445 19.1502 34.6619 17.559C34.4945 17.0071 33.9282 16.6792 33.3662 16.8089C32.8727 16.9227 32.3579 16.9831 31.8276 16.9831C28.0066 16.9831 25.0169 14.1922 25.0169 10.4887C25.0169 9.95843 25.0773 9.44357 25.1911 8.95014C25.3208 8.38814 24.9929 7.82177 24.441 7.65436C22.9426 7.19987 21.854 5.8071 21.854 4.1629C21.854 3.7352 21.9272 3.3268 22.0608 2.94812C22.1784 2.61499 22.1282 2.24562 21.9261 1.95589C21.7239 1.66617 21.3946 1.49158 21.0413 1.4869C20.9472 1.48566 20.8526 1.48499 20.7575 1.48499C9.67109 1.48499 1 10.156 1 21.2425ZM20.7575 38.8071C10.8822 38.8071 3.19294 31.1178 3.19294 21.2425C3.19294 11.7298 10.3277 4.24571 19.6785 3.70877C19.6669 3.85873 19.661 4.01019 19.661 4.1629C19.661 6.45126 20.9764 8.43018 22.8906 9.38851C22.8466 9.74942 22.8239 10.1166 22.8239 10.4887C22.8239 15.5191 26.9146 19.1761 31.8276 19.1761C32.1949 19.1761 32.5574 19.154 32.9139 19.1111C33.7843 20.9682 35.4841 22.339 37.8371 22.339C37.9898 22.339 38.1413 22.3331 38.2912 22.3215C37.7543 31.6723 30.2701 38.8071 20.7575 38.8071Z"
        fill="#0B0A18" />
    <path
        fill-rule="evenodd"
        clip-rule="evenodd"
        d="M28.8335 8.59092C28.8335 10.9433 30.7404 12.8503 33.0928 12.8503C35.4452 12.8503 37.3522 10.9433 37.3522 8.59092C37.3522 6.23858 35.4452 4.33157 33.0928 4.33157C30.7404 4.33157 28.8335 6.2386 28.8335 8.59092ZM33.0928 10.6573C31.9515 10.6573 31.0264 9.73216 31.0264 8.59092C31.0264 7.44969 31.9515 6.5245 33.0928 6.5245C34.234 6.5245 35.1592 7.4497 35.1592 8.59092C35.1592 9.73215 34.234 10.6573 33.0928 10.6573Z"
        fill="#0B0A18" />
    <path
        fill-rule="evenodd"
        clip-rule="evenodd"
        d="M10.1724 14.9167C10.1724 17.269 12.0793 19.1761 14.4318 19.1761C16.7841 19.1761 18.6911 17.269 18.6911 14.9167C18.6911 12.5644 16.7841 10.6573 14.4318 10.6573C12.0793 10.6573 10.1724 12.5644 10.1724 14.9167ZM14.4318 16.9831C13.2905 16.9831 12.3653 16.0579 12.3653 14.9167C12.3653 13.7755 13.2905 12.8503 14.4318 12.8503C15.573 12.8503 16.4982 13.7755 16.4982 14.9167C16.4982 16.0579 15.573 16.9831 14.4318 16.9831Z"
        fill="#0B0A18" />
    <path
        fill-rule="evenodd"
        clip-rule="evenodd"
        d="M10.1724 27.5683C10.1724 29.9206 12.0793 31.8276 14.4318 31.8276C16.7841 31.8276 18.6911 29.9206 18.6911 27.5683C18.6911 25.2159 16.7841 23.3089 14.4318 23.3089C12.0793 23.3089 10.1724 25.2159 10.1724 27.5683ZM14.4318 29.6347C13.2905 29.6347 12.3653 28.7095 12.3653 27.5683C12.3653 26.427 13.2905 25.5018 14.4318 25.5018C15.573 25.5018 16.4982 26.427 16.4982 27.5683C16.4982 28.7095 15.573 29.6347 14.4318 29.6347Z"
        fill="#0B0A18" />
    <path
        fill-rule="evenodd"
        clip-rule="evenodd"
        d="M22.824 27.5683C22.824 29.9206 24.7309 31.8276 27.0833 31.8276C29.4357 31.8276 31.3427 29.9206 31.3427 27.5683C31.3427 25.2159 29.4357 23.3089 27.0833 23.3089C24.7309 23.3089 22.824 25.2159 22.824 27.5683ZM27.0833 29.6347C25.942 29.6347 25.0169 28.7095 25.0169 27.5683C25.0169 26.427 25.942 25.5018 27.0833 25.5018C28.2245 25.5018 29.1497 26.427 29.1497 27.5683C29.1497 28.7095 28.2245 29.6347 27.0833 29.6347Z"
        fill="#0B0A18" />
    <path
        d="M39.4186 1C40.2919 1 41 1.70801 41 2.58144C41 3.45488 40.2919 4.16289 39.4186 4.16289C38.5452 4.16289 37.8371 3.45488 37.8371 2.58144C37.8371 1.70801 38.5452 1 39.4186 1Z"
        fill="#0B0A18" />
    <path
        d="M41 14.9167C41 15.7901 40.2919 16.4981 39.4186 16.4981C38.5452 16.4981 37.8371 15.7901 37.8371 14.9167C37.8371 14.0433 38.5452 13.3353 39.4186 13.3353C40.2919 13.3353 41 14.0433 41 14.9167Z"
        fill="#0B0A18" />
    <path
        d="M22.339 21.2425C22.339 22.1159 21.6309 22.8239 20.7575 22.8239C19.8841 22.8239 19.1761 22.1159 19.1761 21.2425C19.1761 20.369 19.8841 19.661 20.7575 19.661C21.6309 19.661 22.339 20.369 22.339 21.2425Z"
        fill="#0B0A18" />
    <path
        d="M9.68744 21.2425C9.68744 22.1159 8.97935 22.8239 8.10599 22.8239C7.23256 22.8239 6.52455 22.1159 6.52455 21.2425C6.52455 20.369 7.23256 19.661 8.10599 19.661C8.97935 19.661 9.68744 20.369 9.68744 21.2425Z"
        fill="#0B0A18" />
    <path
        d="M22.339 33.894C22.339 34.7675 21.6309 35.4755 20.7575 35.4755C19.8841 35.4755 19.1761 34.7675 19.1761 33.894C19.1761 33.0206 19.8841 32.3126 20.7575 32.3126C21.6309 32.3126 22.339 33.0206 22.339 33.894Z"
        fill="#0B0A18" />
    <path
        d="M40.513 20.9567L40.013 20.9642V20.9642L40.513 20.9567ZM40.0432 20.0733L39.7575 20.4837L40.0432 20.0733ZM39.0516 19.9393L38.8851 19.4678H38.8851L39.0516 19.9393ZM34.6619 17.559L35.1404 17.4139L34.6619 17.559ZM33.3662 16.8089L33.2537 16.3217H33.2537L33.3662 16.8089ZM25.1911 8.95014L25.6783 9.06255L25.1911 8.95014ZM24.441 7.65436L24.2959 8.13283L24.2959 8.13283L24.441 7.65436ZM22.0608 2.94812L21.5893 2.78175V2.78175L22.0608 2.94812ZM21.9261 1.95589L22.3361 1.6698L22.3361 1.66979L21.9261 1.95589ZM21.0413 1.4869L21.048 0.986948L21.048 0.986948L21.0413 1.4869ZM19.6785 3.70877L20.177 3.74722C20.1881 3.60336 20.1365 3.46172 20.0355 3.3587C19.9345 3.25568 19.7939 3.20132 19.6498 3.20959L19.6785 3.70877ZM22.8906 9.38851L23.3869 9.44906C23.4125 9.23926 23.3034 9.03603 23.1144 8.94141L22.8906 9.38851ZM32.9139 19.1111L33.3666 18.8989C33.275 18.7035 33.0684 18.5889 32.8541 18.6147L32.9139 19.1111ZM38.2912 22.3215L38.7904 22.3502C38.7987 22.2061 38.7443 22.0655 38.6413 21.9645C38.5383 21.8635 38.3967 21.8119 38.2528 21.823L38.2912 22.3215ZM20.7575 41V40.5C9.94723 40.5 1.5 32.0528 1.5 21.2425H1H0.5C0.5 32.6051 9.39494 41.5 20.7575 41.5V41ZM40.515 21.2425H40.015C40.015 32.0528 31.5678 40.5 20.7575 40.5V41V41.5C32.1201 41.5 41.015 32.6051 41.015 21.2425H40.515ZM40.513 20.9567L40.013 20.9642C40.0144 21.0573 40.015 21.1502 40.015 21.2425H40.515H41.015C41.015 21.1461 41.0144 21.0482 41.0129 20.9492L40.513 20.9567ZM40.0432 20.0733L39.7575 20.4837C39.915 20.5934 40.0102 20.7722 40.013 20.9642L40.513 20.9567L41.0129 20.9492C41.0052 20.4354 40.7506 19.9566 40.3288 19.663L40.0432 20.0733ZM39.0516 19.9393L39.2181 20.4107C39.3991 20.3468 39.5999 20.374 39.7575 20.4837L40.0432 20.0733L40.3288 19.663C39.9071 19.3693 39.3697 19.2967 38.8851 19.4678L39.0516 19.9393ZM37.8371 20.146V20.646C38.3224 20.646 38.7869 20.563 39.2181 20.4107L39.0516 19.9393L38.8851 19.4678C38.5595 19.5827 38.2075 19.646 37.8371 19.646V20.146ZM34.6619 17.559L34.1835 17.7042C34.7162 19.4607 36.0174 20.646 37.8371 20.646V20.146V19.646C36.5459 19.646 35.5728 18.8397 35.1404 17.4139L34.6619 17.559ZM33.3662 16.8089L33.4786 17.2961C33.7843 17.2255 34.0924 17.4039 34.1835 17.7042L34.6619 17.559L35.1404 17.4139C34.8967 16.6103 34.072 16.1329 33.2537 16.3217L33.3662 16.8089ZM31.8276 16.9831V17.4831C32.396 17.4831 32.9485 17.4184 33.4786 17.2961L33.3662 16.8089L33.2537 16.3217C32.7969 16.4271 32.3197 16.4831 31.8276 16.4831V16.9831ZM25.0169 10.4887H24.5169C24.5169 14.4935 27.7563 17.4831 31.8276 17.4831V16.9831V16.4831C28.257 16.4831 25.5169 13.891 25.5169 10.4887H25.0169ZM25.1911 8.95014L24.7039 8.83772C24.5816 9.36774 24.5169 9.92031 24.5169 10.4887H25.0169H25.5169C25.5169 9.99654 25.5729 9.51939 25.6783 9.06255L25.1911 8.95014ZM24.441 7.65436L24.2959 8.13283C24.5961 8.2239 24.7745 8.532 24.7039 8.83772L25.1911 8.95014L25.6783 9.06255C25.8671 8.24429 25.3897 7.41963 24.5861 7.17588L24.441 7.65436ZM21.854 4.1629H21.354C21.354 6.03312 22.5923 7.61611 24.2959 8.13283L24.441 7.65436L24.5861 7.17588C23.2929 6.78364 22.354 5.58109 22.354 4.1629H21.854ZM22.0608 2.94812L21.5893 2.78175C21.4371 3.21307 21.354 3.67769 21.354 4.1629H21.854H22.354C22.354 3.79272 22.4173 3.44053 22.5323 3.1145L22.0608 2.94812ZM21.9261 1.95589L21.516 2.24198C21.626 2.39959 21.6533 2.60053 21.5893 2.78175L22.0608 2.94812L22.5323 3.1145C22.7035 2.62945 22.6304 2.09164 22.3361 1.6698L21.9261 1.95589ZM21.0413 1.4869L21.0347 1.98686C21.2269 1.9894 21.406 2.08438 21.516 2.24199L21.9261 1.95589L22.3361 1.66979C22.0418 1.24796 21.5623 0.993759 21.048 0.986948L21.0413 1.4869ZM20.7575 1.48499V1.98499C20.8502 1.98499 20.9427 1.98564 21.0347 1.98686L21.0413 1.4869L21.048 0.986948C20.9518 0.985675 20.8549 0.984989 20.7575 0.984989V1.48499ZM1 21.2425H1.5C1.5 10.4321 9.94723 1.98499 20.7575 1.98499V1.48499V0.984989C9.39494 0.984989 0.5 9.87985 0.5 21.2425H1ZM3.19294 21.2425H2.69294C2.69294 31.3939 10.6061 39.3071 20.7575 39.3071V38.8071V38.3071C11.1583 38.3071 3.69294 30.8417 3.69294 21.2425H3.19294ZM19.6785 3.70877L19.6498 3.20959C10.0345 3.76172 2.69294 11.4649 2.69294 21.2425H3.19294H3.69294C3.69294 11.9948 10.621 4.72969 19.7072 4.20795L19.6785 3.70877ZM19.661 4.1629H20.161C20.161 4.02305 20.1664 3.88442 20.177 3.74722L19.6785 3.70877L19.18 3.67032C19.1674 3.83304 19.161 3.99732 19.161 4.1629H19.661ZM22.8906 9.38851L23.1144 8.94141C21.3628 8.06448 20.161 6.2546 20.161 4.1629H19.661H19.161C19.161 6.64791 20.59 8.79589 22.6668 9.83561L22.8906 9.38851ZM22.8239 10.4887H23.3239C23.3239 10.1369 23.3453 9.78993 23.3869 9.44906L22.8906 9.38851L22.3943 9.32796C22.3478 9.7089 22.3239 10.0963 22.3239 10.4887H22.8239ZM31.8276 19.1761V18.6761C27.1626 18.6761 23.3239 15.2156 23.3239 10.4887H22.8239H22.3239C22.3239 15.8226 26.6667 19.6761 31.8276 19.6761V19.1761ZM32.9139 19.1111L32.8541 18.6147C32.5174 18.6552 32.1749 18.6761 31.8276 18.6761V19.1761V19.6761C32.215 19.6761 32.5975 19.6528 32.9737 19.6075L32.9139 19.1111ZM37.8371 22.339V21.839C35.7092 21.839 34.1688 20.6104 33.3666 18.8989L32.9139 19.1111L32.4611 19.3233C33.3998 21.326 35.2591 22.839 37.8371 22.839V22.339ZM38.2912 22.3215L38.2528 21.823C38.1156 21.8336 37.9769 21.839 37.8371 21.839V22.339V22.839C38.0027 22.839 38.1669 22.8326 38.3297 22.82L38.2912 22.3215ZM20.7575 38.8071V39.3071C30.5351 39.3071 38.2383 31.9655 38.7904 22.3502L38.2912 22.3215L37.7921 22.2928C37.2703 31.379 30.0051 38.3071 20.7575 38.3071V38.8071ZM33.0928 12.8503V12.3503C31.0165 12.3503 29.3335 10.6671 29.3335 8.59092H28.8335H28.3335C28.3335 11.2194 30.4642 13.3503 33.0928 13.3503V12.8503ZM37.3522 8.59092H36.8522C36.8522 10.6671 35.169 12.3503 33.0928 12.3503V12.8503V13.3503C35.7213 13.3503 37.8522 11.2194 37.8522 8.59092H37.3522ZM33.0928 4.33157V4.83157C35.169 4.83157 36.8522 6.51472 36.8522 8.59092H37.3522H37.8522C37.8522 5.96244 35.7213 3.83157 33.0928 3.83157V4.33157ZM28.8335 8.59092H29.3335C29.3335 6.51473 31.0165 4.83157 33.0928 4.83157V4.33157V3.83157C30.4642 3.83157 28.3335 5.96246 28.3335 8.59092H28.8335ZM31.0264 8.59092H30.5264C30.5264 10.0083 31.6754 11.1573 33.0928 11.1573V10.6573V10.1573C32.2277 10.1573 31.5264 9.45603 31.5264 8.59092H31.0264ZM33.0928 6.5245V6.0245C31.6754 6.0245 30.5264 7.17355 30.5264 8.59092H31.0264H31.5264C31.5264 7.72582 32.2277 7.0245 33.0928 7.0245V6.5245ZM35.1592 8.59092H35.6592C35.6592 7.17356 34.5102 6.0245 33.0928 6.0245V6.5245V7.0245C33.9579 7.0245 34.6592 7.72585 34.6592 8.59092H35.1592ZM33.0928 10.6573V11.1573C34.5102 11.1573 35.6592 10.0083 35.6592 8.59092H35.1592H34.6592C34.6592 9.456 33.9579 10.1573 33.0928 10.1573V10.6573ZM14.4318 19.1761V18.6761C12.3555 18.6761 10.6724 16.9929 10.6724 14.9167H10.1724H9.67241C9.67241 17.5452 11.8032 19.6761 14.4318 19.6761V19.1761ZM18.6911 14.9167H18.1911C18.1911 16.9929 16.508 18.6761 14.4318 18.6761V19.1761V19.6761C17.0603 19.6761 19.1911 17.5452 19.1911 14.9167H18.6911ZM14.4318 10.6573V11.1573C16.508 11.1573 18.1911 12.8405 18.1911 14.9167H18.6911H19.1911C19.1911 12.2882 17.0603 10.1573 14.4318 10.1573V10.6573ZM10.1724 14.9167H10.6724C10.6724 12.8405 12.3555 11.1573 14.4318 11.1573V10.6573V10.1573C11.8032 10.1573 9.67241 12.2882 9.67241 14.9167H10.1724ZM12.3653 14.9167H11.8653C11.8653 16.3341 13.0143 17.4831 14.4318 17.4831V16.9831V16.4831C13.5666 16.4831 12.8653 15.7818 12.8653 14.9167H12.3653ZM14.4318 12.8503V12.3503C13.0143 12.3503 11.8653 13.4993 11.8653 14.9167H12.3653H12.8653C12.8653 14.0516 13.5666 13.3503 14.4318 13.3503V12.8503ZM16.4982 14.9167H16.9982C16.9982 13.4993 15.8491 12.3503 14.4318 12.3503V12.8503V13.3503C15.2968 13.3503 15.9982 14.0516 15.9982 14.9167H16.4982ZM14.4318 16.9831V17.4831C15.8491 17.4831 16.9982 16.3341 16.9982 14.9167H16.4982H15.9982C15.9982 15.7818 15.2968 16.4831 14.4318 16.4831V16.9831ZM14.4318 31.8276V31.3276C12.3555 31.3276 10.6724 29.6444 10.6724 27.5683H10.1724H9.67241C9.67241 30.1967 11.8032 32.3276 14.4318 32.3276V31.8276ZM18.6911 27.5683H18.1911C18.1911 29.6445 16.508 31.3276 14.4318 31.3276V31.8276V32.3276C17.0603 32.3276 19.1911 30.1967 19.1911 27.5683H18.6911ZM14.4318 23.3089V23.8089C16.508 23.8089 18.1911 25.4921 18.1911 27.5683H18.6911H19.1911C19.1911 24.9398 17.0603 22.8089 14.4318 22.8089V23.3089ZM10.1724 27.5683H10.6724C10.6724 25.4921 12.3555 23.8089 14.4318 23.8089V23.3089V22.8089C11.8032 22.8089 9.67241 24.9398 9.67241 27.5683H10.1724ZM12.3653 27.5683H11.8653C11.8653 28.9856 13.0143 30.1347 14.4318 30.1347V29.6347V29.1347C13.5666 29.1347 12.8653 28.4334 12.8653 27.5683H12.3653ZM14.4318 25.5018V25.0018C13.0143 25.0018 11.8653 26.1509 11.8653 27.5683H12.3653H12.8653C12.8653 26.7032 13.5666 26.0018 14.4318 26.0018V25.5018ZM16.4982 27.5683H16.9982C16.9982 26.1509 15.8491 25.0018 14.4318 25.0018V25.5018V26.0018C15.2968 26.0018 15.9982 26.7032 15.9982 27.5683H16.4982ZM14.4318 29.6347V30.1347C15.8491 30.1347 16.9982 28.9856 16.9982 27.5683H16.4982H15.9982C15.9982 28.4333 15.2968 29.1347 14.4318 29.1347V29.6347ZM27.0833 31.8276V31.3276C25.007 31.3276 23.324 29.6444 23.324 27.5683H22.824H22.324C22.324 30.1967 24.4547 32.3276 27.0833 32.3276V31.8276ZM31.3427 27.5683H30.8427C30.8427 29.6445 29.1595 31.3276 27.0833 31.3276V31.8276V32.3276C29.7118 32.3276 31.8427 30.1967 31.8427 27.5683H31.3427ZM27.0833 23.3089V23.8089C29.1595 23.8089 30.8427 25.4921 30.8427 27.5683H31.3427H31.8427C31.8427 24.9398 29.7118 22.8089 27.0833 22.8089V23.3089ZM22.824 27.5683H23.324C23.324 25.4921 25.007 23.8089 27.0833 23.8089V23.3089V22.8089C24.4547 22.8089 22.324 24.9398 22.324 27.5683H22.824ZM25.0169 27.5683H24.5169C24.5169 28.9856 25.6659 30.1347 27.0833 30.1347V29.6347V29.1347C26.2182 29.1347 25.5169 28.4334 25.5169 27.5683H25.0169ZM27.0833 25.5018V25.0018C25.6659 25.0018 24.5169 26.1509 24.5169 27.5683H25.0169H25.5169C25.5169 26.7032 26.2182 26.0018 27.0833 26.0018V25.5018ZM29.1497 27.5683H29.6497C29.6497 26.1509 28.5007 25.0018 27.0833 25.0018V25.5018V26.0018C27.9484 26.0018 28.6497 26.7032 28.6497 27.5683H29.1497ZM27.0833 29.6347V30.1347C28.5007 30.1347 29.6497 28.9856 29.6497 27.5683H29.1497H28.6497C28.6497 28.4333 27.9484 29.1347 27.0833 29.1347V29.6347ZM39.4186 1V1.5C40.0158 1.5 40.5 1.98417 40.5 2.58144H41H41.5C41.5 1.43185 40.5681 0.5 39.4186 0.5V1ZM41 2.58144H40.5C40.5 3.17872 40.0158 3.66289 39.4186 3.66289V4.16289V4.66289C40.5681 4.66289 41.5 3.73103 41.5 2.58144H41ZM39.4186 4.16289V3.66289C38.8213 3.66289 38.3371 3.17873 38.3371 2.58144H37.8371H37.3371C37.3371 3.73102 38.269 4.66289 39.4186 4.66289V4.16289ZM37.8371 2.58144H38.3371C38.3371 1.98415 38.8213 1.5 39.4186 1.5V1V0.5C38.269 0.5 37.3371 1.43187 37.3371 2.58144H37.8371ZM41 14.9167H40.5C40.5 15.514 40.0158 15.9981 39.4186 15.9981V16.4981V16.9981C40.5681 16.9981 41.5 16.0663 41.5 14.9167H41ZM39.4186 16.4981V15.9981C38.8213 15.9981 38.3371 15.514 38.3371 14.9167H37.8371H37.3371C37.3371 16.0663 38.269 16.9981 39.4186 16.9981V16.4981ZM37.8371 14.9167H38.3371C38.3371 14.3194 38.8213 13.8353 39.4186 13.8353V13.3353V12.8353C38.269 12.8353 37.3371 13.7671 37.3371 14.9167H37.8371ZM39.4186 13.3353V13.8353C40.0158 13.8353 40.5 14.3194 40.5 14.9167H41H41.5C41.5 13.7671 40.5681 12.8353 39.4186 12.8353V13.3353ZM22.339 21.2425H21.839C21.839 21.8398 21.3548 22.3239 20.7575 22.3239V22.8239V23.3239C21.907 23.3239 22.839 22.3921 22.839 21.2425H22.339ZM20.7575 22.8239V22.3239C20.1603 22.3239 19.6761 21.8398 19.6761 21.2425H19.1761H18.6761C18.6761 22.3921 19.608 23.3239 20.7575 23.3239V22.8239ZM19.1761 21.2425H19.6761C19.6761 20.6452 20.1603 20.161 20.7575 20.161V19.661V19.161C19.608 19.161 18.6761 20.0929 18.6761 21.2425H19.1761ZM20.7575 19.661V20.161C21.3548 20.161 21.839 20.6452 21.839 21.2425H22.339H22.839C22.839 20.0929 21.907 19.161 20.7575 19.161V19.661ZM9.68744 21.2425H9.18744C9.18744 21.8398 8.70322 22.3239 8.10599 22.3239V22.8239V23.3239C9.25547 23.3239 10.1874 22.3921 10.1874 21.2425H9.68744ZM8.10599 22.8239V22.3239C7.5087 22.3239 7.02455 21.8398 7.02455 21.2425H6.52455H6.02455C6.02455 22.3921 6.95642 23.3239 8.10599 23.3239V22.8239ZM6.52455 21.2425H7.02455C7.02455 20.6452 7.5087 20.161 8.10599 20.161V19.661V19.161C6.95642 19.161 6.02455 20.0929 6.02455 21.2425H6.52455ZM8.10599 19.661V20.161C8.70322 20.161 9.18744 20.6452 9.18744 21.2425H9.68744H10.1874C10.1874 20.0929 9.25547 19.161 8.10599 19.161V19.661ZM22.339 33.894H21.839C21.839 34.4913 21.3548 34.9755 20.7575 34.9755V35.4755V35.9755C21.907 35.9755 22.839 35.0436 22.839 33.894H22.339ZM20.7575 35.4755V34.9755C20.1603 34.9755 19.6761 34.4913 19.6761 33.894H19.1761H18.6761C18.6761 35.0436 19.608 35.9755 20.7575 35.9755V35.4755ZM19.1761 33.894H19.6761C19.6761 33.2967 20.1603 32.8126 20.7575 32.8126V32.3126V31.8126C19.608 31.8126 18.6761 32.7445 18.6761 33.894H19.1761ZM20.7575 32.3126V32.8126C21.3548 32.8126 21.839 33.2968 21.839 33.894H22.339H22.839C22.839 32.7444 21.907 31.8126 20.7575 31.8126V32.3126Z"
        fill="url(#paint0_linear_6283_10392)" />
    <defs>
        <linearGradient
            id="paint0_linear_6283_10392"
            x1="1"
            y1="1"
            x2="41"
            y2="41"
            gradientUnits="userSpaceOnUse">
            <stop stop-color="#4BEDB8" />
            <stop
                offset="0.105"
                stop-color="#20EDBB" />
            <stop
                offset="0.205"
                stop-color="#22E9C8" />
            <stop
                offset="0.3"
                stop-color="#24E4D4" />
            <stop
                offset="0.395"
                stop-color="#28E0E1" />
            <stop
                offset="0.505"
                stop-color="#23D4E8" />
            <stop
                offset="0.595"
                stop-color="#32C5F2" />
            <stop
                offset="0.705"
                stop-color="#46ADF7" />
            <stop
                offset="0.795"
                stop-color="#549BFF" />
            <stop
                offset="0.9"
                stop-color="#6783FF" />
            <stop
                offset="1"
                stop-color="#7B71FF" />
        </linearGradient>
    </defs>
</svg>
