<svg
    width="18"
    height="20"
    viewBox="0 0 18 20"
    fill="none"
    xmlns="http://www.w3.org/2000/svg">
    <path
        d="M3.66667 16.3C2.19391 16.3 1 15.0912 1 13.6V8.2C1 4.80589 1 3.10883 2.0414 2.05442C3.0828 1 4.7589 1 8.11111 1H11.6667C13.1394 1 14.3333 2.20883 14.3333 3.7M9 19H11.6667C14.1808 19 15.4379 19 16.219 18.2092C17 17.4184 17 16.1456 17 13.6V9.1C17 6.55442 17 5.28162 16.219 4.49081C15.4379 3.7 14.1808 3.7 11.6667 3.7H9C6.48584 3.7 5.22876 3.7 4.44772 4.49081C3.66667 5.28162 3.66667 6.55442 3.66667 9.1V13.6C3.66667 16.1456 3.66667 17.4184 4.44772 18.2092C5.22876 19 6.48584 19 9 19Z"
        stroke="#0B0A18"
        stroke-width="1.3" />
</svg>
