<svg
    width="16"
    height="20"
    viewBox="0 0 16 20"
    fill="none"
    xmlns="http://www.w3.org/2000/svg">
    <path
        d="M1.893 0.5C1.39094 0.5 0.909452 0.699623 0.554446 1.05496C0.19944 1.41029 0 1.89222 0 2.39474V12.8158V18.752L0.00699997 18.854C0.0316483 19.0336 0.120481 19.1981 0.257069 19.3172C0.393658 19.4364 0.568762 19.502 0.75 19.502L0.852 19.496C1.03155 19.4714 1.19611 19.3825 1.31523 19.2459C1.43436 19.1093 1.49999 18.9342 1.5 18.753V14.003V12.8158H14.9585C15.1506 12.8159 15.3389 12.7627 15.5027 12.6623C15.6665 12.5619 15.7994 12.418 15.8866 12.2467C15.9737 12.0754 16.0119 11.8833 15.9968 11.6916C15.9816 11.5 15.9138 11.3162 15.8009 11.1607L12.5279 6.6579L15.799 2.15505C15.9119 1.99963 15.9797 1.81597 15.9949 1.62439C16.01 1.43281 15.972 1.24076 15.8849 1.06948C15.7978 0.8982 15.6651 0.754357 15.5014 0.653854C15.3378 0.553352 15.1495 0.500105 14.9575 0.5H1.893Z"
        fill="#574FC1" />
</svg>
