<svg
    width="18"
    height="18"
    viewBox="0 0 18 18"
    fill="none"
    xmlns="http://www.w3.org/2000/svg">
    <path
        d="M14.9052 15.7725L15.9055 16.7727H15.6518C15.3164 16.7727 15.0382 17.0509 15.0382 17.3864C15.0382 17.7218 15.3164 18 15.6518 18H17.3864C17.7218 18 18 17.7218 18 17.3864V15.6518C18 15.3164 17.7218 15.0382 17.3864 15.0382C17.0509 15.0382 16.7727 15.3164 16.7727 15.6518V15.9055L15.7725 14.9052C15.5352 14.668 15.1425 14.668 14.9052 14.9052C14.668 15.1425 14.668 15.5352 14.9052 15.7725Z"
        fill="#574FC1" />
    <path
        d="M14.9052 2.2275L15.9055 1.22727H15.6518C15.3164 1.22727 15.0382 0.94909 15.0382 0.613636C15.0382 0.278182 15.3164 0 15.6518 0H17.3864C17.7218 0 18 0.278182 18 0.613636V2.34818C18 2.68364 17.7218 2.96182 17.3864 2.96182C17.0509 2.96182 16.7727 2.68364 16.7727 2.34818V2.09455L15.7725 3.09478C15.5352 3.33205 15.1425 3.33205 14.9052 3.09478C14.668 2.8575 14.668 2.46478 14.9052 2.2275Z"
        fill="#574FC1" />
    <path
        d="M2.2288 14.9052L1.22574 15.9095V15.6518C1.22574 15.3164 0.947906 15.0382 0.61287 15.0382C0.277835 15.0382 0 15.3164 0 15.6518V17.3864C0 17.7218 0.277835 18 0.61287 18H2.34525C2.68029 18 2.95812 17.7218 2.95812 17.3864C2.95812 17.0509 2.68029 16.7727 2.34525 16.7727H2.09602L3.095 15.7725C3.33197 15.5352 3.33197 15.1425 3.095 14.9052C2.85802 14.668 2.46578 14.668 2.2288 14.9052Z"
        fill="#574FC1" />
    <path
        d="M2.2288 3.09478L1.22574 2.09046V2.34819C1.22574 2.68364 0.947906 2.96182 0.61287 2.96182C0.277835 2.96182 0 2.68364 0 2.34819V0.613641C0 0.278186 0.277835 4.68167e-06 0.61287 4.68167e-06H2.34525C2.68029 4.68167e-06 2.95812 0.278186 2.95812 0.613641C2.95812 0.949095 2.68029 1.22728 2.34525 1.22728H2.09602L3.095 2.2275C3.33197 2.46478 3.33197 2.8575 3.095 3.09478C2.85802 3.33205 2.46578 3.33205 2.2288 3.09478Z"
        fill="#574FC1" />
    <path
        fill-rule="evenodd"
        clip-rule="evenodd"
        d="M9 1.63637C4.94369 1.63637 1.63636 4.94369 1.63636 9C1.63636 13.0563 4.94369 16.3636 9 16.3636C13.0563 16.3636 16.3636 13.0563 16.3636 9C16.3636 4.94369 13.0563 1.63637 9 1.63637ZM9 4.58182C7.88868 4.58182 7.0027 5.47724 7.0027 6.56368C7.0027 7.65013 7.88868 8.54555 9 8.54555C10.1113 8.54555 10.9973 7.65013 10.9973 6.56368C10.9973 5.47724 10.1113 4.58182 9 4.58182ZM6.46118 9.79235C7.12644 9.4194 8.02474 9.1984 9 9.1984C9.97526 9.1984 10.8736 9.4194 11.5388 9.79235C12.1959 10.1607 12.6818 10.7148 12.6818 11.3901L12.6818 11.4329C12.6823 11.9201 12.6828 12.5243 12.1487 12.9579C11.8841 13.1726 11.5132 13.3258 11.0114 13.427C10.5085 13.5285 9.85331 13.5818 9 13.5818C8.14669 13.5818 7.49145 13.5285 6.98857 13.427C6.48678 13.3258 6.11587 13.1726 5.85131 12.9579C5.31715 12.5243 5.31774 11.9201 5.31821 11.4329L5.31824 11.3901C5.31824 10.7148 5.80408 10.1607 6.46118 9.79235Z"
        fill="#574FC1" />
</svg>
