<svg
    width="18"
    height="18"
    viewBox="0 0 18 18"
    fill="none"
    xmlns="http://www.w3.org/2000/svg">
    <path
        fill-rule="evenodd"
        clip-rule="evenodd"
        d="M17.8548 8.2134L17.6487 10.4058C17.3085 14.0166 17.1384 15.8229 16.0737 16.911C15.0108 18 13.416 18 10.2246 18H7.77662C4.58612 18 2.99132 18 1.92662 16.911C0.861919 15.822 0.692719 14.0166 0.352519 10.4058L0.145519 8.2134C-0.0164811 6.4926 -0.097481 5.6313 0.197719 5.2758C0.272202 5.18341 0.364221 5.10666 0.468481 5.04998C0.572741 4.99329 0.687183 4.95778 0.805219 4.9455C1.23362 4.9077 1.77092 5.5197 2.84642 6.7437C3.40262 7.3773 3.68072 7.6932 3.99032 7.7427C4.16324 7.76984 4.34032 7.74148 4.49612 7.6617C4.78322 7.5177 4.97312 7.1262 5.35562 6.3441L7.36892 2.2185C8.09072 0.7398 8.45162 0 9.00062 0C9.54962 0 9.91052 0.7398 10.6323 2.2185L12.6456 6.3441C13.0272 7.1271 13.218 7.5177 13.5051 7.6617C13.6635 7.7418 13.8381 7.7697 14.0109 7.7427C14.3205 7.6932 14.5986 7.3773 15.1548 6.7437C16.2303 5.5197 16.7676 4.9077 17.196 4.9455C17.3141 4.95778 17.4285 4.99329 17.5328 5.04998C17.637 5.10666 17.729 5.18341 17.8035 5.2758C18.0978 5.6313 18.0168 6.4926 17.8548 8.2134ZM5.62562 14.4C5.62562 14.221 5.69673 14.0493 5.82332 13.9227C5.94991 13.7961 6.1216 13.725 6.30062 13.725H11.7006C11.8796 13.725 12.0513 13.7961 12.1779 13.9227C12.3045 14.0493 12.3756 14.221 12.3756 14.4C12.3756 14.579 12.3045 14.7507 12.1779 14.8773C12.0513 15.0039 11.8796 15.075 11.7006 15.075H6.30062C6.1216 15.075 5.94991 15.0039 5.82332 14.8773C5.69673 14.7507 5.62562 14.579 5.62562 14.4Z"
        fill="#574FC1" />
</svg>
