<svg
    width="18"
    height="18"
    viewBox="0 0 18 18"
    fill="none"
    xmlns="http://www.w3.org/2000/svg">
    <path
        d="M5.59184 3.46288C5.92206 3.42136 6.25854 3.39996 6.60002 3.39996C11.0183 3.39996 14.6 6.98167 14.6 11.4C14.6 11.7415 14.5786 12.078 14.5371 12.4082C16.5993 11.2921 18 9.1096 18 6.6C18 2.95491 15.0451 0 11.4 0C8.89046 0 6.70802 1.40066 5.59184 3.46288Z"
        fill="#574FC1" />
    <path
        fill-rule="evenodd"
        clip-rule="evenodd"
        d="M6.00931 8.12069L5.88333 8.15016C4.90597 8.37878 4.13675 9.07787 4.13675 10.0058C4.13675 10.577 4.42416 11.0562 4.87338 11.3976C5.32445 11.7405 5.93287 11.9386 6.54845 11.9386C7.37422 11.9386 7.88187 12.4419 7.88187 12.8972C7.88187 13.3527 7.37399 13.8549 6.54845 13.8549C5.72292 13.8549 5.21503 13.3527 5.21503 12.8972C5.21503 12.7723 5.16158 12.6497 5.0617 12.5572C4.9614 12.4643 4.82281 12.4101 4.67589 12.4101C4.52897 12.4101 4.39039 12.4643 4.29008 12.5572C4.1902 12.6497 4.13675 12.7723 4.13675 12.8972C4.13675 13.8252 4.90605 14.5251 5.8832 14.7528L6.00931 14.7822V14.9205C6.00931 15.0454 6.06276 15.1681 6.16264 15.2606C6.26295 15.3535 6.40154 15.4077 6.54845 15.4077C6.69537 15.4077 6.83396 15.3535 6.93427 15.2606C7.03415 15.1681 7.0876 15.0454 7.0876 14.9205V14.7822L7.2137 14.7528C8.19085 14.5251 8.96016 13.8252 8.96016 12.8972C8.96016 12.326 8.67275 11.8468 8.22353 11.5054C7.77245 11.1625 7.16404 10.9644 6.54845 10.9644C5.72269 10.9644 5.21503 10.4611 5.21503 10.0058C5.21503 9.55028 5.72292 9.04806 6.54845 9.04806C7.37399 9.04806 7.88187 9.55028 7.88187 10.0058C7.88187 10.1307 7.93533 10.2533 8.0352 10.3458C8.13551 10.4387 8.2741 10.4929 8.42102 10.4929C8.56793 10.4929 8.70652 10.4387 8.80683 10.3458C8.90671 10.2533 8.96016 10.1307 8.96016 10.0058C8.96016 9.07787 8.19094 8.37878 7.21358 8.15016L7.0876 8.12069V7.98246C7.0876 7.85756 7.03415 7.73493 6.93427 7.64241C6.83396 7.5495 6.69537 7.49532 6.54845 7.49532C6.40154 7.49532 6.26295 7.5495 6.16264 7.64241C6.06276 7.73493 6.00931 7.85756 6.00931 7.98246V8.12069ZM13.2 11.4C13.2 15.0454 10.2449 18 6.6 18C2.95505 18 0 15.0454 0 11.4C0 7.75459 2.95505 4.8 6.6 4.8C10.2449 4.8 13.2 7.75459 13.2 11.4Z"
        fill="#574FC1" />
</svg>
