<svg
    width="18"
    height="18"
    viewBox="0 0 18 18"
    fill="none"
    xmlns="http://www.w3.org/2000/svg">
    <path
        d="M8.97495 4.55038C8.60977 4.55038 8.25955 4.6942 8.00134 4.95021C7.74312 5.20622 7.59805 5.55344 7.59805 5.91549C7.59805 6.27754 7.74312 6.62477 8.00134 6.88077C8.25955 7.13678 8.60977 7.28061 8.97495 7.28061C9.34013 7.28061 9.69035 7.13678 9.94857 6.88077C10.2068 6.62477 10.3519 6.27754 10.3519 5.91549C10.3519 5.55344 10.2068 5.20622 9.94857 4.95021C9.69035 4.6942 9.34013 4.55038 8.97495 4.55038Z"
        fill="#574FC1" />
    <path
        fill-rule="evenodd"
        clip-rule="evenodd"
        d="M1.51551 11.2614C2.37556 11.831 3.57143 11.831 5.96659 11.831H12.0334C14.4277 11.831 15.6244 11.831 16.4845 11.2614C16.8569 11.0147 17.1767 10.6977 17.4255 10.3285C18 9.47577 18 8.29014 18 5.91549C18 3.54085 18 2.35521 17.4255 1.50254C17.1767 1.13329 16.8569 0.816263 16.4845 0.569577C15.6244 0 14.4286 0 12.0334 0H5.96659C3.57228 0 2.37556 0 1.51551 0.569577C1.14308 0.816263 0.823314 1.13329 0.574497 1.50254C0 2.35521 0 3.54085 0 5.91549C0 8.29014 0 9.47577 0.574497 10.3285C0.823314 10.6977 1.14308 11.0147 1.51551 11.2614ZM7.1668 4.12283C7.64636 3.64738 8.29676 3.38028 8.97495 3.38028C9.65314 3.38028 10.3036 3.64738 10.7831 4.12283C11.2627 4.59827 11.5321 5.24311 11.5321 5.91549C11.5321 6.58787 11.2627 7.23271 10.7831 7.70816C10.3036 8.1836 9.65314 8.4507 8.97495 8.4507C8.29676 8.4507 7.64636 8.1836 7.1668 7.70816C6.68725 7.23271 6.41784 6.58787 6.41784 5.91549C6.41784 5.24311 6.68725 4.59827 7.1668 4.12283ZM3.19639 2.53521C2.84332 2.53521 2.55711 2.81897 2.55711 3.16901C2.55711 3.51905 2.84332 3.80282 3.19639 3.80282H4.90113C5.25419 3.80282 5.54041 3.51905 5.54041 3.16901C5.54041 2.81897 5.25419 2.53521 4.90113 2.53521H3.19639ZM13.0989 8.02817C12.7458 8.02817 12.4596 8.31193 12.4596 8.66197C12.4596 9.01201 12.7458 9.29578 13.0989 9.29578H14.8036C15.1567 9.29578 15.4429 9.01201 15.4429 8.66197C15.4429 8.31193 15.1567 8.02817 14.8036 8.02817H13.0989Z"
        fill="#574FC1" />
    <path
        fill-rule="evenodd"
        clip-rule="evenodd"
        d="M6.69831 13.1983C6.96273 12.9339 7.39144 12.9339 7.65585 13.1983L9 14.5425L10.3441 13.1983C10.6086 12.9339 11.0373 12.9339 11.3017 13.1983C11.5661 13.4627 11.5661 13.8914 11.3017 14.1559L9.95754 15.5L11.3017 16.8441C11.5661 17.1086 11.5661 17.5373 11.3017 17.8017C11.0373 18.0661 10.6086 18.0661 10.3441 17.8017L9 16.4575L7.65585 17.8017C7.39144 18.0661 6.96273 18.0661 6.69831 17.8017C6.4339 17.5373 6.4339 17.1086 6.69831 16.8441L8.04246 15.5L6.69831 14.1559C6.4339 13.8914 6.4339 13.4627 6.69831 13.1983Z"
        fill="#574FC1" />
</svg>
