<svg
    width="18"
    height="18"
    viewBox="0 0 18 18"
    fill="none"
    xmlns="http://www.w3.org/2000/svg">
    <path
        d="M13.9091 18H4.09091C3.87391 18 3.66581 17.9138 3.51237 17.7604C3.35893 17.6069 3.27273 17.3988 3.27273 17.1818C3.27273 16.9648 3.35893 16.7567 3.51237 16.6033C3.66581 16.4498 3.87391 16.3636 4.09091 16.3636H13.9091C14.1261 16.3636 14.3342 16.4498 14.4876 16.6033C14.6411 16.7567 14.7273 16.9648 14.7273 17.1818C14.7273 17.3988 14.6411 17.6069 14.4876 17.7604C14.3342 17.9138 14.1261 18 13.9091 18Z"
        fill="#574FC1" />
    <path
        fill-rule="evenodd"
        clip-rule="evenodd"
        d="M4.09091 0H13.9091C14.4463 0 14.9783 0.105815 15.4746 0.311402C15.9709 0.516989 16.4219 0.818323 16.8018 1.1982C17.1817 1.57808 17.483 2.02905 17.6886 2.52539C17.8942 3.02172 18 3.55368 18 4.09091V10.6364C18 11.1736 17.8942 11.7056 17.6886 12.2019C17.483 12.6982 17.1817 13.1492 16.8018 13.5291C16.4219 13.9089 15.9709 14.2103 15.4746 14.4159C14.9783 14.6215 14.4463 14.7273 13.9091 14.7273H4.09091C3.55368 14.7273 3.02172 14.6215 2.52539 14.4159C2.02905 14.2103 1.57808 13.9089 1.1982 13.5291C0.431005 12.7619 0 11.7213 0 10.6364V4.09091C0 3.00593 0.431005 1.96539 1.1982 1.1982C1.57808 0.818323 2.02905 0.516989 2.52539 0.311402C3.02172 0.105815 3.55368 0 4.09091 0ZM10.4619 4.49926C10.5602 4.16902 10.3689 3.82259 10.0345 3.72549C9.70014 3.62838 9.34937 3.81738 9.25105 4.14761L7.53817 9.90077C7.43985 10.231 7.63121 10.5774 7.96558 10.6745C8.29996 10.7716 8.65073 10.5826 8.74905 10.2524L10.4619 4.49926ZM6.7596 5.90326C7.02911 5.685 7.06844 5.29229 6.84745 5.02611C6.62646 4.75994 6.22883 4.7211 5.95932 4.93935L5.20052 5.55385C4.89327 5.80258 4.61348 6.02909 4.41632 6.2402C4.20399 6.46756 4 6.76692 4 7.16704C4 7.56737 4.20432 7.86678 4.41661 8.09396C4.61349 8.30466 4.89275 8.53071 5.19921 8.77878L5.95916 9.39459C6.2286 9.61294 6.62624 9.57422 6.84732 9.30811C7.0684 9.04201 7.0292 8.64929 6.75976 8.43095L6.02853 7.83839C5.68134 7.55729 5.47343 7.38695 5.34411 7.24856C5.31004 7.2121 5.2887 7.18533 5.27561 7.16695C5.28869 7.14857 5.31002 7.1218 5.34408 7.08533C5.4733 6.94696 5.68125 6.77649 6.02859 6.49525L6.7596 5.90326ZM12.0405 4.97222C11.771 4.75403 11.3734 4.79299 11.1524 5.05923C10.9315 5.32547 10.971 5.71816 11.2405 5.93634L11.972 6.52834C12.3189 6.80959 12.5266 6.9798 12.6559 7.11822C12.69 7.15473 12.7113 7.18152 12.7244 7.1999C12.7113 7.21829 12.69 7.24506 12.6559 7.28154C12.5266 7.41992 12.3184 7.59044 11.9713 7.87154L11.2402 8.46392C10.9708 8.68226 10.9316 9.07499 11.1527 9.34109C11.3738 9.60719 11.7714 9.64591 12.0408 9.42757L12.8008 8.81178C13.1072 8.5637 13.3865 8.33764 13.5834 8.12694C13.7957 7.89976 14 7.60034 14 7.20001C14 6.7996 13.7958 6.50021 13.5835 6.27297C13.3874 6.06307 13.1095 5.83778 12.8046 5.59065L12.0405 4.97222Z"
        fill="#574FC1" />
</svg>
