<?xml version="1.0" encoding="UTF-8"?>
<svg
    width="124"
    height="118"
    viewBox="0 0 124 118"
    fill="none"
    xmlns="http://www.w3.org/2000/svg">
    <path
        d="M68.5199 112.51L70.2174 113.568L68.5199 112.51ZM71.7725 107.29L70.075 106.232V106.232L71.7725 107.29ZM52.2272 107.29L50.5298 108.348L52.2272 107.29ZM55.4798 112.51L57.1773 111.453L55.4798 112.51ZM4.28361 81.3068L6.11693 80.5075L4.28361 81.3068ZM36.7375 98.8517L36.7047 100.851L36.7375 98.8517ZM20.5195 96.731L19.7871 98.5921H19.7872L20.5195 96.731ZM119.716 81.3068L121.55 82.1062L119.716 81.3068ZM87.2623 98.8517L87.2295 96.852L87.2623 98.8517ZM103.481 96.731L104.213 98.5921H104.213L103.481 96.731ZM107.675 6.19977L106.669 7.92821L107.675 6.19977ZM117.579 15.6088L119.26 14.5247V14.5247L117.579 15.6088ZM16.325 6.19977L15.3188 4.47134V4.47134L16.325 6.19977ZM6.4208 15.6088L4.74012 14.5247L6.4208 15.6088ZM46.4167 100.097L47.384 98.346H47.384L46.4167 100.097ZM70.2174 113.568L73.47 108.348L70.075 106.232L66.8224 111.453L70.2174 113.568ZM50.5298 108.348L53.7823 113.568L57.1773 111.453L53.9247 106.232L50.5298 108.348ZM66.8224 111.453C64.7063 114.849 59.2934 114.849 57.1773 111.453L53.7823 113.568C57.4642 119.477 66.5355 119.477 70.2174 113.568L66.8224 111.453ZM53 4H71V0H53V4ZM120 50.4502V56.1502H124V50.4502H120ZM4 56.1502V50.4502H0V56.1502H4ZM0 56.1502C0 62.7611 -0.00119948 67.8247 0.29059 71.8875C0.583822 75.9704 1.18027 79.1933 2.4503 82.1062L6.11693 80.5075C5.10334 78.1828 4.55799 75.4672 4.28031 71.601C4.0012 67.7147 4 62.8187 4 56.1502H0ZM36.7702 96.852C29.2363 96.7286 24.8423 96.2827 21.2518 94.8699L19.7872 98.5921C24.1204 100.297 29.1743 100.728 36.7047 100.851L36.7702 96.852ZM2.4503 82.1062C5.71551 89.595 11.9635 95.5134 19.7871 98.5921L21.2518 94.8699C14.3738 92.1633 8.94136 86.9853 6.11693 80.5075L2.4503 82.1062ZM120 56.1502C120 62.8187 119.999 67.7147 119.72 71.601C119.442 75.4672 118.897 78.1828 117.883 80.5075L121.55 82.1062C122.82 79.1933 123.416 75.9704 123.709 71.8875C124.001 67.8247 124 62.7611 124 56.1502H120ZM87.295 100.851C94.8255 100.728 99.8796 100.297 104.213 98.5921L102.748 94.8699C99.1577 96.2827 94.7636 96.7286 87.2295 96.852L87.295 100.851ZM117.883 80.5075C115.059 86.9853 109.626 92.1633 102.748 94.8699L104.213 98.5921C112.037 95.5134 118.284 89.595 121.55 82.1062L117.883 80.5075ZM71 4C80.8571 4 88.1165 4.00191 93.8175 4.51686C99.4929 5.0295 103.421 6.03762 106.669 7.92821L108.681 4.47134C104.715 2.16216 100.126 1.07039 94.1773 0.533081C88.2546 -0.00190616 80.7835 0 71 0V4ZM124 50.4502C124 41.1616 124.002 34.0474 123.437 28.4034C122.869 22.725 121.711 18.3252 119.26 14.5247L115.899 16.693C117.868 19.7459 118.92 23.4375 119.457 28.8017C119.998 34.2004 120 41.0802 120 50.4502H124ZM106.669 7.92821C110.44 10.1235 113.6 13.1294 115.899 16.693L119.26 14.5247C116.611 10.4186 112.984 6.97608 108.681 4.47134L106.669 7.92821ZM53 0C43.2165 0 35.7454 -0.00190616 29.8227 0.533081C23.8742 1.07039 19.2854 2.16216 15.3188 4.47134L17.3313 7.92821C20.5788 6.03762 24.5071 5.0295 30.1825 4.51686C35.8835 4.00191 43.1429 4 53 4V0ZM4 50.4502C4 41.0802 4.00234 34.2004 4.54266 28.8017C5.07954 23.4375 6.13219 19.7459 8.10147 16.693L4.74012 14.5247C2.2886 18.3252 1.13086 22.725 0.562542 28.4034C-0.00233555 34.0474 0 41.1616 0 50.4502H4ZM15.3188 4.47134C11.0163 6.97608 7.3888 10.4186 4.74012 14.5247L8.10147 16.693C10.4001 13.1294 13.5604 10.1235 17.3313 7.92821L15.3188 4.47134ZM53.9247 106.232C52.6835 104.24 51.6795 102.624 50.7225 101.377C49.7381 100.094 48.7189 99.0835 47.384 98.346L45.4495 101.847C46.1408 102.229 46.7654 102.791 47.5489 103.812C48.36 104.869 49.2481 106.29 50.5298 108.348L53.9247 106.232ZM36.7047 100.851C39.2911 100.894 41.101 100.925 42.5213 101.075C43.9083 101.221 44.7596 101.466 45.4495 101.847L47.384 98.346C46.0477 97.6076 44.6104 97.2723 42.9398 97.0966C41.3025 96.9243 39.2859 96.8931 36.7702 96.852L36.7047 100.851ZM73.47 108.348C74.7516 106.29 75.6397 104.869 76.4508 103.812C77.2344 102.791 77.859 102.229 78.5502 101.847L76.6158 98.346C75.2809 99.0835 74.2616 100.094 73.2772 101.377C72.3203 102.624 71.3163 104.24 70.075 106.232L73.47 108.348ZM87.2295 96.852C84.7138 96.8931 82.6973 96.9243 81.06 97.0966C79.3894 97.2723 77.952 97.6076 76.6158 98.346L78.5502 101.847C79.2402 101.466 80.0914 101.221 81.4784 101.075C82.8987 100.925 84.7087 100.894 87.295 100.851L87.2295 96.852Z"
        fill="#574FC1" />

    <g transform="translate(36, 24)">
        <path
            d="M19.1674 10.1793C22.2081 4.72642 23.7273 2 26 2C28.2727 2 29.7919 4.72642 32.8326 10.1793L33.6198 11.5905C34.4838 13.1409 34.9158 13.9161 35.5878 14.4273C36.2598 14.9385 37.0997 15.1281 38.7797 15.5073L40.3061 15.8529C46.2099 17.1897 49.1595 17.8569 49.8626 20.1153C50.5634 22.3713 48.5523 24.7257 44.5276 29.4322L43.486 30.649C42.3436 31.9858 41.77 32.6554 41.5132 33.481C41.2564 34.309 41.3428 35.2018 41.5156 36.985L41.674 38.6098C42.2812 44.8907 42.586 48.0299 40.7476 49.4243C38.9093 50.8187 36.1446 49.5467 30.6199 47.0027L29.1871 46.3451C27.6176 45.6203 26.8328 45.2603 26 45.2603C25.1672 45.2603 24.3824 45.6203 22.8129 46.3451L21.3825 47.0027C15.8554 49.5467 13.0907 50.8187 11.2547 49.4267C9.41399 48.0299 9.71878 44.8907 10.326 38.6098L10.4844 36.9874C10.6572 35.2018 10.7436 34.309 10.4844 33.4834C10.23 32.6554 9.65638 31.9858 8.51401 30.6514L7.47244 29.4322C3.44773 24.7281 1.43658 22.3737 2.13736 20.1153C2.83814 17.8569 5.79247 17.1873 11.6963 15.8529L13.2227 15.5073C14.9003 15.1281 15.7378 14.9385 16.4122 14.4273C17.0866 13.9161 17.5162 13.1409 18.3802 11.5905L19.1674 10.1793Z"
            stroke="#574FC1"
            stroke-opacity="0.5"
            stroke-width="4" />
    </g>
</svg>
