<svg
    width="20"
    height="20"
    viewBox="0 0 20 20"
    fill="none"
    xmlns="http://www.w3.org/2000/svg">
    <path
        d="M6.4 8.65H13.6M6.4 11.8H11.35M10 19C14.9707 19 19 14.9707 19 10C19 5.0293 14.9707 1 10 1C5.0293 1 1 5.0293 1 10C1 11.44 1.3384 12.8008 1.9387 14.0077C2.0989 14.3281 2.152 14.6944 2.0593 15.0409L1.5238 17.0443C1.47076 17.2426 1.47081 17.4513 1.52394 17.6495C1.57707 17.8478 1.68141 18.0285 1.82648 18.1737C1.97156 18.3189 2.15227 18.4233 2.35047 18.4766C2.54868 18.5298 2.7574 18.53 2.9557 18.4771L4.9591 17.9407C5.30684 17.8528 5.67472 17.8954 5.9932 18.0604C7.23785 18.6801 8.6096 19.0018 10 19Z"
        stroke="#574FC1"
        stroke-width="1.3"
        stroke-linecap="round" />
</svg>
