<svg
    width="20"
    height="22"
    viewBox="0 0 20 22"
    fill="none"
    xmlns="http://www.w3.org/2000/svg">
    <path
        d="M16.039 1.82319L15.9729 1.93092C15.3776 2.90049 15.0799 3.38527 14.6452 3.67854C14.5586 3.73725 14.469 3.7894 14.3766 3.835C13.9104 4.06585 13.3734 4.06585 12.3 4.06585C11.2266 4.06585 10.6904 4.06585 10.2242 3.835C10.1314 3.78921 10.0414 3.73695 9.95483 3.67854C9.52013 3.38527 9.22245 2.90049 8.6271 1.93092L8.56095 1.82319M10.95 17.935H13.65M5.1 12.9H3.3M1.5 10.05H6H9.6M9.6 5.775V7.2M9.6 16.225V14.8M9.6 10.05V14.8M9.6 10.05V7.2M9.6 14.8H6.00186M9.6 7.2H6.00183M6.00186 14.8H5.1C3.40305 14.8 2.55435 14.8 2.0274 14.2433C1.50045 13.6866 1.5 12.7912 1.5 11C1.5 9.20877 1.5 8.31292 2.0274 7.7567C2.5548 7.20047 3.40305 7.2 5.1 7.2H6.00183M6.00186 14.8C6.01472 17.2792 6.11655 18.6217 6.92295 19.4979C7.84511 20.5 9.33034 20.5 12.3 20.5C15.2697 20.5 16.7541 20.4991 17.6771 19.4979C18.6 18.4967 18.6 16.8842 18.6 13.66V8.34C18.6 5.11579 18.5992 3.50412 17.6771 2.50206C16.7549 1.5 15.2697 1.5 12.3 1.5C9.33034 1.5 7.8459 1.50085 6.92295 2.50206C6.11586 3.37758 6.01454 4.72058 6.00183 7.2"
        stroke="#574FC1"
        stroke-width="1.3"
        stroke-linecap="round" />
</svg>
