<svg
    width="14"
    height="16"
    viewBox="0 0 14 16"
    fill="none"
    xmlns="http://www.w3.org/2000/svg">
    <path
        d="M1.16669 15C0.890545 15 0.666687 15.2239 0.666687 15.5C0.666687 15.7761 0.890545 16 1.16669 16V15ZM12.8328 16C13.1089 16 13.3328 15.7761 13.3328 15.5C13.3328 15.2239 13.1089 15 12.8328 15V16ZM8.37634 1.74744L8.01784 1.3989L7.86457 1.55656L7.87716 1.77607L8.37634 1.74744ZM8.91735 1.19094L8.55889 0.842371L8.55885 0.842411L8.91735 1.19094ZM12.1613 4.5284L12.5193 4.87742L12.5197 4.87697L12.1613 4.5284ZM11.6202 5.08414L11.9787 5.43268L12.7386 4.6511L11.6505 4.58506L11.6202 5.08414ZM3.40585 6.86012L3.76435 7.20865L3.76438 7.20862L3.40585 6.86012ZM2.75619 7.57036L3.1543 7.87287L3.15526 7.8716L2.75619 7.57036ZM2.31944 8.2971L2.77293 8.50769L2.77329 8.50693L2.31944 8.2971ZM1.99206 9.21209L1.51656 9.0575L1.5164 9.058L1.99206 9.21209ZM1.35407 11.1816L0.878409 11.0275L0.878285 11.0279L1.35407 11.1816ZM5.95927 10.8651L5.64627 10.4751L5.64625 10.4752L5.95927 10.8651ZM5.25274 11.3143L5.03256 10.8654L5.03225 10.8655L5.25274 11.3143ZM4.3632 11.6503L4.20127 11.1773L4.20092 11.1774L4.3632 11.6503ZM2.4485 12.3073L2.61021 12.7804L2.61078 12.7802L2.4485 12.3073ZM1.98113 12.467L1.81941 11.9939L1.81864 11.9942L1.98113 12.467ZM1.19877 11.6623L1.67432 11.8168L1.67456 11.816L1.19877 11.6623ZM1.16669 16H12.8328V15H1.16669V16ZM8.73484 2.09597L9.27586 1.53948L8.55885 0.842411L8.01784 1.3989L8.73484 2.09597ZM9.27582 1.53952C9.4431 1.36749 9.64091 1.23182 9.85758 1.13953L9.46572 0.219506C9.12571 0.364324 8.8177 0.576214 8.55889 0.842371L9.27582 1.53952ZM9.85758 1.13953C10.0742 1.04726 10.3059 0.999973 10.5395 1L10.5396 2.98023e-08C10.1707 -4.26173e-05 9.80576 0.0746746 9.46572 0.219506L9.85758 1.13953ZM10.5395 1C10.7731 1.00003 11.0048 1.04736 11.2214 1.13969L11.6135 0.219754C11.2735 0.0748441 10.9085 4.26471e-05 10.5396 2.98023e-08L10.5395 1ZM11.2214 1.13969C11.4381 1.23203 11.6358 1.36775 11.8031 1.53981L12.5202 0.842827C12.2614 0.576611 11.9534 0.36465 11.6135 0.219754L11.2214 1.13969ZM11.8031 1.53981C11.9704 1.71191 12.1038 1.91697 12.195 2.14363L13.1227 1.77019C12.9834 1.42425 12.7789 1.10901 12.5202 0.842827L11.8031 1.53981ZM12.195 2.14363C12.2863 2.37032 12.3334 2.61374 12.3334 2.85988L13.3334 2.85999C13.3334 2.48638 13.2619 2.11611 13.1227 1.77019L12.195 2.14363ZM12.3334 2.85988C12.3333 3.10602 12.2861 3.34944 12.1948 3.5761L13.1224 3.94975C13.2617 3.60386 13.3333 3.2336 13.3334 2.85999L12.3334 2.85988ZM12.1948 3.5761C12.1035 3.80274 11.9701 4.00777 11.8028 4.17983L12.5197 4.87697C12.7785 4.61085 12.9831 4.29565 13.1224 3.94975L12.1948 3.5761ZM11.8032 4.17938L11.2622 4.73438L11.9783 5.43241L12.5193 4.87742L11.8032 4.17938ZM8.37634 1.74744C7.87716 1.77607 7.87717 1.77628 7.87718 1.77648C7.87719 1.77655 7.8772 1.77676 7.87721 1.77691C7.87723 1.77721 7.87724 1.77753 7.87726 1.77786C7.87731 1.77854 7.87735 1.77928 7.8774 1.7801C7.87751 1.78173 7.87764 1.78366 7.87779 1.78587C7.8781 1.7903 7.87852 1.79588 7.87908 1.80257C7.8802 1.81594 7.88187 1.83377 7.88432 1.85571C7.88921 1.89957 7.89723 1.96004 7.91022 2.03441C7.93616 2.18296 7.98212 2.38833 8.06316 2.62856C8.22514 3.10875 8.52955 3.73456 9.09914 4.32044L9.81614 3.62337C9.37223 3.16676 9.13599 2.68034 9.0107 2.30892C8.9481 2.12334 8.91376 1.96806 8.89532 1.86241C8.88611 1.80968 8.88092 1.76966 8.87815 1.74481C8.87676 1.7324 8.87599 1.72381 8.87561 1.71936C8.87543 1.71714 8.87534 1.71595 8.87534 1.71585C8.87533 1.71579 8.87535 1.71601 8.87538 1.7165C8.8754 1.71674 8.87541 1.71706 8.87544 1.71744C8.87545 1.71763 8.87546 1.71784 8.87548 1.71807C8.87548 1.71818 8.87549 1.71836 8.8755 1.71842C8.87551 1.71861 8.87552 1.7188 8.37634 1.74744ZM9.09914 4.32044C9.66917 4.90678 10.2798 5.22172 10.7509 5.38986C10.9863 5.47388 11.1879 5.52163 11.334 5.54864C11.4072 5.56215 11.4668 5.57053 11.5103 5.57566C11.532 5.57823 11.5497 5.57998 11.5631 5.58116C11.5698 5.58176 11.5754 5.5822 11.5799 5.58254C11.5821 5.5827 11.5841 5.58284 11.5858 5.58295C11.5866 5.58301 11.5874 5.58306 11.5881 5.58311C11.5884 5.58313 11.5888 5.58315 11.5891 5.58317C11.5892 5.58318 11.5894 5.58319 11.5895 5.5832C11.5897 5.58321 11.59 5.58322 11.6202 5.08414C11.6505 4.58506 11.6507 4.58507 11.6509 4.58509C11.651 4.58509 11.6512 4.5851 11.6513 4.58511C11.6516 4.58512 11.6518 4.58514 11.652 4.58515C11.6524 4.58518 11.6528 4.5852 11.653 4.58522C11.6536 4.58526 11.6539 4.58528 11.654 4.58528C11.654 4.58529 11.6531 4.58522 11.6511 4.58504C11.6471 4.5847 11.6392 4.58394 11.6275 4.58256C11.6041 4.5798 11.5661 4.57458 11.5157 4.56528C11.4147 4.54662 11.2656 4.51178 11.0871 4.44805C10.7303 4.3207 10.2596 4.07952 9.81614 3.62337L9.09914 4.32044ZM8.01781 1.39818L3.04732 6.51161L3.76438 7.20862L8.73487 2.09519L8.01781 1.39818ZM3.04735 6.51158C2.71941 6.8489 2.52473 7.0471 2.35713 7.26911L3.15526 7.8716C3.2764 7.71113 3.41857 7.56432 3.76435 7.20865L3.04735 6.51158ZM2.35809 7.26785C2.16507 7.52186 1.99996 7.79666 1.8656 8.08727L2.77329 8.50693C2.87746 8.2816 3.00527 8.06899 3.1543 7.87287L2.35809 7.26785ZM1.86596 8.08651C1.74892 8.33854 1.66365 8.60507 1.51656 9.0575L2.46757 9.36668C2.62234 8.89062 2.68727 8.69215 2.77293 8.50769L1.86596 8.08651ZM1.5164 9.058L0.878409 11.0275L1.82974 11.3356L2.46773 9.36617L1.5164 9.058ZM11.2617 4.73561L6.29125 9.84829L7.00826 10.5454L11.9787 5.43268L11.2617 4.73561ZM6.29125 9.84829C5.94617 10.2032 5.80268 10.3496 5.64627 10.4751L6.27226 11.255C6.48772 11.082 6.67962 10.8834 7.00826 10.5454L6.29125 9.84829ZM5.64625 10.4752C5.45564 10.6282 5.25125 10.7581 5.03256 10.8654L5.47292 11.7632C5.75782 11.6235 6.02445 11.4539 6.27228 11.255L5.64625 10.4752ZM5.03225 10.8655C4.85514 10.9526 4.66427 11.0188 4.20127 11.1773L4.52513 12.1234C4.96479 11.9729 5.22599 11.8845 5.47323 11.7631L5.03225 10.8655ZM4.20092 11.1774L2.28622 11.8344L2.61078 12.7802L4.52548 12.1232L4.20092 11.1774ZM2.28679 11.8342L1.81941 11.9939L2.14284 12.9402L2.61021 12.7804L2.28679 11.8342ZM1.81864 11.9942C1.7998 12.0007 1.7801 12.0015 1.76117 11.9969L1.52554 12.9688C1.73027 13.0184 1.9445 13.0083 2.14361 12.9399L1.81864 11.9942ZM1.76117 11.9969C1.74215 11.9923 1.72297 11.9819 1.70651 11.965L0.989503 12.6621C1.13554 12.8123 1.3209 12.9192 1.52554 12.9688L1.76117 11.9969ZM1.70651 11.965C1.68994 11.948 1.67695 11.925 1.67077 11.8981L0.696036 12.1214C0.742581 12.3245 0.843586 12.512 0.989503 12.6621L1.70651 11.965ZM1.67077 11.8981C1.66458 11.871 1.66588 11.8427 1.67432 11.8168L0.723221 11.5079C0.658842 11.7061 0.649504 11.9184 0.696036 12.1214L1.67077 11.8981ZM1.67456 11.816L1.82986 11.3353L0.878285 11.0279L0.72298 11.5086L1.67456 11.816ZM2.807 11.9588L1.71258 10.833L0.99557 11.5301L2.09 12.6558L2.807 11.9588Z"
        fill="#8D96AD" />
</svg>
