<svg
    width="20"
    height="16"
    viewBox="0 0 20 16"
    fill="none"
    xmlns="http://www.w3.org/2000/svg">
    <path
        fill-rule="evenodd"
        clip-rule="evenodd"
        d="M1.6134 1.59875C0.5 2.69656 0.5 4.46469 0.5 8C0.5 11.5353 0.5 13.3034 1.6134 14.4012C2.7268 15.4991 4.51755 15.5 8.1 15.5H11.9C15.4824 15.5 17.2741 15.5 18.3866 14.4012C19.499 13.3025 19.5 11.5353 19.5 8C19.5 4.46469 19.5 2.69656 18.3866 1.59875C17.2732 0.500937 15.4824 0.5 11.9 0.5H8.1C4.51755 0.5 2.72585 0.5 1.6134 1.59875ZM16.2472 3.8C16.3681 3.94324 16.4264 4.12799 16.4093 4.31363C16.3922 4.49928 16.3011 4.67062 16.156 4.79L14.0698 6.50563C13.2271 7.19938 12.545 7.76 11.9418 8.1425C11.3148 8.54094 10.7039 8.79219 10 8.79219C9.29605 8.79219 8.6852 8.54 8.05725 8.1425C7.45495 7.76 6.77285 7.19844 5.9302 6.50656L3.844 4.79094C3.69875 4.67159 3.60749 4.50019 3.59029 4.31444C3.5731 4.12869 3.63139 3.94381 3.75233 3.80047C3.87326 3.65713 4.04695 3.56707 4.23518 3.5501C4.4234 3.53314 4.61075 3.59065 4.756 3.71L6.808 5.39656C7.69435 6.125 8.309 6.62938 8.8296 6.95938C9.33215 7.27813 9.6732 7.38594 10.0009 7.38594C10.3287 7.38594 10.6698 7.27906 11.1723 6.95938C11.6919 6.62938 12.3076 6.125 13.1939 5.39656L15.2449 3.70906C15.3902 3.58988 15.5775 3.5325 15.7656 3.54955C15.9538 3.56661 16.1264 3.65669 16.2472 3.8Z"
        fill="#574FC1" />
</svg>
