<svg
    width="18"
    height="20"
    viewBox="0 0 18 20"
    fill="none"
    xmlns="http://www.w3.org/2000/svg">
    <path
        d="M9.83183 4.36542C11.481 4.36542 12.6614 4.36665 13.5587 4.49077C14.4398 4.61265 14.9631 4.84337 15.3482 5.23977C15.5389 5.43605 15.6902 5.66707 15.8087 5.96017C13.4139 7.5593 12.2399 8.31872 11.017 8.70969C9.11697 9.31683 7.08256 9.31682 5.18257 8.70969C3.95877 8.31869 2.78456 7.55994 0.389564 5.95999C0.508101 5.66696 0.659396 5.43613 0.850148 5.24012C1.23582 4.84381 1.75941 4.61307 2.64039 4.49109C3.53756 4.36687 4.71774 4.36542 6.36687 4.36542H9.83183Z"
        fill="#574FC1" />
    <path
        fill-rule="evenodd"
        clip-rule="evenodd"
        d="M6.38067 2.52511C6.50643 2.15595 6.73922 1.83636 7.047 1.61033C7.35479 1.38429 7.72244 1.26293 8.09935 1.26293C8.47626 1.26293 8.84391 1.38429 9.15169 1.61033C9.45948 1.83636 9.69227 2.15595 9.81803 2.52511C9.84365 2.60451 9.88423 2.67783 9.9374 2.74077C9.99057 2.80372 10.0553 2.85504 10.1277 2.89175C10.2002 2.92846 10.2789 2.94982 10.3594 2.95458C10.4399 2.95935 10.5205 2.94742 10.5965 2.9195C10.6725 2.89158 10.7424 2.84822 10.8021 2.79196C10.8618 2.73569 10.9101 2.66764 10.9443 2.59177C10.9784 2.5159 10.9977 2.43373 11.0009 2.35005C11.0042 2.26637 10.9914 2.18285 10.9633 2.10436C10.7539 1.48894 10.366 0.956106 9.85299 0.579237C9.34002 0.202368 8.72721 0 8.09894 0C7.47068 0 6.85787 0.202368 6.34489 0.579237C5.83192 0.956106 5.44402 1.48894 5.23461 2.10436C5.20802 2.18254 5.19651 2.2654 5.20074 2.34821C5.20497 2.43101 5.22486 2.51214 5.25927 2.58696C5.29368 2.66178 5.34193 2.72882 5.40128 2.78427C5.46063 2.83971 5.5299 2.88246 5.60515 2.91009C5.75713 2.96589 5.92422 2.95667 6.06965 2.88447C6.21509 2.81227 6.32696 2.683 6.38067 2.52511Z"
        fill="#574FC1" />
    <path
        fill-rule="evenodd"
        clip-rule="evenodd"
        d="M16.086 7.1559C13.9393 8.58755 12.6808 9.39061 11.3512 9.81569C9.23355 10.4924 6.96608 10.4924 4.84847 9.81571C3.51793 9.39061 2.25944 8.58829 0.112374 7.15587C0.00113291 8.06924 0 9.26312 0 10.9135C0 12.6096 0.00141218 13.8234 0.122195 14.7461C0.240798 15.6522 0.465147 16.1907 0.850488 16.5873C1.23559 16.9837 1.75888 17.2144 2.63999 17.3363C3.53729 17.4604 4.71765 17.4617 6.36687 17.4617H8.64019L8.61724 17.3742C8.43697 16.824 8.33927 16.2353 8.33927 15.6236C8.33927 12.5822 10.7546 10.1094 13.7253 10.1094C14.6165 10.1094 15.4577 10.3319 16.1987 10.7256C16.1984 9.1718 16.1931 8.03415 16.086 7.1559Z"
        fill="#574FC1" />
    <path
        fill-rule="evenodd"
        clip-rule="evenodd"
        d="M16.1969 12.0549C15.4986 11.5465 14.6454 11.2473 13.7253 11.2473C11.3685 11.2473 9.45069 13.2107 9.45069 15.6236C9.45069 16.2457 9.57813 16.8378 9.80769 17.3742C9.82024 17.4035 9.83311 17.4327 9.84627 17.4617C10.526 18.9591 12.0093 20 13.7253 20C16.0822 20 18 18.0366 18 15.6236C18 14.1942 17.327 12.9225 16.2883 12.1233C16.2581 12.1001 16.2276 12.0773 16.1969 12.0549ZM13.7285 14.1747C13.7285 13.9125 13.4983 13.7 13.2142 13.7C12.9302 13.7 12.7 13.9125 12.7 14.1747V16.1224C12.7 16.2515 12.7569 16.3751 12.8578 16.4646L14.2292 17.6818C14.434 17.8635 14.7595 17.8576 14.9564 17.6686C15.1532 17.4796 15.1469 17.1791 14.9421 16.9974L13.7285 15.9202V14.1747Z"
        fill="#574FC1" />
</svg>
