<svg
    width="18"
    height="18"
    viewBox="0 0 18 18"
    fill="none"
    xmlns="http://www.w3.org/2000/svg">
    <path
        d="M5.17505 0.666656C5.17505 0.489868 5.10388 0.320282 4.97729 0.195251C4.85071 0.0702515 4.67908 0 4.5 0C4.32092 0 4.14929 0.0702515 4.02271 0.195251C3.89612 0.320282 3.82495 0.489868 3.82495 0.666656V2.07111C2.52905 2.17334 1.67944 2.42401 1.05481 3.04178C0.429321 3.65866 0.175537 4.49866 0.0710449 5.77777H17.929C17.8245 4.49777 17.5707 3.65866 16.9452 3.04178C16.3206 2.42401 15.4701 2.17334 14.175 2.07022V0.666656C14.175 0.489868 14.1039 0.320282 13.9773 0.195251C13.8507 0.0702515 13.6791 0 13.5 0C13.3209 0 13.1493 0.0702515 13.0227 0.195251C12.8961 0.320282 12.825 0.489868 12.825 0.666656V2.01157C12.2264 2 11.5551 2 10.8 2H7.19995C6.81799 2 6.45752 2 6.11694 2.0015C5.7843 2.00296 5.47083 2.00586 5.17505 2.01157V0.666656Z"
        fill="#574FC1" />
    <path
        fill-rule="evenodd"
        clip-rule="evenodd"
        d="M18 9.11111V10.8889C18 14.2409 17.9991 15.9164 16.9452 16.9582C15.8914 18 14.1938 18 10.8 18H7.19995C3.80615 18 2.10962 17.9991 1.05481 16.9582C0 15.9173 0 14.2409 0 10.8889V9.11111C0 8.36533 0 7.70221 0.0117188 7.11111H17.9883C18 7.70221 18 8.36533 18 9.11111ZM7.35564 9.73259C7.04552 9.42247 6.54271 9.42247 6.23259 9.73259C5.92247 10.0427 5.92247 10.5455 6.23259 10.8556L7.87695 12.5L6.23259 14.1444C5.92247 14.4545 5.92247 14.9573 6.23259 15.2674C6.54271 15.5775 7.04552 15.5775 7.35564 15.2674L9 13.6231L10.6444 15.2674C10.9545 15.5775 11.4573 15.5775 11.7674 15.2674C12.0775 14.9573 12.0775 14.4545 11.7674 14.1444L10.1231 12.5L11.7674 10.8556C12.0775 10.5455 12.0775 10.0427 11.7674 9.73259C11.4573 9.42247 10.9545 9.42247 10.6444 9.73259L9 11.3769L7.35564 9.73259Z"
        fill="#574FC1" />
</svg>
