<svg
    width="160"
    height="160"
    viewBox="140 0 140 160"
    fill="none"
    xmlns="http://www.w3.org/2000/svg">
    <path
        d="M175.529 132.755C180.828 132.755 185.755 130.775 192.457 126.896C219.909 111.021 242.983 72.3425 242.893 40.7545C242.873 33.0314 242.678 16.3467 227.824 16.3467C222.527 16.3467 217.435 18.3533 210.753 22.2198C183.291 38.1019 160.721 76.9631 160.812 108.551C160.831 116.277 160.69 132.755 175.529 132.755ZM193.77 61.9503L208.531 53.4117C209.37 52.9293 210.215 52.6845 211 52.6845C211.597 52.6845 212.156 52.824 212.648 53.1105C213.801 53.7741 214.439 55.0842 214.444 56.7983L214.508 78.8486C214.515 82.0294 212.371 85.7661 209.626 87.3553L194.866 95.8914C193.355 96.7607 191.886 96.8733 190.727 96.2048C189.571 95.5388 188.931 94.219 188.926 92.4926L188.862 70.4398C188.855 67.2761 191.011 63.5468 193.77 61.9503Z"
        fill="#574FC1"
        fill-opacity="0.3" />
    <path
        d="M144 108.595C144.049 126.221 149.986 139.333 160.717 145.519C161.726 146.101 162.777 146.598 163.848 147.046C164.007 147.111 164.163 147.182 164.322 147.245C165.374 147.662 166.455 148.016 167.561 148.305C167.728 148.349 167.9 148.384 168.069 148.425C169.163 148.691 170.277 148.906 171.418 149.049C171.478 149.057 171.535 149.069 171.595 149.076C172.772 149.217 173.977 149.278 175.199 149.289C175.453 149.292 175.707 149.295 175.964 149.292C176.628 149.284 177.299 149.253 177.973 149.208C178.251 149.189 178.527 149.176 178.807 149.151C179.615 149.079 180.431 148.978 181.255 148.854C181.401 148.832 181.545 148.819 181.693 148.795C182.692 148.634 183.701 148.434 184.721 148.196C184.844 148.167 184.97 148.128 185.095 148.098C185.966 147.887 186.845 147.65 187.729 147.383C188.019 147.297 188.311 147.197 188.602 147.104C189.339 146.868 190.08 146.618 190.824 146.344C191.148 146.225 191.472 146.101 191.796 145.975C192.54 145.686 193.289 145.378 194.042 145.052C194.342 144.921 194.643 144.793 194.945 144.657C195.807 144.267 196.672 143.852 197.542 143.414C197.728 143.32 197.912 143.235 198.098 143.139C199.188 142.578 200.283 141.983 201.384 141.346C233.463 122.795 259.475 77.6512 259.37 40.7129C259.321 23.0971 253.381 9.98685 242.646 3.79904C231.837 -2.43529 217.409 -0.958741 202.005 7.94955C169.917 26.5081 143.895 71.6568 144 108.595ZM207.786 18.513C214.774 14.4727 222.178 11.8885 227.824 11.8885C247.837 10.7481 247.813 32.4241 247.837 40.7496C247.928 72.9669 223.913 114.905 195.919 131.098C188.911 135.151 181.18 137.709 175.529 137.709C158.888 137.709 155.867 124.334 155.867 108.556C155.777 76.3387 179.779 34.711 207.786 18.513Z"
        fill="#574FC1"
        fill-opacity="0.3" />
    <path
        d="M278 51.4133C277.953 33.8563 272.048 20.7632 261.379 14.5411L254.867 10.7481C261.948 19.4997 264.156 31.2137 264.209 42.2063C264.309 79.7739 237.845 125.696 205.214 144.578C195.555 150.169 184.011 154.215 172.727 152.355L179.263 156.158C183.685 158.727 188.715 160 194.176 160C202.081 160 210.882 157.328 220.031 152.042C252.12 133.476 278.124 88.3345 278 51.4133Z"
        fill="#574FC1"
        fill-opacity="0.3" />
    <path
        d="M278 51.4133C277.953 33.8563 272.048 20.7632 261.379 14.5411L254.867 10.7481C261.948 19.4997 264.156 31.2137 264.209 42.2063C264.309 79.7739 237.845 125.696 205.214 144.578C195.555 150.169 184.011 154.215 172.727 152.355L179.263 156.158C183.685 158.727 188.715 160 194.176 160C202.081 160 210.882 157.328 220.031 152.042C252.12 133.476 278.124 88.3345 278 51.4133Z"
        fill="#574FC1"
        fill-opacity="0.3" />
</svg>
