<svg
    width="22"
    height="20"
    viewBox="0 0 22 20"
    fill="none"
    xmlns="http://www.w3.org/2000/svg">
    <path
        d="M6.02384 2.3846V1M15.0715 2.3846V1M1.95238 6.99995H19.143M19.5953 10.6922V9.76916C19.5953 6.28827 19.5953 4.54736 18.535 3.46644C17.4746 2.38553 15.7691 2.3846 12.3572 2.3846H8.73814C5.32626 2.3846 3.61987 2.3846 2.56039 3.46644C1.5009 4.54828 1.5 6.28827 1.5 9.76916V11.6153C1.5 15.0962 1.5 16.8371 2.56039 17.918C3.62077 18.9989 5.32626 18.9999 8.73814 18.9999H11.9048"
        stroke="#574FC1"
        stroke-width="1.3"
        stroke-linecap="round" />
    <path
        d="M15.8504 12.8734C16.3092 12.0344 16.5381 11.6153 16.881 11.6153C17.2239 11.6153 17.4528 12.0344 17.9115 12.8734L18.0291 13.0904C18.1603 13.3294 18.2255 13.4485 18.3268 13.527C18.4281 13.6054 18.5548 13.635 18.8081 13.6931L19.0379 13.7467C19.9282 13.9516 20.3734 14.055 20.4792 14.402C20.5851 14.75 20.282 15.1119 19.6749 15.8356L19.5175 16.023C19.3456 16.2288 19.2596 16.3313 19.2207 16.4586C19.1818 16.586 19.1945 16.7236 19.2207 16.9977L19.2442 17.2469C19.3365 18.2134 19.3817 18.6962 19.1049 18.9112C18.828 19.1263 18.4109 18.9297 17.5776 18.5392L17.3614 18.4377C17.1253 18.3269 17.0067 18.2706 16.881 18.2706C16.7552 18.2706 16.6367 18.326 16.4005 18.4368L16.1843 18.5383C15.3519 18.9306 14.9339 19.1263 14.657 18.9112C14.3802 18.6962 14.4254 18.2134 14.5177 17.2479L14.5412 16.9977C14.5675 16.7236 14.5801 16.586 14.5412 16.4586C14.5023 16.3313 14.4164 16.2279 14.2445 16.023L14.087 15.8356C13.4809 15.1119 13.1768 14.75 13.2827 14.402C13.3886 14.055 13.8337 13.9516 14.724 13.7467L14.9538 13.6931C15.2071 13.635 15.3338 13.6054 15.4351 13.527C15.5365 13.4485 15.6016 13.3294 15.7319 13.0904L15.8504 12.8734Z"
        stroke="#574FC1"
        stroke-width="1.3" />
</svg>
