<svg
    width="20"
    height="20"
    viewBox="0 0 20 20"
    fill="none"
    xmlns="http://www.w3.org/2000/svg">
    <path
        fill-rule="evenodd"
        clip-rule="evenodd"
        d="M8.25378 9.99984C8.25378 6.82969 10.8833 4.25977 14.1269 4.25977C17.3706 4.25977 20 6.82969 20 9.99984C20 13.17 17.3706 15.7399 14.1269 15.7399C10.8833 15.7399 8.25378 13.17 8.25378 9.99984ZM12.15 8.78472C12.15 7.90607 12.8004 7.27351 13.5789 7.06264C13.5896 6.75006 13.8412 6.5 14.15 6.5C14.4588 6.5 14.7104 6.75006 14.7211 7.06264C15.4996 7.27351 16.15 7.90607 16.15 8.78472C16.15 9.10689 15.8942 9.36806 15.5786 9.36806C15.263 9.36806 15.0072 9.10689 15.0072 8.78472C15.0072 8.53101 14.7253 8.15278 14.15 8.15278C13.5747 8.15278 13.2929 8.53101 13.2929 8.78472C13.2929 9.03843 13.5747 9.41667 14.15 9.41667C15.1528 9.41667 16.15 10.1273 16.15 11.2153C16.15 12.0939 15.4996 12.7265 14.7211 12.9374C14.7104 13.2499 14.4588 13.5 14.15 13.5C13.8412 13.5 13.5896 13.2499 13.5789 12.9374C12.8004 12.7265 12.15 12.0939 12.15 11.2153C12.15 10.8931 12.4059 10.6319 12.7215 10.6319C13.037 10.6319 13.2929 10.8931 13.2929 11.2153C13.2929 11.469 13.5747 11.8472 14.15 11.8472C14.7253 11.8472 15.0072 11.469 15.0072 11.2153C15.0072 10.9616 14.7253 10.5833 14.15 10.5833C13.1472 10.5833 12.15 9.87268 12.15 8.78472Z"
        fill="#574FC1" />
    <path
        d="M7.2167 11.4766C7.15104 11.4787 7.08517 11.4802 7.01894 11.4802C3.7753 11.4802 1.14581 8.91023 1.14581 5.74008C1.14581 2.56992 3.7753 0 7.01894 0C9.37397 0 11.4049 1.35492 12.3411 3.31047C12.0125 3.39422 11.6895 3.50113 11.3737 3.63168C9.42849 4.43583 7.93418 6.10672 7.3375 8.09024C7.03618 8.04626 6.74482 7.94528 6.47934 7.79156C6.138 7.59392 5.85063 7.31559 5.64197 6.98139H6.69997C6.99874 6.98139 7.24094 6.73862 7.24094 6.43914C7.24094 6.13966 6.99874 5.89689 6.69997 5.89689H5.28293C5.2776 5.83153 5.27491 5.76583 5.27491 5.69995C5.27491 5.63391 5.27761 5.56804 5.28297 5.50252H6.69997C6.99874 5.50252 7.24094 5.25975 7.24094 4.96027C7.24094 4.66079 6.99874 4.41801 6.69997 4.41801H5.64228C5.85091 4.08403 6.13817 3.80589 6.47934 3.60834C6.84555 3.3963 7.26098 3.2846 7.6839 3.28446C8.10681 3.28432 8.52232 3.39574 8.88867 3.60753C9.14748 3.75715 9.4783 3.66814 9.62757 3.40872C9.77684 3.1493 9.68804 2.8177 9.42922 2.66808C8.89839 2.36119 8.29633 2.19974 7.68353 2.19995C7.07073 2.20016 6.46878 2.36201 5.93815 2.66926C5.40752 2.9765 4.96691 3.4183 4.66057 3.95029C4.57382 4.10093 4.49871 4.2573 4.4356 4.41801H4.24099C3.94221 4.41801 3.70001 4.66079 3.70001 4.96027C3.70001 5.24545 3.91964 5.47921 4.19861 5.50088C4.19485 5.56706 4.19296 5.63344 4.19296 5.69995C4.19296 5.7663 4.19484 5.83251 4.19858 5.89853C3.91963 5.92021 3.70001 6.15397 3.70001 6.43914C3.70001 6.73862 3.94221 6.98139 4.24099 6.98139H4.43541C4.49856 7.14229 4.57373 7.29882 4.66057 7.44961C4.96691 7.9816 5.40752 8.4234 5.93815 8.73065C6.3017 8.94114 6.69872 9.0834 7.10978 9.15218C7.0734 9.43133 7.05467 9.71438 7.05467 10C7.05467 10.5014 7.10931 10.9948 7.2167 11.4766Z"
        fill="#574FC1" />
    <path
        fill-rule="evenodd"
        clip-rule="evenodd"
        d="M7.64962 12.7736C8.00456 13.5458 8.51479 14.29 9.12608 14.8874C9.76717 15.5139 10.5128 16.0074 11.3426 16.3549C10.4862 18.4889 8.36025 19.9999 5.87309 19.9999C2.62945 19.9999 -3.99675e-05 17.43 4.55771e-10 14.2599C4.55771e-10 12.7026 0.634771 11.2904 1.6649 10.2563C1.77761 10.3837 1.8954 10.5075 2.01818 10.6275C2.72059 11.314 3.56222 11.8235 4.47147 12.1604C4.43922 12.2805 4.42225 12.4057 4.42225 12.5335V14.0898H4.16347C3.88603 14.0898 3.66112 14.3152 3.66112 14.5933C3.66112 14.8714 3.88603 15.0968 4.16347 15.0968H4.42225V15.6232C4.42225 15.8358 4.32913 16.0518 4.14268 16.22C3.95449 16.3898 3.68892 16.493 3.40234 16.493C3.12491 16.493 2.9 16.7184 2.9 16.9965C2.9 17.2746 3.12491 17.5 3.40234 17.5H7.96909C8.24652 17.5 8.47143 17.2746 8.47143 16.9965C8.47143 16.7184 8.24652 16.493 7.96909 16.493H5.1968C5.34514 16.2297 5.42693 15.9325 5.42693 15.6232V15.0968H6.8274C7.10484 15.0968 7.32974 14.8714 7.32974 14.5933C7.32974 14.3152 7.10484 14.0898 6.8274 14.0898H5.42693V12.5335C5.42693 12.5052 5.4298 12.4766 5.43565 12.4479C5.85617 12.5447 6.28515 12.6077 6.71631 12.6373C6.80842 12.6436 6.90062 12.6484 6.99287 12.6517C7.18292 12.6517 7.39787 12.6444 7.58552 12.6299C7.60628 12.6779 7.62765 12.7258 7.64962 12.7736Z"
        fill="#574FC1" />
</svg>
