<svg
    width="18"
    height="18"
    viewBox="0 0 18 18"
    fill="none"
    xmlns="http://www.w3.org/2000/svg">
    <path
        fill-rule="evenodd"
        clip-rule="evenodd"
        d="M18 9C18 4.7574 18 2.6361 16.6824 1.3176C15.363 0 13.2426 0 9 0C4.7574 0 2.6361 0 1.3185 1.3176C0 2.637 0 4.7574 0 9C0 13.2426 0 15.3639 1.3185 16.6815C2.6352 18 4.7574 18 9 18C13.2426 18 15.3639 18 16.6824 16.6815C18 15.3648 18 13.2426 18 9ZM4.5 10.125C4.36262 10.125 4.22852 10.167 4.11562 10.2453C4.00272 10.3235 3.91639 10.4344 3.86817 10.563C3.81994 10.6917 3.81211 10.832 3.84573 10.9652C3.87935 11.0984 3.95281 11.2182 4.0563 11.3085L7.1496 14.0085C7.28446 14.1263 7.4606 14.1857 7.63925 14.1736C7.81791 14.1616 7.98445 14.079 8.10225 13.9441C8.22005 13.8093 8.27944 13.6332 8.26737 13.4545C8.25531 13.2758 8.17276 13.1093 8.0379 12.9915L6.3 11.475H13.5C13.679 11.475 13.8507 11.4039 13.9773 11.2773C14.1039 11.1507 14.175 10.979 14.175 10.8C14.175 10.621 14.1039 10.4493 13.9773 10.3227C13.8507 10.1961 13.679 10.125 13.5 10.125H4.5ZM9.8973 4.0563C9.77966 4.19118 9.7204 4.36726 9.73255 4.54582C9.7447 4.72438 9.82727 4.8908 9.9621 5.0085L11.7 6.525H4.5C4.32098 6.525 4.14929 6.59612 4.0227 6.7227C3.89612 6.84929 3.825 7.02098 3.825 7.2C3.825 7.37902 3.89612 7.55071 4.0227 7.6773C4.14929 7.80388 4.32098 7.875 4.5 7.875H13.5C13.6374 7.87496 13.7715 7.833 13.8844 7.75473C13.9973 7.67645 14.0836 7.56559 14.1318 7.43695C14.1801 7.30832 14.1879 7.16803 14.1543 7.03482C14.1207 6.90162 14.0472 6.78185 13.9437 6.6915L10.8504 3.9915C10.7836 3.93311 10.7059 3.88847 10.6219 3.86012C10.5378 3.83177 10.4489 3.82028 10.3604 3.8263C10.2719 3.83232 10.1854 3.85573 10.106 3.8952C10.0265 3.93466 9.95559 3.98941 9.8973 4.0563Z"
        fill="#574FC1" />
</svg>
