<svg
    width="20"
    height="20"
    viewBox="0 0 20 20"
    fill="none"
    xmlns="http://www.w3.org/2000/svg">
    <path
        fill-rule="evenodd"
        clip-rule="evenodd"
        d="M11.7793 0.152C11.4093 0 10.9393 0 10.0003 0C9.06129 0 8.59229 0 8.22129 0.152C7.97718 0.251745 7.7552 0.398782 7.56814 0.584647C7.38107 0.770512 7.23261 0.991536 7.13129 1.235C7.03729 1.458 7.00129 1.719 6.98629 2.098C6.97916 2.3725 6.90236 2.64068 6.76312 2.87736C6.62388 3.11403 6.42677 3.31142 6.1903 3.451C5.94904 3.5851 5.67784 3.65615 5.40183 3.65754C5.12581 3.65894 4.8539 3.59065 4.6113 3.459C4.2733 3.281 4.0283 3.183 3.7863 3.151C3.25689 3.08192 2.72157 3.2242 2.29631 3.547C1.97831 3.789 1.74331 4.193 1.27431 5C0.804314 5.807 0.570315 6.21 0.517315 6.605C0.447316 7.131 0.591315 7.663 0.917314 8.084C1.06531 8.276 1.27431 8.437 1.59731 8.639C2.07431 8.936 2.38031 9.442 2.38031 10C2.38031 10.558 2.07431 11.064 1.59831 11.36C1.27431 11.563 1.06531 11.724 0.916314 11.916C0.755881 12.1242 0.638064 12.362 0.569601 12.6158C0.501138 12.8696 0.48337 13.1343 0.517315 13.395C0.570315 13.789 0.804314 14.193 1.27431 15L1.27992 15.0096C1.74618 15.8102 1.97958 16.211 2.29631 16.453C2.72031 16.776 3.25631 16.918 3.7863 16.849C4.0283 16.817 4.2733 16.719 4.6113 16.541C4.85403 16.4092 5.12612 16.3408 5.40233 16.3422C5.67854 16.3436 5.94992 16.4147 6.1913 16.549C6.6773 16.829 6.96529 17.344 6.98629 17.902C7.00129 18.282 7.03729 18.542 7.13129 18.765C7.33529 19.255 7.72729 19.645 8.22129 19.848C8.59129 20 9.06129 20 10.0003 20C10.9393 20 11.4093 20 11.7793 19.848C12.0234 19.7483 12.2454 19.6012 12.4324 19.4154C12.6195 19.2295 12.768 19.0085 12.8693 18.765C12.9633 18.542 12.9993 18.282 13.0143 17.902C13.0343 17.344 13.3233 16.828 13.8103 16.549C14.0515 16.4149 14.3227 16.3439 14.5987 16.3425C14.8748 16.3411 15.1467 16.4093 15.3893 16.541C15.7273 16.719 15.9723 16.817 16.2143 16.849C16.7443 16.919 17.2803 16.776 17.7043 16.453C18.0223 16.211 18.2573 15.807 18.7263 15C19.1963 14.193 19.4303 13.79 19.4833 13.395C19.5171 13.1343 19.4991 12.8695 19.4305 12.6157C19.3619 12.3619 19.2439 12.1241 19.0833 11.916C18.9353 11.724 18.7263 11.563 18.4033 11.361C17.9263 11.064 17.6203 10.558 17.6203 10C17.6203 9.442 17.9263 8.936 18.4023 8.64C18.7263 8.437 18.9353 8.276 19.0843 8.084C19.2447 7.87579 19.3625 7.63799 19.431 7.38422C19.4994 7.13044 19.5172 6.86565 19.4833 6.605C19.4303 6.211 19.1963 5.807 18.7263 5L18.7206 4.99036C18.2544 4.1898 18.021 3.78903 17.7043 3.547C17.279 3.2242 16.7437 3.08192 16.2143 3.151C15.9723 3.183 15.7273 3.281 15.3893 3.459C15.1465 3.59083 14.8745 3.65922 14.5982 3.65782C14.322 3.65642 14.0506 3.58528 13.8093 3.451C13.573 3.3113 13.3761 3.11385 13.237 2.87719C13.098 2.64052 13.0213 2.37241 13.0143 2.098C12.9993 1.718 12.9633 1.458 12.8693 1.235C12.768 0.991536 12.6195 0.770512 12.4324 0.584647C12.2454 0.398782 12.0234 0.251745 11.7793 0.152ZM5.75271 11.0828C5.85089 11.0148 5.96749 10.9783 6.08696 10.9783H13.913C14.0687 10.9783 14.218 11.0401 14.3281 11.1502C14.4382 11.2602 14.5 11.4095 14.5 11.5652C14.5 11.7209 14.4382 11.8701 14.3281 11.9802C14.218 12.0903 14.0687 12.1521 13.913 12.1521H7.65217L9.16339 13.4708C9.28066 13.5732 9.35244 13.718 9.36293 13.8734C9.37343 14.0287 9.32178 14.1819 9.21935 14.2991C9.11692 14.4164 8.97209 14.4882 8.81674 14.4987C8.66139 14.5092 8.50823 14.4575 8.39096 14.3551L5.70113 12.0074C5.61114 11.9288 5.54726 11.8246 5.51802 11.7088C5.48879 11.593 5.4956 11.471 5.53753 11.3592C5.57947 11.2473 5.65454 11.1509 5.75271 11.0828ZM10.637 6.12699C10.6264 5.97173 10.678 5.81862 10.7803 5.70134C10.8309 5.64318 10.8926 5.59558 10.9617 5.56126C11.0308 5.52694 11.106 5.50659 11.183 5.50135C11.2599 5.49612 11.3372 5.50611 11.4103 5.53076C11.4834 5.55541 11.551 5.59423 11.609 5.645L14.2989 7.99273C14.3889 8.07129 14.4527 8.17544 14.482 8.29126C14.5112 8.40709 14.5044 8.52907 14.4625 8.64093C14.4205 8.75278 14.3455 8.84918 14.2473 8.91724C14.1491 8.9853 14.0325 9.02178 13.913 9.02182H6.08696C5.93129 9.02182 5.78199 8.95998 5.67192 8.84991C5.56184 8.73984 5.5 8.59055 5.5 8.43489C5.5 8.27922 5.56184 8.12993 5.67192 8.01986C5.78199 7.90979 5.93129 7.84795 6.08696 7.84795H12.3478L10.8366 6.52931C10.7194 6.42697 10.6476 6.28226 10.637 6.12699Z"
        fill="#574FC1" />
</svg>
