<svg
    width="22"
    height="20"
    viewBox="0 0 22 20"
    fill="none"
    xmlns="http://www.w3.org/2000/svg">
    <path
        d="M10.917 17.1499C10.558 17.1499 10.267 17.4409 10.267 17.7999C10.267 18.1589 10.558 18.4499 10.917 18.4499V17.1499ZM21 17.7999L21.4518 18.2672C21.5785 18.1448 21.65 17.9761 21.65 17.7999C21.65 17.6237 21.5785 17.4551 21.4518 17.3326L21 17.7999ZM19.3068 18.5327C19.0487 18.7822 19.0418 19.1937 19.2913 19.4518C19.5408 19.7099 19.9523 19.7168 20.2104 19.4673L19.3068 18.5327ZM20.2104 16.1325C19.9523 15.883 19.5408 15.8899 19.2913 16.148C19.0418 16.4061 19.0487 16.8176 19.3068 17.0672L20.2104 16.1325ZM10.9113 2.85009C11.2702 2.85009 11.5613 2.55907 11.5613 2.20009C11.5613 1.8411 11.2702 1.55009 10.9113 1.55009V2.85009ZM1 2.20009L0.548219 1.73276C0.421535 1.85523 0.35 2.02388 0.35 2.20009C0.35 2.37629 0.421535 2.54494 0.548219 2.66741L1 2.20009ZM2.69316 1.46733C2.95126 1.21781 2.95822 0.806316 2.70871 0.548219C2.45919 0.290122 2.0477 0.283162 1.7896 0.532674L2.69316 1.46733ZM1.7896 3.8675C2.0477 4.11701 2.45919 4.11005 2.70871 3.85196C2.95822 3.59386 2.95126 3.18236 2.69316 2.93285L1.7896 3.8675ZM10.267 13.8957C10.267 14.2547 10.558 14.5457 10.917 14.5457C11.2759 14.5457 11.567 14.2547 11.567 13.8957H10.267ZM11.567 6.08721C11.567 5.72822 11.2759 5.43721 10.917 5.43721C10.558 5.43721 10.267 5.72822 10.267 6.08721H11.567ZM12.2954 8.36468C12.2954 8.72367 12.5864 9.01468 12.9454 9.01468C13.3044 9.01468 13.5954 8.72367 13.5954 8.36468H12.2954ZM9.53848 11.6182C9.53848 11.2592 9.24747 10.9682 8.88848 10.9682C8.5295 10.9682 8.23848 11.2592 8.23848 11.6182H9.53848ZM10.917 17.7999V18.4499L21 18.4499V17.7999V17.1499L10.917 17.1499V17.7999ZM19.7586 19L20.2104 19.4673L21.4518 18.2672L21 17.7999L20.5482 17.3326L19.3068 18.5327L19.7586 19ZM21 17.7999L21.4518 17.3326L20.2104 16.1325L19.7586 16.5998L19.3068 17.0672L20.5482 18.2672L21 17.7999ZM10.9113 2.20009V1.55009H1V2.20009V2.85009H10.9113V2.20009ZM2.24138 1L1.7896 0.532674L0.548219 1.73276L1 2.20009L1.45178 2.66741L2.69316 1.46733L2.24138 1ZM1 2.20009L0.548219 2.66741L1.7896 3.8675L2.24138 3.40018L2.69316 2.93285L1.45178 1.73276L1 2.20009ZM11.0548 2.20014V1.55014C6.1735 1.55014 2.15308 5.29929 2.15308 10H2.80308H3.45308C3.45308 6.08527 6.82153 2.85014 11.0548 2.85014V2.20014ZM2.80308 10H2.15308C2.15308 12.3076 2.96716 14.4253 4.47242 15.9692C5.98126 17.5167 8.14809 18.4499 10.7791 18.4499V17.7999V17.1499C8.46803 17.1499 6.64685 16.3371 5.40321 15.0616C4.15597 13.7824 3.45308 12.0002 3.45308 10H2.80308ZM11.0548 2.20014V2.85014C15.2587 2.85014 18.3808 6.05682 18.3808 10.0001H19.0308H19.6808C19.6808 5.32779 15.9655 1.55014 11.0548 1.55014V2.20014ZM19.0308 10.0001H18.3808C18.3808 13.9345 15.3767 17.1499 10.7791 17.1499V17.7999V18.4499C16.0656 18.4499 19.6808 14.6811 19.6808 10.0001H19.0308ZM10.917 13.245H10.267V13.8957H10.917H11.567V13.245H10.917ZM10.917 6.08721H10.267V6.73791H10.917H11.567V6.08721H10.917ZM12.9454 8.36468H13.5954C13.5954 6.98129 12.2553 6.08791 10.917 6.08791V6.73791V7.38791C11.8194 7.38791 12.2954 7.95212 12.2954 8.36468H12.9454ZM10.917 6.73791V6.08791C9.57865 6.08791 8.23848 6.98129 8.23848 8.36468H8.88848H9.53848C9.53848 7.95212 10.0145 7.38791 10.917 7.38791V6.73791ZM8.88848 8.36468H8.23848C8.23848 9.74808 9.57865 10.6415 10.917 10.6415V9.99145V9.34145C10.0145 9.34145 9.53848 8.77724 9.53848 8.36468H8.88848ZM10.917 9.99145V10.6415C11.8194 10.6415 12.2954 11.2057 12.2954 11.6182H12.9454H13.5954C13.5954 10.2348 12.2553 9.34145 10.917 9.34145V9.99145ZM12.9454 11.6182H12.2954C12.2954 12.0308 11.8194 12.595 10.917 12.595V13.245V13.895C12.2553 13.895 13.5954 13.0016 13.5954 11.6182H12.9454ZM10.917 13.245V12.595C10.0145 12.595 9.53848 12.0308 9.53848 11.6182H8.88848H8.23848C8.23848 13.0016 9.57865 13.895 10.917 13.895V13.245Z"
        fill="#574FC1" />
</svg>
