<svg
    width="18"
    height="18"
    viewBox="0 0 18 18"
    fill="none"
    xmlns="http://www.w3.org/2000/svg">
    <path
        d="M14.5385 11.077C14.3908 11.077 14.2453 11.0863 14.1025 11.1043C13.6824 11.1571 13.2857 11.2854 12.9263 11.475C11.8269 12.0551 11.0769 13.2098 11.0769 14.5386C11.0769 16.1282 12.1503 17.4687 13.6113 17.8744C13.9064 17.9563 14.2174 18.0001 14.5385 18.0001C16.4492 18.0001 18 16.4493 18 14.5386C18 14.2177 17.9563 13.9069 17.8744 13.612C17.4689 12.1507 16.1283 11.077 14.5385 11.077ZM12.4615 14.5386C12.4615 13.3963 13.3962 12.4617 14.5385 12.4617C14.8569 12.4617 15.1546 12.5378 15.4315 12.6693L12.6762 15.4247C12.5377 15.1547 12.4615 14.857 12.4615 14.5386ZM14.5385 16.6155C14.22 16.6155 13.9223 16.5393 13.6454 16.4078L16.4008 13.6524C16.5392 13.9224 16.6154 14.2201 16.6154 14.5386C16.6154 15.6809 15.6808 16.6155 14.5385 16.6155Z"
        fill="#574FC1" />
    <path
        fill-rule="evenodd"
        clip-rule="evenodd"
        d="M16.6824 1.3176C15.363 0 13.2426 0 9 0C4.7574 0 2.6361 0 1.3185 1.3176C5.96046e-07 2.637 4.76837e-07 4.7574 4.76837e-07 9C4.76837e-07 13.2426 5.96046e-07 15.3639 1.3185 16.6815C2.6352 18 4.7574 18 9 18C9.50759 18 9.98482 18 10.4339 17.9977C10.655 17.9966 10.8692 17.995 11.0769 17.9925L10.6615 17.4463C9.87923 16.4078 9.50539 15.0578 9.77539 13.6178C9.92464 12.8199 10.2786 12.0862 10.779 11.475H6.3L8.0379 12.9915C8.17276 13.1093 8.25531 13.2758 8.26737 13.4545C8.27944 13.6332 8.22005 13.8093 8.10225 13.9441C7.98445 14.079 7.81791 14.1616 7.63925 14.1736C7.4606 14.1857 7.28446 14.1263 7.1496 14.0085L4.0563 11.3085C3.95281 11.2182 3.87935 11.0984 3.84573 10.9652C3.81211 10.832 3.81994 10.6917 3.86816 10.563C3.91639 10.4344 4.00272 10.3235 4.11562 10.2453C4.22852 10.167 4.36262 10.125 4.5 10.125H12.5287C12.871 9.96919 13.2337 9.85295 13.6108 9.78242C15.0508 9.51242 16.4077 9.88627 17.4392 10.6686L17.9898 11.2773C18 10.5943 18 9.83855 18 9C18 8.26248 18 7.58906 17.9931 6.97281C17.9602 4.04414 17.771 2.40689 16.6824 1.3176ZM9.73255 4.54582C9.7204 4.36726 9.77966 4.19118 9.8973 4.0563C9.95559 3.98941 10.0265 3.93466 10.106 3.8952C10.1854 3.85573 10.2719 3.83232 10.3604 3.8263C10.4489 3.82028 10.5378 3.83177 10.6219 3.86012C10.7059 3.88847 10.7836 3.93311 10.8504 3.9915L12.6228 5.53857L13.9437 6.6915C14.0472 6.78185 14.1207 6.90162 14.1543 7.03482C14.1879 7.16803 14.1801 7.30832 14.1318 7.43695C14.0836 7.56559 13.9973 7.67645 13.8844 7.75473C13.7715 7.833 13.6374 7.87496 13.5 7.875H4.5C4.32098 7.875 4.14929 7.80388 4.0227 7.6773C3.89612 7.55071 3.825 7.37902 3.825 7.2C3.825 7.02098 3.89612 6.84929 4.0227 6.7227C4.14929 6.59612 4.32098 6.525 4.5 6.525H11.7L10.5696 5.53857L9.9621 5.0085C9.82727 4.8908 9.7447 4.72438 9.73255 4.54582Z"
        fill="#574FC1" />
</svg>
