<svg
    width="18"
    height="18"
    viewBox="0 0 18 18"
    fill="none"
    xmlns="http://www.w3.org/2000/svg">
    <path
        d="M9 4.22521C9.77119 4.22521 10.5105 4.53699 11.0558 5.09125C11.6012 5.64557 11.908 6.39729 11.908 7.18121C11.908 7.96507 11.6011 8.71688 11.0558 9.27116C10.5446 9.7907 9.86251 10.0973 9.14388 10.1335L9 10.1372C8.22888 10.1372 7.48949 9.82534 6.94417 9.27116C6.43297 8.75154 6.13135 8.05833 6.09565 7.32785L6.09196 7.18121C6.09196 6.39729 6.39884 5.64557 6.94417 5.09125C7.4895 4.53699 8.22881 4.22521 9 4.22521Z"
        fill="#574FC1" />
    <path
        fill-rule="evenodd"
        clip-rule="evenodd"
        d="M11.0558 5.09125C10.5105 4.53699 9.77119 4.22521 9 4.22521C8.22881 4.22521 7.4895 4.53699 6.94417 5.09125C6.39884 5.64557 6.09196 6.39729 6.09196 7.18121L6.09565 7.32785C6.13135 8.05833 6.43297 8.75154 6.94417 9.27116C7.48949 9.82534 8.22888 10.1372 9 10.1372L9.14388 10.1335C9.86251 10.0973 10.5446 9.7907 11.0558 9.27116C11.6011 8.71688 11.908 7.96507 11.908 7.18121C11.908 6.39729 11.6012 5.64557 11.0558 5.09125Z"
        fill="#574FC1" />
    <path
        fill-rule="evenodd"
        clip-rule="evenodd"
        d="M9 0C13.2414 0 15.3642 0 16.6816 1.31738C18 2.63664 18 4.75695 18 8.99864C18 13.2403 18 15.3642 16.6816 16.6816C15.3651 18 13.2431 18 9.00136 18C4.75967 18 2.63574 18 1.31738 16.6816C0 15.3651 0 13.2431 0 9.00173C0 4.76053 0 2.63567 1.31738 1.31738C2.63657 0 4.7588 0 9 0ZM5.99512 4.12652C6.79214 3.31643 7.87288 2.86111 9 2.86111C10.1271 2.86111 11.2079 3.31644 12.0049 4.12652C12.8019 4.93667 13.25 6.03548 13.25 7.18121C13.25 8.32677 12.8017 9.42488 12.0049 10.235C11.3679 10.8824 10.5498 11.3031 9.67144 11.446V12.562H10.1925L10.2617 12.5656C10.6 12.6006 10.864 12.8914 10.864 13.2445C10.8638 13.5975 10.6 13.8883 10.2617 13.9233L10.1925 13.927H9.67144V14.4564C9.67144 14.8331 9.37061 15.1389 9 15.1389C8.62939 15.1389 8.32856 14.8331 8.32856 14.4564V13.927H7.80745C7.43694 13.927 7.13617 13.621 7.13601 13.2445C7.13601 12.8678 7.43684 12.562 7.80745 12.562H8.32856V11.446C7.45023 11.3031 6.63209 10.8824 5.99512 10.235C5.24802 9.47546 4.80762 8.46284 4.75553 7.39518L4.75 7.18121C4.75 6.03548 5.19809 4.93667 5.99512 4.12652Z"
        fill="#574FC1" />
</svg>
