<svg
    width="22"
    height="18"
    viewBox="0 0 22 18"
    fill="none"
    xmlns="http://www.w3.org/2000/svg">
    <path
        d="M14 13.959H21M8 3.959H1M1 13.959H3M21 3.959H19M8.5 11C9.29565 11 10.0587 11.3161 10.6213 11.8787C11.1839 12.4413 11.5 13.2044 11.5 14C11.5 14.7956 11.1839 15.5587 10.6213 16.1213C10.0587 16.6839 9.29565 17 8.5 17C7.70435 17 6.94129 16.6839 6.37868 16.1213C5.81607 15.5587 5.5 14.7956 5.5 14C5.5 13.2044 5.81607 12.4413 6.37868 11.8787C6.94129 11.3161 7.70435 11 8.5 11ZM13.5 1C13.106 1 12.7159 1.0776 12.3519 1.22836C11.988 1.37913 11.6573 1.6001 11.3787 1.87868C11.1001 2.15726 10.8791 2.48797 10.7284 2.85195C10.5776 3.21593 10.5 3.60603 10.5 4C10.5 4.39397 10.5776 4.78407 10.7284 5.14805C10.8791 5.51203 11.1001 5.84274 11.3787 6.12132C11.6573 6.3999 11.988 6.62087 12.3519 6.77164C12.7159 6.9224 13.106 7 13.5 7C14.2956 7 15.0587 6.68393 15.6213 6.12132C16.1839 5.55871 16.5 4.79565 16.5 4C16.5 3.20435 16.1839 2.44129 15.6213 1.87868C15.0587 1.31607 14.2956 1 13.5 1Z"
        stroke="#0B0A18"
        stroke-width="1.3"
        stroke-linecap="round" />
</svg>
