<svg
    width="24"
    height="18"
    viewBox="0 0 24 18"
    fill="none"
    xmlns="http://www.w3.org/2000/svg">
    <path
        d="M0 5.05C0 2.67518 1.92518 0.75 4.3 0.75H19.7C22.0748 0.75 24 2.67518 24 5.05V12.95C24 15.3248 22.0748 17.25 19.7 17.25H4.3C1.92517 17.25 0 15.3248 0 12.95V5.05Z"
        fill="#DC171D" />
    <path
        d="M11.9999 5.3916L5.75171 8.99996L11.9999 12.6083L18.2482 8.99996L11.9999 5.3916Z"
        fill="white" />
    <path
        d="M7.5061 10.0136V11.0902H9.37173L17.1244 9.64917V11.0902H14.6266L7.5061 10.0136Z"
        fill="#DC171F" />
    <path
        fill-rule="evenodd"
        clip-rule="evenodd"
        d="M0.500016 9.36094H4.98002L11.6467 13.2109V16.7309H4.32965C2.20334 16.6391 0.506086 14.8354 0.500016 12.6215V9.36094Z"
        fill="#012A87" />
    <path
        fill-rule="evenodd"
        clip-rule="evenodd"
        d="M23.4967 9.36104H19.0167L12.35 13.211V16.731H19.668C21.7447 16.6426 23.4127 14.9212 23.4967 12.7791V9.36104Z"
        fill="#012A87" />
    <path
        fill-rule="evenodd"
        clip-rule="evenodd"
        d="M23.4967 8.63562H19.0167L12.35 4.78562V1.26562L19.5 1.26586C21.6541 1.26586 23.4105 3.02176 23.4967 5.22133V8.63562Z"
        fill="#012A87" />
    <path
        fill-rule="evenodd"
        clip-rule="evenodd"
        d="M12.35 4.78562V1.26562L19.5 1.26586C21.6541 1.26586 23.4105 3.02176 23.4967 5.22133V8.63562H19.0167L12.35 4.78562ZM23.4967 9.36104V12.7791C23.4127 14.9212 21.7447 16.6426 19.668 16.731H12.35V13.211L19.0167 9.36104H23.4967ZM11.6467 16.7309H4.32965C2.20334 16.6391 0.506086 14.8354 0.500016 12.6215V9.36094H4.98002L11.6467 13.2109V16.7309Z"
        fill="#012A87" />
    <path
        d="M11.6467 1.26563L4.5 1.26586C2.29471 1.26586 0.506247 3.10625 0.500016 5.37894V8.63562H4.98002L11.6467 4.78562V1.26563Z"
        fill="#012A87" />
    <path
        d="M12.0001 6.23633L12.2153 6.91907L12.9114 6.91909L12.3482 7.34107L12.5633 8.02383L12.0001 7.60189L11.4369 8.02383L11.652 7.34107L11.0889 6.91909L11.785 6.91907L12.0001 6.23633Z"
        fill="#F9D90F" />
    <path
        d="M7.5061 10.0135C7.57841 9.77013 7.73582 9.6623 7.94862 9.71109C8.08032 9.196 8.6883 9.10414 8.92957 9.35752L9.5235 9.97271C9.65251 10.0346 9.84904 10.0578 9.98554 10.0578C10.1543 10.0605 10.1354 10.1405 10.2765 10.1432C10.6524 10.1506 11.6403 10.1558 11.8193 10.1432C11.8926 10.1381 13.5296 8.27717 13.5296 8.27717C13.6661 8.10365 14.0216 8.048 14.2153 8.18877C14.3962 8.36556 14.5867 8.3852 14.72 8.26734C14.8375 8.08728 15.1038 8.06634 15.2724 8.16913L17.1244 9.64904L14.6266 11.09H9.37173L7.5061 10.0135Z"
        fill="#008830" />
</svg>
