<svg
    width="24"
    height="18"
    viewBox="0 0 24 18"
    fill="none"
    xmlns="http://www.w3.org/2000/svg">
    <mask
        id="mask0_4653_106423"
        style="mask-type: alpha"
        maskUnits="userSpaceOnUse"
        x="0"
        y="0"
        width="24"
        height="18">
        <path
            d="M0 5.05C0 2.67518 1.92518 0.75 4.3 0.75H19.7C22.0748 0.75 24 2.67518 24 5.05V12.95C24 15.3248 22.0748 17.25 19.7 17.25H4.3C1.92517 17.25 0 15.3248 0 12.95V5.05Z"
            fill="white" />
    </mask>
    <g mask="url(#mask0_4653_106423)">
        <path
            d="M0 0.75H24V17.25H0V0.75Z"
            fill="white" />
        <path
            d="M24 0.75V17.25H0L24 0.75Z"
            fill="#003087" />
        <path
            d="M0 7.625V0.75H10L0 7.625Z"
            fill="#FFD700" />
    </g>
    <path
        d="M6.6665 3.75L8.9759 7.75L6.6665 11.75L4.3571 7.75L6.6665 3.75ZM10.6665 7.75L6.6665 10.0594L2.6665 7.75L6.6665 5.4406L10.6665 7.75Z"
        fill="#101820" />
    <path
        d="M6.66649 11.2141C8.57966 11.2141 10.1306 9.66316 10.1306 7.74999C10.1306 5.83682 8.57966 4.28589 6.66649 4.28589C4.75332 4.28589 3.20239 5.83682 3.20239 7.74999C3.20239 9.66316 4.75332 11.2141 6.66649 11.2141Z"
        fill="#101820" />
    <path
        d="M6.6665 10.75C8.32336 10.75 9.6665 9.40685 9.6665 7.75C9.6665 6.09315 8.32336 4.75 6.6665 4.75C5.00965 4.75 3.6665 6.09315 3.6665 7.75C3.6665 9.40685 5.00965 10.75 6.6665 10.75Z"
        fill="white" />
    <path
        d="M6.66638 9.75L4.93433 6.75H8.39843L6.66638 9.75ZM6.66638 5.75L8.39843 8.75H4.93433L6.66638 5.75Z"
        fill="#D50032" />
</svg>
