<svg
    width="18"
    height="18"
    viewBox="0 0 18 18"
    fill="none"
    xmlns="http://www.w3.org/2000/svg">
    <path
        fill-rule="evenodd"
        clip-rule="evenodd"
        d="M10.3496 0C13.2951 0 14.7689 -9.4533e-05 15.8516 0.663086C16.4568 1.03404 16.966 1.54324 17.3369 2.14844C18.0001 3.23112 18 4.70577 18 7.65039V8.5498C18 10.6466 18.0001 11.6953 17.6582 12.5215C17.432 13.0675 17.0997 13.5636 16.6816 13.9814C16.2636 14.3993 15.7678 14.731 15.2217 14.957C14.6277 15.2036 13.9135 15.2722 12.7832 15.292C12.0222 15.3054 11.6403 15.3124 11.3369 15.4893C11.0329 15.6657 10.8437 15.9854 10.4658 16.625L9.97852 17.4492C9.54382 18.1836 8.45708 18.1836 8.02148 17.4492L7.53125 16.6201C7.15542 15.9848 6.96624 15.6652 6.66309 15.4893C6.35969 15.3124 5.97191 15.3054 5.21094 15.292C4.08061 15.2731 3.3723 15.2036 2.77832 14.957C2.23235 14.7309 1.73622 14.3993 1.31836 13.9814C0.900539 13.5636 0.568902 13.0674 0.342773 12.5215C-3.17097e-05 11.6953 0 10.6466 0 8.5498V7.65039C0 4.70492 -6.02007e-05 3.23119 0.663086 2.14941C1.03392 1.54389 1.54314 1.03429 2.14844 0.663086C3.23112 -9.4533e-05 4.70577 0 7.65039 0H10.3496ZM7.8125 7.94434C5.84422 7.94434 4.25 8.74043 4.25 9.72266C4.25 10.7047 4.25052 11.5 7.8125 11.5C11.3745 11.5 11.375 10.7047 11.375 9.72266C11.375 8.74043 9.78078 7.94434 7.8125 7.94434ZM12.167 5.09961C11.9027 5.09961 11.6875 5.31688 11.6875 5.58398V6.21582H11.0625C10.7982 6.21582 10.583 6.43309 10.583 6.7002C10.5831 6.96721 10.7982 7.18359 11.0625 7.18359H11.6875V7.81641C11.6877 8.08336 11.9028 8.2998 12.167 8.2998C12.4311 8.29963 12.6453 8.08325 12.6455 7.81641V7.18359H13.2715L13.3672 7.17383C13.5853 7.12878 13.7499 6.93386 13.75 6.7002C13.75 6.46645 13.5853 6.27163 13.3672 6.22656L13.2715 6.21582H12.6455V5.58398C12.6455 5.31699 12.4312 5.09979 12.167 5.09961ZM7.8125 3.5C7.34008 3.5 6.88678 3.68711 6.55273 4.02051C6.2188 4.3538 6.03137 4.80601 6.03125 5.27734C6.03125 5.74884 6.21869 6.20176 6.55273 6.53516C6.88678 6.86853 7.3401 7.05566 7.8125 7.05566C8.2849 7.05566 8.73822 6.86853 9.07227 6.53516C9.40631 6.20176 9.59375 5.74884 9.59375 5.27734C9.59363 4.80601 9.4062 4.3538 9.07227 4.02051C8.73822 3.68711 8.28492 3.5 7.8125 3.5Z"
        fill="#574FC1" />
</svg>
