<svg
    width="19"
    height="18"
    viewBox="0 0 19 18"
    fill="none"
    xmlns="http://www.w3.org/2000/svg">
    <path
        fill-rule="evenodd"
        clip-rule="evenodd"
        d="M18.5 9C18.5 13.9706 14.4706 18 9.5 18C4.52944 18 0.5 13.9706 0.5 9C0.5 4.02944 4.52944 0 9.5 0C14.4706 0 18.5 4.02944 18.5 9ZM3.65 9C3.65 5.76913 6.26913 3.15 9.5 3.15C10.4595 3.15 11.365 3.38099 12.164 3.7904L4.2904 11.664C3.88099 10.865 3.65 9.95948 3.65 9ZM9.5 14.85C12.7309 14.85 15.35 12.2309 15.35 9C15.35 8.04052 15.119 7.13498 14.7096 6.33598L6.83598 14.2096C7.63498 14.619 8.54052 14.85 9.5 14.85Z"
        fill="#BBC0CE" />
</svg>
