<svg
    width="20"
    height="16"
    viewBox="0 0 20 16"
    fill="none"
    xmlns="http://www.w3.org/2000/svg">
    <path
        d="M7.61537 6.49903H6.92307V7.49802H7.61537C7.73701 7.49674 7.85326 7.44356 7.93885 7.35002C8.02444 7.25649 8.07246 7.13017 8.07246 6.99853C8.07246 6.86688 8.02444 6.74056 7.93885 6.64703C7.85326 6.55349 7.73701 6.50031 7.61537 6.49903Z"
        fill="#574FC1" />
    <path
        fill-rule="evenodd"
        clip-rule="evenodd"
        d="M8.221 16C4.346 16 2.408 16 1.204 14.828C0 13.656 0 11.771 0 8C0 4.229 0 2.343 1.204 1.172C2.408 0.000999928 4.346 0 8.22 0H10.857C13.084 0 14.198 0 15.127 0.501C16.057 1.003 16.647 1.921 17.828 3.76L18.509 4.82C19.503 6.366 20 7.14 20 8C20 8.86 19.503 9.634 18.51 11.18L17.8271 12.2445C16.648 14.0795 16.0582 14.9974 15.129 15.499C14.2008 16 13.0894 16 10.8713 16H8.221ZM8.88572 9.66654L7.91216 8.4624C8.24577 8.38338 8.54063 8.17366 8.74007 7.87364C8.93951 7.57362 9.02947 7.20442 8.99266 6.83697C8.95585 6.46953 8.79486 6.12977 8.54064 5.88299C8.28641 5.6362 7.95688 5.4998 7.61538 5.5H6.46156C6.33915 5.5 6.22175 5.55263 6.13519 5.64631C6.04863 5.73998 6.00001 5.86704 6.00001 5.99952V9.99565C5.99942 10.0616 6.01092 10.1271 6.03385 10.1883C6.05678 10.2494 6.09068 10.3051 6.13359 10.352C6.17651 10.3989 6.22759 10.4361 6.28388 10.4615C6.34017 10.4869 6.40055 10.5 6.46154 10.5C6.52252 10.5 6.58291 10.4869 6.6392 10.4615C6.69549 10.4361 6.74656 10.3989 6.78948 10.352C6.8324 10.3051 6.8663 10.2494 6.88923 10.1883C6.91216 10.1271 6.92366 10.0616 6.92307 9.99565V8.75615L8.19116 10.3246C8.27201 10.4234 8.38571 10.4836 8.50743 10.492C8.62915 10.5003 8.74899 10.4563 8.84076 10.3693C8.93253 10.2824 8.98877 10.1596 8.99719 10.028C9.00562 9.89628 8.96554 9.76634 8.88572 9.66654ZM3.92308 6.49903H5.0769C5.13789 6.49967 5.19838 6.48722 5.2549 6.46241C5.31141 6.43759 5.36282 6.4009 5.40615 6.35446C5.44949 6.30801 5.48388 6.25273 5.50736 6.19181C5.53083 6.13089 5.54292 6.06554 5.54292 5.99954C5.54292 5.93354 5.53083 5.86819 5.50736 5.80727C5.48388 5.74635 5.44949 5.69107 5.40615 5.64462C5.36282 5.59818 5.31141 5.56149 5.2549 5.53667C5.19838 5.51186 5.13789 5.49941 5.0769 5.50005H3.46153C3.33913 5.50006 3.22175 5.55269 3.13521 5.64635C3.04866 5.74002 3.00003 5.86705 3.00002 5.99952V9.99551C2.99943 10.0615 3.01093 10.127 3.03386 10.1881C3.05679 10.2493 3.09069 10.3049 3.13361 10.3518C3.17652 10.3987 3.2276 10.436 3.28389 10.4614C3.34018 10.4868 3.40056 10.4999 3.46155 10.4999C3.52254 10.4999 3.58292 10.4868 3.63921 10.4614C3.6955 10.436 3.74658 10.3987 3.7895 10.3518C3.83241 10.3049 3.86631 10.2493 3.88924 10.1881C3.91217 10.127 3.92367 10.0615 3.92308 9.99551V8.497H4.84615C4.96778 8.49573 5.08403 8.44254 5.16962 8.34901C5.25521 8.25548 5.30323 8.12915 5.30323 7.99751C5.30323 7.86587 5.25521 7.73955 5.16962 7.64601C5.08403 7.55248 4.96778 7.49929 4.84615 7.49802H3.92308V6.49903ZM11.3077 7.49802C11.4293 7.49929 11.5455 7.55248 11.6311 7.64601C11.7167 7.73955 11.7648 7.86587 11.7648 7.99751C11.7648 8.12915 11.7167 8.25548 11.6311 8.34901C11.5455 8.44254 11.4293 8.49573 11.3077 8.497H10.3846V9.49604H11.5385C11.6601 9.49731 11.7763 9.5505 11.8619 9.64403C11.9475 9.73757 11.9955 9.86389 11.9955 9.99553C11.9955 10.1272 11.9475 10.2535 11.8619 10.347C11.7763 10.4406 11.6601 10.4937 11.5385 10.495H9.92305C9.80064 10.495 9.68324 10.4424 9.59668 10.3487C9.51013 10.255 9.4615 10.128 9.4615 9.99551V5.99952C9.4615 5.86704 9.51013 5.73998 9.59668 5.64631C9.68324 5.55263 9.80064 5.5 9.92305 5.5H11.5384C11.6601 5.50127 11.7763 5.55446 11.8619 5.648C11.9475 5.74153 11.9955 5.86785 11.9955 5.99949C11.9955 6.13114 11.9475 6.25746 11.8619 6.35099C11.7763 6.44453 11.6601 6.49771 11.5384 6.49899H10.3846V7.49797L11.3077 7.49802ZM14.4856 7.53464C14.4291 7.50983 14.3686 7.49738 14.3077 7.49802H13.3846V6.49903H14.5384C14.6609 6.49903 14.7783 6.44641 14.8648 6.35273C14.9514 6.25905 15 6.132 15 5.99952C15 5.86704 14.9514 5.73998 14.8648 5.64631C14.7783 5.55263 14.6609 5.5 14.5384 5.5H12.9231C12.8007 5.5 12.6833 5.55263 12.5967 5.64631C12.5102 5.73998 12.4615 5.86704 12.4615 5.99952V9.99555C12.4615 10.128 12.5102 10.2551 12.5967 10.3487C12.6833 10.4424 12.8007 10.495 12.9231 10.495H14.5384C14.6601 10.4937 14.7763 10.4406 14.8619 10.347C14.9475 10.2535 14.9955 10.1272 14.9955 9.99553C14.9955 9.86389 14.9475 9.73757 14.8619 9.64403C14.7763 9.5505 14.6601 9.49731 14.5384 9.49604H13.3846V8.497H14.3077C14.3686 8.49764 14.4291 8.4852 14.4856 8.46038C14.5422 8.43557 14.5936 8.39888 14.6369 8.35243C14.6802 8.30598 14.7146 8.2507 14.7381 8.18979C14.7616 8.12887 14.7737 8.06352 14.7737 7.99751C14.7737 7.93151 14.7616 7.86616 14.7381 7.80524C14.7146 7.74432 14.6802 7.68904 14.6369 7.64259C14.5936 7.59615 14.5422 7.55946 14.4856 7.53464Z"
        fill="#574FC1" />
</svg>
