<svg
    width="19"
    height="18"
    viewBox="0 0 19 18"
    fill="none"
    xmlns="http://www.w3.org/2000/svg">
    <path
        d="M11.3786 15.8672L11.3794 15.8669C13.3464 15.0266 14.9053 13.4828 15.9742 11.6922C16.5834 11.9978 17.065 12.3378 17.4054 12.6923C17.8157 13.1198 18 13.5442 18 13.95C18 14.7494 17.2561 15.6393 15.6588 16.3581C14.1084 17.0557 11.9314 17.5 9.5 17.5C7.06858 17.5 4.89157 17.0557 3.34115 16.3581C1.74385 15.6393 1 14.7494 1 13.95C1 13.5442 1.18434 13.1195 1.59465 12.6921C1.93495 12.3376 2.41658 11.9977 3.02571 11.6927C4.09458 13.4827 5.65356 15.0266 7.62057 15.8669L7.62139 15.8672C8.2155 16.1198 8.85444 16.25 9.5 16.25C10.1456 16.25 10.7845 16.1198 11.3786 15.8672ZM3.7 5.8635C3.7 2.93464 6.26233 0.5 9.5 0.5C12.7377 0.5 15.3 2.93464 15.3 5.8635C15.3 8.91532 13.3755 12.4578 10.4561 13.706C10.1536 13.8341 9.82849 13.9001 9.5 13.9001C9.17148 13.9001 8.84631 13.834 8.5438 13.7059C5.62447 12.4577 3.7 8.91442 3.7 5.8635ZM9.5 8.6C10.11 8.6 10.695 8.35768 11.1263 7.92634C11.5577 7.49501 11.8 6.91 11.8 6.3C11.8 5.69 11.5577 5.10499 11.1263 4.67365C10.695 4.24232 10.11 4 9.5 4C8.89 4 8.30499 4.24232 7.87365 4.67365C7.44232 5.10499 7.2 5.69 7.2 6.3C7.2 6.91 7.44232 7.49501 7.87365 7.92635C8.30499 8.35768 8.89 8.6 9.5 8.6Z"
        fill="#574FC1"
        stroke="#574FC1" />
</svg>
