<svg
    width="18"
    height="18"
    viewBox="0 0 18 18"
    fill="none"
    xmlns="http://www.w3.org/2000/svg">
    <path
        d="M16.5 9C16.5 9.98491 16.306 10.9602 15.9291 11.8701C15.5522 12.7801 14.9997 13.6069 14.3033 14.3033C13.6069 14.9997 12.7801 15.5522 11.8701 15.9291C10.9602 16.306 9.98491 16.5 9 16.5M16.5 9C16.5 7.01088 15.7098 5.10322 14.3033 3.6967C12.8968 2.29018 10.9891 1.5 9 1.5M16.5 9H1.50075M9 16.5C8.01509 16.5 7.03982 16.306 6.12987 15.9291C5.21993 15.5522 4.39314 14.9997 3.6967 14.3033C3.00026 13.6069 2.44781 12.7801 2.0709 11.8701C1.69399 10.9602 1.5 9.98491 1.5 9C1.5 7.01088 2.29018 5.10322 3.6967 3.6967C5.10322 2.29018 7.01088 1.5 9 1.5M9 16.5C9.39373 16.5 9.78409 16.3054 10.1486 15.9289C10.5123 15.5517 10.843 14.9997 11.1213 14.303C11.4003 13.6063 11.6215 12.7798 11.7715 11.8701C11.9222 10.9604 12.0002 9.9847 12.0002 9C12.0002 8.0153 11.923 7.0396 11.7715 6.12989C11.6215 5.21944 11.4003 4.39373 11.1213 3.69701C10.843 3.00105 10.5123 2.44833 10.1478 2.0711C9.78409 1.69462 9.39373 1.5 9 1.5M9 16.5C8.60627 16.5 8.21666 16.3054 7.85293 15.9289C7.48845 15.5517 7.15772 14.9989 6.87948 14.303C6.60049 13.6063 6.37926 12.7806 6.22851 11.8701C6.0747 10.9212 5.99845 9.96131 6.00052 9C6.00052 8.0153 6.07777 7.0396 6.22851 6.12989C6.37926 5.22019 6.60049 4.39373 6.87948 3.69701C7.15772 3.0003 7.48845 2.44833 7.85218 2.0711C8.21666 1.69537 8.60627 1.5 9 1.5"
        stroke="url(#paint0_linear_2631_13237)"
        stroke-width="1.1"
        stroke-linecap="round" />
    <defs>
        <linearGradient
            id="paint0_linear_2631_13237"
            x1="1.5"
            y1="1.5"
            x2="16.5"
            y2="16.5"
            gradientUnits="userSpaceOnUse">
            <stop stop-color="#4BEDB8" />
            <stop
                offset="0.105"
                stop-color="#20EDBB" />
            <stop
                offset="0.205"
                stop-color="#22E9C8" />
            <stop
                offset="0.3"
                stop-color="#24E4D4" />
            <stop
                offset="0.395"
                stop-color="#28E0E1" />
            <stop
                offset="0.505"
                stop-color="#23D4E8" />
            <stop
                offset="0.595"
                stop-color="#32C5F2" />
            <stop
                offset="0.705"
                stop-color="#46ADF7" />
            <stop
                offset="0.795"
                stop-color="#549BFF" />
            <stop
                offset="0.9"
                stop-color="#6783FF" />
            <stop
                offset="1"
                stop-color="#7B71FF" />
        </linearGradient>
    </defs>
</svg>
