<svg
    width="20"
    height="22"
    viewBox="0 0 20 22"
    fill="none"
    xmlns="http://www.w3.org/2000/svg">
    <path
        d="M9 16C12.866 16 16 12.866 16 9C16 5.13401 12.866 2 9 2C5.13401 2 2 5.13401 2 9C2 12.866 5.13401 16 9 16Z"
        stroke="#574FC1"
        stroke-width="1.3" />
    <path
        d="M1 15.562C1.9668 16.6442 3.15138 17.51 4.47611 18.1024C5.80084 18.6949 7.23581 19.0008 8.687 19C14.383 19 19 14.383 19 8.687C19 5.633 17.672 2.888 15.562 1"
        stroke="#574FC1"
        stroke-width="1.3"
        stroke-linecap="round" />
    <path
        d="M4 3.553C4.585 4.105 5.79 5.616 5.931 7.237C6.062 8.752 7.027 9.983 8.5 10C9.066 10.006 9.639 9.582 9.637 8.995C9.637 8.813 9.607 8.628 9.563 8.457C9.48853 8.19472 9.51053 7.91445 9.625 7.667C10.082 6.689 10.982 6.426 11.695 5.895C12.011 5.659 12.299 5.411 12.427 5.211C12.777 4.658 13.129 3.553 12.953 3M16 10C15.78 10.62 15.625 12.25 13.145 12.276C13.145 12.276 10.95 12.276 10.291 13.517C9.764 14.51 10.071 15.587 10.291 16"
        stroke="#574FC1"
        stroke-width="1.3" />
    <path
        d="M9 21V19M9 21H7M9 21H11"
        stroke="#574FC1"
        stroke-width="1.3"
        stroke-linecap="round" />
</svg>
