<svg
    width="18"
    height="20"
    viewBox="0 0 18 20"
    fill="none"
    xmlns="http://www.w3.org/2000/svg">
    <path
        d="M7.9375 6.7244C8.17896 6.58348 8.44571 6.49191 8.72243 6.45494C8.99916 6.41798 9.28042 6.43634 9.55008 6.50898C9.81973 6.58163 10.0725 6.70712 10.2938 6.87825C10.5151 7.04939 10.7007 7.2628 10.8398 7.50625C10.9799 7.74913 11.0709 8.01745 11.1077 8.2958C11.1444 8.57416 11.1262 8.85707 11.0539 9.12831C10.9817 9.39955 10.857 9.65378 10.6868 9.8764C10.5167 10.099 10.3045 10.2857 10.0625 10.4256C9.5754 10.6952 9.00267 10.762 8.46715 10.6118C7.93163 10.4615 7.47598 10.1061 7.19794 9.62184C6.91989 9.13756 6.84161 8.56297 6.97986 8.0213C7.11812 7.47964 7.46192 7.01405 7.9375 6.7244Z"
        fill="#574FC1" />
    <path
        fill-rule="evenodd"
        clip-rule="evenodd"
        d="M0.857 3.4279C0.5 3.939 0.5 5.459 0.5 8.49615V9.99145C0.5 15.3476 4.5035 17.9477 7.01572 19.0506C7.69667 19.3499 8.03761 19.5 9 19.5C9.96333 19.5 10.3033 19.3499 10.9843 19.0506C13.4965 17.9468 17.5 15.3485 17.5 9.99145V8.49615C17.5 5.45805 17.5 3.939 17.143 3.4279C16.7869 2.91775 15.3674 2.4285 12.5275 1.45095L11.9863 1.26475C10.5064 0.7546 9.76689 0.5 9 0.5C8.23311 0.5 7.49361 0.7546 6.01367 1.26475L5.4725 1.45C2.63256 2.4285 1.21306 2.91775 0.857 3.4279ZM9.42311 5.0391C8.51726 4.93278 7.60554 5.18205 6.87784 5.735C6.15014 6.28795 5.66254 7.10196 5.5166 8.0075C5.37066 8.91304 5.57762 9.84031 6.09438 10.5962C6.61114 11.3521 7.39787 11.8783 8.29072 12.0653V14.275C8.29072 14.4641 8.3654 14.6454 8.49833 14.7791C8.63125 14.9129 8.81154 14.988 8.99953 14.988C9.18751 14.988 9.3678 14.9129 9.50073 14.7791C9.63366 14.6454 9.70833 14.4641 9.70833 14.275V12.0662C10.0729 11.9912 10.4308 11.8572 10.7708 11.6596C11.174 11.4261 11.5273 11.1149 11.8107 10.7438C12.0941 10.3728 12.3019 9.94909 12.4223 9.4971C12.5427 9.04511 12.5732 8.57367 12.5122 8.10979C12.4511 7.6459 12.2997 7.19869 12.0666 6.79375C11.7917 6.3151 11.4098 5.90737 10.9511 5.60283C10.4925 5.29829 9.96967 5.10529 9.42406 5.0391"
        fill="#574FC1" />
</svg>
