<svg
    width="18"
    height="18"
    viewBox="0 0 18 18"
    fill="none"
    xmlns="http://www.w3.org/2000/svg">
    <path
        fill-rule="evenodd"
        clip-rule="evenodd"
        d="M9 18C13.9707 18 18 13.9707 18 9C18 4.0293 13.9707 0 9 0C4.0293 0 0 4.0293 0 9C0 13.9707 4.0293 18 9 18ZM9.4773 4.9227C9.35071 4.79612 9.17902 4.725 9 4.725C8.82098 4.725 8.64929 4.79612 8.5227 4.9227C8.39612 5.04929 8.325 5.22098 8.325 5.4V9C8.32516 9.17896 8.39638 9.35053 8.523 9.477L10.773 11.727C10.8348 11.7933 10.9093 11.8465 10.9921 11.8834C11.0749 11.9203 11.1643 11.9401 11.2549 11.9417C11.3456 11.9433 11.4356 11.9267 11.5196 11.8927C11.6037 11.8588 11.68 11.8082 11.7441 11.7441C11.8082 11.68 11.8588 11.6037 11.8927 11.5196C11.9267 11.4356 11.9433 11.3456 11.9417 11.2549C11.9401 11.1643 11.9203 11.0749 11.8834 10.9921C11.8465 10.9093 11.7933 10.8348 11.727 10.773L9.675 8.721V5.4C9.675 5.22098 9.60388 5.04929 9.4773 4.9227Z"
        fill="#574FC1" />
</svg>
