<svg
    width="20"
    height="20"
    viewBox="0 0 20 20"
    fill="none"
    xmlns="http://www.w3.org/2000/svg">
    <path
        d="M13.9149 3.21809C13.9149 3.57739 13.7384 3.92665 13.4045 4.25171C13.0703 4.57701 12.5829 4.87338 11.9746 5.12386C10.7584 5.62468 9.07294 5.93617 7.20745 5.93617C5.34195 5.93617 3.65654 5.62468 2.44026 5.12386C1.83195 4.87338 1.34457 4.57701 1.01043 4.25171C0.676532 3.92665 0.5 3.57739 0.5 3.21809C0.5 2.85878 0.676532 2.50952 1.01043 2.18446C1.34457 1.85917 1.83195 1.56279 2.44026 1.31231C3.65654 0.811492 5.34195 0.5 7.20745 0.5C9.07294 0.5 10.7584 0.811492 11.9746 1.31231C12.5829 1.56279 13.0703 1.85917 13.4045 2.18446C13.7384 2.50952 13.9149 2.85878 13.9149 3.21809Z"
        fill="#574FC1" />
    <path
        d="M6.29275 9.89739C6.79128 8.8573 7.51641 7.94895 8.40547 7.2337C8.00854 7.26325 7.60899 7.28192 7.20745 7.28192C4.62866 7.28192 2.02248 6.70097 0.5 5.56597V7.20745C0.5 7.53858 0.649909 7.86075 0.934785 8.16345C1.22004 8.46656 1.63761 8.74659 2.163 8.99015C3.20309 9.47233 4.65264 9.80557 6.29275 9.89739Z"
        fill="#574FC1" />
    <path
        d="M0.5 9.55533C1.74645 10.4843 3.7201 11.0359 5.80555 11.2072C5.63449 11.8405 5.53723 12.504 5.53723 13.1915C5.53723 13.4068 5.54835 13.6194 5.56618 13.8289C4.11356 13.6793 2.85101 13.337 1.94862 12.8747C1.0222 12.4 0.5 11.8127 0.5 11.1968V9.55533Z"
        fill="#574FC1" />
    <path
        fill-rule="evenodd"
        clip-rule="evenodd"
        d="M6.88298 13.1915C6.88298 9.7132 9.7132 6.88298 13.1915 6.88298C16.6698 6.88298 19.5 9.7132 19.5 13.1915C19.5 16.6698 16.6698 19.5 13.1915 19.5C9.7132 19.5 6.88298 16.6698 6.88298 13.1915ZM13.5 10.6923C13.5 10.31 13.1642 10 12.75 10C12.3358 10 12 10.31 12 10.6923V13.5326C12 13.7209 12.0831 13.9011 12.2302 14.0317L14.2302 15.8067C14.5288 16.0717 15.0035 16.0631 15.2906 15.7875C15.5777 15.5119 15.5684 15.0736 15.2698 14.8086L13.5 13.2379V10.6923Z"
        fill="#574FC1" />
</svg>
