<svg
    width="20"
    height="20"
    viewBox="0 0 20 20"
    fill="none"
    xmlns="http://www.w3.org/2000/svg">
    <path
        d="M17.2 17.2L19 19M18 9.5C18 14.1944 14.1944 18 9.5 18C4.80558 18 1 14.1944 1 9.5C1 4.80558 4.80558 1 9.5 1C14.1944 1 18 4.80558 18 9.5ZM11.5 6.5C11.5 7.60457 10.6046 8.5 9.5 8.5C8.39543 8.5 7.5 7.60457 7.5 6.5C7.5 5.39543 8.39543 4.5 9.5 4.5C10.6046 4.5 11.5 5.39543 11.5 6.5ZM13.5 12.5C13.5 13.605 13.5 14.5 9.5 14.5C5.5 14.5 5.5 13.605 5.5 12.5C5.5 11.395 7.29 10.5 9.5 10.5C11.71 10.5 13.5 11.395 13.5 12.5Z"
        stroke="#574FC1"
        stroke-width="1.3"
        stroke-linecap="round" />
</svg>
