<svg
    width="20"
    height="20"
    viewBox="0 0 20 20"
    fill="none"
    xmlns="http://www.w3.org/2000/svg">
    <path
        d="M10 19V18.35L9.99916 18.35L10 19ZM1.9387 14.0077L1.35671 14.2972L1.35732 14.2984L1.9387 14.0077ZM2.0593 15.0409L1.43138 14.8729L1.43135 14.873L2.0593 15.0409ZM1.5238 17.0443L2.15172 17.2123L2.15175 17.2121L1.5238 17.0443ZM2.9557 18.4771L3.12328 19.1051L3.12381 19.105L2.9557 18.4771ZM4.9591 17.9407L4.79987 17.3104L4.79099 17.3128L4.9591 17.9407ZM5.9932 18.0604L5.69419 18.6376L5.70349 18.6423L5.9932 18.0604ZM9.8 14.05C9.8 14.409 10.091 14.7 10.45 14.7C10.809 14.7 11.1 14.409 11.1 14.05H9.8ZM10.3186 8.7814L10.7798 8.32334L10.7766 8.32021L10.3186 8.7814ZM9.55 8C9.19101 8 8.9 8.29101 8.9 8.65C8.9 9.00898 9.19101 9.3 9.55 9.3V8ZM10.225 5.3C9.86601 5.3 9.575 5.59101 9.575 5.95C9.575 6.30898 9.86601 6.6 10.225 6.6V5.3ZM10.2331 6.6C10.5921 6.6 10.8831 6.30898 10.8831 5.95C10.8831 5.59101 10.5921 5.3 10.2331 5.3V6.6ZM10 19.65C15.3297 19.65 19.65 15.3297 19.65 10H18.35C18.35 14.6117 14.6117 18.35 10 18.35V19.65ZM19.65 10C19.65 4.67031 15.3297 0.35 10 0.35V1.65C14.6117 1.65 18.35 5.38828 18.35 10H19.65ZM10 0.35C4.67031 0.35 0.35 4.67031 0.35 10H1.65C1.65 5.38828 5.38828 1.65 10 1.65V0.35ZM0.35 10C0.35 11.5429 0.712785 13.0025 1.35672 14.2972L2.52068 13.7182C1.96401 12.599 1.65 11.3371 1.65 10H0.35ZM1.35732 14.2984C1.45603 14.4958 1.47783 14.6993 1.43138 14.8729L2.68722 15.2089C2.82617 14.6895 2.74177 14.1604 2.52008 13.717L1.35732 14.2984ZM1.43135 14.873L0.895846 16.8764L2.15175 17.2121L2.68725 15.2087L1.43135 14.873ZM0.895879 16.8763C0.813377 17.1847 0.813452 17.5094 0.896096 17.8178L2.15178 17.4813C2.12817 17.3932 2.12815 17.3004 2.15172 17.2123L0.895879 16.8763ZM0.896096 17.8178C0.97874 18.1262 1.14104 18.4074 1.36672 18.6332L2.28625 17.7142C2.22177 17.6497 2.1754 17.5694 2.15178 17.4813L0.896096 17.8178ZM1.36672 18.6332C1.59239 18.859 1.8735 19.0215 2.18182 19.1043L2.51913 17.8488C2.43104 17.8252 2.35072 17.7787 2.28625 17.7142L1.36672 18.6332ZM2.18182 19.1043C2.49013 19.1871 2.81482 19.1874 3.12328 19.1051L2.78812 17.8491C2.69999 17.8726 2.60722 17.8725 2.51913 17.8488L2.18182 19.1043ZM3.12381 19.105L5.12721 18.5686L4.79099 17.3128L2.78759 17.8492L3.12381 19.105ZM5.11832 18.5709C5.31198 18.522 5.51686 18.5457 5.69422 18.6376L6.29217 17.4832C5.83258 17.2452 5.3017 17.1837 4.79988 17.3105L5.11832 18.5709ZM5.70349 18.6423C7.0384 19.3069 8.50961 19.6519 10.0008 19.65L9.99916 18.35C8.70959 18.3516 7.43731 18.0533 6.28291 17.4785L5.70349 18.6423ZM11.1 14.05V9.55H9.8V14.05H11.1ZM11.1 9.55C11.1 9.35632 11.1014 9.14586 11.0778 8.97005C11.0518 8.77579 10.9853 8.53028 10.7798 8.32335L9.85741 9.23944C9.82528 9.2071 9.8043 9.17151 9.79301 9.14394C9.78382 9.12149 9.78569 9.1155 9.78932 9.14264C9.79301 9.17019 9.79634 9.21397 9.79815 9.28603C9.79995 9.35776 9.8 9.44162 9.8 9.55H11.1ZM10.7766 8.32021C10.57 8.11496 10.325 8.04828 10.1304 8.02219C9.95461 7.99862 9.74405 8 9.55 8V9.3C9.65861 9.3 9.74257 9.30004 9.81435 9.30184C9.88646 9.30366 9.93017 9.30698 9.95761 9.31066C9.98461 9.31428 9.97845 9.31611 9.95585 9.30685C9.92811 9.29547 9.89265 9.27447 9.86055 9.24258L10.7766 8.32021ZM10.225 6.6H10.2331V5.3H10.225V6.6Z"
        fill="#574FC1" />
</svg>
