<svg
    width="20"
    height="20"
    viewBox="0 0 20 20"
    fill="none"
    xmlns="http://www.w3.org/2000/svg">
    <path
        d="M9.85 14C9.85 14.359 10.141 14.65 10.5 14.65C10.859 14.65 11.15 14.359 11.15 14H9.85ZM10.354 8.79644L10.7875 8.31208L10.7842 8.30917L10.354 8.79644ZM9.5 8.01667C9.14102 8.01667 8.85 8.30768 8.85 8.66667C8.85 9.02565 9.14102 9.31667 9.5 9.31667V8.01667ZM10.25 5.35C9.89102 5.35 9.6 5.64102 9.6 6C9.6 6.35898 9.89102 6.65 10.25 6.65V5.35ZM10.259 6.65C10.618 6.65 10.909 6.35898 10.909 6C10.909 5.64102 10.618 5.35 10.259 5.35V6.65ZM18.35 10C18.35 14.6116 14.6116 18.35 10 18.35V19.65C15.3295 19.65 19.65 15.3295 19.65 10H18.35ZM10 18.35C5.38842 18.35 1.65 14.6116 1.65 10H0.35C0.35 15.3295 4.67045 19.65 10 19.65V18.35ZM1.65 10C1.65 5.38842 5.38842 1.65 10 1.65V0.35C4.67045 0.35 0.35 4.67045 0.35 10H1.65ZM10 1.65C14.6116 1.65 18.35 5.38842 18.35 10H19.65C19.65 4.67045 15.3295 0.35 10 0.35V1.65ZM11.15 14V9.55556H9.85V14H11.15ZM11.15 9.55556C11.15 9.36671 11.1517 9.15186 11.1245 8.97115C11.0932 8.76346 11.013 8.5139 10.7875 8.3121L9.92052 9.28079C9.8884 9.25205 9.86336 9.21655 9.848 9.18319C9.83512 9.15521 9.83572 9.14304 9.83901 9.16485C9.84244 9.18762 9.846 9.22728 9.84798 9.29709C9.84995 9.36659 9.85 9.44818 9.85 9.55556H11.15ZM10.7842 8.30917C10.5687 8.11893 10.3213 8.06075 10.1258 8.03746C9.9422 8.01558 9.71965 8.01667 9.5 8.01667V9.31667C9.62014 9.31667 9.71542 9.3167 9.79736 9.31853C9.87962 9.32037 9.93408 9.32381 9.97196 9.32832C10.0487 9.33747 9.9923 9.34418 9.92381 9.28372L10.7842 8.30917ZM10.25 6.65H10.259V5.35H10.25V6.65Z"
        fill="#DC3955" />
</svg>
