<svg
    width="24"
    height="24"
    viewBox="0 0 24 24"
    fill="none"
    xmlns="http://www.w3.org/2000/svg">
    <path
        d="M20 16V8C20 5.172 20 3.757 19.121 2.879C18.243 2 16.828 2 14 2H10C7.172 2 5.757 2 4.879 2.879C4 3.757 4 5.172 4 8V16C4 18.828 4 20.243 4.879 21.121C5.757 22 7.172 22 10 22H14C16.828 22 18.243 22 19.121 21.121C20 20.243 20 18.828 20 16ZM20 16H7.92301C6.98704 16 6.51906 16 6.13461 16.0917C5.62266 16.2144 5.15586 16.4553 4.78116 16.7903C4.40645 17.1253 4.13704 17.5425 4 18M10 16V18.6338C10 18.8398 10 18.9427 9.92875 18.9845C9.8575 19.0263 9.76075 18.98 9.56575 18.8875L8.63425 18.4473C8.56825 18.4174 8.53525 18.401 8.5 18.401C8.46475 18.401 8.43175 18.4167 8.36575 18.448L7.43425 18.8883C7.23925 18.98 7.14175 19.0263 7.07125 18.9845C7 18.9427 7 18.8398 7 18.6338V16.3358M13 9C13 9.55228 12.5523 10 12 10C11.4477 10 11 9.55228 11 9C11 8.44772 11.4477 8 12 8C12.5523 8 13 8.44772 13 9ZM12.7488 4.8146C12.5931 4.75 12.3954 4.75 12 4.75C11.6046 4.75 11.4069 4.75 11.2512 4.8146C11.1482 4.85732 11.0546 4.91996 10.9757 4.99893C10.8969 5.07791 10.8344 5.17168 10.7917 5.27487C10.7527 5.36965 10.737 5.48057 10.731 5.64165C10.7283 5.75807 10.6961 5.87189 10.6375 5.97245C10.5788 6.07302 10.4957 6.15704 10.3959 6.21668C10.2944 6.27353 10.1802 6.30366 10.0639 6.30426C9.94763 6.30485 9.83311 6.27589 9.73106 6.22008C9.58851 6.14443 9.48541 6.10278 9.38317 6.08918C9.16014 6.0598 8.9346 6.12033 8.75611 6.25747C8.62289 6.36075 8.52362 6.53203 8.32591 6.875C8.12821 7.21797 8.02893 7.38925 8.00729 7.55713C7.99271 7.66782 8.00004 7.7803 8.02887 7.88816C8.0577 7.99601 8.10745 8.09711 8.1753 8.1857C8.23809 8.2673 8.32591 8.33573 8.4621 8.42158C8.66277 8.5478 8.79175 8.76285 8.79175 9C8.79175 9.23715 8.66277 9.4522 8.4621 9.578C8.32591 9.66428 8.23766 9.7327 8.1753 9.8143C8.10745 9.90289 8.0577 10.004 8.02887 10.1118C8.00004 10.2197 7.99271 10.3322 8.00729 10.4429C8.02935 10.6103 8.1282 10.782 8.32549 11.125C8.52362 11.468 8.62247 11.6393 8.75611 11.7425C8.84454 11.8105 8.94547 11.8603 9.05314 11.8892C9.1608 11.9181 9.27309 11.9254 9.38359 11.9108C9.48541 11.8972 9.58851 11.8556 9.73106 11.7799C9.83311 11.7241 9.94763 11.6951 10.0639 11.6957C10.1802 11.6963 10.2944 11.7265 10.3959 11.7833C10.6008 11.9023 10.7226 12.1212 10.731 12.3584C10.737 12.5199 10.7523 12.6303 10.7917 12.7251C10.8344 12.8283 10.8969 12.9221 10.9757 13.0011C11.0546 13.08 11.1482 13.1427 11.2512 13.1854C11.4069 13.25 11.6046 13.25 12 13.25C12.3954 13.25 12.5931 13.25 12.7488 13.1854C12.8518 13.1427 12.9454 13.08 13.0243 13.0011C13.1031 12.9221 13.1656 12.8283 13.2083 12.7251C13.2473 12.6303 13.263 12.5199 13.269 12.3584C13.2774 12.1212 13.3992 11.9019 13.6041 11.7833C13.7056 11.7265 13.8198 11.6963 13.9361 11.6957C14.0524 11.6951 14.1669 11.7241 14.2689 11.7799C14.4115 11.8556 14.5146 11.8972 14.6164 11.9108C14.7269 11.9254 14.8392 11.9181 14.9469 11.8892C15.0545 11.8603 15.1555 11.8105 15.2439 11.7425C15.3775 11.6397 15.4764 11.468 15.6741 11.125C15.8718 10.782 15.9711 10.6107 15.9927 10.4429C16.0073 10.3322 16 10.2197 15.9711 10.1118C15.9423 10.004 15.8925 9.90289 15.8247 9.8143C15.7619 9.7327 15.6741 9.66427 15.5379 9.57842C15.4386 9.51782 15.3563 9.43296 15.2986 9.3318C15.241 9.23064 15.2099 9.11648 15.2083 9C15.2083 8.76285 15.3372 8.5478 15.5379 8.422C15.6741 8.33572 15.7623 8.2673 15.8247 8.1857C15.8925 8.09711 15.9423 7.99601 15.9711 7.88816C16 7.7803 16.0073 7.66782 15.9927 7.55713C15.9706 7.38968 15.8718 7.21797 15.6745 6.875C15.4764 6.53203 15.3775 6.36075 15.2439 6.25747C15.1555 6.18951 15.0545 6.13967 14.9469 6.11079C14.8392 6.08192 14.7269 6.07457 14.6164 6.08918C14.5146 6.10278 14.4115 6.14443 14.2685 6.22008C14.1665 6.27581 14.0521 6.30473 13.9359 6.30414C13.8197 6.30354 13.7056 6.27345 13.6041 6.21668C13.5043 6.15704 13.4212 6.07302 13.3625 5.97245C13.3039 5.87189 13.2717 5.75807 13.269 5.64165C13.263 5.48015 13.2477 5.36965 13.2083 5.27487C13.1656 5.17168 13.1031 5.07791 13.0243 4.99893C12.9454 4.91996 12.8518 4.85732 12.7488 4.8146Z"
        stroke="#574FC1"
        stroke-width="1.3" />
</svg>
