<svg
    width="20"
    height="20"
    viewBox="0 0 20 20"
    fill="none"
    xmlns="http://www.w3.org/2000/svg">
    <path
        d="M12.3217 14.9059C12.7407 15.429 12.9074 16.0162 12.8375 16.6705C12.7677 17.3248 12.4389 17.9293 11.9179 18.3616C11.3969 18.7939 10.7226 19.0215 10.0318 18.9984C9.34087 18.9753 8.68508 18.7031 8.1973 18.237L7.30493 17.3938M17.0209 7.14859L19 6.63952M15.7842 4.08718L17.2558 2.67444M12.588 2.92587L13.1255 1M5.94973 3.97609C6.10375 3.64435 6.3395 3.35354 6.63665 3.12875C6.93381 2.90395 7.28346 2.7519 7.65546 2.68571C8.02746 2.61953 8.41065 2.64119 8.77199 2.74882C9.13332 2.85646 9.46197 3.04685 9.7296 3.30357L16.326 9.63603C16.5853 9.88532 16.7797 10.1898 16.8934 10.5248C17.0071 10.8598 17.0368 11.2158 16.9803 11.5639C16.9237 11.912 16.7824 12.2424 16.5678 12.5282C16.3532 12.814 16.0714 13.0471 15.7453 13.2087L12.7539 14.691L11.3308 15.3984L5.59231 18.2426C5.15289 18.4604 4.65277 18.5384 4.16413 18.4656C3.67549 18.3927 3.2236 18.1727 2.8737 17.8372L1.68376 16.6949C1.34985 16.3745 1.12505 15.9644 1.03904 15.5188C0.953038 15.0732 1.00988 14.613 1.20207 14.199L5.94973 3.97609Z"
        stroke="#574FC1"
        stroke-width="1.3"
        stroke-linecap="round" />
</svg>
