<svg
    width="18"
    height="16"
    viewBox="0 0 18 16"
    fill="none"
    xmlns="http://www.w3.org/2000/svg">
    <path
        d="M18 2.53705V6.2273C18 7.4543 17.1323 8.46912 15.9785 8.70899C15.7938 8.19235 15.4338 7.7403 14.9538 7.42663L10.7262 4.73275C10.3108 4.47443 9.84 4.33604 9.36 4.33604C8.95385 4.33604 8.55692 4.4283 8.19692 4.61281C7.38462 5.02797 6.86769 5.82137 6.82154 6.73471L6.71077 8.76434H2.53846C1.13538 8.76434 0 7.62959 0 6.2273V2.53705C0 1.13475 1.13538 0 2.53846 0H15.4615C16.8646 0 18 1.13475 18 2.53705ZM14.9418 13.7093L13.5092 10.9121L14.1231 10.5938C14.4932 10.4028 14.7258 10.0384 14.7452 9.62233C14.7646 9.21179 14.5606 8.81877 14.2135 8.59736L9.97846 5.89979C9.62862 5.67745 9.20031 5.65531 8.83108 5.84536C8.46185 6.03448 8.22831 6.3952 8.20523 6.80943L7.93938 11.8392C7.91815 12.2516 8.11938 12.6465 8.46646 12.8697C8.81446 13.093 9.25477 13.1142 9.62215 12.9251L10.3071 12.569L11.7 15.3607C11.8394 15.6402 12.0794 15.8459 12.3757 15.9428C12.4929 15.9806 12.6138 16 12.7338 16C12.9157 16 13.0975 15.9566 13.2628 15.8699L14.4434 15.2583C15.0055 14.9695 15.2298 14.2739 14.9409 13.7084L14.9418 13.7093Z"
        fill="#574FC1" />
</svg>
