<svg
    width="22"
    height="22"
    viewBox="0 0 22 22"
    fill="none"
    xmlns="http://www.w3.org/2000/svg">
    <path
        d="M9.74998 14.4836C9.74998 14.1246 9.45896 13.8336 9.09998 13.8336C8.74099 13.8336 8.44998 14.1246 8.44998 14.4836H9.74998ZM10.35 16.7C10.35 17.059 10.641 17.35 11 17.35C11.359 17.35 11.65 17.059 11.65 16.7H10.35ZM11.65 9.09998C11.65 8.74099 11.359 8.44998 11 8.44998C10.641 8.44998 10.35 8.74099 10.35 9.09998H11.65ZM12.25 11.3163C12.25 11.6753 12.541 11.9663 12.9 11.9663C13.259 11.9663 13.55 11.6753 13.55 11.3163H12.25ZM2.15 12.9C2.15 11.0904 2.15138 9.79848 2.28337 8.81709C2.41285 7.85439 2.65718 7.2885 3.07282 6.87322L2.15398 5.95358C1.45622 6.65075 1.14385 7.53693 0.994975 8.64381C0.848619 9.73199 0.85 11.1272 0.85 12.9H2.15ZM3.07282 6.87322C3.48875 6.45765 4.05497 6.21331 5.01753 6.08372C5.99878 5.95162 7.2905 5.95 9.1 5.95V4.65C7.32705 4.65 5.93217 4.64886 4.84408 4.79534C3.7373 4.94434 2.85145 5.2567 2.15398 5.95358L3.07282 6.87322ZM9.1 5.95H12.9V4.65H9.1V5.95ZM12.9 5.95C14.7096 5.95 16.0015 5.95138 16.9829 6.08337C17.9456 6.21285 18.5115 6.45718 18.9268 6.87282L19.8464 5.95398C19.1493 5.25622 18.2631 4.94385 17.1562 4.79498C16.068 4.64862 14.6728 4.65 12.9 4.65V5.95ZM18.9268 6.87282C19.3424 7.28875 19.5867 7.85497 19.7163 8.81753C19.8484 9.79878 19.85 11.0905 19.85 12.9H21.15C21.15 11.1271 21.1511 9.73217 21.0047 8.64408C20.8557 7.5373 20.5433 6.65145 19.8464 5.95398L18.9268 6.87282ZM19.85 12.9C19.85 14.7096 19.8486 16.0015 19.7166 16.9829C19.5871 17.9456 19.3428 18.5115 18.9272 18.9268L19.846 19.8464C20.5438 19.1493 20.8562 18.2631 21.005 17.1562C21.1514 16.068 21.15 14.6728 21.15 12.9H19.85ZM18.9272 18.9268C18.5113 19.3424 17.945 19.5867 16.9825 19.7163C16.0012 19.8484 14.7095 19.85 12.9 19.85V21.15C14.6729 21.15 16.0678 21.1511 17.1559 21.0047C18.2627 20.8557 19.1485 20.5433 19.846 19.8464L18.9272 18.9268ZM12.9 19.85H9.1V21.15H12.9V19.85ZM9.1 19.85C7.29039 19.85 5.99848 19.8486 5.01709 19.7166C4.05439 19.5871 3.4885 19.3428 3.07322 18.9272L2.15358 19.846C2.85075 20.5438 3.73693 20.8562 4.84381 21.005C5.93199 21.1514 7.32716 21.15 9.1 21.15V19.85ZM3.07322 18.9272C2.65765 18.5113 2.41331 17.945 2.28372 16.9825C2.15162 16.0012 2.15 14.7095 2.15 12.9H0.85C0.85 14.6729 0.848857 16.0678 0.995343 17.1559C1.14434 18.2627 1.4567 19.1485 2.15358 19.846L3.07322 18.9272ZM15.45 5.3C15.45 4.42254 15.4514 3.69925 15.3746 3.12856C15.2953 2.53906 15.1221 2.01624 14.7029 1.59708L13.7837 2.51632C13.9212 2.65386 14.0263 2.85684 14.0862 3.30189C14.1486 3.76575 14.15 4.38576 14.15 5.3H15.45ZM14.7029 1.59708C14.2838 1.17793 13.7609 1.0047 13.1714 0.925391C12.6008 0.848618 11.8775 0.85 11 0.85V2.15C11.9142 2.15 12.5342 2.15138 12.9981 2.21378C13.4432 2.27365 13.6461 2.37877 13.7837 2.51632L14.7029 1.59708ZM11 0.85C10.1225 0.85 9.39925 0.848618 8.82856 0.925391C8.23906 1.0047 7.71624 1.17793 7.29708 1.59708L8.21632 2.51632C8.35386 2.37877 8.55684 2.27365 9.00189 2.21378C9.46575 2.15138 10.0858 2.15 11 2.15V0.85ZM7.29708 1.59708C6.87793 2.01624 6.7047 2.53906 6.62539 3.12856C6.54862 3.69925 6.55 4.42254 6.55 5.3H7.85C7.85 4.38576 7.85138 3.76575 7.91378 3.30189C7.97365 2.85684 8.07877 2.65386 8.21632 2.51632L7.29708 1.59708ZM11 16.7163C12.2926 16.7163 13.55 15.8227 13.55 14.4836H12.25C12.25 14.8926 11.8069 15.4163 11 15.4163V16.7163ZM13.55 14.4836C13.55 13.145 12.2931 12.25 11 12.25V13.55C11.8063 13.55 12.25 14.0742 12.25 14.4836H13.55ZM11 12.25C10.1933 12.25 9.74998 11.7265 9.74998 11.3163H8.44998C8.44998 12.6561 9.7071 13.55 11 13.55V12.25ZM9.74998 11.3163C9.74998 10.9074 10.1931 10.3836 11 10.3836V9.08363C9.70738 9.08363 8.44998 9.9773 8.44998 11.3163H9.74998ZM11 15.4163C10.1931 15.4163 9.74998 14.8926 9.74998 14.4836H8.44998C8.44998 15.8227 9.70738 16.7163 11 16.7163V15.4163ZM10.35 16.0663V16.7H11.65V16.0663H10.35ZM10.35 9.09998V9.73363H11.65V9.09998H10.35ZM11 10.3836C11.8069 10.3836 12.25 10.9074 12.25 11.3163H13.55C13.55 9.9773 12.2926 9.08363 11 9.08363V10.3836Z"
        fill="#574FC1" />
</svg>
