<svg
    width="18"
    height="20"
    viewBox="0 0 18 20"
    fill="none"
    xmlns="http://www.w3.org/2000/svg">
    <path
        fill-rule="evenodd"
        clip-rule="evenodd"
        d="M0.5 8.49615C0.5 5.45805 0.5 3.939 0.857 3.4279C1.21306 2.91775 2.63256 2.4285 5.4725 1.45095L6.01367 1.26475C7.49361 0.7546 8.23311 0.5 9 0.5C9.76689 0.5 10.5064 0.7546 11.9863 1.26475L12.5275 1.45095C15.3674 2.4285 16.7869 2.91775 17.143 3.4279C17.5 3.939 17.5 5.459 17.5 8.49615V9.99145C17.5 15.3476 13.4965 17.9477 10.9843 19.0506C10.3033 19.3499 9.96333 19.5 9 19.5C8.03667 19.5 7.69667 19.3499 7.01572 19.0506C4.5035 17.9468 0.5 15.3485 0.5 9.99145V8.49615ZM10.8889 7.15C10.8889 7.65391 10.6899 8.13718 10.3356 8.4935C9.98141 8.84982 9.50096 9.05 9 9.05C8.49904 9.05 8.01859 8.84982 7.66435 8.4935C7.31012 8.13718 7.11111 7.65391 7.11111 7.15C7.11111 6.64609 7.31012 6.16282 7.66435 5.8065C8.01859 5.45018 8.49904 5.25 9 5.25C9.50096 5.25 9.98141 5.45018 10.3356 5.8065C10.6899 6.16282 10.8889 6.64609 10.8889 7.15ZM9 14.75C12.7778 14.75 12.7778 13.8997 12.7778 12.85C12.7778 11.8003 11.0872 10.95 9 10.95C6.91278 10.95 5.22222 11.8003 5.22222 12.85C5.22222 13.8997 5.22222 14.75 9 14.75Z"
        fill="#574FC1" />
</svg>
