<svg
    width="18"
    height="18"
    viewBox="0 0 18 18"
    fill="none"
    xmlns="http://www.w3.org/2000/svg">
    <path
        d="M10.4264 11.5414L10.8027 10.7698C10.8068 10.7618 10.8108 10.7537 10.8145 10.7456L11.4764 9.38808L12.5265 11.5414H10.4264Z"
        fill="#574FC1" />
    <path
        fill-rule="evenodd"
        clip-rule="evenodd"
        d="M9 18C4.7574 18 2.6361 18 1.3176 16.6815C0 15.3648 0 13.2426 0 9C0 4.7574 0 2.6361 1.3176 1.3176C2.637 0 4.7574 0 9 0C13.2426 0 15.3639 0 16.6815 1.3176C18 2.637 18 4.7574 18 9C18 13.2426 18 15.3639 16.6815 16.6815C15.3648 18 13.2426 18 9 18ZM7.5703 4.13274C7.5703 3.78329 7.28639 3.5 6.93616 3.5C6.58594 3.5 6.30202 3.78329 6.30202 4.13274V4.7697H3.63414C3.28391 4.7697 3 5.05299 3 5.40244C3 5.75189 3.28391 6.03517 3.63414 6.03517H7.9091C7.79422 6.85778 7.45729 7.63167 6.93642 8.2678C6.60449 7.86241 6.3433 7.3963 6.16856 6.88953C6.05463 6.55909 5.69379 6.38337 5.36262 6.49706C5.03145 6.61074 4.85534 6.97078 4.96927 7.30122C5.20034 7.97137 5.55057 8.58837 5.99916 9.12262C5.30028 9.59348 4.47904 9.84851 3.63414 9.84851C3.28391 9.84851 3 10.1318 3 10.4812C3 10.8307 3.28391 11.114 3.63414 11.114C4.83083 11.114 5.98575 10.7217 6.93642 10.0097C6.95948 10.0269 6.98269 10.044 7.00604 10.061C7.68315 10.552 8.45592 10.8805 9.26689 11.0269L8.84816 11.8857C8.84405 11.8936 8.84012 11.9017 8.83635 11.9099L8.01695 13.5903C7.86372 13.9045 7.99481 14.2832 8.30974 14.4361C8.62467 14.589 9.00418 14.4582 9.1574 14.1439L9.80936 12.8069H13.1435L13.7955 14.1439C13.9487 14.4582 14.3282 14.589 14.6432 14.4361C14.9581 14.2832 15.0892 13.9045 14.9359 13.5903L14.1165 11.9099C14.1128 11.9017 14.1088 11.8936 14.1047 11.8857L12.0467 7.66502C11.9405 7.44729 11.7191 7.30911 11.4764 7.30911C11.2338 7.30911 11.0124 7.44729 10.9062 7.66502L9.85029 9.8305C9.1471 9.76513 8.46792 9.52298 7.87369 9.1226C8.60676 8.24967 9.06292 7.17272 9.18694 6.03517H10.2382C10.5884 6.03517 10.8723 5.75189 10.8723 5.40244C10.8723 5.05299 10.5884 4.7697 10.2382 4.7697H7.5703V4.13274Z"
        fill="#574FC1" />
</svg>
