<svg
    width="18"
    height="20"
    viewBox="0 0 18 20"
    fill="none"
    xmlns="http://www.w3.org/2000/svg">
    <path
        d="M5.42729 4.76263L2.38503 4.76264C1.67113 4.77437 1.01946 4.81863 0.551367 5.25405C0.237097 5.54638 0.10937 5.91321 0.0525962 6.30456C-3.72268e-05 6.66736 -1.95936e-05 7.12016 7.99521e-07 7.64373V8.28232C-1.03738e-05 8.69229 -1.99284e-05 9.04291 0.030508 9.33443C0.0631988 9.64661 0.134173 9.9349 0.302142 10.2102C0.468213 10.4825 0.691771 10.6817 0.954807 10.8632C1.20708 11.0372 1.53099 11.2179 1.91829 11.4339L4.3984 12.8178C4.95144 13.1264 5.15453 13.2431 5.29118 13.3607C5.60272 13.6285 5.78222 13.9277 5.86593 14.3017L5.86635 14.3036C5.90275 14.4637 5.90625 14.665 5.90625 15.2526L5.90625 16.5745C5.90623 16.9291 5.90621 17.2426 5.93667 17.503C5.96987 17.7867 6.04331 18.0585 6.22461 18.3109C6.40313 18.5601 6.63696 18.7215 6.89386 18.8532C7.11978 18.969 7.40229 19.0803 7.72851 19.207L7.79435 19.2326C7.89909 19.2732 8.00372 19.3145 8.1084 19.3557C8.64731 19.5682 9.18763 19.7812 9.75224 19.9139C10.2739 20.0366 10.7937 20.06 11.2633 19.7687C11.7452 19.4699 11.934 18.9903 12.0163 18.4731C12.0938 17.9857 12.0938 17.3496 12.0938 16.5923L12.0938 15.2518C12.0938 14.6653 12.0972 14.4636 12.1338 14.3023L12.1348 14.2975C12.2138 13.9344 12.413 13.6064 12.7024 13.3661L12.7099 13.3597C12.8447 13.2437 13.0455 13.1281 13.5908 12.823L13.615 12.8095L16.0945 11.426C16.4751 11.2139 16.7949 11.0357 17.0445 10.864C17.3075 10.6831 17.5322 10.4837 17.6983 10.2104C17.866 9.93515 17.9369 9.64678 17.9695 9.33468C18 9.04284 18 8.69193 18 8.28145V7.63709C18 7.11663 18.0001 6.66593 17.9477 6.30461C17.8911 5.91332 17.7633 5.54628 17.4485 5.2539C16.9808 4.81839 16.3288 4.77428 15.615 4.76257L12.5727 4.76259C13.4279 5.30115 14.2999 6.23363 14.2999 7.56477L14.3 7.6111L14.3003 7.67696C14.3033 8.19401 14.3104 9.4277 13.2511 10.307C12.7392 10.7319 12.1081 10.965 11.448 11.1012C10.7816 11.2387 9.97267 11.3 9 11.3C8.02733 11.3 7.21842 11.2387 6.55205 11.1012C5.89186 10.965 5.26078 10.7319 4.74889 10.307C3.68955 9.4277 3.69674 8.19401 3.69975 7.67696L3.70003 7.61109L3.70006 7.56477C3.70006 6.23366 4.57206 5.30119 5.42729 4.76263Z"
        fill="#574FC1" />
    <path
        d="M6.24178 5.78948C6.58397 5.59329 6.98292 5.43494 7.42062 5.32257C7.9074 5.19761 8.44211 5.12953 9 5.12953C9.55789 5.12953 10.0926 5.19761 10.5794 5.32257C11.0171 5.43494 11.416 5.59329 11.7582 5.78948C12.4721 6.19879 12.9999 6.81444 12.9999 7.56477L13 7.61232C13.0005 8.15361 13.0011 8.82503 12.4208 9.30672C12.1334 9.5453 11.7304 9.71552 11.1853 9.828C10.6389 9.94073 9.92705 10 9 10C8.07295 10 7.36109 9.94073 6.81474 9.828C6.2696 9.71552 5.86663 9.5453 5.5792 9.30672C4.99888 8.82503 4.99952 8.15361 5.00003 7.61232L5.00006 7.56477C5.00006 6.81444 5.52789 6.19879 6.24178 5.78948Z"
        fill="#574FC1" />
    <path
        fill-rule="evenodd"
        clip-rule="evenodd"
        d="M6.8301 2.20207C6.8301 0.994908 7.79264 0 9 0C10.2074 0 11.1699 0.994908 11.1699 2.20207C11.1699 3.40924 10.2074 4.40415 9 4.40415C7.79264 4.40415 6.8301 3.40924 6.8301 2.20207ZM6.24178 5.78948C6.96453 5.3751 7.94046 5.12953 9 5.12953C10.0595 5.12953 11.0355 5.3751 11.7582 5.78948C12.4721 6.19879 12.9999 6.81444 12.9999 7.56477C12.9999 7.5805 13 7.59635 13 7.61232C13.0005 8.15361 13.0011 8.82503 12.4208 9.30672C12.1334 9.5453 11.7304 9.71552 11.1853 9.828C10.6389 9.94073 9.92705 10 9 10C8.07295 10 7.36109 9.94073 6.81474 9.828C6.2696 9.71552 5.86663 9.5453 5.5792 9.30672C4.99888 8.82503 4.99952 8.15361 5.00003 7.61232C5.00005 7.59635 5.00006 7.5805 5.00006 7.56477C5.00006 6.81444 5.52789 6.19879 6.24178 5.78948Z"
        fill="#574FC1" />
</svg>
