<svg
    width="20"
    height="16"
    viewBox="0 0 20 16"
    fill="none"
    xmlns="http://www.w3.org/2000/svg">
    <path
        fill-rule="evenodd"
        clip-rule="evenodd"
        d="M12 0H8C4.229 0 2.344 0.000999928 1.172 1.172C-1.19209e-07 2.343 0 4.229 0 8C0 11.771 0.000999928 13.656 1.172 14.828C2.343 16 4.229 16 8 16H12C15.771 16 17.656 15.999 18.828 14.828C20 13.657 20 11.771 20 8C20 4.229 19.999 2.344 18.828 1.172C17.657 0 15.771 0 12 0ZM2.73687 4.43682C2.89825 4.27545 3.11251 4.18915 3.44184 4.14487C3.77405 4.10021 4.20806 4.1 4.80005 4.1C5.39204 4.1 5.82605 4.10021 6.15825 4.14487C6.48759 4.18915 6.70185 4.27545 6.86323 4.43682C7.0246 4.5982 7.1109 4.81246 7.15518 5.1418C7.19984 5.474 7.20005 5.90801 7.20005 6.5C7.20005 7.09199 7.19984 7.526 7.15518 7.8582C7.1109 8.18754 7.0246 8.4018 6.86323 8.56318C6.70185 8.72456 6.48759 8.81085 6.15825 8.85513C5.82605 8.89979 5.39204 8.9 4.80005 8.9C4.20806 8.9 3.77405 8.89979 3.44184 8.85513C3.11251 8.81085 2.89825 8.72456 2.73687 8.56318C2.5755 8.4018 2.4892 8.18754 2.44492 7.8582C2.40026 7.526 2.40005 7.09199 2.40005 6.5C2.40005 5.90801 2.40026 5.474 2.44492 5.1418C2.4892 4.81246 2.5755 4.5982 2.73687 4.43682ZM3.05005 10.35C2.87766 10.35 2.71233 10.4185 2.59043 10.5404C2.46853 10.6623 2.40005 10.8276 2.40005 11C2.40005 11.1724 2.46853 11.3377 2.59043 11.4596C2.71233 11.5815 2.87766 11.65 3.05005 11.65H17C17.1724 11.65 17.3377 11.5815 17.4596 11.4596C17.5815 11.3377 17.65 11.1724 17.65 11C17.65 10.8276 17.5815 10.6623 17.4596 10.5404C17.3377 10.4185 17.1724 10.35 17 10.35H3.05005ZM9.29038 7.54038C9.41228 7.41848 9.57761 7.35 9.75 7.35H17C17.1724 7.35 17.3377 7.41848 17.4596 7.54038C17.5815 7.66228 17.65 7.82761 17.65 8C17.65 8.17239 17.5815 8.33772 17.4596 8.45962C17.3377 8.58152 17.1724 8.65 17 8.65H9.75C9.57761 8.65 9.41228 8.58152 9.29038 8.45962C9.16848 8.33772 9.1 8.17239 9.1 8C9.1 7.82761 9.16848 7.66228 9.29038 7.54038ZM9.75 4.35C9.57761 4.35 9.41228 4.41848 9.29038 4.54038C9.16848 4.66228 9.1 4.82761 9.1 5C9.1 5.17239 9.16848 5.33772 9.29038 5.45962C9.41228 5.58152 9.57761 5.65 9.75 5.65H17C17.1724 5.65 17.3377 5.58152 17.4596 5.45962C17.5815 5.33772 17.65 5.17239 17.65 5C17.65 4.82761 17.5815 4.66228 17.4596 4.54038C17.3377 4.41848 17.1724 4.35 17 4.35H9.75Z"
        fill="#574FC1" />
</svg>
