<svg
    width="18"
    height="18"
    viewBox="0 0 18 18"
    fill="none"
    xmlns="http://www.w3.org/2000/svg">
    <path
        fill-rule="evenodd"
        clip-rule="evenodd"
        d="M1.3176 16.6815C2.6361 18 4.7574 18 9 18C13.2426 18 15.3648 18 16.6815 16.6815C18 15.3639 18 13.2426 18 9C18 4.7574 18 2.637 16.6815 1.3176C15.3639 0 13.2426 0 9 0C4.7574 0 2.637 0 1.3176 1.3176C0 2.6361 0 4.7574 0 9C0 13.2426 0 15.3648 1.3176 16.6815ZM11.1863 4.89708C11.8544 4.22616 12.7816 4.25102 13.2648 4.73552C13.7491 5.22113 13.7731 6.15743 13.1036 6.82992L11.8168 8.12156C11.5478 8.39161 11.5486 8.82862 11.8187 9.09765C12.0887 9.36667 12.5257 9.36585 12.7948 9.0958L14.0818 7.80393C15.1885 6.69249 15.358 4.87959 14.2422 3.76076C13.1254 2.64082 11.3164 2.81017 10.2082 3.92307L7.63454 6.50647C6.5273 7.61782 6.35919 9.42992 7.47362 10.5489C7.74261 10.819 8.17962 10.8199 8.4497 10.5509C8.71979 10.2819 8.72068 9.84487 8.45169 9.57478C7.96711 9.08823 7.94342 8.15222 8.61248 7.4807L11.1863 4.89708ZM9.5503 7.44908C9.82038 7.18009 10.2574 7.18097 10.5264 7.45106C11.6408 8.57003 11.4727 10.3821 10.3655 11.4935L7.79173 14.077C6.68345 15.1899 4.87464 15.3591 3.75776 14.2392C2.64199 13.1204 2.81154 11.3075 3.91825 10.196L5.20522 8.90415C5.47425 8.6341 5.91126 8.63327 6.18131 8.9023C6.45136 9.17133 6.45218 9.60834 6.18316 9.87839L4.89641 11.17C4.2269 11.8425 4.25089 12.7788 4.73518 13.2644C5.21835 13.7489 6.14562 13.7738 6.81368 13.1029L9.38752 10.5192C9.81383 10.0914 9.95889 9.55612 9.88268 9.09817L9.86405 9.00578C9.81088 8.78189 9.70311 8.5806 9.54831 8.42516C9.46119 8.33769 9.40238 8.23271 9.37186 8.12159C9.30813 7.88963 9.36768 7.63095 9.5503 7.44908Z"
        fill="#574FC1" />
</svg>
