<svg
    width="20"
    height="20"
    viewBox="0 0 20 20"
    fill="none"
    xmlns="http://www.w3.org/2000/svg">
    <path
        fill-rule="evenodd"
        clip-rule="evenodd"
        d="M20.0003 19.2771C20.0003 19.4687 19.9242 19.6525 19.7888 19.7881C19.6532 19.9235 19.4694 19.9996 19.2778 19.9996C19.0861 19.9996 18.9024 19.9235 18.7668 19.7881L15.1008 16.1221C13.301 17.6578 10.9766 18.4373 8.61476 18.2972C6.25293 18.1571 4.037 17.1083 2.43138 15.3705C0.825749 13.6327 -0.044938 11.3409 0.00178791 8.97543C0.0485137 6.60991 1.00903 4.35429 2.68203 2.68129C4.35502 1.00829 6.61064 0.0477812 8.97616 0.00105549C11.3417 -0.0456704 13.6335 0.825017 15.3712 2.43064C17.109 4.03627 18.1578 6.2522 18.2979 8.61403C18.438 10.9759 17.6585 13.3002 16.1228 15.1001L19.7888 18.7661C19.9242 18.9016 20.0003 19.0854 20.0003 19.2771ZM12.5547 5.44632C12.1521 5.04258 11.3794 5.02186 10.8227 5.58096L8.6778 7.73398C8.12025 8.29358 8.13999 9.07359 8.54381 9.47905C8.76796 9.70412 8.76722 10.0683 8.54215 10.2925C8.31708 10.5166 7.95291 10.5159 7.72875 10.2908C6.80006 9.35833 6.94015 7.84824 7.86285 6.92212L10.0075 4.76929C10.9311 3.84187 12.4385 3.70075 13.3693 4.63403C14.2991 5.56639 14.1578 7.07714 13.2355 8.00333L12.163 9.07989C11.9389 9.30493 11.5747 9.30562 11.3496 9.08143C11.1246 8.85724 11.1239 8.49307 11.3481 8.26803L12.4204 7.19166C12.9783 6.63126 12.9583 5.85101 12.5547 5.44632ZM9.45931 7.70763C9.68438 7.48347 10.0486 7.48421 10.2727 7.70928C11.2014 8.64175 11.0613 10.1518 10.1386 11.078L7.99384 13.2309C7.07028 14.1583 5.56293 14.2993 4.6322 13.366C3.70239 12.4337 3.84368 10.9229 4.76594 9.99675L5.83842 8.92019C6.06261 8.69515 6.42678 8.69446 6.65182 8.91864C6.87686 9.14284 6.87755 9.50701 6.65336 9.73205L5.58107 10.8084C5.02315 11.3688 5.04314 12.1491 5.44672 12.5538C5.84936 12.9575 6.62208 12.9782 7.1788 12.4191L9.32367 10.2661C9.67892 9.90954 9.7998 9.46349 9.73629 9.08187C9.73197 9.05589 9.72679 9.03021 9.72078 9.00488C9.67647 8.8183 9.58666 8.65056 9.45766 8.52103C9.38506 8.44814 9.33605 8.36065 9.31061 8.26806C9.25751 8.07475 9.30714 7.85919 9.45931 7.70763Z"
        fill="#574FC1" />
</svg>
