<svg
    width="18"
    height="18"
    viewBox="0 0 18 18"
    fill="none"
    xmlns="http://www.w3.org/2000/svg">
    <path
        d="M16.7273 16.8511H14.0227C13.8178 16.8511 13.6212 16.7704 13.4763 16.6267C13.3314 16.4831 13.25 16.2882 13.25 16.0851C13.25 15.882 13.3314 15.6871 13.4763 15.5435C13.6212 15.3998 13.8178 15.3191 14.0227 15.3191H16.7273C16.9322 15.3191 17.1288 15.3998 17.2737 15.5435C17.4186 15.6871 17.5 15.882 17.5 16.0851C17.5 16.2882 17.4186 16.4831 17.2737 16.6267C17.1288 16.7704 16.9322 16.8511 16.7273 16.8511Z"
        fill="#574FC1" />
    <path
        d="M1.27273 16.8511H10.5455V17.234C10.5454 17.3346 10.5654 17.4343 10.6042 17.5272C10.643 17.6201 10.7 17.7046 10.7717 17.7757C10.8435 17.8468 10.9287 17.9033 11.0224 17.9417C11.1162 17.9802 11.2167 18 11.3182 18C11.4197 18 11.5202 17.9802 11.6139 17.9417C11.7077 17.9033 11.7929 17.8468 11.8646 17.7757C11.9364 17.7046 11.9933 17.6201 12.0321 17.5272C12.071 17.4343 12.0909 17.3346 12.0909 17.234V14.9362C12.0909 14.733 12.0095 14.5382 11.8646 14.3946C11.7197 14.2509 11.5231 14.1702 11.3182 14.1702C11.1132 14.1702 10.9167 14.2509 10.7718 14.3946C10.6269 14.5382 10.5455 14.733 10.5455 14.9362V15.3191H1.27273C1.06779 15.3191 0.871241 15.3998 0.726327 15.5435C0.581412 15.6871 0.5 15.882 0.5 16.0851C0.5 16.2882 0.581412 16.4831 0.726327 16.6267C0.871241 16.7704 1.06779 16.8511 1.27273 16.8511Z"
        fill="#574FC1" />
    <path
        fill-rule="evenodd"
        clip-rule="evenodd"
        d="M10.5455 0C13.8238 0 15.4631 -0.00013721 16.4813 1.00906C17.5001 2.01966 17.5 2.87801 17.5 6.12766C17.5 9.37731 17.5001 11.0022 16.4813 12.0115C15.4638 13.0214 13.8238 13.0213 10.5455 13.0213C9.98393 13.0213 9.47047 13.0211 9 13.016C8.52951 13.0211 8.01606 13.0213 7.45455 13.0213C4.17617 13.0213 2.53682 13.0214 1.51798 12.0115C0.499862 11.0029 0.5 9.37728 0.5 6.12766C0.5 2.87801 0.499832 2.01897 1.51798 1.00906C2.53751 -0.000166297 4.17617 0 7.45455 0C8.01608 0 8.52953 0.00016436 9 0.00523604C9.47045 0.000164125 9.98391 0 10.5455 0ZM7.80393 3.93301C7.30054 3.63275 6.68182 4.02432 6.68182 4.64362V8.37841C6.68182 8.99704 7.30054 9.38853 7.80393 9.08826L10.9303 7.2205C11.4476 6.91084 11.4476 6.11044 10.9303 5.80078L7.80393 3.93301Z"
        fill="#574FC1" />
</svg>
