<svg
    width="18"
    height="20"
    viewBox="0 0 18 20"
    fill="none"
    xmlns="http://www.w3.org/2000/svg">
    <path
        d="M1 8.32935C1 4.28161 4.58171 1 9 1C13.4183 1 17 4.28161 17 8.32935C17 12.3456 14.4469 17.0312 10.4629 18.7074C10.0001 18.9005 9.50261 19 9 19C8.49739 19 7.99991 18.9005 7.53714 18.7074C3.55314 17.0312 1 12.3445 1 8.32935Z"
        stroke="#8D96AD"
        stroke-width="1.3" />
    <path
        d="M11.2857 8.87497C11.2857 9.4717 11.0449 10.044 10.6162 10.466C10.1876 10.8879 9.60621 11.125 9 11.125C8.39379 11.125 7.81241 10.8879 7.38376 10.466C6.9551 10.044 6.71429 9.4717 6.71429 8.87497C6.71429 8.27823 6.9551 7.70594 7.38376 7.28398C7.81241 6.86203 8.39379 6.62498 9 6.62498C9.60621 6.62498 10.1876 6.86203 10.6162 7.28398C11.0449 7.70594 11.2857 8.27823 11.2857 8.87497Z"
        stroke="#8D96AD"
        stroke-width="1.3" />
</svg>
