<svg
    width="16"
    height="18"
    viewBox="0 0 16 18"
    fill="none"
    xmlns="http://www.w3.org/2000/svg">
    <path
        fill-rule="evenodd"
        clip-rule="evenodd"
        d="M0 7.44188C0 3.28312 3.63233 0 8 0C12.3677 0 16 3.28312 16 7.44188C16 11.3882 13.5308 16.006 9.58607 17.6797L9.58441 17.6804C9.08291 17.8914 8.54412 18 8 18C7.45588 18 6.91709 17.8914 6.41559 17.6804L6.41393 17.6797C2.46914 16.006 0 11.3871 0 7.44188ZM6.08349 6.0349C6.59337 5.52876 7.28294 5.24609 8 5.24609C8.71706 5.24609 9.40663 5.52876 9.91651 6.0349C10.4267 6.54136 10.7151 7.23032 10.7151 7.95075C10.7151 8.67118 10.4267 9.36013 9.91651 9.86659C9.40663 10.3727 8.71706 10.6554 8 10.6554C7.28294 10.6554 6.59337 10.3727 6.08349 9.86659C5.57328 9.36013 5.28489 8.67118 5.28489 7.95075C5.28489 7.23032 5.57328 6.54136 6.08349 6.0349Z"
        fill="#574FC1" />
</svg>
