<svg
    width="18"
    height="21"
    viewBox="0 0 18 21"
    fill="none"
    xmlns="http://www.w3.org/2000/svg">
    <path
        fill-rule="evenodd"
        clip-rule="evenodd"
        d="M0.168027 1.10377C0.679159 0 2.43416 0 5.94331 0C9.45246 0 11.2075 0 11.7186 1.10377C11.7571 1.18568 11.79 1.27059 11.8173 1.35852C11.8213 1.37146 11.8252 1.38447 11.829 1.39755C11.9581 1.83431 11.8686 2.29689 11.5782 2.84531C11.0861 3.7751 10.0167 4.95165 8.45724 6.66752L8.45482 6.67019L6.79237 8.49057L8.45482 10.3101L8.65883 10.5347C7.80926 11.2887 7.16151 12.2651 6.80688 13.3726C6.67617 13.7809 6.58528 14.2069 6.53878 14.6462C6.51506 14.8704 6.5029 15.098 6.5029 15.3284C6.5029 15.8997 6.57807 16.4535 6.71843 16.9806C6.47018 16.9811 6.21188 16.9811 5.94331 16.9811C2.43416 16.9811 0.679159 16.9811 0.168027 15.8774C0.13564 15.8074 0.107101 15.7357 0.0825284 15.6626C0.0737244 15.6364 0.0654297 15.6101 0.0576499 15.5836C-0.29035 14.4063 0.950049 13.0415 3.42938 10.3136L3.4318 10.3109L5.09425 8.49057L3.4318 6.67104L3.43019 6.66926C2.5203 5.66751 1.77744 4.84966 1.21867 4.15752C0.254531 2.96327 -0.161613 2.14325 0.0576499 1.3984C0.0615148 1.38502 0.0655065 1.37171 0.069625 1.35848C0.0968729 1.27091 0.129674 1.18638 0.168027 1.10377ZM3.79492 2.52142C3.6755 2.64084 3.6084 2.80281 3.6084 2.9717C3.6084 3.14059 3.6755 3.30256 3.79492 3.42198C3.91434 3.5414 4.07631 3.60849 4.2452 3.60849H7.64142C7.81031 3.60849 7.97228 3.5414 8.0917 3.42198C8.21113 3.30256 8.27822 3.14059 8.27822 2.9717C8.27822 2.80281 8.21113 2.64084 8.0917 2.52142C7.97228 2.402 7.81031 2.33491 7.64142 2.33491H4.2452C4.07631 2.33491 3.91434 2.402 3.79492 2.52142Z"
        fill="#574FC1" />
    <path
        fill-rule="evenodd"
        clip-rule="evenodd"
        d="M7.81132 15.283C7.81132 12.4695 10.0921 10.1887 12.9057 10.1887C15.7192 10.1887 18 12.4695 18 15.283C18 18.0965 15.7192 20.3774 12.9057 20.3774C10.0921 20.3774 7.81132 18.0965 7.81132 15.283ZM12.3601 12.5345C11.6165 12.7318 10.9952 13.3237 10.9952 14.1459C10.9952 15.1639 11.9478 15.8288 12.9056 15.8288C13.4551 15.8288 13.7244 16.1827 13.7244 16.4201C13.7244 16.6575 13.4551 17.0114 12.9056 17.0114C12.3561 17.0114 12.0869 16.6575 12.0869 16.4201C12.0869 16.1187 11.8425 15.8743 11.5411 15.8743C11.2396 15.8743 10.9952 16.1187 10.9952 16.4201C10.9952 17.2423 11.6165 17.8342 12.3601 18.0315C12.3703 18.324 12.6107 18.5579 12.9056 18.5579C13.2006 18.5579 13.4409 18.324 13.4511 18.0315C14.1947 17.8342 14.816 17.2423 14.816 16.4201C14.816 15.4021 13.8635 14.7372 12.9056 14.7372C12.3561 14.7372 12.0869 14.3833 12.0869 14.1459C12.0869 13.9085 12.3561 13.5546 12.9056 13.5546C13.4551 13.5546 13.7244 13.9085 13.7244 14.1459C13.7244 14.4473 13.9687 14.6917 14.2702 14.6917C14.5716 14.6917 14.816 14.4473 14.816 14.1459C14.816 13.3237 14.1947 12.7318 13.4511 12.5345C13.4409 12.2421 13.2006 12.0081 12.9056 12.0081C12.6107 12.0081 12.3703 12.2421 12.3601 12.5345Z"
        fill="#574FC1" />
</svg>
