<svg
    width="18"
    height="18"
    viewBox="0 0 18 18"
    fill="none"
    xmlns="http://www.w3.org/2000/svg">
    <path
        d="M7.75027 7.21072C8.14816 7.20981 8.54254 7.28721 8.91054 7.43853C9.27868 7.58998 9.61429 7.8126 9.89648 8.09337L10.0975 8.31565C10.5409 8.85402 10.7875 9.53147 10.7893 10.235C10.7912 11.0391 10.4738 11.8112 9.90663 12.3812C9.33943 12.9511 8.5691 13.2729 7.76503 13.2749C7.06164 13.2766 6.38253 13.0338 5.84201 12.5933L5.61881 12.3923C5.33666 12.1115 5.11171 11.7774 4.95844 11.41C4.80535 11.0428 4.72614 10.6485 4.7251 10.2507C4.72414 9.85251 4.80238 9.45767 4.95383 9.08946C5.10529 8.7213 5.32696 8.38572 5.60775 8.10352C5.88849 7.82144 6.22272 7.59731 6.59001 7.44406C6.95737 7.29088 7.35225 7.21172 7.75027 7.21072Z"
        fill="#574FC1" />
    <path
        fill-rule="evenodd"
        clip-rule="evenodd"
        d="M8.91054 7.43853C8.54254 7.28721 8.14816 7.20981 7.75027 7.21072C7.35225 7.21172 6.95737 7.29088 6.59001 7.44406C6.22272 7.59731 5.88849 7.82144 5.60775 8.10352C5.32696 8.38572 5.10529 8.7213 4.95383 9.08946C4.80238 9.45767 4.72414 9.85251 4.7251 10.2507C4.72614 10.6485 4.80535 11.0428 4.95844 11.41C5.11171 11.7774 5.33666 12.1115 5.61881 12.3923L5.84201 12.5933C6.38253 13.0338 7.06164 13.2766 7.76503 13.2749C8.5691 13.2729 9.33943 12.9511 9.90663 12.3812C10.4738 11.8112 10.7912 11.0391 10.7893 10.235C10.7875 9.53147 10.5409 8.85402 10.0975 8.31565L9.89648 8.09337C9.61429 7.8126 9.27868 7.58998 8.91054 7.43853Z"
        fill="#574FC1" />
    <path
        fill-rule="evenodd"
        clip-rule="evenodd"
        d="M9 0C13.2414 0 15.3642 0 16.6816 1.31738C18 2.63664 18 4.75695 18 8.99864C18 13.2403 18 15.3642 16.6816 16.6816C15.3651 18 13.2431 18 9.00136 18C4.75967 18 2.63574 18 1.31738 16.6816C0 15.3651 0 13.2431 0 9.00173C0 4.76053 0 2.63567 1.31738 1.31738C2.63657 0 4.7588 0 9 0ZM10.7902 4.02968C10.7902 3.64551 11.1015 3.33358 11.4856 3.33333H13.9703L14.1114 3.34809C14.4284 3.41306 14.6667 3.69346 14.6667 4.02968V6.51438C14.6667 6.8987 14.3546 7.21072 13.9703 7.21072C13.5863 7.21032 13.2758 6.89845 13.2758 6.51438V5.70367L11.3325 7.63959C11.8776 8.3883 12.1788 9.29435 12.181 10.2322C12.1838 11.4052 11.7208 12.531 10.8935 13.3625C10.0659 14.1942 8.9411 14.6638 7.7678 14.6667C6.6679 14.6692 5.60934 14.2614 4.79612 13.5285L4.63748 13.3782C4.22573 12.9684 3.89728 12.482 3.67367 11.9459C3.4501 11.4097 3.33475 10.8343 3.33333 10.2534C3.33194 9.67247 3.44527 9.0964 3.66629 8.55914C3.88726 8.02213 4.21222 7.53381 4.6218 7.12218C5.03148 6.71057 5.51817 6.38287 6.05414 6.15929C6.59028 5.9357 7.1657 5.82039 7.74658 5.81896C8.32754 5.81755 8.90359 5.93088 9.44086 6.15191C9.76256 6.28429 10.0668 6.45368 10.3475 6.65641L12.2862 4.7251H11.4856C11.1016 4.72485 10.7903 4.41372 10.7902 4.02968Z"
        fill="#574FC1" />
</svg>
