<svg
    width="20"
    height="22"
    viewBox="0 0 20 22"
    fill="none"
    xmlns="http://www.w3.org/2000/svg">
    <path
        d="M8.71028 20.0476C1 20.0476 1 18.1286 1 15.7619C1 13.3952 4.45228 11.4762 8.71028 11.4762C9.3264 11.4762 9.92564 11.5164 10.5 11.5923M12.5654 4.80952C12.5654 6.91347 10.8394 8.61905 8.71028 8.61905C6.58115 8.61905 4.85514 6.91347 4.85514 4.80952C4.85514 2.70558 6.58115 1 8.71028 1C10.8394 1 12.5654 2.70558 12.5654 4.80952ZM13.5179 13.7208C14.3633 13.2404 14.7858 13 15.25 13C15.7142 13 16.1367 13.24 16.9821 13.7208L17.2679 13.8832C18.1133 14.364 18.5358 14.6044 18.7679 15C19 15.396 19 15.876 19 16.8376V17.1624C19 18.1236 19 18.6044 18.7679 19C18.5358 19.3956 18.1133 19.636 17.2679 20.1164L16.9821 20.2792C16.1367 20.7596 15.7142 21 15.25 21C14.7858 21 14.3633 20.76 13.5179 20.2792L13.2321 20.1164C12.3867 19.6364 11.9642 19.3956 11.7321 19C11.5 18.604 11.5 18.124 11.5 17.1624V16.8376C11.5 15.876 11.5 15.3956 11.7321 15C11.9642 14.6044 12.3867 14.364 13.2321 13.8832L13.5179 13.7208ZM16.5 17C16.5 17.6627 15.9404 18.2 15.25 18.2C14.5596 18.2 14 17.6627 14 17C14 16.3373 14.5596 15.8 15.25 15.8C15.9404 15.8 16.5 16.3373 16.5 17Z"
        stroke="#574FC1"
        stroke-width="1.3"
        stroke-linecap="round" />
</svg>
