<svg
    width="20"
    height="22"
    viewBox="0 0 20 22"
    fill="none"
    xmlns="http://www.w3.org/2000/svg">
    <path
        d="M17.5789 15.75C17.5789 14.7007 16.8476 13.85 15.9456 13.85H10M2.42105 15.75C2.42105 14.7007 3.15236 13.85 4.05445 13.85H10M10 15.75V13.85M10 13.85V11.285M4.56842 4.12098H6.63158M13.3684 8.66402H15.4316M3.84211 19.075C3.84211 19.862 3.20588 20.5 2.42105 20.5C1.63623 20.5 1 19.862 1 19.075C1 18.288 1.63623 17.65 2.42105 17.65C3.20588 17.65 3.84211 18.288 3.84211 19.075ZM11.4211 19.075C11.4211 19.862 10.7848 20.5 10 20.5C9.21517 20.5 8.57895 19.862 8.57895 19.075C8.57895 18.288 9.21517 17.65 10 17.65C10.7848 17.65 11.4211 18.288 11.4211 19.075ZM19 19.075C19 19.862 18.3638 20.5 17.5789 20.5C16.7941 20.5 16.1579 19.862 16.1579 19.075C16.1579 18.288 16.7941 17.65 17.5789 17.65C18.3638 17.65 19 18.288 19 19.075ZM7.43158 11.285C5.42021 11.285 4.41596 11.285 3.69373 10.8139C3.38097 10.6099 3.11244 10.3477 2.90349 10.0423C2.42105 9.33709 2.42105 8.35649 2.42105 6.3925C2.42105 4.42851 2.42105 3.44791 2.90349 2.7427C3.11244 2.4373 3.38097 2.1751 3.69373 1.97108C4.41596 1.5 5.42093 1.5 7.43158 1.5H12.5684C14.5798 1.5 15.584 1.5 16.3063 1.97108C16.619 2.1751 16.8876 2.4373 17.0965 2.7427C17.5789 3.44791 17.5789 4.42851 17.5789 6.3925C17.5789 8.35649 17.5789 9.33709 17.0965 10.0423C16.8876 10.3477 16.619 10.6099 16.3063 10.8139C15.584 11.285 14.5791 11.285 12.5684 11.285H7.43158ZM11.6842 6.32261C11.6842 7.23616 10.9302 7.97674 10 7.97674C9.06984 7.97674 8.31579 7.23616 8.31579 6.32261C8.31579 5.40906 9.06984 4.66848 10 4.66848C10.9302 4.66848 11.6842 5.40906 11.6842 6.32261Z"
        stroke="#574FC1"
        stroke-width="1.3"
        stroke-miterlimit="10"
        stroke-linecap="round"
        stroke-linejoin="round" />
</svg>
