<svg
    width="18"
    height="20"
    viewBox="0 0 18 20"
    fill="none"
    xmlns="http://www.w3.org/2000/svg">
    <path
        d="M4.94327 3.57805C5.09709 3.23752 5.33254 2.93901 5.62931 2.70826C5.92608 2.4775 6.27527 2.32143 6.64679 2.25349C7.0183 2.18555 7.40099 2.20778 7.76185 2.31827C8.12272 2.42876 8.45094 2.62419 8.71822 2.88771L15.306 9.38795C15.565 9.64384 15.7591 9.95641 15.8727 10.3003C15.9862 10.6441 16.0159 11.0096 15.9594 11.3669C15.9029 11.7242 15.7618 12.0633 15.5475 12.3567C15.3332 12.6501 15.0517 12.8894 14.7261 13.0553L11.7386 14.5769C12.2165 15.1956 12.438 15.9705 12.3583 16.7445C12.2787 17.5184 11.9037 18.2336 11.3096 18.7449C10.7154 19.2562 9.94638 19.5255 9.15845 19.4981C8.37053 19.4707 7.62263 19.1488 7.06634 18.5975L5.97131 17.517L4.58632 18.2226C4.14748 18.4461 3.64801 18.5262 3.16 18.4514C2.672 18.3766 2.2207 18.1507 1.87126 17.8064L0.682872 16.6338C0.349398 16.3049 0.124884 15.884 0.0389913 15.4266C-0.0469008 14.9691 0.00987045 14.4968 0.201805 14.0719L4.94327 3.57805ZM7.42 16.779L8.16466 17.5138C8.45596 17.8012 8.85103 17.9627 9.26299 17.9627C9.67494 17.9627 10.07 17.8012 10.3613 17.5138C10.6526 17.2264 10.8163 16.8365 10.8163 16.4301C10.8163 16.0236 10.6526 15.6337 10.3613 15.3463L10.3174 15.303L7.42 16.779Z"
        fill="#574FC1" />
    <path
        d="M15.2693 2.24191L14.304 3.19439C14.0374 3.4574 14.0374 3.88385 14.304 4.14686C14.5705 4.40987 15.0027 4.40987 15.2693 4.14686L16.2346 3.19439C16.5011 2.93138 16.5011 2.50492 16.2346 2.24191C15.968 1.9789 15.5358 1.9789 15.2693 2.24191Z"
        fill="#574FC1" />
    <path
        d="M12.239 2.64904L12.5923 1.34796C12.6899 0.98865 12.4738 0.619344 12.1097 0.523112C11.7455 0.426849 11.3713 0.640076 11.2737 0.99935L10.9204 2.30043C10.8228 2.65974 11.0389 3.02904 11.4031 3.12528C11.7683 3.22186 12.1417 3.00729 12.239 2.64904Z"
        fill="#574FC1" />
    <path
        d="M17.1406 5.83581L15.822 6.18442C15.4578 6.28062 15.2417 6.64999 15.3393 7.00926C15.4369 7.36857 15.8111 7.58179 16.1753 7.4855L17.4939 7.13689C17.8565 7.04107 18.0745 6.67288 17.9765 6.31205C17.879 5.95271 17.5047 5.73952 17.1406 5.83581Z"
        fill="#574FC1" />
</svg>
