<svg
    width="18"
    height="18"
    viewBox="0 0 18 18"
    fill="none"
    xmlns="http://www.w3.org/2000/svg">
    <path
        fill-rule="evenodd"
        clip-rule="evenodd"
        d="M8.19452 4.52822L8.02273 4.5684C6.68995 4.88015 5.64102 5.83346 5.64102 7.09878C5.64102 7.87768 6.03294 8.53111 6.64551 8.99677C7.26062 9.46434 8.09028 9.7345 8.92971 9.7345C10.0557 9.7345 10.748 10.4208 10.748 11.0417C10.748 11.6628 10.0554 12.3476 8.92971 12.3476C7.80398 12.3476 7.11141 11.6628 7.11141 11.0417C7.11141 10.8713 7.03852 10.7041 6.90232 10.578C6.76554 10.4513 6.57656 10.3774 6.37622 10.3774C6.17587 10.3774 5.98689 10.4513 5.85011 10.578C5.71391 10.7041 5.64102 10.8713 5.64102 11.0417C5.64102 12.3071 6.69007 13.2615 8.02255 13.572L8.19452 13.6121V13.8007C8.19452 13.971 8.2674 14.1383 8.4036 14.2644C8.54039 14.3911 8.72937 14.465 8.92971 14.465C9.13005 14.465 9.31904 14.3911 9.45582 14.2644C9.59202 14.1383 9.6649 13.971 9.6649 13.8007V13.6121L9.83687 13.572C11.1693 13.2615 12.2184 12.3071 12.2184 11.0417C12.2184 10.2628 11.8265 9.60933 11.2139 9.14368C10.5988 8.67611 9.76914 8.40595 8.92971 8.40595C7.80367 8.40595 7.11141 7.71966 7.11141 7.09878C7.11141 6.47766 7.80399 5.79281 8.92971 5.79281C10.0554 5.79281 10.748 6.47766 10.748 7.09878C10.748 7.26911 10.8209 7.43633 10.9571 7.56248C11.0939 7.68918 11.2829 7.76306 11.4832 7.76306C11.6835 7.76306 11.8725 7.68918 12.0093 7.56248C12.1455 7.43632 12.2184 7.2691 12.2184 7.09878C12.2184 5.83346 11.1695 4.88015 9.83669 4.5684L9.6649 4.52822V4.33972C9.6649 4.1694 9.59202 4.00218 9.45582 3.87602C9.31903 3.74932 9.13005 3.67544 8.92971 3.67544C8.72937 3.67544 8.54039 3.74932 8.4036 3.87602C8.2674 4.00218 8.19452 4.1694 8.19452 4.33972V4.52822ZM18 9C18 13.971 13.9704 18 9 18C4.02962 18 0 13.971 0 9C0 4.02899 4.02962 0 9 0C13.9704 0 18 4.02899 18 9Z"
        fill="#574FC1" />
</svg>
