<svg
    width="70"
    height="70"
    viewBox="0 0 70 70"
    fill="none"
    xmlns="http://www.w3.org/2000/svg">
    <g opacity="0.5">
        <path
            d="M32.5854 27.7559H16.4878H32.5854Z"
            fill="#E8EAEF" />
        <path
            d="M32.5854 27.7559H16.4878"
            stroke="#574FC1"
            stroke-width="3"
            stroke-linecap="round" />
    </g>
    <path
        opacity="0.5"
        d="M29.3658 5.21973H50.2927C51.7865 5.21973 52.5367 5.21973 53.1645 5.30343C55.2717 5.58133 57.2283 6.54653 58.7313 8.04944C60.2342 9.55235 61.1994 11.509 61.4773 13.6162C61.561 14.244 61.561 14.9942 61.561 16.488"
        stroke="#574FC1"
        stroke-width="3" />
    <path
        d="M2.22537 12.4892L3.69894 12.7695L3.69931 12.7676L2.22537 12.4892ZM12.486 2.22543L12.7648 3.69929L12.7655 3.69914L12.486 2.22543ZM22.0124 2.05474L22.1526 0.561302L22.1489 0.560961L22.0124 2.05474ZM29.0309 4.96517L28.0731 6.11961L28.0754 6.12145L29.0309 4.96517ZM30.8145 6.6683L29.7539 7.72896V7.72896L30.8145 6.6683ZM32.5852 8.43903L33.6459 7.37837V7.37837L32.5852 8.43903ZM38.097 13.2522L38.8273 11.942L38.8253 11.9408L38.097 13.2522ZM40.8272 14.3855L40.4149 15.8277L40.4169 15.8283L40.8272 14.3855ZM27.7561 66.3903V67.8903H27.7561L27.7561 66.3903ZM66.4999 43.8537C66.4999 44.6821 67.1714 45.3537 67.9999 45.3537C68.8283 45.3537 69.4999 44.6821 69.4999 43.8537H66.4999ZM64.2266 18.6513L63.1664 19.7124L64.2266 18.6513ZM39.0243 67.8902C39.8527 67.8902 40.5243 67.2187 40.5243 66.3902C40.5243 65.5618 39.8527 64.8902 39.0243 64.8902L39.0243 67.8902ZM45.4469 14.8781L45.4042 16.3774L45.4234 16.378L45.4425 16.378L45.4469 14.8781ZM3.5 17.9366C3.5 15.0252 3.50665 13.7804 3.69894 12.7695L0.751788 12.2089C0.493345 13.5676 0.5 15.1625 0.5 17.9366H3.5ZM3.69931 12.7676C4.12378 10.52 5.21583 8.45246 6.83297 6.83481L4.71132 4.71382C2.66779 6.758 1.28781 9.37063 0.75142 12.2109L3.69931 12.7676ZM6.83297 6.83481C8.45012 5.21715 10.5173 4.12446 12.7648 3.69929L12.2071 0.751569C9.36706 1.28885 6.75485 2.66965 4.71132 4.71382L6.83297 6.83481ZM12.7655 3.69914C13.7801 3.50667 15.0287 3.50006 17.9366 3.50006V0.500061C15.1652 0.500061 13.5678 0.493448 12.2064 0.75171L12.7655 3.69914ZM17.9366 3.50006C19.2375 3.50006 21.3662 3.50193 21.8758 3.54851L22.1489 0.560961C21.4609 0.498078 19.1211 0.500061 17.9366 0.500061V3.50006ZM21.8721 3.54816C24.1507 3.76216 26.3118 4.65832 28.0731 6.1196L29.9887 3.81075C27.7629 1.96417 25.032 0.831722 22.1526 0.561307L21.8721 3.54816ZM28.0754 6.12145C28.4714 6.44873 28.8517 6.82686 29.7539 7.72896L31.8752 5.60764C31.013 4.74545 30.5176 4.24786 29.9864 3.8089L28.0754 6.12145ZM29.7539 7.72896L31.5246 9.49969L33.6459 7.37837L31.8752 5.60764L29.7539 7.72896ZM31.5246 9.49969C34.0915 12.0666 35.5711 13.5653 37.3688 14.5636L38.8253 11.9408C37.4807 11.1942 36.3332 10.0657 33.6459 7.37837L31.5246 9.49969ZM37.3668 14.5624C38.3309 15.0998 39.3537 15.5243 40.4149 15.8277L41.2395 12.9432C40.3996 12.7032 39.5903 12.3672 38.8273 11.942L37.3668 14.5624ZM66.4999 33.5448V40.6342H69.4999V33.5448H66.4999ZM27.7561 64.8903C21.6433 64.8903 17.2092 64.8871 13.8256 64.432C10.4851 63.9827 8.39416 63.1179 6.83438 61.5568L4.71216 63.6772C6.92242 65.8894 9.75251 66.9112 13.4257 67.4053C17.0558 67.8935 21.7281 67.8903 27.7561 67.8903V64.8903ZM6.83438 61.5568C5.27395 59.9951 4.40911 57.9033 3.95945 54.5633C3.50399 51.1801 3.5 46.7468 3.5 40.6342H0.5C0.5 46.6624 0.49762 51.3338 0.986277 54.9636C1.48074 58.6364 2.50254 61.4657 4.71216 63.6772L6.83438 61.5568ZM3.5 40.6342V17.9366H0.5V40.6342H3.5ZM69.4999 43.8537V40.6342H66.4999V43.8537H69.4999ZM69.4999 40.6342C69.4999 34.6062 69.5031 29.9338 69.0148 26.3038C68.5208 22.6306 67.499 19.8005 65.2868 17.5902L63.1664 19.7124C64.7275 21.2722 65.5923 23.3632 66.0416 26.7037C66.4967 30.0873 66.4999 34.5213 66.4999 40.6342H69.4999ZM0.5 40.6342C0.5 46.6622 0.496812 51.3345 0.985044 54.9646C1.47908 58.6378 2.50091 61.4679 4.71306 63.6781L6.83348 61.5559C5.27236 59.9961 4.40756 57.9052 3.95827 54.5647C3.50319 51.1811 3.5 46.747 3.5 40.6342H0.5ZM4.71306 63.6781C6.92456 65.8878 9.75387 66.9096 13.4267 67.404C17.0565 67.8927 21.7279 67.8903 27.7561 67.8903V64.8903C21.6435 64.8903 17.2102 64.8863 13.827 64.4309C10.487 63.9812 8.39524 63.1164 6.83348 61.5559L4.71306 63.6781ZM27.7561 67.8903L39.0243 67.8902L39.0243 64.8902L27.7561 64.8903L27.7561 67.8903ZM65.2868 17.5902C63.2812 15.5863 60.7652 14.5568 57.5669 14.0134C54.4121 13.4774 50.4496 13.3928 45.4513 13.3781L45.4425 16.378C50.4803 16.3929 54.1948 16.4835 57.0644 16.971C59.8905 17.4512 61.7463 18.2936 63.1664 19.7124L65.2868 17.5902ZM40.4169 15.8283C41.6939 16.1914 43.4625 16.3222 45.4042 16.3774L45.4895 13.3787C43.5392 13.3232 42.1138 13.1919 41.2375 12.9427L40.4169 15.8283Z"
        fill="#574FC1" />
    <path
        opacity="0.5"
        d="M63.1707 64.7806L66.3902 68.0001M64.7804 56.7318C64.7804 62.066 60.4562 66.3903 55.1219 66.3903C49.7877 66.3903 45.4634 62.066 45.4634 56.7318C45.4634 51.3975 49.7877 47.0732 55.1219 47.0732C60.4562 47.0732 64.7804 51.3975 64.7804 56.7318Z"
        stroke="#574FC1"
        stroke-width="3"
        stroke-linecap="round" />
</svg>
