<svg
    width="16"
    height="20"
    viewBox="0 0 16 20"
    fill="none"
    xmlns="http://www.w3.org/2000/svg">
    <path
        d="M9.02643 0H6.97357C5.03772 0 4.07082 0 3.46934 0.598478C2.86785 1.19696 2.86785 2.20121 2.86785 4.12736V4.14575L5.78907 2.56071C6.46733 2.19278 7.22749 2 8 2C8.77251 2 9.53267 2.19278 10.2109 2.56071L13.1322 4.14575V4.12737C13.1322 2.20121 13.1322 1.19696 12.5307 0.598478C11.9292 0 10.9623 0 9.02643 0Z"
        fill="#574FC1" />
    <path
        fill-rule="evenodd"
        clip-rule="evenodd"
        d="M8 3.48976C8.515 3.48976 9.02178 3.61828 9.47395 3.86356L14.3947 6.5322C14.8805 6.79573 15.2859 7.18463 15.5684 7.65801C15.8509 8.13138 16 8.67175 16 9.22229V14.2665C16 14.817 15.8509 15.3574 15.5684 15.8307C15.2859 16.3041 14.8805 16.693 14.3947 16.9565L9.47395 19.6262C9.02178 19.8715 8.515 20 8 20C7.485 20 6.97822 19.8715 6.52605 19.6262L1.60431 16.9565C1.1187 16.6929 0.713442 16.3039 0.431135 15.8306C0.148828 15.3572 -0.000102235 14.8169 5.26536e-08 14.2665V9.22331C-0.000102235 8.67288 0.148828 8.13258 0.431135 7.65921C0.713442 7.18584 1.1187 6.79689 1.60431 6.53323L6.52605 3.86356C6.97822 3.61828 7.485 3.48976 8 3.48976ZM10.7322 10.636C10.7918 10.5691 10.8377 10.4912 10.8672 10.4066C10.8967 10.3221 10.9093 10.2325 10.9042 10.1431C10.8991 10.0537 10.8764 9.96617 10.8374 9.88552C10.7985 9.80486 10.7441 9.73266 10.6772 9.67305C10.6104 9.61343 10.5325 9.56756 10.4479 9.53806C10.3633 9.50856 10.2738 9.496 10.1844 9.50111C10.095 9.50622 10.0074 9.52888 9.92678 9.56782C9.84612 9.60675 9.77392 9.66119 9.71431 9.72803L6.97775 12.7945L6.18705 11.9093C6.0662 11.7757 5.89743 11.6955 5.71758 11.686C5.53773 11.6765 5.36144 11.7385 5.22721 11.8586C5.09297 11.9787 5.01171 12.147 5.00117 12.3268C4.99063 12.5065 5.05167 12.6832 5.17095 12.8181L6.46879 14.2723C6.53273 14.3439 6.61109 14.4012 6.69872 14.4405C6.78635 14.4797 6.88128 14.5 6.9773 14.5C7.07331 14.5 7.16824 14.4797 7.25587 14.4405C7.34351 14.4012 7.42186 14.3439 7.4858 14.2723L10.7322 10.636Z"
        fill="#574FC1" />
</svg>
