<svg
    width="18"
    height="18"
    viewBox="0 0 18 18"
    fill="none"
    xmlns="http://www.w3.org/2000/svg">
    <path
        d="M9.00005 10.7194C8.63589 10.7194 8.28664 10.8632 8.02914 11.1192C7.77164 11.3752 7.62698 11.7225 7.62698 12.0845C7.62698 12.4466 7.77164 12.7938 8.02914 13.0498C8.28664 13.3058 8.63589 13.4496 9.00005 13.4496C9.36422 13.4496 9.71346 13.3058 9.97097 13.0498C10.2285 12.7938 10.3731 12.4466 10.3731 12.0845C10.3731 11.7225 10.2285 11.3752 9.97097 11.1192C9.71346 10.8632 9.36422 10.7194 9.00005 10.7194Z"
        fill="#574FC1" />
    <path
        fill-rule="evenodd"
        clip-rule="evenodd"
        d="M1.5113 17.4304C2.36895 18 3.5615 18 5.95 18H12.05C14.4376 18 15.631 18 16.4887 17.4304C16.8601 17.1837 17.179 16.8667 17.4271 16.4975C18 15.6448 18 14.4592 18 12.0845C18 9.70986 18 8.52423 17.4271 7.67155C17.179 7.3023 16.8601 6.98528 16.4887 6.73859C15.631 6.16901 14.4385 6.16901 12.05 6.16901H5.95C3.56235 6.16901 2.36895 6.16901 1.5113 6.73859C1.1399 6.98528 0.821024 7.3023 0.5729 7.67155C0 8.52423 0 9.70986 0 12.0845C0 14.4592 0 15.6448 0.5729 16.4975C0.821024 16.8667 1.1399 17.1837 1.5113 17.4304ZM7.19693 10.2918C7.67515 9.8164 8.32375 9.5493 9.00005 9.5493C9.67636 9.5493 10.325 9.8164 10.8032 10.2918C11.2814 10.7673 11.5501 11.4121 11.5501 12.0845C11.5501 12.7569 11.2814 13.4017 10.8032 13.8772C10.325 14.3526 9.67636 14.6197 9.00005 14.6197C8.32375 14.6197 7.67515 14.3526 7.19693 13.8772C6.71871 13.4017 6.45005 12.7569 6.45005 12.0845C6.45005 11.4121 6.71871 10.7673 7.19693 10.2918ZM3.1875 8.70423C2.83542 8.70423 2.55 8.98799 2.55 9.33803C2.55 9.68807 2.83542 9.97183 3.1875 9.97183H4.8875C5.23958 9.97183 5.525 9.68807 5.525 9.33803C5.525 8.98799 5.23958 8.70423 4.8875 8.70423H3.1875ZM13.1125 14.1972C12.7604 14.1972 12.475 14.4809 12.475 14.831C12.475 15.181 12.7604 15.4648 13.1125 15.4648H14.8125C15.1646 15.4648 15.45 15.181 15.45 14.831C15.45 14.4809 15.1646 14.1972 14.8125 14.1972H13.1125Z"
        fill="#574FC1" />
    <path
        fill-rule="evenodd"
        clip-rule="evenodd"
        d="M8.32644 0.179596C8.56819 0.419063 8.5682 0.807325 8.32645 1.0468L8.11352 1.25774H10.1111C10.6121 1.25774 11.0925 1.45488 11.4468 1.80579C11.801 2.15669 12 2.63262 12 3.12887C12 3.62511 11.801 4.10104 11.4468 4.45195C11.0925 4.80286 10.6121 5 10.1111 5H9.7934C9.45151 5 9.17435 4.72546 9.17435 4.38679C9.17435 4.04813 9.45151 3.77358 9.7934 3.77358H10.1111C10.2837 3.77358 10.4492 3.70567 10.5713 3.58476C10.6933 3.46385 10.7619 3.29987 10.7619 3.12887C10.7619 2.95787 10.6933 2.79388 10.5713 2.67298C10.4492 2.55207 10.2837 2.48415 10.1111 2.48415H8.1132L8.32652 2.69553C8.56823 2.93504 8.56816 3.3233 8.32637 3.56273C8.08457 3.80217 7.69262 3.8021 7.4509 3.56259L6.18124 2.30447C5.93956 2.06499 5.93959 1.67679 6.18131 1.43735L7.45097 0.179613C7.69272 -0.0598642 8.08468 -0.059872 8.32644 0.179596Z"
        fill="#574FC1" />
</svg>
