<svg
    width="18"
    height="18"
    viewBox="0 0 18 18"
    fill="none"
    xmlns="http://www.w3.org/2000/svg">
    <path
        d="M8.97495 4.55038C8.60977 4.55038 8.25955 4.6942 8.00133 4.95021C7.74311 5.20622 7.59805 5.55344 7.59805 5.91549C7.59805 6.27754 7.74311 6.62477 8.00133 6.88077C8.25955 7.13678 8.60977 7.28061 8.97495 7.28061C9.34013 7.28061 9.69035 7.13678 9.94857 6.88077C10.2068 6.62477 10.3519 6.27754 10.3519 5.91549C10.3519 5.55344 10.2068 5.20622 9.94857 4.95021C9.69035 4.6942 9.34013 4.55038 8.97495 4.55038Z"
        fill="#574FC1" />
    <path
        fill-rule="evenodd"
        clip-rule="evenodd"
        d="M1.51551 11.2614C2.37556 11.831 3.57143 11.831 5.96659 11.831H12.0334C14.4277 11.831 15.6244 11.831 16.4845 11.2614C16.8569 11.0147 17.1767 10.6977 17.4255 10.3285C18 9.47577 18 8.29014 18 5.91549C18 3.54085 18 2.35521 17.4255 1.50254C17.1767 1.13329 16.8569 0.816263 16.4845 0.569577C15.6244 0 14.4286 0 12.0334 0H5.96659C3.57228 0 2.37556 0 1.51551 0.569577C1.14308 0.816263 0.823313 1.13329 0.574497 1.50254C0 2.35521 0 3.54085 0 5.91549C0 8.29014 0 9.47577 0.574497 10.3285C0.823313 10.6977 1.14308 11.0147 1.51551 11.2614ZM7.1668 4.12283C7.64636 3.64738 8.29676 3.38028 8.97495 3.38028C9.65314 3.38028 10.3036 3.64738 10.7831 4.12283C11.2627 4.59827 11.5321 5.24311 11.5321 5.91549C11.5321 6.58787 11.2627 7.23271 10.7831 7.70816C10.3036 8.1836 9.65314 8.4507 8.97495 8.4507C8.29676 8.4507 7.64636 8.1836 7.1668 7.70816C6.68725 7.23271 6.41784 6.58787 6.41784 5.91549C6.41784 5.24311 6.68725 4.59827 7.1668 4.12283ZM3.19639 2.53521C2.84332 2.53521 2.55711 2.81897 2.55711 3.16901C2.55711 3.51905 2.84332 3.80282 3.19639 3.80282H4.90113C5.25419 3.80282 5.5404 3.51905 5.5404 3.16901C5.5404 2.81897 5.25419 2.53521 4.90113 2.53521H3.19639ZM13.0989 8.02817C12.7458 8.02817 12.4596 8.31193 12.4596 8.66197C12.4596 9.01201 12.7458 9.29578 13.0989 9.29578H14.8036C15.1567 9.29578 15.4429 9.01201 15.4429 8.66197C15.4429 8.31193 15.1567 8.02817 14.8036 8.02817H13.0989Z"
        fill="#574FC1" />
    <path
        d="M9.4462 17.7945C9.32512 17.9254 9.15412 18 8.97493 18C8.79574 18 8.62479 17.9254 8.50372 17.7945L6.58589 15.7202C6.34731 15.4622 6.36489 15.0613 6.62514 14.8247C6.88539 14.5882 7.28979 14.6056 7.52837 14.8637L8.33565 15.7368V13.5634C8.33565 13.2133 8.62186 12.9296 8.97493 12.9296C9.328 12.9296 9.6142 13.2133 9.6142 13.5634V15.7368L10.4215 14.8637C10.6601 14.6056 11.0645 14.5882 11.3247 14.8247C11.585 15.0613 11.6026 15.4622 11.364 15.7202L9.4462 17.7945Z"
        fill="#574FC1" />
</svg>
