<svg
    width="20"
    height="20"
    viewBox="0 0 20 20"
    fill="none"
    xmlns="http://www.w3.org/2000/svg">
    <path
        d="M10 20C15.523 20 20 17.986 20 15.5C20 14.234 18.837 13.09 16.965 12.271C15.823 14.367 14.082 16.174 11.87 17.119C11.2786 17.3704 10.6426 17.5 10 17.5C9.3574 17.5 8.72139 17.3704 8.13 17.119C5.918 16.174 4.177 14.367 3.035 12.272C1.163 13.089 0 14.234 0 15.5C0 17.986 4.477 20 10 20Z"
        fill="#574FC1" />
    <path
        fill-rule="evenodd"
        clip-rule="evenodd"
        d="M10 0C6.134 0 3 2.917 3 6.515C3 10.084 5.234 14.25 8.72 15.74C9.12492 15.9116 9.56021 16.0001 10 16.0001C10.4398 16.0001 10.8751 15.9116 11.28 15.74C14.766 14.25 17 10.085 17 6.515C17 2.917 13.866 0 10 0ZM8.94097 3.78072C8.94097 3.53364 8.73066 3.33333 8.47123 3.33333C8.21181 3.33333 8.0015 3.53364 8.0015 3.78072V4.2311H6.02529C5.76586 4.2311 5.55556 4.43141 5.55556 4.67849C5.55556 4.92558 5.76586 5.12588 6.02529 5.12588H9.19193C9.10683 5.70752 8.85725 6.25472 8.47142 6.70451C8.22555 6.41786 8.03207 6.08829 7.90264 5.72997C7.81824 5.49633 7.55096 5.37208 7.30565 5.45247C7.06033 5.53285 6.92988 5.78742 7.01428 6.02106C7.18544 6.49491 7.44487 6.93117 7.77716 7.30892C7.25947 7.64185 6.65114 7.82218 6.02529 7.82218C5.76586 7.82218 5.55556 8.02248 5.55556 8.26957C5.55556 8.51665 5.76586 8.71696 6.02529 8.71696C6.91173 8.71696 7.76722 8.4396 8.47142 7.93612C8.48851 7.94834 8.5057 7.96043 8.52299 7.9724C9.02455 8.31957 9.59698 8.55188 10.1977 8.65541L9.88752 9.26259C9.88448 9.26823 9.88157 9.27394 9.87878 9.27972L9.27181 10.4679C9.15831 10.6901 9.25541 10.9578 9.48869 11.0659C9.72197 11.174 10.0031 11.0815 10.1166 10.8594L10.5995 9.91398H13.0693L13.5522 10.8594C13.6657 11.0815 13.9468 11.174 14.1801 11.0659C14.4134 10.9578 14.5105 10.6901 14.397 10.4679L13.79 9.2797C13.7872 9.27394 13.7843 9.26824 13.7813 9.26261L12.2568 6.2783C12.1782 6.12435 12.0142 6.02664 11.8344 6.02664C11.6547 6.02664 11.4907 6.12435 11.412 6.2783L10.6298 7.80944C10.109 7.76322 9.60587 7.592 9.1657 7.30891C9.70871 6.69168 10.0466 5.93021 10.1385 5.12588H10.9172C11.1766 5.12588 11.3869 4.92558 11.3869 4.67849C11.3869 4.43141 11.1766 4.2311 10.9172 4.2311H8.94097V3.78072ZM11.3353 8.47357L11.0566 9.01921H12.6122L11.8344 7.49662L11.3441 8.45645C11.3427 8.45925 11.3414 8.46203 11.3399 8.4648C11.3384 8.46774 11.3369 8.47066 11.3353 8.47357Z"
        fill="#574FC1" />
</svg>
