<svg
    width="18"
    height="18"
    viewBox="0 0 18 18"
    fill="none"
    xmlns="http://www.w3.org/2000/svg">
    <path
        d="M4.1 0.744324C4.1 0.546917 4.1745 0.357595 4.30712 0.218008C4.43973 0.0784198 4.6196 0 4.80714 0H13.2929C13.4804 0 13.6603 0.0784198 13.7929 0.218008C13.9255 0.357595 14 0.546917 14 0.744324C14 0.941731 13.9255 1.13105 13.7929 1.27064C13.6603 1.41023 13.4804 1.48865 13.2929 1.48865H4.80714C4.6196 1.48865 4.43973 1.41023 4.30712 1.27064C4.1745 1.13105 4.1 0.941731 4.1 0.744324Z"
        fill="#574FC1" />
    <path
        fill-rule="evenodd"
        clip-rule="evenodd"
        d="M5.4 2.91892C4.65442 2.91892 4.05 3.507 4.05 4.23243V8.36757H1.29198C0.0981469 8.36757 -0.454578 9.91071 0.447872 10.7242L8.15589 17.6724C8.64041 18.1092 9.35959 18.1092 9.84411 17.6724L17.5521 10.7242C18.4546 9.91071 17.9019 8.36757 16.708 8.36757H13.95V4.23243C13.95 3.507 13.3456 2.91892 12.6 2.91892H5.4Z"
        fill="#574FC1" />
</svg>
