<svg
    width="18"
    height="20"
    viewBox="0 0 18 20"
    fill="none"
    xmlns="http://www.w3.org/2000/svg">
    <path
        fill-rule="evenodd"
        clip-rule="evenodd"
        d="M9 4.44445C9 6.89927 6.98519 8.88889 4.5 8.88889C2.01481 8.88889 0 6.89927 0 4.44445C0 1.98962 2.01481 0 4.5 0C6.98519 0 9 1.98962 9 4.44445ZM4.5 2C4.60849 2 4.71259 2.04158 4.78931 2.11561C4.86603 2.18964 4.90906 2.29004 4.90906 2.39474V2.40001C5.50305 2.54474 6 2.99632 6 3.62262C6 3.72732 5.95688 3.82772 5.88016 3.90175C5.80344 3.97578 5.69943 4.01736 5.59094 4.01736C5.48245 4.01736 5.37836 3.97578 5.30164 3.90175C5.27142 3.87263 5.24643 3.83945 5.22729 3.80354C5.19772 3.7481 5.18179 3.68615 5.18179 3.62262C5.18179 3.42052 4.94943 3.14052 4.5 3.14052C4.05057 3.14052 3.81821 3.42052 3.81821 3.62262C3.81821 3.82475 4.05057 4.10526 4.5 4.10526C5.25549 4.10526 6 4.61052 6 5.37738C6 6.00368 5.50305 6.4558 4.90906 6.59999V6.60526C4.90906 6.70996 4.86603 6.81036 4.78931 6.88439C4.71259 6.95842 4.60849 7 4.5 7C4.39151 7 4.28741 6.95842 4.21069 6.88439C4.13397 6.81036 4.09094 6.70996 4.09094 6.60526V6.59999C3.49695 6.4558 3 6.00368 3 5.37738C3 5.27268 3.04312 5.17228 3.11984 5.09825C3.19656 5.02422 3.30057 4.98264 3.40906 4.98264C3.51755 4.98264 3.62164 5.02422 3.69836 5.09825C3.77509 5.17228 3.81821 5.27268 3.81821 5.37738C3.81821 5.57948 4.05057 5.85948 4.5 5.85948C4.94943 5.85948 5.18179 5.57948 5.18179 5.37738C5.18179 5.17525 4.94943 4.89474 4.5 4.89474C3.74451 4.89474 3 4.38948 3 3.62262C3 2.99632 3.49695 2.54474 4.09094 2.40001V2.39474C4.09094 2.29004 4.13397 2.18964 4.21069 2.11561C4.28741 2.04158 4.39151 2 4.5 2Z"
        fill="#574FC1" />
    <path
        d="M18 8.88888V17.7778C18 18.8253 18 19.3491 17.6747 19.6746C17.3493 20 16.8257 20 15.7784 20H15.1068C14.0595 20 13.5359 20 13.2105 19.6746C12.8852 19.3491 12.8852 18.8253 12.8852 17.7778V8.88888C12.8852 7.84132 12.8852 7.31753 13.2105 6.9921C13.5359 6.66666 14.0595 6.66666 15.1068 6.66666H15.7784C16.8257 6.66666 17.3493 6.66666 17.6747 6.9921C18 7.31753 18 7.84133 18 8.88888Z"
        fill="#574FC1" />
    <path
        d="M11.1158 10.3254C11.4412 10.6509 11.4412 11.1746 11.4412 12.2222V17.7778C11.4412 18.8253 11.4412 19.3491 11.1158 19.6746C10.7905 20 10.2668 20 9.21957 20H8.66418C7.61691 20 7.09328 20 6.76794 19.6746C6.4426 19.3491 6.4426 18.8253 6.4426 17.7778V12.2222C6.4426 11.1746 6.4426 10.6509 6.76794 10.3254C7.09328 9.99999 7.61691 9.99999 8.66417 9.99999H9.21957C10.2668 9.99999 10.7905 9.99999 11.1158 10.3254Z"
        fill="#574FC1" />
    <path
        d="M4.99856 15C4.99856 13.9524 4.99857 13.4286 4.67322 13.1032C4.34788 12.7778 3.82425 12.7778 2.77698 12.7778H2.22158C1.17432 12.7778 0.650687 12.7778 0.325343 13.1032C0 13.4286 0 13.9524 0 15V17.7778C0 18.8253 0 19.3491 0.325343 19.6745C0.650687 20 1.17432 20 2.22158 20H2.77698C3.82425 20 4.34788 20 4.67322 19.6745C4.99857 19.3491 4.99856 18.8253 4.99856 17.7778V15Z"
        fill="#574FC1" />
</svg>
