<svg
    width="20"
    height="16"
    viewBox="0 0 20 16"
    fill="none"
    xmlns="http://www.w3.org/2000/svg">
    <path
        fill-rule="evenodd"
        clip-rule="evenodd"
        d="M12 0H8C4.229 0 2.344 0.000999928 1.172 1.172C0 2.343 0 4.229 0 8C0 11.771 0.000999928 13.656 1.172 14.828C2.343 16 4.229 16 8 16H12C15.771 16 17.656 15.999 18.828 14.828C20 13.657 20 11.771 20 8C20 4.229 19.999 2.344 18.828 1.172C17.657 0 15.771 0 12 0ZM10.6904 4.54038C10.8123 4.41848 10.9776 4.35 11.15 4.35H17C17.1724 4.35 17.3377 4.41848 17.4596 4.54038C17.5815 4.66228 17.65 4.82761 17.65 5C17.65 5.17239 17.5815 5.33772 17.4596 5.45962C17.3377 5.58152 17.1724 5.65 17 5.65H11.15C10.9776 5.65 10.8123 5.58152 10.6904 5.45962C10.5685 5.33772 10.5 5.17239 10.5 5C10.5 4.82761 10.5685 4.66228 10.6904 4.54038ZM10.6904 7.54038C10.8123 7.41848 10.9776 7.35 11.15 7.35H17C17.1724 7.35 17.3377 7.41848 17.4596 7.54038C17.5815 7.66228 17.65 7.82761 17.65 8C17.65 8.17239 17.5815 8.33772 17.4596 8.45962C17.3377 8.58152 17.1724 8.65 17 8.65H11.15C10.9776 8.65 10.8123 8.58152 10.6904 8.45962C10.5685 8.33772 10.5 8.17239 10.5 8C10.5 7.82761 10.5685 7.66228 10.6904 7.54038ZM10.6904 10.5404C10.8123 10.4185 10.9776 10.35 11.15 10.35H17C17.1724 10.35 17.3377 10.4185 17.4596 10.5404C17.5815 10.6623 17.65 10.8276 17.65 11C17.65 11.1724 17.5815 11.3377 17.4596 11.4596C17.3377 11.5815 17.1724 11.65 17 11.65H11.15C10.9776 11.65 10.8123 11.5815 10.6904 11.4596C10.5685 11.3377 10.5 11.1724 10.5 11C10.5 10.8276 10.5685 10.6623 10.6904 10.5404ZM5.75 4C4.76902 4 3.98695 4.79593 3.98695 5.76166C3.98695 6.72739 4.76902 7.52332 5.75 7.52332C6.73098 7.52332 7.51305 6.72739 7.51305 5.76166C7.51305 4.79593 6.73098 4 5.75 4ZM5.75 8.10363C4.88913 8.10363 4.09618 8.30008 3.50895 8.63158C2.92891 8.95903 2.50005 9.45155 2.50005 10.0518L2.50003 10.0899C2.49961 10.5229 2.49909 11.06 2.9706 11.4454C3.20413 11.6362 3.53154 11.7724 3.97448 11.8624C4.41838 11.9526 4.99677 12 5.75 12C6.50323 12 7.08162 11.9526 7.52552 11.8624C7.96846 11.7724 8.29587 11.6362 8.5294 11.4454C9.00091 11.06 9.00039 10.5229 8.99998 10.0899L8.99995 10.0518C8.99995 9.45155 8.57109 8.95903 7.99105 8.63158C7.40382 8.30008 6.61088 8.10363 5.75 8.10363Z"
        fill="#574FC1" />
</svg>
