<svg
    width="18"
    height="18"
    viewBox="0 0 18 18"
    fill="none"
    xmlns="http://www.w3.org/2000/svg">
    <path
        d="M4.23071 16.765C6.5088 19.0431 11.1614 18.0785 14.6193 14.6206C18.0824 11.1582 19.0425 6.51074 16.7637 4.23265L16.2281 3.69698C16.5892 7.01718 14.8245 10.247 12.5348 12.5361C10.1987 14.8729 7.21102 16.2925 4.52309 16.2925C4.24438 16.2925 3.97026 16.258 3.6935 16.2278L4.23071 16.765Z"
        fill="#574FC1" />
    <path
        fill-rule="evenodd"
        clip-rule="evenodd"
        d="M14.8397 3.1659C14.6521 2.4211 14.2986 1.76692 13.7678 1.23611C11.4897 -1.04198 6.8423 -0.081902 3.37922 3.38054C-0.0780756 6.83784 -1.04329 11.4911 1.2348 13.7691C1.7656 14.2999 2.41915 14.6534 3.16459 14.841C5.60912 15.4631 8.84662 14.1534 11.5 11.5C14.1585 8.84148 15.4669 5.60529 14.8397 3.1659ZM9.09863 8.48484L9.83311 5.38895C9.93364 5.0605 9.98875 4.75107 9.78693 4.54972C9.62664 4.3898 9.27211 4.39896 8.94424 4.50006L5.85302 5.23804C5.55713 5.32829 5.32694 5.55792 5.23611 5.85381L4.49987 8.94451C4.39933 9.27296 4.33449 9.57618 4.54724 9.78893C4.70499 9.94669 5.05992 9.93393 5.38874 9.8334L8.48172 9.10061C8.77761 9.01036 9.0078 8.78073 9.09863 8.48484Z"
        fill="#574FC1" />
</svg>
