<svg
    width="22"
    height="20"
    viewBox="0 0 22 20"
    fill="none"
    xmlns="http://www.w3.org/2000/svg">
    <path
        d="M19 11C19.0013 9.86483 18.7605 8.74243 18.2935 7.70776C17.8265 6.67309 17.1442 5.74995 16.292 5M3 11C2.99865 9.86483 3.23951 8.74243 3.70649 7.70776C4.17348 6.67309 4.85583 5.74995 5.708 5M9 18.748C9.65337 18.916 10.3254 19.0007 11 19C11.6746 19.0007 12.3466 18.916 13 18.748M11 7C10.2044 7 9.44129 6.68393 8.87868 6.12132C8.31607 5.55871 8 4.79565 8 4C8 3.20435 8.31607 2.44129 8.87868 1.87868C9.44129 1.31607 10.2044 1 11 1C11.7956 1 12.5587 1.31607 13.1213 1.87868C13.6839 2.44129 14 3.20435 14 4C14 4.79565 13.6839 5.55871 13.1213 6.12132C12.5587 6.68393 11.7956 7 11 7ZM4.5 19C3.70435 19 2.94129 18.6839 2.37868 18.1213C1.81607 17.5587 1.5 16.7956 1.5 16C1.5 15.2044 1.81607 14.4413 2.37868 13.8787C2.94129 13.3161 3.70435 13 4.5 13C5.29565 13 6.05871 13.3161 6.62132 13.8787C7.18393 14.4413 7.5 15.2044 7.5 16C7.5 16.7956 7.18393 17.5587 6.62132 18.1213C6.05871 18.6839 5.29565 19 4.5 19ZM17.5 19C16.7044 19 15.9413 18.6839 15.3787 18.1213C14.8161 17.5587 14.5 16.7956 14.5 16C14.5 15.2044 14.8161 14.4413 15.3787 13.8787C15.9413 13.3161 16.7044 13 17.5 13C18.2956 13 19.0587 13.3161 19.6213 13.8787C20.1839 14.4413 20.5 15.2044 20.5 16C20.5 16.7956 20.1839 17.5587 19.6213 18.1213C19.0587 18.6839 18.2956 19 17.5 19Z"
        stroke="#574FC1"
        stroke-width="1.3"
        stroke-linecap="round" />
</svg>
