<svg
    width="22"
    height="18"
    viewBox="0 0 22 18"
    fill="none"
    xmlns="http://www.w3.org/2000/svg">
    <path
        d="M12.4135 4.76677C12.0459 4.76677 11.6933 4.91743 11.4333 5.18561C11.1733 5.45379 11.0273 5.81753 11.0273 6.1968C11.0273 6.57606 11.1733 6.9398 11.4333 7.20798C11.6933 7.47616 12.0459 7.62683 12.4135 7.62683C12.7812 7.62683 13.1338 7.47616 13.3938 7.20798C13.6538 6.9398 13.7998 6.57606 13.7998 6.1968C13.7998 5.81753 13.6538 5.45379 13.3938 5.18561C13.1338 4.91743 12.7812 4.76677 12.4135 4.76677Z"
        fill="#574FC1" />
    <path
        fill-rule="evenodd"
        clip-rule="evenodd"
        d="M4.85279 11.7969C5.71869 12.3936 6.9227 12.3936 9.33416 12.3936H15.4928C17.9034 12.3936 19.1083 12.3936 19.9742 11.7969C20.3491 11.5385 20.6711 11.2064 20.9216 10.8196C21.5 9.92638 21.5 8.68437 21.5 6.1968C21.5 3.70923 21.5 2.46721 20.9216 1.57399C20.6711 1.18718 20.3491 0.855079 19.9742 0.596663C19.1083 3.69358e-07 17.9043 0 15.4928 0H9.33416C6.92356 0 5.71869 3.69358e-07 4.85279 0.596663C4.47782 0.855079 4.15588 1.18718 3.90537 1.57399C3.32697 2.46721 3.32697 3.70923 3.32697 6.1968C3.32697 8.68437 3.32697 9.92638 3.90537 10.8196C4.15588 11.2064 4.47782 11.5385 4.85279 11.7969ZM10.5931 4.31888C11.0759 3.82083 11.7307 3.54103 12.4135 3.54103C13.0963 3.54103 13.7512 3.82083 14.234 4.31888C14.7168 4.81694 14.9881 5.49244 14.9881 6.1968C14.9881 6.90115 14.7168 7.57666 14.234 8.07471C13.7512 8.57276 13.0963 8.85256 12.4135 8.85256C11.7307 8.85256 11.0759 8.57276 10.5931 8.07471C10.1103 7.57666 9.83902 6.90115 9.83902 6.1968C9.83902 5.49244 10.1103 4.81694 10.5931 4.31888ZM6.54511 2.65577C6.18964 2.65577 5.90148 2.95303 5.90148 3.31971C5.90148 3.6864 6.18964 3.98365 6.54511 3.98365H8.26145C8.61692 3.98365 8.90508 3.6864 8.90508 3.31971C8.90508 2.95303 8.61692 2.65577 8.26145 2.65577H6.54511ZM16.5655 8.40994C16.21 8.40994 15.9219 8.70719 15.9219 9.07388C15.9219 9.44056 16.21 9.73782 16.5655 9.73782H18.2819C18.6373 9.73782 18.9255 9.44056 18.9255 9.07388C18.9255 8.70719 18.6373 8.40994 18.2819 8.40994H16.5655Z"
        fill="#574FC1" />
    <path
        d="M11.429 17.2473L5.48019 15.6168C3.95346 15.1983 2.92778 14.9171 2.20922 14.5462C1.8315 14.3513 1.53864 14.1315 1.30248 13.8539C1.00566 13.505 0.77872 13.099 0.634612 12.6591C0.301907 11.6431 0.616147 10.4434 1.24552 8.04063C1.64251 6.52502 1.91412 5.48808 2.2575 4.75088V4.77949C2.20755 5.46977 2.20755 6.32595 2.20755 7.42549C2.20755 8.52503 2.20755 9.38121 2.2575 10.0715C2.32056 10.9429 2.46321 11.5499 2.78596 12.0483C3.03647 12.4351 3.3584 12.7672 3.73338 13.0256C4.55099 13.589 5.67007 13.6204 7.82249 13.6222H14.7655H18.3861C18.4589 13.6222 18.5303 13.6172 18.6005 13.6082C18.0945 15.5151 17.7687 16.5334 17.071 17.1643C16.7312 17.4716 16.3362 17.7072 15.9086 17.8575C15.5708 17.9763 15.2123 18.017 14.7936 17.9937C13.9885 17.9489 12.9607 17.6672 11.429 17.2473Z"
        fill="#574FC1" />
</svg>
