<svg
    width="18"
    height="18"
    viewBox="0 0 18 18"
    fill="none"
    xmlns="http://www.w3.org/2000/svg">
    <path
        fill-rule="evenodd"
        clip-rule="evenodd"
        d="M18 9.11111V10.8889C18 14.2409 17.9991 15.9164 16.9452 16.9582C15.8914 18 14.1938 18 10.8 18H7.19995C3.80615 18 2.10962 17.9991 1.05481 16.9582C0 15.9173 0 14.2409 0 10.8889V9.11111C0 8.36533 0 7.70221 0.0117188 7.11111H17.9883C18 7.70221 18 8.36533 18 9.11111ZM13.8857 9.63873C13.7834 9.5499 13.6447 9.5 13.5 9.5C13.3553 9.5 13.2166 9.5499 13.1143 9.63873C13.012 9.72757 12.9546 9.84805 12.9546 9.97369V9.98001C12.1626 10.1537 11.5 10.6956 11.5 11.4471C11.5 12.3674 12.4927 12.9737 13.5 12.9737C14.0992 12.9737 14.4091 13.3103 14.4091 13.5529C14.4091 13.7954 14.0992 14.1314 13.5 14.1314C12.9008 14.1314 12.5909 13.7954 12.5909 13.5529C12.5909 13.4272 12.5334 13.3067 12.4312 13.2179C12.3289 13.1291 12.1901 13.0792 12.0454 13.0792C11.9008 13.0792 11.7621 13.1291 11.6598 13.2179C11.5575 13.3067 11.5 13.4272 11.5 13.5529C11.5 14.3044 12.1626 14.847 12.9546 15.02V15.0263C12.9546 15.1519 13.012 15.2724 13.1143 15.3613C13.2166 15.4501 13.3553 15.5 13.5 15.5C13.6447 15.5 13.7834 15.4501 13.8857 15.3613C13.988 15.2724 14.0454 15.1519 14.0454 15.0263V15.02C14.8374 14.847 15.5 14.3044 15.5 13.5529C15.5 12.6326 14.5073 12.0263 13.5 12.0263C12.9008 12.0263 12.5909 11.6897 12.5909 11.4471C12.5909 11.2046 12.9008 10.8686 13.5 10.8686C14.0992 10.8686 14.4091 11.2046 14.4091 11.4471C14.4091 11.5234 14.4303 11.5977 14.4697 11.6642C14.4952 11.7073 14.5286 11.7472 14.5688 11.7821C14.6711 11.8709 14.8099 11.9208 14.9546 11.9208C15.0992 11.9208 15.2379 11.8709 15.3402 11.7821C15.4425 11.6933 15.5 11.5728 15.5 11.4471C15.5 10.6956 14.8374 10.1537 14.0454 9.98001V9.97369C14.0454 9.84805 13.988 9.72757 13.8857 9.63873Z"
        fill="#574FC1" />
    <path
        d="M4.97729 0.195251C5.10388 0.320282 5.17505 0.489868 5.17505 0.666656V2.01157C5.47083 2.00586 5.7843 2.00296 6.11694 2.0015C6.45752 2 6.81799 2 7.19995 2H10.8C11.5551 2 12.2264 2 12.825 2.01157V0.666656C12.825 0.489868 12.8961 0.320282 13.0227 0.195251C13.1493 0.0702515 13.3209 0 13.5 0C13.6791 0 13.8507 0.0702515 13.9773 0.195251C14.1039 0.320282 14.175 0.489868 14.175 0.666656V2.07022C15.4701 2.17334 16.3206 2.42401 16.9452 3.04178C17.5707 3.65866 17.8245 4.49777 17.929 5.77777H0.0710449C0.175537 4.49866 0.429321 3.65866 1.05481 3.04178C1.67944 2.42401 2.52905 2.17334 3.82495 2.07111V0.666656C3.82495 0.489868 3.89612 0.320282 4.02271 0.195251C4.14929 0.0702515 4.32092 0 4.5 0C4.67908 0 4.85071 0.0702515 4.97729 0.195251Z"
        fill="#574FC1" />
</svg>
