<svg
    width="22"
    height="20"
    viewBox="0 0 22 20"
    fill="none"
    xmlns="http://www.w3.org/2000/svg">
    <path
        d="M5.3 6.98155C4.94101 6.98155 4.65 7.27256 4.65 7.63155C4.65 7.99053 4.94101 8.28155 5.3 8.28155V6.98155ZM9.1 8.28155C9.45898 8.28155 9.75 7.99053 9.75 7.63155C9.75 7.27256 9.45898 6.98155 9.1 6.98155V8.28155ZM19.5434 14.2612L19.5803 14.9102L19.5829 14.91L19.5434 14.2612ZM20.4981 13.3774L21.1465 13.4228L21.1468 13.418L20.4981 13.3774ZM20.4981 9.46471L21.1469 9.42405L21.1464 9.418L20.4981 9.46471ZM19.5434 8.58081L19.5829 7.93201L19.5803 7.93187L19.5434 8.58081ZM18.4366 4.95238L17.9774 5.41244L17.9779 5.41292L18.4366 4.95238ZM18.4366 17.8897L17.9779 17.4291L17.9774 17.4296L18.4366 17.8897ZM4.94144 3.2999C4.64202 3.49793 4.55981 3.90119 4.75784 4.20062C4.95587 4.50005 5.35913 4.58225 5.65856 4.38422L4.94144 3.2999ZM8.84825 1.49543L8.49483 0.949865L8.48969 0.953266L8.84825 1.49543ZM10.525 1V1.65V1ZM12.2017 1.49543L12.5603 0.953242L12.5552 0.94989L12.2017 1.49543ZM15.3914 4.38422C15.6909 4.58225 16.0941 4.50005 16.2922 4.20062C16.4902 3.90119 16.408 3.49793 16.1086 3.2999L15.3914 4.38422ZM16.6914 10.771C16.3325 10.771 16.0414 11.062 16.0414 11.421C16.0414 11.78 16.3325 12.071 16.6914 12.071V10.771ZM16.7009 12.071C17.0599 12.071 17.3509 11.78 17.3509 11.421C17.3509 11.062 17.0599 10.771 16.7009 10.771V12.071ZM5.3 8.28155H9.1V6.98155H5.3V8.28155ZM19.3913 7.92892H16.9195V9.22892H19.3913V7.92892ZM16.9195 7.92892C14.9127 7.92892 13.2 9.44611 13.2 11.421H14.5C14.5 10.2564 15.5347 9.22892 16.9195 9.22892V7.92892ZM13.2 11.421C13.2 13.396 14.9136 14.9131 16.9185 14.9131V13.6131C15.5357 13.6131 14.5 12.5857 14.5 11.421H13.2ZM16.9185 14.9131H19.3913V13.6131H16.9185V14.9131ZM19.3913 14.9131C19.4622 14.9131 19.5239 14.9134 19.5803 14.9102L19.5064 13.6123C19.4963 13.6129 19.4801 13.6131 19.3913 13.6131V14.9131ZM19.5829 14.91C20.3816 14.8614 21.0878 14.2612 21.1465 13.4228L19.8497 13.3319C19.8419 13.4428 19.7311 13.5986 19.5038 13.6125L19.5829 14.91ZM21.1468 13.418C21.1503 13.3622 21.15 13.3 21.15 13.2371H19.85C19.85 13.275 19.85 13.2984 19.8498 13.3163C19.8496 13.3335 19.8493 13.3377 19.8494 13.3367L21.1468 13.418ZM21.15 13.2371V9.60492H19.85V13.2371H21.15ZM21.15 9.60492C21.15 9.5421 21.1503 9.47985 21.1468 9.42405L19.8494 9.50537C19.8493 9.50437 19.8496 9.50852 19.8498 9.52581C19.85 9.54365 19.85 9.56708 19.85 9.60492H21.15ZM21.1464 9.418C21.0862 8.58162 20.3827 7.98076 19.5829 7.93202L19.5038 9.22961C19.73 9.24339 19.8416 9.39854 19.8498 9.51143L21.1464 9.418ZM19.5803 7.93187C19.5239 7.92865 19.4622 7.92892 19.3913 7.92892V9.22892C19.4801 9.22892 19.4963 9.22918 19.5064 9.22976L19.5803 7.93187ZM20.1662 8.55178C20.0918 6.77054 19.856 5.44872 18.8953 4.49184L17.9779 5.41292C18.5543 5.987 18.7935 6.84034 18.8673 8.60605L20.1662 8.55178ZM18.8958 4.49232C18.1985 3.79642 17.3125 3.48504 16.206 3.33662C15.1179 3.19069 13.7229 3.19206 11.95 3.19206V4.49206C13.7596 4.49206 15.0516 4.49344 16.0331 4.62508C16.9962 4.75425 17.5622 4.99802 17.9774 5.41244L18.8958 4.49232ZM11.95 3.19206H9.1V4.49206H11.95V3.19206ZM9.1 3.19206C7.32711 3.19206 5.93209 3.19069 4.84404 3.33662C3.7375 3.48504 2.85146 3.79642 2.15422 4.49232L3.07258 5.41244C3.48779 4.99802 4.05383 4.75425 5.01686 4.62508C5.99839 4.49344 7.29044 4.49206 9.1 4.49206V3.19206ZM2.15422 4.49232C1.45702 5.18819 1.14445 6.07217 0.995375 7.17641C0.84885 8.26178 0.85 9.65309 0.85 11.421H2.15C2.15 9.61644 2.15163 8.32858 2.28369 7.35034C2.4132 6.39097 2.65733 5.8269 3.07258 5.41244L2.15422 4.49232ZM0.85 11.421C0.85 13.1889 0.848611 14.5805 0.995007 15.6659C1.14395 16.7703 1.45654 17.6546 2.15461 18.3501L3.07219 17.4292C2.65686 17.0154 2.41275 16.4517 2.28334 15.4922C2.15139 14.5138 2.15 13.2257 2.15 11.421H0.85ZM2.15461 18.3501C2.85216 19.0452 3.73786 19.3565 4.84432 19.5051C5.93226 19.6511 7.327 19.65 9.1 19.65V18.35C7.29055 18.35 5.99869 18.3484 5.0173 18.2166C4.05441 18.0874 3.48804 17.8436 3.07219 17.4292L2.15461 18.3501ZM9.1 19.65H11.95V18.35H9.1V19.65ZM11.95 19.65C13.7229 19.65 15.1179 19.6514 16.206 19.5054C17.3125 19.357 18.1985 19.0456 18.8958 18.3497L17.9774 17.4296C17.5622 17.844 16.9962 18.0878 16.0331 18.217C15.0516 18.3486 13.7596 18.35 11.95 18.35V19.65ZM18.8953 18.3502C19.8559 17.3934 20.0927 16.0719 20.1662 14.2899L18.8673 14.2364C18.7945 16.0014 18.5544 16.855 17.9779 17.4291L18.8953 18.3502ZM5.65856 4.38422L9.20681 2.03758L8.48969 0.953266L4.94144 3.2999L5.65856 4.38422ZM9.20165 2.04096C9.59543 1.78587 10.0551 1.65 10.525 1.65V0.35C9.8045 0.35 9.09933 0.558309 8.49485 0.94989L9.20165 2.04096ZM10.525 1.65C10.9949 1.65 11.4546 1.78587 11.8484 2.04096L12.5552 0.94989C11.9507 0.558309 11.2455 0.35 10.525 0.35V1.65ZM11.8432 2.03758L15.3914 4.38422L16.1086 3.2999L12.5603 0.953266L11.8432 2.03758ZM16.6914 12.071H16.7009V10.771H16.6914V12.071Z"
        fill="#574FC1" />
</svg>
