<svg
    width="14"
    height="16"
    viewBox="0 0 14 16"
    fill="none"
    xmlns="http://www.w3.org/2000/svg">
    <path
        d="M1.16797 15C0.891826 15 0.667969 15.2239 0.667969 15.5C0.667969 15.7761 0.891826 16 1.16797 16V15ZM12.8341 16C13.1102 16 13.3341 15.7761 13.3341 15.5C13.3341 15.2239 13.1102 15 12.8341 15V16ZM8.37762 1.74744L8.01912 1.3989L7.86585 1.55656L7.87844 1.77607L8.37762 1.74744ZM8.91864 1.19094L8.56017 0.842371L8.56013 0.842411L8.91864 1.19094ZM12.1625 4.5284L12.5206 4.87742L12.521 4.87697L12.1625 4.5284ZM11.6215 5.08414L11.98 5.43268L12.7399 4.6511L11.6518 4.58506L11.6215 5.08414ZM3.40713 6.86012L3.76564 7.20865L3.76566 7.20862L3.40713 6.86012ZM2.75748 7.57036L3.15558 7.87287L3.15654 7.8716L2.75748 7.57036ZM2.32073 8.2971L2.77421 8.50769L2.77457 8.50693L2.32073 8.2971ZM1.99335 9.21209L1.51784 9.0575L1.51768 9.058L1.99335 9.21209ZM1.35536 11.1816L0.87969 11.0275L0.879567 11.0279L1.35536 11.1816ZM5.96055 10.8651L5.64756 10.4751L5.64753 10.4752L5.96055 10.8651ZM5.25402 11.3143L5.03384 10.8654L5.03353 10.8655L5.25402 11.3143ZM4.36448 11.6503L4.20255 11.1773L4.2022 11.1774L4.36448 11.6503ZM2.44978 12.3073L2.6115 12.7804L2.61206 12.7802L2.44978 12.3073ZM1.98241 12.467L1.82069 11.9939L1.81992 11.9942L1.98241 12.467ZM1.20005 11.6623L1.6756 11.8168L1.67584 11.816L1.20005 11.6623ZM1.16797 16H12.8341V15H1.16797V16ZM8.73612 2.09597L9.27714 1.53948L8.56013 0.842411L8.01912 1.3989L8.73612 2.09597ZM9.2771 1.53952C9.44438 1.36749 9.64219 1.23182 9.85886 1.13953L9.467 0.219506C9.127 0.364324 8.81898 0.576214 8.56017 0.842371L9.2771 1.53952ZM9.85886 1.13953C10.0755 1.04726 10.3072 0.999973 10.5408 1L10.5409 2.98023e-08C10.172 -4.26173e-05 9.80704 0.0746746 9.467 0.219506L9.85886 1.13953ZM10.5408 1C10.7744 1.00003 11.0061 1.04736 11.2227 1.13969L11.6148 0.219754C11.2748 0.0748441 10.9098 4.26471e-05 10.5409 2.98023e-08L10.5408 1ZM11.2227 1.13969C11.4393 1.23203 11.6371 1.36775 11.8044 1.53981L12.5214 0.842827C12.2627 0.576611 11.9547 0.36465 11.6148 0.219754L11.2227 1.13969ZM11.8044 1.53981C11.9716 1.71191 12.105 1.91697 12.1963 2.14363L13.1239 1.77019C12.9847 1.42425 12.7802 1.10901 12.5214 0.842827L11.8044 1.53981ZM12.1963 2.14363C12.2875 2.37032 12.3347 2.61374 12.3346 2.85988L13.3346 2.85999C13.3347 2.48638 13.2632 2.11611 13.1239 1.77019L12.1963 2.14363ZM12.3346 2.85988C12.3346 3.10602 12.2874 3.34944 12.1961 3.5761L13.1237 3.94975C13.263 3.60386 13.3346 3.2336 13.3346 2.85999L12.3346 2.85988ZM12.1961 3.5761C12.1048 3.80274 11.9714 4.00777 11.8041 4.17983L12.521 4.87697C12.7798 4.61085 12.9844 4.29565 13.1237 3.94975L12.1961 3.5761ZM11.8045 4.17938L11.2635 4.73438L11.9796 5.43241L12.5206 4.87742L11.8045 4.17938ZM8.37762 1.74744C7.87844 1.77607 7.87845 1.77628 7.87846 1.77648C7.87847 1.77655 7.87848 1.77676 7.87849 1.77691C7.87851 1.77721 7.87853 1.77753 7.87855 1.77786C7.87859 1.77854 7.87863 1.77928 7.87869 1.7801C7.87879 1.78173 7.87892 1.78366 7.87907 1.78587C7.87938 1.7903 7.8798 1.79588 7.88036 1.80257C7.88148 1.81594 7.88315 1.83377 7.8856 1.85571C7.89049 1.89957 7.89852 1.96004 7.9115 2.03441C7.93744 2.18296 7.98341 2.38833 8.06444 2.62856C8.22643 3.10875 8.53084 3.73456 9.10042 4.32044L9.81743 3.62337C9.37352 3.16676 9.13727 2.68034 9.01198 2.30892C8.94938 2.12334 8.91505 1.96806 8.8966 1.86241C8.88739 1.80968 8.8822 1.76966 8.87943 1.74481C8.87804 1.7324 8.87727 1.72381 8.8769 1.71936C8.87671 1.71714 8.87663 1.71595 8.87662 1.71585C8.87661 1.71579 8.87663 1.71601 8.87666 1.7165C8.87668 1.71674 8.8767 1.71706 8.87672 1.71744C8.87673 1.71763 8.87674 1.71784 8.87676 1.71807C8.87676 1.71818 8.87677 1.71836 8.87678 1.71842C8.87679 1.71861 8.8768 1.7188 8.37762 1.74744ZM9.10042 4.32044C9.67045 4.90678 10.2811 5.22172 10.7522 5.38986C10.9876 5.47388 11.1891 5.52163 11.3353 5.54864C11.4085 5.56215 11.4681 5.57053 11.5115 5.57566C11.5333 5.57823 11.551 5.57998 11.5644 5.58116C11.5711 5.58176 11.5767 5.5822 11.5812 5.58254C11.5834 5.5827 11.5854 5.58284 11.5871 5.58295C11.5879 5.58301 11.5887 5.58306 11.5894 5.58311C11.5897 5.58313 11.59 5.58315 11.5903 5.58317C11.5905 5.58318 11.5907 5.58319 11.5908 5.5832C11.591 5.58321 11.5912 5.58322 11.6215 5.08414C11.6518 4.58506 11.652 4.58507 11.6522 4.58509C11.6523 4.58509 11.6525 4.5851 11.6526 4.58511C11.6528 4.58512 11.6531 4.58514 11.6533 4.58515C11.6537 4.58518 11.654 4.5852 11.6543 4.58522C11.6549 4.58526 11.6552 4.58528 11.6552 4.58528C11.6553 4.58529 11.6543 4.58522 11.6524 4.58504C11.6484 4.5847 11.6405 4.58394 11.6288 4.58256C11.6054 4.5798 11.5674 4.57458 11.517 4.56528C11.416 4.54662 11.2669 4.51178 11.0884 4.44805C10.7315 4.3207 10.2609 4.07952 9.81743 3.62337L9.10042 4.32044ZM8.01909 1.39818L3.0486 6.51161L3.76566 7.20862L8.73615 2.09519L8.01909 1.39818ZM3.04863 6.51158C2.72069 6.8489 2.52601 7.0471 2.35841 7.26911L3.15654 7.8716C3.27768 7.71113 3.41986 7.56432 3.76564 7.20865L3.04863 6.51158ZM2.35937 7.26785C2.16636 7.52186 2.00124 7.79666 1.86688 8.08727L2.77457 8.50693C2.87875 8.2816 3.00656 8.06899 3.15558 7.87287L2.35937 7.26785ZM1.86724 8.08651C1.7502 8.33854 1.66493 8.60507 1.51784 9.0575L2.46885 9.36668C2.62362 8.89062 2.68855 8.69215 2.77421 8.50769L1.86724 8.08651ZM1.51768 9.058L0.87969 11.0275L1.83102 11.3356L2.46901 9.36617L1.51768 9.058ZM11.263 4.73561L6.29253 9.84829L7.00954 10.5454L11.98 5.43268L11.263 4.73561ZM6.29253 9.84829C5.94745 10.2032 5.80396 10.3496 5.64756 10.4751L6.27354 11.255C6.489 11.082 6.6809 10.8834 7.00954 10.5454L6.29253 9.84829ZM5.64753 10.4752C5.45692 10.6282 5.25253 10.7581 5.03384 10.8654L5.4742 11.7632C5.7591 11.6235 6.02573 11.4539 6.27357 11.255L5.64753 10.4752ZM5.03353 10.8655C4.85642 10.9526 4.66556 11.0188 4.20255 11.1773L4.52641 12.1234C4.96607 11.9729 5.22727 11.8845 5.47451 11.7631L5.03353 10.8655ZM4.2022 11.1774L2.2875 11.8344L2.61206 12.7802L4.52676 12.1232L4.2022 11.1774ZM2.28807 11.8342L1.82069 11.9939L2.14412 12.9402L2.6115 12.7804L2.28807 11.8342ZM1.81992 11.9942C1.80109 12.0007 1.78138 12.0015 1.76245 11.9969L1.52682 12.9688C1.73155 13.0184 1.94578 13.0083 2.1449 12.9399L1.81992 11.9942ZM1.76245 11.9969C1.74343 11.9923 1.72425 11.9819 1.70779 11.965L0.990785 12.6621C1.13682 12.8123 1.32218 12.9192 1.52682 12.9688L1.76245 11.9969ZM1.70779 11.965C1.69122 11.948 1.67823 11.925 1.67205 11.8981L0.697318 12.1214C0.743863 12.3245 0.844868 12.512 0.990785 12.6621L1.70779 11.965ZM1.67205 11.8981C1.66586 11.871 1.66717 11.8427 1.6756 11.8168L0.724503 11.5079C0.660124 11.7061 0.650786 11.9184 0.697318 12.1214L1.67205 11.8981ZM1.67584 11.816L1.83114 11.3353L0.879567 11.0279L0.724262 11.5086L1.67584 11.816ZM2.80829 11.9588L1.71386 10.833L0.996852 11.5301L2.09128 12.6558L2.80829 11.9588Z"
        fill="#8D96AD" />
</svg>
