<svg
    width="14"
    height="18"
    viewBox="0 0 14 18"
    fill="none"
    xmlns="http://www.w3.org/2000/svg">
    <path
        fill-rule="evenodd"
        clip-rule="evenodd"
        d="M3.20267 3.96373C3.20267 1.79083 4.88711 0 7 0C9.11289 0 10.7973 1.79083 10.7973 3.96373C10.7973 6.13663 9.11289 7.92746 7 7.92746C4.88711 7.92746 3.20267 6.13663 3.20267 3.96373ZM2.17312 10.4211C3.43792 9.67517 5.14581 9.23316 7 9.23316C8.85419 9.23316 10.5621 9.67517 11.8269 10.4211C13.0762 11.1578 13.9999 12.266 13.9999 13.6166C13.9999 13.6449 13.9999 13.6734 13.9999 13.7022C14.0008 14.6765 14.002 15.885 12.9864 16.7521C12.4834 17.1815 11.7782 17.4879 10.8242 17.6904C9.8681 17.8933 8.62234 18 7 18C5.37766 18 4.1319 17.8933 3.1758 17.6904C2.22179 17.4879 1.51659 17.1815 1.01359 16.7521C-0.00195698 15.885 -0.000843647 14.6765 5.39074e-05 13.7022C8.0359e-05 13.6734 0.000106647 13.6449 0.000106647 13.6166C0.000106647 12.266 0.923802 11.1578 2.17312 10.4211Z"
        fill="#574FC1" />
</svg>
