<svg
    width="18"
    height="18"
    viewBox="0 0 18 18"
    fill="none"
    xmlns="http://www.w3.org/2000/svg">
    <path
        d="M12.5569 11.406L12.1019 11.859C12.1019 11.859 11.0189 12.935 8.06386 9.99698C5.10886 7.05898 6.19186 5.98298 6.19186 5.98298L6.47786 5.69698C7.18486 4.99498 7.25186 3.86698 6.63486 3.04298L5.37486 1.35998C4.61086 0.339979 3.13586 0.20498 2.26086 1.07498L0.690856 2.63498C0.257856 3.06698 -0.032144 3.62498 0.002856 4.24498C0.092856 5.83198 0.810856 9.24498 4.81486 13.227C9.06186 17.449 13.0469 17.617 14.6759 17.465C15.1919 17.417 15.6399 17.155 16.0009 16.795L17.4209 15.383C18.3809 14.43 18.1109 12.795 16.8829 12.128L14.9729 11.089C14.1669 10.652 13.1869 10.78 12.5569 11.406Z"
        fill="#574FC1" />
</svg>
