<svg
    width="18"
    height="18"
    viewBox="0 0 18 18"
    fill="none"
    xmlns="http://www.w3.org/2000/svg">
    <path
        d="M9 0C4.0293 0 0 4.0347 0 9.0126C0 13.7628 3.6702 17.6544 8.325 18V12.5451C7.6231 12.3903 6.99513 12.0004 6.54504 11.44C6.09495 10.8796 5.84974 10.1823 5.85 9.4635V9.0126C5.84988 8.89433 5.87307 8.7772 5.91825 8.66791C5.96343 8.55861 6.0297 8.45929 6.11329 8.37562C6.19687 8.29195 6.29612 8.22558 6.40538 8.18029C6.51463 8.13501 6.63173 8.1117 6.75 8.1117H6.975V6.309C6.975 6.12998 7.04612 5.95829 7.1727 5.8317C7.29929 5.70512 7.47098 5.634 7.65 5.634C7.82902 5.634 8.00071 5.70512 8.1273 5.8317C8.25388 5.95829 8.325 6.12998 8.325 6.309V8.1108H9.675V6.309C9.675 6.12998 9.74612 5.95829 9.8727 5.8317C9.99929 5.70512 10.171 5.634 10.35 5.634C10.529 5.634 10.7007 5.70512 10.8273 5.8317C10.9539 5.95829 11.025 6.12998 11.025 6.309V8.1108H11.25C11.3683 8.1108 11.4855 8.13414 11.5948 8.17948C11.7041 8.22482 11.8034 8.29128 11.887 8.37504C11.9706 8.4588 12.0369 8.55823 12.082 8.66763C12.1271 8.77703 12.1502 8.89426 12.15 9.0126V9.4626C12.1505 10.1815 11.9054 10.879 11.4552 11.4396C11.0051 12.0002 10.377 12.3902 9.675 12.5451V18C14.3298 17.6544 18 13.7628 18 9.0126C18 4.0356 13.9707 0 9 0Z"
        fill="#574FC1" />
</svg>
