<svg
    width="20"
    height="14"
    viewBox="0 0 20 14"
    fill="none"
    xmlns="http://www.w3.org/2000/svg">
    <path
        d="M3.5 11V3C3.5 2.20435 3.18393 1.44129 2.62132 0.87868C2.05871 0.316071 1.29565 0 0.5 0C0.367392 0 0.240215 0.0526785 0.146447 0.146447C0.0526785 0.240215 0 0.367392 0 0.5V13.5C0 13.6326 0.0526785 13.7598 0.146447 13.8536C0.240215 13.9473 0.367392 14 0.5 14C1.29565 14 2.05871 13.6839 2.62132 13.1213C3.18393 12.5587 3.5 11.7956 3.5 11ZM10.5 0C12.386 0 13.328 -5.96046e-08 13.914 0.586C14.5 1.172 14.5 2.114 14.5 4V10C14.5 11.886 14.5 12.828 13.914 13.414C13.328 14 12.386 14 10.5 14H9.5C7.614 14 6.672 14 6.086 13.414C5.5 12.828 5.5 11.886 5.5 10V4C5.5 2.114 5.5 1.172 6.086 0.586C6.672 -5.96046e-08 7.614 0 9.5 0H10.5ZM16.5 3V11C16.5 11.7956 16.8161 12.5587 17.3787 13.1213C17.9413 13.6839 18.7044 14 19.5 14C19.6326 14 19.7598 13.9473 19.8536 13.8536C19.9473 13.7598 20 13.6326 20 13.5V0.5C20 0.367392 19.9473 0.240215 19.8536 0.146447C19.7598 0.0526785 19.6326 0 19.5 0C18.7044 0 17.9413 0.316071 17.3787 0.87868C16.8161 1.44129 16.5 2.20435 16.5 3Z"
        fill="#574FC1" />
</svg>
