<svg
    width="20"
    height="20"
    viewBox="0 0 20 20"
    fill="none"
    xmlns="http://www.w3.org/2000/svg">
    <path
        fill-rule="evenodd"
        clip-rule="evenodd"
        d="M11.7793 0.152C11.4093 0 10.9393 0 10.0003 0C9.06129 0 8.59229 0 8.22129 0.152C7.97718 0.251745 7.7552 0.398782 7.56814 0.584647C7.38107 0.770512 7.23261 0.991536 7.13129 1.235C7.03729 1.458 7.00129 1.719 6.98629 2.098C6.97916 2.3725 6.90236 2.64068 6.76312 2.87736C6.62388 3.11403 6.42677 3.31142 6.1903 3.451C5.94904 3.5851 5.67784 3.65615 5.40183 3.65754C5.12581 3.65894 4.8539 3.59065 4.6113 3.459C4.2733 3.281 4.0283 3.183 3.7863 3.151C3.25689 3.08192 2.72157 3.2242 2.29631 3.547C1.97831 3.789 1.74331 4.193 1.27431 5C0.804314 5.807 0.570315 6.21 0.517315 6.605C0.447316 7.131 0.591315 7.663 0.917314 8.084C1.06531 8.276 1.27431 8.437 1.59731 8.639C2.07431 8.936 2.38031 9.442 2.38031 10C2.38031 10.558 2.07431 11.064 1.59831 11.36C1.27431 11.563 1.06531 11.724 0.916314 11.916C0.755881 12.1242 0.638064 12.362 0.569601 12.6158C0.501138 12.8696 0.48337 13.1343 0.517315 13.395C0.570315 13.789 0.804314 14.193 1.27431 15L1.27992 15.0096C1.74618 15.8102 1.97958 16.211 2.29631 16.453C2.72031 16.776 3.25631 16.918 3.7863 16.849C4.0283 16.817 4.2733 16.719 4.6113 16.541C4.85403 16.4092 5.12612 16.3408 5.40233 16.3422C5.67854 16.3436 5.94992 16.4147 6.1913 16.549C6.6773 16.829 6.96529 17.344 6.98629 17.902C7.00129 18.282 7.03729 18.542 7.13129 18.765C7.33529 19.255 7.72729 19.645 8.22129 19.848C8.59129 20 9.06129 20 10.0003 20C10.9393 20 11.4093 20 11.7793 19.848C12.0234 19.7483 12.2454 19.6012 12.4324 19.4154C12.6195 19.2295 12.768 19.0085 12.8693 18.765C12.9633 18.542 12.9993 18.282 13.0143 17.902C13.0343 17.344 13.3233 16.828 13.8103 16.549C14.0515 16.4149 14.3227 16.3439 14.5987 16.3425C14.8748 16.3411 15.1467 16.4093 15.3893 16.541C15.7273 16.719 15.9723 16.817 16.2143 16.849C16.7443 16.919 17.2803 16.776 17.7043 16.453C18.0223 16.211 18.2573 15.807 18.7263 15C19.1963 14.193 19.4303 13.79 19.4833 13.395C19.5171 13.1343 19.4991 12.8695 19.4305 12.6157C19.3619 12.3619 19.2439 12.1241 19.0833 11.916C18.9353 11.724 18.7263 11.563 18.4033 11.361C17.9263 11.064 17.6203 10.558 17.6203 10C17.6203 9.442 17.9263 8.936 18.4023 8.64C18.7263 8.437 18.9353 8.276 19.0843 8.084C19.2447 7.87579 19.3625 7.63799 19.431 7.38422C19.4994 7.13044 19.5172 6.86565 19.4833 6.605C19.4303 6.211 19.1963 5.807 18.7263 5L18.7206 4.99036C18.2544 4.1898 18.021 3.78903 17.7043 3.547C17.279 3.2242 16.7437 3.08192 16.2143 3.151C15.9723 3.183 15.7273 3.281 15.3893 3.459C15.1465 3.59083 14.8745 3.65922 14.5982 3.65782C14.322 3.65642 14.0506 3.58528 13.8093 3.451C13.573 3.3113 13.3761 3.11385 13.237 2.87719C13.098 2.64052 13.0213 2.37241 13.0143 2.098C12.9993 1.718 12.9633 1.458 12.8693 1.235C12.768 0.991536 12.6195 0.770512 12.4324 0.584647C12.2454 0.398782 12.0234 0.251745 11.7793 0.152ZM9.96919 5.50022C9.13859 5.50629 8.32596 5.74265 7.62168 6.18303C7.50464 6.25619 7.42075 6.37284 7.38971 6.50734C7.35868 6.64183 7.38234 6.78314 7.45549 6.90019C7.52865 7.01724 7.6453 7.10043 7.77979 7.13147C7.91429 7.16251 8.0556 7.13884 8.17265 7.06569C8.7143 6.72697 9.33939 6.54535 9.97821 6.54109C10.4397 6.53637 10.8975 6.62413 11.3245 6.79921C11.7515 6.97428 12.1391 7.23312 12.4645 7.56045L11.8976 7.56531C11.8292 7.5659 11.7617 7.57995 11.6988 7.60665C11.6358 7.63335 11.5788 7.67218 11.5309 7.72093C11.483 7.76967 11.4452 7.82738 11.4195 7.89075C11.3939 7.95412 11.3811 8.02191 11.3817 8.09025C11.3822 8.1586 11.3963 8.22616 11.423 8.28907C11.4497 8.35199 11.4885 8.40903 11.5373 8.45694C11.586 8.50484 11.6437 8.54268 11.7071 8.56829C11.7705 8.5939 11.8383 8.60677 11.9066 8.60618L13.6393 8.59091C13.7772 8.58963 13.909 8.53366 14.0056 8.4353C14.1023 8.33694 14.156 8.20422 14.1549 8.06631L14.1403 6.33153C14.1397 6.26319 14.1257 6.19563 14.099 6.13271C14.0723 6.0698 14.0334 6.01276 13.9847 5.96485C13.9359 5.91694 13.8782 5.8791 13.8149 5.85349C13.7515 5.82789 13.6837 5.81501 13.6154 5.8156C13.547 5.8162 13.4795 5.83025 13.4165 5.85695C13.3536 5.88365 13.2966 5.92248 13.2487 5.97123C13.2008 6.01997 13.1629 6.07768 13.1373 6.14105C13.1117 6.20441 13.0988 6.27221 13.0994 6.34055L13.1022 6.72845C12.2562 5.92896 11.1331 5.48868 9.96919 5.50022ZM14.5164 9.85661C14.5444 10.6867 14.3427 11.5084 13.9335 12.2312C13.3617 13.2451 12.4183 13.9978 11.3029 14.331L11.6408 14.5218C11.7017 14.5547 11.7554 14.5994 11.7988 14.6534C11.8421 14.7073 11.8743 14.7693 11.8934 14.8358C11.9126 14.9023 11.9182 14.972 11.9101 15.0407C11.902 15.1094 11.8802 15.1758 11.8461 15.236C11.812 15.2962 11.7663 15.349 11.7115 15.3914C11.6568 15.4337 11.5941 15.4646 11.5272 15.4825C11.4604 15.5003 11.3906 15.5046 11.3221 15.4951C11.2535 15.4856 11.1876 15.4626 11.128 15.4273L9.61807 14.5738C9.49801 14.5058 9.40987 14.3929 9.37305 14.2599C9.33622 14.1269 9.35372 13.9847 9.42169 13.8647L10.2745 12.3568C10.3424 12.2366 10.4553 12.1483 10.5883 12.1114C10.7213 12.0744 10.8635 12.0918 10.9837 12.1597C11.1039 12.2276 11.1921 12.3405 11.2291 12.4735C11.2661 12.6065 11.2487 12.7487 11.1808 12.8689L10.9011 13.363C11.3474 13.2448 11.7655 13.0383 12.1306 12.7559C12.4958 12.4734 12.8007 12.1206 13.0273 11.7184C13.3427 11.1633 13.4979 10.5315 13.4755 9.89339C13.4731 9.82504 13.4842 9.75689 13.5081 9.69283C13.532 9.62876 13.5683 9.57003 13.615 9.52C13.6616 9.46996 13.7176 9.4296 13.7798 9.40122C13.842 9.37283 13.9092 9.35698 13.9776 9.35456C14.0459 9.35215 14.1141 9.36322 14.1781 9.38714C14.2422 9.41107 14.3009 9.44737 14.351 9.49399C14.401 9.54061 14.4414 9.59663 14.4698 9.65885C14.4981 9.72107 14.514 9.78827 14.5164 9.85661ZM7.88606 13.9916C7.15244 13.6019 6.54134 13.0163 6.12075 12.2999H6.12214C5.53016 11.2974 5.35006 10.1044 5.61974 8.97187L5.28458 9.16894C5.1656 9.23897 5.02368 9.25886 4.89003 9.22425C4.75638 9.18963 4.64196 9.10334 4.57193 8.98436C4.50191 8.86538 4.48201 8.72346 4.51663 8.58981C4.55125 8.45616 4.63753 8.34174 4.75651 8.27171L6.24982 7.39183C6.30873 7.35714 6.37389 7.3344 6.44159 7.3249C6.50929 7.3154 6.5782 7.31934 6.64438 7.33648C6.71056 7.35362 6.77271 7.38363 6.82729 7.4248C6.88187 7.46597 6.9278 7.51749 6.96247 7.57641L7.84165 9.06832C7.87689 9.12721 7.90014 9.19248 7.91005 9.26039C7.91997 9.32829 7.91635 9.39749 7.89942 9.46399C7.88249 9.53049 7.85257 9.59299 7.81139 9.64788C7.7702 9.70278 7.71857 9.74899 7.65946 9.78385C7.60035 9.81871 7.53493 9.84154 7.46697 9.85102C7.399 9.8605 7.32983 9.85644 7.26344 9.83908C7.19704 9.82172 7.13474 9.79141 7.08011 9.74988C7.02548 9.70834 6.9796 9.65642 6.94512 9.59709L6.65714 9.10788C6.53637 9.5534 6.50607 10.0186 6.56805 10.476C6.63002 10.9334 6.78301 11.3738 7.01798 11.7711C7.34099 12.3221 7.81063 12.7725 8.37458 13.0722C8.4965 13.137 8.5877 13.2475 8.62811 13.3796C8.66851 13.5116 8.65482 13.6543 8.59004 13.7762C8.52526 13.8981 8.4147 13.9893 8.28268 14.0297C8.15065 14.0701 8.00799 14.0564 7.88606 13.9916Z"
        fill="#574FC1" />
</svg>
