<svg
    width="22"
    height="22"
    viewBox="0 0 22 22"
    fill="none"
    xmlns="http://www.w3.org/2000/svg">
    <path
        d="M17.7857 9.64286C17.7857 7.48324 16.9278 5.41207 15.4007 3.88499C13.8736 2.35791 11.8025 1.5 9.64286 1.5M17.7857 9.64286H1.5M17.7857 9.64286C17.7857 10.5705 17.6272 11.4903 17.3181 12.3627M1.5 9.64286C1.5 10.7122 1.71062 11.7711 2.11984 12.759C2.52905 13.7469 3.12885 14.6446 3.88499 15.4007C4.64112 16.1569 5.53878 16.7567 6.52672 17.1659C7.51466 17.5751 8.57352 17.7857 9.64286 17.7857C9.21538 17.7857 8.79238 17.5744 8.39747 17.1657C8.00175 16.7561 7.64266 16.156 7.34058 15.4004C7.03768 14.644 6.79748 13.7475 6.63381 12.759C6.46682 11.7287 6.38403 10.6866 6.38628 9.64286C6.38628 8.57375 6.47015 7.51442 6.63381 6.52674C6.79748 5.53906 7.03768 4.64176 7.34058 3.88533C7.64266 3.1289 8.00175 2.52961 8.39666 2.12005C8.79238 1.71211 9.21538 1.5 9.64286 1.5M1.5 9.64286C1.5 7.48324 2.35791 5.41207 3.88499 3.88499C5.41207 2.35791 7.48324 1.5 9.64286 1.5M9.64286 1.5C10.0703 1.5 10.4942 1.7113 10.8891 2.12005C11.2848 2.52961 11.6439 3.12971 11.9459 3.88533C12.2488 4.64176 12.4891 5.53825 12.6519 6.52674C12.8164 7.51442 12.9002 8.57375 12.9002 9.64286C12.9002 10.571 12.8364 11.4918 12.7125 12.3648M13.9857 18.4643H11.8143M9.64286 15.4107H20.5M12.7125 12.3648C11.4824 12.3898 10.7669 12.4966 10.2791 12.9536C9.64286 13.5496 9.64286 14.5094 9.64286 16.4286C9.64286 18.3477 9.6434 19.3071 10.2791 19.9035C10.9148 20.5 11.9386 20.5 13.9857 20.5H16.1571C18.2043 20.5 19.2275 20.4995 19.8638 19.9035C20.5 19.3076 20.5 18.3477 20.5 16.4286C20.5 14.5094 20.4995 13.5501 19.8638 12.9536C19.3617 12.4825 18.6174 12.3835 17.3181 12.3627M12.7125 12.3648C13.0866 12.3572 13.5083 12.3571 13.9857 12.3571H16.1571C16.5873 12.3571 16.9723 12.3571 17.3181 12.3627"
        stroke="#574FC1"
        stroke-width="1.3"
        stroke-linecap="round" />
</svg>
