<svg
    width="20"
    height="20"
    viewBox="0 0 20 20"
    fill="none"
    xmlns="http://www.w3.org/2000/svg">
    <path
        fill-rule="evenodd"
        clip-rule="evenodd"
        d="M11.6152 1.35497C12.4122 0.772208 13.3889 0.471423 14.3846 0.50214L14.4431 0.500715C17.0037 0.500715 17.7462 3.08556 16.8605 4.77411H18.7692C18.963 4.77411 19.1489 4.84917 19.286 4.98279C19.423 5.1164 19.5 5.29762 19.5 5.48658V6.91152C19.5 7.10048 19.423 7.2817 19.286 7.41531C19.1489 7.54893 18.963 7.62399 18.7692 7.62399H1.23077C1.03696 7.62399 0.851083 7.54893 0.714037 7.41531C0.576992 7.2817 0.5 7.10048 0.5 6.91152V5.48658C0.5 5.29762 0.576992 5.1164 0.714037 4.98279C0.851083 4.84917 1.03696 4.77411 1.23077 4.77411H3.15708C2.305 3.05991 3.084 0.423768 5.61538 0.50214C6.61109 0.471423 7.58785 0.772208 8.38482 1.35497C9.18179 1.93772 9.75145 2.76771 10 3.70826C10.2486 2.76771 10.8182 1.93772 11.6152 1.35497ZM11.4615 4.77411H14.6521C16.4059 4.59457 16.1019 1.92708 14.3846 1.92708C13.6099 1.92708 12.8668 2.22694 12.3187 2.76078C11.7706 3.29462 11.4623 4.01877 11.4615 4.77411ZM5.31138 4.77411H8.53846C8.53769 4.01877 8.22938 3.29462 7.68128 2.76078C7.13318 2.22694 6.39013 1.92708 5.61538 1.92708C5.53368 1.92037 5.45155 1.92037 5.36985 1.92708C3.70954 2.07527 3.79869 4.60739 5.31138 4.77411Z"
        fill="#574FC1" />
    <path
        fill-rule="evenodd"
        clip-rule="evenodd"
        d="M1.96154 17.3626V9.05036H18.0385V17.3626C18.0385 17.9295 17.8075 18.4731 17.3964 18.874C16.9852 19.2748 16.4276 19.5 15.8462 19.5H4.15385C3.57241 19.5 3.01479 19.2748 2.60365 18.874C2.19251 18.4731 1.96154 17.9295 1.96154 17.3626ZM11.0241 15.9717C11.0241 16.3448 11.3281 16.65 11.6996 16.65C12.0711 16.65 12.375 16.3448 12.375 15.9717C12.375 15.5986 12.0711 15.2933 11.6996 15.2933H11.6928C11.3213 15.2933 11.0241 15.5986 11.0241 15.9717ZM8.32239 11.9017H8.31563C7.94414 11.9017 7.64695 12.2069 7.64695 12.58C7.64695 12.9531 7.9509 13.2584 8.32239 13.2584C8.69388 13.2584 8.99782 12.9531 8.99782 12.58C8.99782 12.2069 8.69388 11.9017 8.32239 11.9017ZM11.2065 12.0984L7.82932 15.4901H7.82256C7.55914 15.7546 7.55914 16.182 7.82256 16.4465C7.95765 16.5754 8.12651 16.6432 8.30212 16.6432C8.47774 16.6432 8.6466 16.5822 8.78168 16.4465L12.1589 13.0549C12.4223 12.7903 12.4223 12.363 12.1589 12.0984C11.8954 11.8339 11.4699 11.8339 11.2065 12.0984Z"
        fill="#574FC1" />
</svg>
