<svg
    width="18"
    height="20"
    viewBox="0 0 18 20"
    fill="none"
    xmlns="http://www.w3.org/2000/svg">
    <path
        d="M15.3645 5.69556L14.6575 4.99646C13.3184 3.67212 11.5477 2.86046 9.66031 2.70589C7.77291 2.55132 5.89125 3.06387 4.35014 4.15234C2.80904 5.24081 1.70842 6.8346 1.24414 8.65015C0.779847 10.4657 0.981994 12.3852 1.81461 14.0672C2.64723 15.7492 4.05631 17.0846 5.79115 17.8358C7.52599 18.5869 9.47407 18.7051 11.2888 18.1693C13.1035 17.6336 14.6671 16.4786 15.7014 14.9099C16.7358 13.3411 17.1738 11.4604 16.9375 9.60238M15.3645 5.69556L11.1215 5.69655M15.3645 5.69556V1.5"
        stroke="#574FC1"
        stroke-width="1.3"
        stroke-linecap="round"
        stroke-linejoin="round" />
</svg>
