<svg
    width="16"
    height="20"
    viewBox="0 0 16 20"
    fill="none"
    xmlns="http://www.w3.org/2000/svg">
    <path
        d="M10.625 16.3H5.375M12.1545 1.3402L12.081 1.4536C11.4195 2.4742 11.0887 2.9845 10.6057 3.2932C10.5095 3.355 10.41 3.4099 10.3074 3.4579C9.78938 3.7009 9.19263 3.7009 8 3.7009C6.80737 3.7009 6.2115 3.7009 5.6935 3.4579C5.5904 3.4097 5.49044 3.35468 5.39425 3.2932C4.91125 2.9845 4.5805 2.4742 3.919 1.4536L3.8455 1.3402M1 8.2C1 4.8061 1 3.1087 2.0255 2.0548C3.051 1.0009 4.70038 1 8 1C11.2996 1 12.9499 1 13.9745 2.0548C14.9991 3.1096 15 4.8061 15 8.2V11.8C15 15.1939 15 16.8913 13.9745 17.9452C12.949 18.9991 11.2996 19 8 19C4.70038 19 3.05012 19 2.0255 17.9452C1.00087 16.8904 1 15.1939 1 11.8V8.2Z"
        stroke="#574FC1"
        stroke-width="1.3"
        stroke-linecap="round" />
</svg>
