<svg
    width="22"
    height="22"
    viewBox="0 0 22 22"
    fill="none"
    xmlns="http://www.w3.org/2000/svg">
    <path
        d="M16.8045 5.5C16.8528 5.22418 16.8402 4.94113 16.7675 4.67071C16.6948 4.40029 16.5638 4.14906 16.3837 3.93464C16.2036 3.72023 15.9787 3.54784 15.7249 3.42956C15.4711 3.31129 15.1945 3.25 14.9145 3.25H5.08286C4.80284 3.25 4.52622 3.31129 4.2724 3.42956C4.01859 3.54784 3.79373 3.72023 3.61363 3.93464C3.43352 4.14906 3.30253 4.40029 3.22984 4.67071C3.15715 4.94113 3.14453 5.22418 3.19286 5.5M14.9487 3.25C14.9739 3.016 14.9874 2.8999 14.9874 2.8036C14.9883 2.35872 14.8245 1.92925 14.5275 1.59802C14.2305 1.26679 13.8214 1.05728 13.3791 1.0099C13.2837 1 13.1667 1 12.9327 1H7.06466C6.83066 1 6.71276 1 6.61736 1.0099C6.17501 1.05728 5.76588 1.26679 5.46889 1.59802C5.1719 1.92925 5.00809 2.35872 5.00906 2.8036C5.00906 2.8999 5.02166 3.0169 5.04776 3.25M12.3216 11.4544C12.8247 11.7658 12.8247 12.5722 12.3216 12.8836L9.28766 14.7646C8.79896 15.0679 8.19866 14.6746 8.19866 14.05V10.288C8.19866 9.6643 8.79896 9.271 9.28766 9.5734L12.3216 11.4544Z"
        stroke="#574FC1"
        stroke-width="1.3" />
    <path
        d="M1.3459 11.6137C0.943596 8.7661 0.742896 7.3432 1.5961 6.4207C2.4493 5.5 3.9685 5.5 7.0051 5.5H12.9955C16.0321 5.5 17.5513 5.5 18.4045 6.4216C19.2577 7.3432 19.0561 8.7661 18.6547 11.6137L18.2749 14.3137C17.9599 16.5457 17.8024 17.6626 16.9951 18.3313C16.1878 19 14.9971 19 12.6148 19H7.3858C5.0044 19 3.8128 19 3.0055 18.3313C2.1982 17.6626 2.0407 16.5466 1.7257 14.3137L1.3459 11.6137Z"
        stroke="#574FC1"
        stroke-width="1.3" />
</svg>
