<svg
    width="16"
    height="20"
    viewBox="0 0 16 20"
    fill="none"
    xmlns="http://www.w3.org/2000/svg">
    <path
        d="M4.26251 4.3427C4.26251 4.69494 4.54376 4.98315 4.88751 4.98315H11.1375C11.4813 4.98315 11.7625 4.69494 11.7625 4.3427C11.7625 3.99045 11.4813 3.70225 11.1375 3.70225H10.8125L11.7188 1.37742C11.7938 1.17888 11.775 0.954719 11.6563 0.781798C11.5375 0.608876 11.3438 0.5 11.1375 0.5H4.88751C4.68126 0.5 4.48751 0.602472 4.36876 0.781798C4.25001 0.961124 4.23126 1.17888 4.30626 1.37742L5.21251 3.70225H4.88751C4.54376 3.70225 4.26251 3.99045 4.26251 4.3427Z"
        fill="#574FC1" />
    <path
        fill-rule="evenodd"
        clip-rule="evenodd"
        d="M10.7188 6.05056L14.0938 9.93809H14.0813C15 10.9884 15.5 12.3462 15.5 13.7552C15.5 16.9254 12.9875 19.5 9.89375 19.5H6.10625C3.0125 19.5 0.5 16.9254 0.5 13.7552C0.5 12.3462 1.00625 10.9884 1.91875 9.93809L5.29375 6.05056H10.7188ZM7.32304 9.31909L7.45363 9.28728V9.13809C7.45363 9.0033 7.50904 8.87095 7.61258 8.77111C7.71656 8.67083 7.86022 8.61236 8.01251 8.61236C8.16481 8.61236 8.30847 8.67083 8.41245 8.77111C8.51599 8.87095 8.57139 9.0033 8.57139 9.13809V9.28728L8.70198 9.31909C9.71514 9.56582 10.5125 10.3203 10.5125 11.3217C10.5125 11.4565 10.4571 11.5889 10.3536 11.6887C10.2496 11.789 10.1059 11.8475 9.95363 11.8475C9.80133 11.8475 9.65767 11.789 9.55369 11.6887C9.45016 11.5889 9.39475 11.4565 9.39475 11.3217C9.39475 10.8302 8.86827 10.2881 8.01251 10.2881C7.15676 10.2881 6.63027 10.8302 6.63027 11.3217C6.63027 11.8131 7.15652 12.3563 8.01251 12.3563C8.65063 12.3563 9.28132 12.5701 9.74892 12.9402C10.2146 13.3087 10.5125 13.8259 10.5125 14.4423C10.5125 15.4438 9.71504 16.1991 8.70212 16.4449L8.57139 16.4766V16.6259C8.57139 16.7607 8.51599 16.8931 8.41245 16.9929C8.30847 17.0932 8.16481 17.1517 8.01251 17.1517C7.86022 17.1517 7.71655 17.0932 7.61258 16.9929C7.50904 16.8931 7.45363 16.7607 7.45363 16.6259V16.4766L7.32291 16.4449C6.30998 16.1991 5.51251 15.4438 5.51251 14.4423C5.51251 14.3075 5.56792 14.1752 5.67146 14.0753C5.77543 13.975 5.9191 13.9166 6.07139 13.9166C6.22369 13.9166 6.36735 13.975 6.47133 14.0753C6.57487 14.1752 6.63027 14.3075 6.63027 14.4423C6.63027 14.9339 7.15676 15.4759 8.01251 15.4759C8.86827 15.4759 9.39475 14.9339 9.39475 14.4423C9.39475 13.9509 8.86851 13.4078 8.01251 13.4078C7.37439 13.4078 6.7437 13.1939 6.27611 12.8239C5.81044 12.4553 5.51251 11.9382 5.51251 11.3217C5.51251 10.3203 6.30989 9.56582 7.32304 9.31909Z"
        fill="#574FC1" />
</svg>
