<svg
    width="18"
    height="18"
    viewBox="0 0 18 18"
    fill="none"
    xmlns="http://www.w3.org/2000/svg">
    <path
        d="M5.17505 0.666656C5.17505 0.489868 5.10388 0.320282 4.97729 0.195251C4.85071 0.0702515 4.67908 0 4.5 0C4.32092 0 4.14929 0.0702515 4.02271 0.195251C3.89612 0.320282 3.82495 0.489868 3.82495 0.666656V2.07111C2.52905 2.17334 1.67944 2.42401 1.05481 3.04178C0.429321 3.65866 0.175537 4.49866 0.0710449 5.77777H17.929C17.8245 4.49777 17.5707 3.65866 16.9452 3.04178C16.3206 2.42401 15.4701 2.17334 14.175 2.07022V0.666656C14.175 0.489868 14.1039 0.320282 13.9773 0.195251C13.8507 0.0702515 13.6791 0 13.5 0C13.3209 0 13.1493 0.0702515 13.0227 0.195251C12.8961 0.320282 12.825 0.489868 12.825 0.666656V2.01157C12.2264 2 11.5551 2 10.8 2H7.19995C6.81799 2 6.45752 2 6.11694 2.0015C5.7843 2.00296 5.47083 2.00586 5.17505 2.01157V0.666656Z"
        fill="#574FC1" />
    <path
        fill-rule="evenodd"
        clip-rule="evenodd"
        d="M18 9.11111V10.8889C18 14.2409 17.9991 15.9164 16.9452 16.9582C15.8914 18 14.1938 18 10.8 18H7.19995C3.80615 18 2.10962 17.9991 1.05481 16.9582C0 15.9173 0 14.2409 0 10.8889V9.11111C0 8.36533 0 7.70221 0.0117188 7.11111H17.9883C18 7.70221 18 8.36533 18 9.11111ZM11.5023 11.6166C11.725 11.4164 11.7362 11.081 11.5275 10.8675C11.3187 10.6539 10.969 10.6431 10.7464 10.8433L9.17466 12.2565C9.06323 12.3567 9.00001 12.4966 9 12.6431C8.99999 12.7896 9.06319 12.9295 9.1746 13.0297L10.7463 14.4434C10.9689 14.6436 11.3187 14.6328 11.5274 14.4193C11.7362 14.2058 11.725 13.8704 11.5024 13.6702L10.9498 13.1731H13.8754C14.1569 13.1731 14.4202 13.274 14.609 13.4438C14.7966 13.6125 14.8947 13.8337 14.8947 14.0565C14.8947 14.2794 14.7966 14.5006 14.609 14.6693C14.4202 14.8391 14.1569 14.94 13.8754 14.94H13.4821C13.1769 14.94 12.9295 15.1772 12.9295 15.47C12.9295 15.7627 13.1769 16 13.4821 16H13.8754C14.4278 16 14.9642 15.803 15.3649 15.4426C15.7669 15.0812 16 14.5834 16 14.0565C16 13.5297 15.7669 13.0319 15.3649 12.6705C14.9642 12.3101 14.4278 12.1131 13.8754 12.1131H10.9501L11.5023 11.6166Z"
        fill="#574FC1" />
</svg>
