<svg
    width="20"
    height="20"
    viewBox="0 0 20 20"
    fill="none"
    xmlns="http://www.w3.org/2000/svg">
    <path
        d="M7.43795 4.06722C8.57826 2.02241 9.14796 1 10.0003 1C10.8526 1 11.4223 2.02241 12.5626 4.06722L12.8578 4.59642C13.1818 5.17783 13.3438 5.46853 13.5958 5.66023C13.8478 5.85193 14.1628 5.92303 14.7928 6.06523L15.3652 6.19483C17.5792 6.69614 18.6853 6.94634 18.949 7.79324C19.2118 8.63925 18.4576 9.52215 16.9483 11.2871L16.5577 11.7434C16.1293 12.2447 15.9142 12.4958 15.8179 12.8054C15.7216 13.1159 15.754 13.4507 15.8188 14.1194L15.8782 14.7287C16.1059 17.084 16.2202 18.2612 15.5308 18.7841C14.8414 19.307 13.8046 18.83 11.7328 17.876L11.1955 17.6294C10.6069 17.3576 10.3126 17.2226 10.0003 17.2226C9.68797 17.2226 9.39367 17.3576 8.80506 17.6294L8.26866 17.876C6.19594 18.83 5.15914 19.307 4.47063 18.785C3.78033 18.2612 3.89463 17.084 4.12233 14.7287L4.18173 14.1203C4.24653 13.4507 4.27893 13.1159 4.18173 12.8063C4.08633 12.4958 3.87123 12.2447 3.44283 11.7443L3.05223 11.2871C1.54292 9.52305 0.78871 8.64015 1.05151 7.79324C1.31431 6.94634 2.42222 6.69524 4.63624 6.19483L5.20864 6.06523C5.83774 5.92303 6.15184 5.85193 6.40475 5.66023C6.65765 5.46853 6.81875 5.17783 7.14275 4.59642L7.43795 4.06722Z"
        stroke="#574FC1"
        stroke-width="1.3" />
</svg>
