<svg
    viewBox="0 0 18 18"
    fill="none"
    xmlns="http://www.w3.org/2000/svg">
    <defs>
        <linearGradient
            id="rocket-gradient"
            x1="0%"
            y1="0%"
            x2="100%"
            y2="100%">
            <stop
                offset="0%"
                style="stop-color: #4bedb8" />
            <stop
                offset="10.5%"
                style="stop-color: #20edbb" />
            <stop
                offset="20.5%"
                style="stop-color: #22e9c8" />
            <stop
                offset="30%"
                style="stop-color: #24e4d4" />
            <stop
                offset="39.5%"
                style="stop-color: #28e0e1" />
            <stop
                offset="50.5%"
                style="stop-color: #23d4e8" />
            <stop
                offset="59.5%"
                style="stop-color: #32c5f2" />
            <stop
                offset="70.5%"
                style="stop-color: #46adf7" />
            <stop
                offset="79.5%"
                style="stop-color: #549bff" />
            <stop
                offset="90%"
                style="stop-color: #6783ff" />
            <stop
                offset="100%"
                style="stop-color: #7b71ff" />
        </linearGradient>
    </defs>
    <path
        d="M2.81343 9.36761C3.22962 8.31208 3.72999 7.29653 4.31457 6.32096C4.89914 5.3454 5.55927 4.4258 6.29495 3.56219L5.04641 3.2983C4.72627 3.23433 4.41413 3.25032 4.11 3.34628C3.80587 3.44224 3.54175 3.60217 3.31765 3.82607L0.292335 6.84873C0.0522307 7.08862 -0.0399696 7.3765 0.0157346 7.71235C0.0714389 8.0482 0.259681 8.2801 0.580461 8.40804L2.81343 9.36761ZM16.9316 0.0117595C15.2349 -0.0682051 13.6223 0.25965 12.094 0.995324C10.5656 1.731 9.20086 2.69857 7.9997 3.89804C7.23136 4.6657 6.5549 5.49733 5.97033 6.39293C5.38576 7.28853 4.87801 8.23212 4.44711 9.22368C4.36707 9.43159 4.32705 9.64365 4.32705 9.85988C4.32705 10.0761 4.40709 10.2639 4.56716 10.4231L7.56847 13.4218C7.72854 13.5817 7.91678 13.6617 8.13319 13.6617C8.34961 13.6617 8.56154 13.6217 8.76899 13.5418C9.76142 13.11 10.7058 12.602 11.6022 12.018C12.4986 11.4339 13.331 10.7584 14.0993 9.99134C15.2998 8.79187 16.2683 7.42863 17.0046 5.90163C17.7409 4.37463 18.0687 2.76318 17.9881 1.06729C17.9881 0.939348 17.956 0.811405 17.892 0.683462C17.828 0.555518 17.7479 0.443568 17.6519 0.347611C17.5559 0.251653 17.4438 0.171689 17.3158 0.107717C17.1877 0.0437452 17.0596 0.0117595 16.9316 0.0117595ZM10.8329 7.16059C10.4648 6.79276 10.2807 6.34111 10.2807 5.80567C10.2807 5.27023 10.4648 4.81827 10.8329 4.44979C11.2011 4.08132 11.6534 3.8974 12.19 3.89804C12.7266 3.89868 13.1786 4.0826 13.5461 4.44979C13.9136 4.81699 14.0977 5.26895 14.0984 5.80567C14.099 6.34239 13.9149 6.79403 13.5461 7.16059C13.1773 7.52715 12.7253 7.71107 12.19 7.71235C11.6547 7.71363 11.2024 7.52971 10.8329 7.16059ZM8.62397 15.173L9.58439 17.4041C9.71244 17.7239 9.94454 17.9158 10.2807 17.9798C10.6168 18.0438 10.905 17.9558 11.1451 17.7159L14.1704 14.6933C14.3945 14.4694 14.5546 14.2016 14.6506 13.8901C14.7466 13.5785 14.7626 13.2625 14.6986 12.942L14.4585 11.6946C13.5781 12.4303 12.6539 13.0901 11.6858 13.6742C10.7177 14.2582 9.69708 14.7579 8.62397 15.173Z"
        fill="url(#rocket-gradient)" />
    <path
        d="M5.53397 14.0826C5.36213 14.0612 5.18838 14.1034 5.04542 14.2011C4.76161 14.3951 4.47648 14.587 4.18867 14.7739C3.60641 15.1522 2.91 14.4879 3.25598 13.8859L3.79561 12.9534C3.87276 12.8406 3.91575 12.7079 3.91935 12.5713C3.92295 12.4347 3.8871 12.2999 3.816 12.1832C3.74494 12.0664 3.64172 11.9727 3.51865 11.9131C3.39562 11.8536 3.25798 11.8307 3.1223 11.8474C2.52339 11.9231 1.96668 12.1959 1.53985 12.6226C1.37729 12.7856 0.882968 13.2802 0.61693 15.1651C0.541209 15.7064 0.493473 16.2514 0.473917 16.7977C0.471488 16.8925 0.488072 16.9868 0.522692 17.0752C0.557317 17.1635 0.609277 17.2439 0.675507 17.3119C0.741737 17.3797 0.8209 17.4337 0.908324 17.4705C0.995748 17.5074 1.08967 17.5264 1.18454 17.5263H1.2023C1.74919 17.507 2.29471 17.4595 2.83672 17.3842C4.72297 17.1178 5.21774 16.6232 5.3803 16.4607C5.8092 16.0338 6.08137 15.4746 6.15265 14.8738C6.17548 14.6869 6.12316 14.4985 6.00715 14.3502C5.89114 14.2018 5.72095 14.1056 5.53397 14.0826Z"
        fill="url(#rocket-gradient)" />
</svg>
