<svg
    width="20"
    height="16"
    viewBox="0 0 20 16"
    fill="none"
    xmlns="http://www.w3.org/2000/svg">
    <path
        d="M7.80488 0H11.7073C15.3863 0 17.2263 0 18.3688 1.172C19.1922 2.015 19.4224 3.229 19.4868 5.25H0.0253659C0.0897561 3.229 0.32 2.015 1.14341 1.172C2.28585 0 4.12585 0 7.80488 0Z"
        fill="#574FC1" />
    <path
        fill-rule="evenodd"
        clip-rule="evenodd"
        d="M7.80488 16H11.7073C12.3271 16 12.8946 16 13.4154 15.9943C12.858 15.3877 12.7181 14.5078 13.0275 13.7644C12.617 13.5281 12.2853 13.1465 12.1134 12.6605L11.5357 11.0272C11.1475 9.92975 11.7207 8.74338 12.7733 8.36374C13.2509 8.19144 13.7546 8.2115 14.1974 8.38815C14.8291 7.99663 15.5473 7.76164 16.2948 7.71056C17.3239 7.64022 18.3438 7.92292 19.1968 8.50994C19.3054 8.58465 19.4105 8.66374 19.5118 8.74691C19.5122 8.50649 19.5122 8.25764 19.5122 8C19.5122 7.55867 19.5115 7.142 19.5102 6.75H0.00195131C0.000650498 7.142 0 7.55867 0 8C0 11.771 0.000975539 13.656 1.14341 14.828C2.28585 16 4.12585 16 7.80488 16ZM3.17073 12.5C3.17073 12.3011 3.24782 12.1103 3.38504 11.9697C3.52227 11.829 3.70838 11.75 3.90244 11.75H7.80488C7.99894 11.75 8.18505 11.829 8.32227 11.9697C8.4595 12.1103 8.53659 12.3011 8.53659 12.5C8.53659 12.6989 8.4595 12.8897 8.32227 13.0303C8.18505 13.171 7.99894 13.25 7.80488 13.25H3.90244C3.70838 13.25 3.52227 13.171 3.38504 13.0303C3.24782 12.8897 3.17073 12.6989 3.17073 12.5Z"
        fill="#574FC1" />
    <path
        fill-rule="evenodd"
        clip-rule="evenodd"
        d="M18.4899 9.58926C17.869 9.16197 17.1272 8.95655 16.3792 9.00768C15.6312 9.05879 14.9231 9.3632 14.363 9.87003C14.2982 9.92871 14.2357 9.98972 14.1758 10.0529C14.0298 9.65358 13.5922 9.44648 13.1943 9.59002C12.7937 9.73451 12.5849 10.1796 12.728 10.5841L13.3057 12.2174C13.4321 12.5747 13.7953 12.7878 14.1653 12.7217L15.6883 12.4495C16.1071 12.3746 16.3866 11.971 16.3125 11.548C16.2456 11.1663 15.9136 10.8993 15.5416 10.9058C15.8196 10.7023 16.1454 10.5828 16.4832 10.5597C16.884 10.5323 17.2841 10.6419 17.6224 10.8747C17.9611 11.1078 18.2202 11.4525 18.3557 11.8586C18.4913 12.265 18.4943 12.707 18.3642 13.1154C18.2342 13.5236 17.9797 13.8721 17.644 14.1102C17.3087 14.348 16.91 14.4635 16.5089 14.4419C16.1077 14.4203 15.7217 14.2626 15.4108 13.9892C15.0901 13.707 14.6036 13.7409 14.3242 14.0648C14.0448 14.3887 14.0783 14.88 14.399 15.1621C14.966 15.6609 15.6784 15.955 16.427 15.9952C17.1757 16.0355 17.9144 15.8193 18.5294 15.3832C19.1439 14.9473 19.5996 14.3169 19.8306 13.5917C20.0615 12.8667 20.0562 12.0837 19.8155 11.3621C19.5747 10.6402 19.1104 10.0163 18.4899 9.58926Z"
        fill="#574FC1" />
</svg>
