<svg
    width="20"
    height="20"
    viewBox="0 0 20 20"
    fill="none"
    xmlns="http://www.w3.org/2000/svg">
    <path
        d="M1 3.9313C1 2.3122 2.4103 1 4.14999 1C5.88968 1 7.29998 2.3122 7.29998 3.9313C7.29998 5.53779 6.29468 7.41249 4.72599 8.08299C4.54378 8.16022 4.34789 8.20002 4.14999 8.20002C3.95209 8.20002 3.7562 8.16022 3.57399 8.08299C2.0053 7.41249 1 5.53779 1 3.9313ZM12.7 14.7313C12.7 13.1122 14.1103 11.8 15.85 11.8C17.5896 11.8 18.9999 13.1122 18.9999 14.7313C18.9999 16.3378 17.9946 18.2125 16.426 18.883C16.2437 18.9602 16.0479 19 15.85 19C15.652 19 15.4562 18.9602 15.274 18.883C13.7053 18.2125 12.7 16.3378 12.7 14.7313Z"
        stroke="#0B0A18"
        stroke-width="1.3" />
    <path
        d="M15.8496 14.9499H15.8577M4.14062 4.1499H4.14963"
        stroke="#0B0A18"
        stroke-width="2"
        stroke-linecap="round"
        stroke-linejoin="round" />
    <path
        d="M9.99866 3.0249C9.81964 3.0249 9.64795 3.09602 9.52136 3.2226C9.39478 3.34919 9.32366 3.52088 9.32366 3.6999C9.32366 3.87892 9.39478 4.05061 9.52136 4.1772C9.64795 4.30378 9.81964 4.3749 9.99866 4.3749V3.0249ZM9.99866 16.2999L10.4757 16.7769C10.6021 16.6503 10.6731 16.4788 10.6731 16.2999C10.6731 16.121 10.6021 15.9494 10.4757 15.8229L9.99866 16.2999ZM9.12656 14.4729C9.06433 14.4084 8.98987 14.3569 8.90753 14.3215C8.8252 14.2861 8.73663 14.2674 8.64701 14.2666C8.55738 14.2658 8.46849 14.2828 8.38552 14.3167C8.30255 14.3506 8.22716 14.4007 8.16376 14.4641C8.10035 14.5274 8.05019 14.6028 8.01621 14.6857C7.98224 14.7686 7.96512 14.8575 7.96585 14.9471C7.96659 15.0368 7.98517 15.1253 8.0205 15.2077C8.05584 15.2901 8.10723 15.3646 8.17167 15.4269L9.12656 14.4729ZM8.17167 17.1729C8.10535 17.2347 8.05216 17.3092 8.01526 17.392C7.97837 17.4748 7.95853 17.5642 7.95693 17.6548C7.95533 17.7454 7.97201 17.8355 8.00596 17.9195C8.0399 18.0036 8.09044 18.0799 8.15453 18.144C8.21863 18.2081 8.29498 18.2586 8.37903 18.2926C8.46308 18.3265 8.5531 18.3432 8.64373 18.3416C8.73437 18.34 8.82375 18.3202 8.90655 18.2833C8.98935 18.2464 9.06387 18.1932 9.12566 18.1269L8.17167 17.1729ZM13.7174 3.0249H9.99866V4.3749H13.7174V3.0249ZM9.99866 15.6249H6.27987V16.9749H9.99866V15.6249ZM14.3213 6.4494L4.95148 12.4119L5.67597 13.5504L15.0476 7.58789L14.3213 6.4494ZM10.4757 15.8229L9.12566 14.4729L8.17167 15.4269L9.52166 16.7769L10.4757 15.8229ZM9.52166 15.8229L8.17167 17.1729L9.12566 18.1269L10.4757 16.7769L9.52166 15.8229ZM6.27987 15.6249C5.15488 15.6249 4.72558 14.1552 5.67597 13.5504L4.95148 12.4119C2.86258 13.7412 3.80398 16.9749 6.27987 16.9749V15.6249ZM13.7174 4.3749C14.8424 4.3749 15.2708 5.8446 14.3213 6.4494L15.0458 7.58789C17.1356 6.2586 16.1933 3.0249 13.7174 3.0249V4.3749Z"
        fill="#0B0A18" />
</svg>
