<svg
    width="18"
    height="18"
    viewBox="0 0 18 18"
    fill="none"
    xmlns="http://www.w3.org/2000/svg">
    <path
        d="M7.2 18H10.8C14.1939 18 15.8913 18 16.9452 16.9461C17.9991 15.8922 18 14.193 18 10.8C18 7.407 18 5.7087 16.9452 4.6548C16.6194 4.3281 16.2306 4.1031 15.75 3.9474V6.4431C15.7527 6.7491 15.7581 7.263 15.5376 7.7328C15.318 8.2026 14.9202 8.5284 14.6826 8.7228C14.6586 8.7408 14.6367 8.7588 14.6169 8.7768L13.2606 9.9063C12.4866 10.5525 11.8116 11.1141 11.205 11.5047C10.5525 11.9241 9.846 12.2355 9 12.2355C8.154 12.2355 7.4484 11.9241 6.795 11.5047C6.1884 11.1141 5.5143 10.5525 4.7394 9.9072L3.3831 8.7768L3.3174 8.7228C3.0798 8.5284 2.6829 8.2026 2.4624 7.7328C2.2428 7.263 2.2464 6.7491 2.2491 6.4431L2.25 6.3567V3.9465C1.7694 4.1022 1.3806 4.3281 1.0548 4.6548C-1.07288e-07 5.7087 0 7.4061 0 10.8C0 14.1939 -1.07288e-07 15.8913 1.0548 16.9461C2.1096 18.0009 3.8061 18 7.2 18Z"
        fill="#574FC1" />
    <path
        fill-rule="evenodd"
        clip-rule="evenodd"
        d="M9.9 0C12.0222 0 13.082 0.000390208 13.7408 0.65918C14.3096 1.22883 14.3874 2.09776 14.3982 3.69141C14.3994 3.94221 14.4 4.212 14.4 4.5V6.35713C14.4 6.77171 14.4002 6.97872 14.3156 7.16045C14.2301 7.3413 14.0706 7.47433 13.7531 7.73877L12.4567 8.81894C10.8044 10.1968 9.97739 10.8853 9 10.8853C8.02306 10.8852 7.19503 10.1955 5.54326 8.81982L4.24775 7.73965C3.92848 7.47433 3.76982 7.34129 3.68525 7.16045C3.59981 6.97873 3.6 6.7708 3.6 6.35713V3.69141C3.61081 2.09777 3.69044 1.22883 4.25918 0.65918C4.91888 0.000381786 5.97871 0 8.1 0H9.9ZM9 2.7C8.72207 2.7 8.49545 2.89304 8.48584 3.13418C7.78539 3.29687 7.20017 3.78461 7.2 4.46221C7.2 5.30148 8.09748 5.85 9 5.85C9.51777 5.85 9.77168 6.14207 9.77168 6.33779C9.77143 6.53351 9.51751 6.82471 9 6.82471C8.48249 6.82471 8.22857 6.53351 8.22832 6.33779C8.22832 6.08926 7.99819 5.88779 7.71416 5.88779C7.43019 5.88785 7.2 6.0893 7.2 6.33779C7.20017 7.01539 7.78539 7.50313 8.48584 7.66582C8.49545 7.90696 8.72207 8.1 9 8.1C9.27793 8.1 9.50455 7.90696 9.51416 7.66582C10.2146 7.50313 10.7998 7.01539 10.8 6.33779C10.8 5.49851 9.90251 4.95 9 4.95C8.48223 4.95 8.22832 4.65793 8.22832 4.46221C8.22857 4.26649 8.48249 3.97529 9 3.97529C9.51751 3.97529 9.77143 4.26649 9.77168 4.46221C9.77168 4.71073 10.0018 4.91221 10.2858 4.91221C10.5698 4.91215 10.8 4.7107 10.8 4.46221C10.7998 3.78461 10.2146 3.29687 9.51416 3.13418C9.50455 2.89304 9.27793 2.7 9 2.7Z"
        fill="#574FC1" />
</svg>
