<svg
    width="20"
    height="20"
    viewBox="0 0 20 20"
    fill="none"
    xmlns="http://www.w3.org/2000/svg">
    <path
        d="M11.5254 4.05085C11.5254 4.89332 10.8425 5.57627 10 5.57627M11.5254 4.05085C11.5254 3.20838 10.8425 2.52542 10 2.52542M11.5254 4.05085H19M10 5.57627C9.15753 5.57627 8.47458 4.89332 8.47458 4.05085M10 5.57627V15.9492M8.47458 4.05085C8.47458 3.20838 9.15753 2.52542 10 2.52542M8.47458 4.05085H1M10 2.52542V1M1 10.1525L4.05085 4.05085L7.10169 10.1525M1 10.1525H7.10169M1 10.1525C1 11.8375 2.3659 13.2034 4.05085 13.2034C5.73579 13.2034 7.10169 11.8375 7.10169 10.1525M12.8983 10.1525L15.9492 4.05085L19 10.1525M12.8983 10.1525H19M12.8983 10.1525C12.8983 11.8375 14.2642 13.2034 15.9492 13.2034C17.6341 13.2034 19 11.8375 19 10.1525M10 15.9492L6.94915 19H13.0508L10 15.9492Z"
        stroke="#8D96AD"
        stroke-width="1.2"
        stroke-miterlimit="10"
        stroke-linecap="round"
        stroke-linejoin="round" />
</svg>
