<svg
    width="20"
    height="20"
    viewBox="0 0 20 20"
    fill="none"
    xmlns="http://www.w3.org/2000/svg">
    <path
        d="M7.17505 0.666656C7.17505 0.489868 7.10388 0.320282 6.97729 0.195251C6.85071 0.0702515 6.67908 0 6.5 0C6.32092 0 6.14929 0.0702515 6.02271 0.195251C5.89612 0.320282 5.82495 0.489868 5.82495 0.666656V2.07111C4.52905 2.17334 3.67944 2.42401 3.05481 3.04178C2.42932 3.65866 2.17554 4.49866 2.07104 5.77777H19.929C19.8245 4.49777 19.5707 3.65866 18.9452 3.04178C18.3206 2.42401 17.4701 2.17334 16.175 2.07022V0.666656C16.175 0.489868 16.1039 0.320282 15.9773 0.195251C15.8507 0.0702515 15.6791 0 15.5 0C15.3209 0 15.1493 0.0702515 15.0227 0.195251C14.8961 0.320282 14.825 0.489868 14.825 0.666656V2.01157C14.2264 2 13.5551 2 12.8 2H9.19995C8.81799 2 8.45752 2 8.11694 2.0015C7.7843 2.00296 7.47083 2.00586 7.17505 2.01157V0.666656Z"
        fill="#574FC1" />
    <path
        fill-rule="evenodd"
        clip-rule="evenodd"
        d="M20 10.8889V9.11111C20 8.36533 20 7.70221 19.9883 7.11111H2.01172C2 7.70221 2 8.36533 2 9.11111V9.46076C2.89239 8.97566 3.91451 8.69995 5.00001 8.69995C8.4748 8.69995 11.3 11.5252 11.3 15C11.3 16.0855 11.0243 17.1076 10.5392 18H12.8C16.1938 18 17.8914 18 18.9452 16.9582C19.9991 15.9164 20 14.2409 20 10.8889ZM15.5 9.5C15.6447 9.5 15.7834 9.5499 15.8857 9.63873C15.988 9.72757 16.0454 9.84805 16.0454 9.97369V9.98001C16.8374 10.1537 17.5 10.6956 17.5 11.4471C17.5 11.5728 17.4425 11.6933 17.3402 11.7821C17.2379 11.8709 17.0992 11.9208 16.9546 11.9208C16.8099 11.9208 16.6711 11.8709 16.5688 11.7821C16.5286 11.7472 16.4952 11.7073 16.4697 11.6642C16.4303 11.5977 16.4091 11.5234 16.4091 11.4471C16.4091 11.2046 16.0992 10.8686 15.5 10.8686C14.9008 10.8686 14.5909 11.2046 14.5909 11.4471C14.5909 11.6897 14.9008 12.0263 15.5 12.0263C16.5073 12.0263 17.5 12.6326 17.5 13.5529C17.5 14.3044 16.8374 14.847 16.0454 15.02V15.0263C16.0454 15.1519 15.988 15.2724 15.8857 15.3613C15.7834 15.4501 15.6447 15.5 15.5 15.5C15.3553 15.5 15.2166 15.4501 15.1143 15.3613C15.012 15.2724 14.9546 15.1519 14.9546 15.0263V15.02C14.1626 14.847 13.5 14.3044 13.5 13.5529C13.5 13.4272 13.5575 13.3067 13.6598 13.2179C13.7621 13.1291 13.9008 13.0792 14.0454 13.0792C14.1901 13.0792 14.3289 13.1291 14.4312 13.2179C14.5334 13.3067 14.5909 13.4272 14.5909 13.5529C14.5909 13.7954 14.9008 14.1314 15.5 14.1314C16.0992 14.1314 16.4091 13.7954 16.4091 13.5529C16.4091 13.3103 16.0992 12.9737 15.5 12.9737C14.4927 12.9737 13.5 12.3674 13.5 11.4471C13.5 10.6956 14.1626 10.1537 14.9546 9.98001V9.97369C14.9546 9.84805 15.012 9.72757 15.1143 9.63873C15.2166 9.5499 15.3553 9.5 15.5 9.5Z"
        fill="#574FC1" />
    <path
        fill-rule="evenodd"
        clip-rule="evenodd"
        d="M0 15C0 12.2432 2.24318 10 5 10C7.75682 10 10 12.2432 10 15C10 17.7568 7.75682 20 5 20C2.24318 20 0 17.7568 0 15ZM5.24452 13.0192C5.24452 12.7162 4.97838 12.4705 4.65008 12.4705C4.32179 12.4705 4.05565 12.7162 4.05565 13.0192V15.2704C4.05565 15.4196 4.12152 15.5625 4.23808 15.6659L5.82324 17.0728C6.0599 17.2828 6.4362 17.276 6.66374 17.0576C6.89128 16.8391 6.88389 16.4918 6.64724 16.2817L5.24452 15.0368V13.0192Z"
        fill="#574FC1" />
</svg>
