<svg
    width="20"
    height="20"
    viewBox="0 0 20 20"
    fill="none"
    xmlns="http://www.w3.org/2000/svg">
    <path
        fill-rule="evenodd"
        clip-rule="evenodd"
        d="M10.9261 17.1429H12.66C15.8842 17.1429 17.4959 17.142 18.4979 16.1383C19.5 15.1346 19.5 13.518 19.5 10.2857V9.91114C19.5 9.16286 19.5 8.60057 19.4632 8.14286H15.9988C15.0608 8.14286 14.2315 8.14286 13.5637 8.05286C12.8396 7.95514 12.1145 7.73057 11.5246 7.13914C10.9329 6.546 10.7097 5.82 10.6123 5.094C10.5225 4.42457 10.5225 3.59314 10.5225 2.65286L10.531 0.223714C10.531 0.152857 10.5367 0.0831428 10.5481 0.0145714C10.1985 0 9.78378 0 9.26565 0C6.02434 0 4.40412 0.000857058 3.40206 1.00457C2.4 2.00829 2.4 3.62486 2.4 6.85714V9.96263C3.24777 9.50063 4.21878 9.23805 5.25001 9.23805C8.55106 9.23805 11.235 11.9287 11.235 15.238C11.235 15.9036 11.1264 16.5442 10.9261 17.1429ZM15.5915 10.1321C15.4943 10.0475 15.3624 10 15.225 10C15.0876 10 14.9557 10.0475 14.8585 10.1321C14.7614 10.2167 14.7069 10.3315 14.7069 10.4511V10.4572C13.9545 10.6226 13.325 11.1387 13.325 11.8544C13.325 12.7308 14.268 13.3083 15.225 13.3083C15.7943 13.3083 16.0886 13.6289 16.0886 13.8599C16.0886 14.0908 15.7943 14.4108 15.225 14.4108C14.6557 14.4108 14.3614 14.0908 14.3614 13.8599C14.3614 13.7402 14.3068 13.6255 14.2096 13.5409C14.1124 13.4562 13.9806 13.4087 13.8431 13.4087C13.7057 13.4087 13.574 13.4562 13.4768 13.5409C13.3796 13.6255 13.325 13.7402 13.325 13.8599C13.325 14.5756 13.9545 15.0923 14.7069 15.2571V15.2631C14.7069 15.3828 14.7614 15.4976 14.8585 15.5822C14.9557 15.6668 15.0876 15.7143 15.225 15.7143C15.3624 15.7143 15.4943 15.6668 15.5915 15.5822C15.6886 15.4976 15.7431 15.3828 15.7431 15.2631V15.2571C16.4955 15.0923 17.125 14.5756 17.125 13.8599C17.125 12.9835 16.182 12.406 15.225 12.406C14.6557 12.406 14.3614 12.0854 14.3614 11.8544C14.3614 11.6234 14.6557 11.3034 15.225 11.3034C15.7943 11.3034 16.0886 11.6234 16.0886 11.8544C16.0886 11.927 16.1088 11.9978 16.1462 12.0612C16.1705 12.1022 16.2021 12.1402 16.2404 12.1734C16.3376 12.258 16.4694 12.3056 16.6069 12.3056C16.7443 12.3056 16.876 12.258 16.9732 12.1734C17.0704 12.0888 17.125 11.9741 17.125 11.8544C17.125 11.1387 16.4955 10.6226 15.7431 10.4572V10.4511C15.7431 10.3315 15.6886 10.2167 15.5915 10.1321Z"
        fill="#574FC1" />
    <path
        d="M13.8426 1.7537C12.884 0.888283 12.4036 0.454544 11.8127 0.228L11.805 2.57143C11.805 4.59171 11.805 5.60229 12.4309 6.22971C13.0567 6.85714 14.0648 6.85714 16.08 6.85714H19.1409C18.8325 6.25582 18.2795 5.75663 17.2468 4.82437L13.8426 1.7537Z"
        fill="#574FC1" />
    <path
        fill-rule="evenodd"
        clip-rule="evenodd"
        d="M5.25 10.4762C4.18252 10.4762 3.19611 10.8311 2.40202 11.4294C1.24787 12.299 0.5 13.6827 0.5 15.2381C0.5 17.8636 2.63102 20 5.25 20C7.19384 20 8.86887 18.8231 9.6033 17.1429C9.85838 16.5593 10 15.9149 10 15.2381C10 12.6125 7.86898 10.4762 5.25 10.4762ZM6.60965 17.1429C6.31246 17.1429 6.0693 16.898 6.0693 16.5988C6.0693 16.2996 6.30706 16.0548 6.60425 16.0548H6.60965C6.90684 16.0548 7.15 16.2996 7.15 16.5988C7.15 16.898 6.90684 17.1429 6.60965 17.1429ZM3.90251 13.3347H3.90791C4.2051 13.3347 4.44826 13.5795 4.44826 13.8787C4.44826 14.1779 4.2051 14.4227 3.90791 14.4227C3.61072 14.4227 3.36756 14.1779 3.36756 13.8787C3.36756 13.5795 3.60532 13.3347 3.90251 13.3347ZM3.51346 16.2126L6.2152 13.4925C6.42593 13.2803 6.76635 13.2803 6.97709 13.4925C7.18782 13.7046 7.18782 14.0474 6.97709 14.2595L4.27535 16.9797C4.16728 17.0885 4.03219 17.1374 3.8917 17.1374C3.75121 17.1374 3.61612 17.083 3.50805 16.9797C3.29732 16.7675 3.29732 16.4247 3.50805 16.2126H3.51346Z"
        fill="#574FC1" />
</svg>
