<svg
    width="20"
    height="16"
    viewBox="0 0 20 16"
    fill="none"
    xmlns="http://www.w3.org/2000/svg">
    <path
        d="M10 0C4.48217 0.0109955 0.0106346 4.68298 9.8137e-05 10.4482C-0.00552498 11.7629 0.230577 13.0581 0.6884 14.2658C1.08389 15.3091 2.04282 16 3.11681 16H16.8832C17.9572 16 18.9161 15.3091 19.3116 14.2658C19.7694 13.0581 20.0055 11.7629 19.9999 10.4482C19.9894 4.68298 15.5178 0.0109955 10 0ZM4.61477 13.0789C4.77477 13.422 4.63585 13.8378 4.30531 14.0027C4.30109 14.0071 4.2948 14.0094 4.29058 14.0116C4.20005 14.0555 4.10321 14.0797 4.00638 14.0819C3.74323 14.0819 3.50533 13.9214 3.39586 13.6728C2.93901 12.6654 2.70325 11.5634 2.70744 10.4482C2.71376 6.24251 5.97478 2.83531 10 2.8287C10.7516 2.8309 11.501 2.95188 12.2189 3.18064C12.5789 3.29722 12.781 3.69535 12.6715 4.06929C12.56 4.44541 12.181 4.65658 11.821 4.5422C11.8189 4.54001 11.8147 4.54001 11.8126 4.54001C11.2274 4.33984 10.6147 4.24085 10 4.24305C6.71372 4.24746 4.0548 7.03437 4.05901 10.4658C4.06112 11.3676 4.25057 12.2607 4.61477 13.0789ZM14.4505 6.30629L11.1642 9.94006C11.1789 10.0236 11.1895 10.1094 11.1915 10.1952C11.1915 10.9695 10.5137 11.5788 9.74317 11.4094C9.29264 11.3126 8.93052 10.9321 8.83579 10.4614C8.67579 9.65851 9.25895 8.95024 10 8.95024C10.0653 8.94583 10.1284 8.95463 10.1895 8.97883L13.4779 5.34506C13.7326 5.06351 14.1557 5.05031 14.4252 5.31647C14.5642 5.45504 14.6336 5.63982 14.6336 5.82458C14.6336 5.99615 14.5726 6.16992 14.4505 6.30629ZM16.6041 13.6728C16.4947 13.9214 16.2568 14.0819 15.9936 14.0819C15.8968 14.0797 15.8 14.0555 15.7094 14.0116C15.3768 13.8554 15.2273 13.444 15.3789 13.0943C15.381 13.0899 15.3831 13.0833 15.3852 13.0789C15.7515 12.254 15.941 11.3566 15.941 10.4482C15.9431 9.58152 15.7684 8.72367 15.4252 7.93181C15.2673 7.58207 15.4105 7.16415 15.7452 6.99698C16.0799 6.8298 16.4799 6.97938 16.6399 7.32912C16.642 7.33351 16.642 7.33571 16.6442 7.33791C17.0757 8.31234 17.2968 9.37476 17.2926 10.4482C17.2968 11.5634 17.061 12.6654 16.6041 13.6728Z"
        fill="#574FC1" />
</svg>
