<svg
    width="18"
    height="18"
    viewBox="0 0 18 18"
    fill="none"
    xmlns="http://www.w3.org/2000/svg">
    <path
        d="M6.43795 3.06722C7.57826 1.02241 8.14796 0 9.00027 0C9.85258 0 10.4223 1.02241 11.5626 3.06722L11.8578 3.59642C12.1818 4.17783 12.3438 4.46853 12.5958 4.66023C12.8478 4.85193 13.1628 4.92303 13.7928 5.06523L14.3652 5.19483C16.5792 5.69614 17.6853 5.94634 17.949 6.79324C18.2118 7.63925 17.4576 8.52215 15.9483 10.2871L15.5577 10.7434C15.1293 11.2447 14.9142 11.4958 14.8179 11.8054C14.7216 12.1159 14.754 12.4507 14.8188 13.1194L14.8782 13.7287C15.1059 16.084 15.2202 17.2612 14.5308 17.7841C13.8414 18.307 12.8046 17.83 10.7328 16.876L10.1955 16.6294C9.60687 16.3576 9.31257 16.2226 9.00027 16.2226C8.68797 16.2226 8.39367 16.3576 7.80506 16.6294L7.26866 16.876C5.19594 17.83 4.15914 18.307 3.47063 17.785C2.78033 17.2612 2.89463 16.084 3.12233 13.7287L3.18173 13.1203C3.24653 12.4507 3.27893 12.1159 3.18173 11.8063C3.08633 11.4958 2.87123 11.2447 2.44283 10.7443L2.05223 10.2871C0.542915 8.52306 -0.21129 7.64015 0.0515118 6.79324C0.314314 5.94634 1.42222 5.69524 3.63623 5.19483L4.20864 5.06523C4.83774 4.92303 5.15184 4.85193 5.40475 4.66023C5.65765 4.46853 5.81875 4.17783 6.14275 3.59642L6.43795 3.06722Z"
        fill="url(#paint0_linear_2635_28982)" />
    <defs>
        <linearGradient
            id="paint0_linear_2635_28982"
            x1="0"
            y1="0"
            x2="18"
            y2="18.0005"
            gradientUnits="userSpaceOnUse">
            <stop stop-color="#4BEDB8" />
            <stop
                offset="0.105"
                stop-color="#20EDBB" />
            <stop
                offset="0.205"
                stop-color="#22E9C8" />
            <stop
                offset="0.3"
                stop-color="#24E4D4" />
            <stop
                offset="0.395"
                stop-color="#28E0E1" />
            <stop
                offset="0.505"
                stop-color="#23D4E8" />
            <stop
                offset="0.595"
                stop-color="#32C5F2" />
            <stop
                offset="0.705"
                stop-color="#46ADF7" />
            <stop
                offset="0.795"
                stop-color="#549BFF" />
            <stop
                offset="0.9"
                stop-color="#6783FF" />
            <stop
                offset="1"
                stop-color="#7B71FF" />
        </linearGradient>
    </defs>
</svg>
