<svg
    width="18"
    height="18"
    viewBox="0 0 18 18"
    fill="none"
    xmlns="http://www.w3.org/2000/svg">
    <path
        fill-rule="evenodd"
        clip-rule="evenodd"
        d="M8.40787 1.72298C8.07801 2.15331 7.70629 2.81805 7.16545 3.78754L6.89169 4.27898L6.84229 4.36773C6.59113 4.81982 6.37764 5.20327 6.03522 5.4628C5.68945 5.72568 5.2675 5.82029 4.77689 5.9308L4.68145 5.95257L4.14898 6.07313C3.09828 6.31089 2.38247 6.47415 1.89354 6.66755C1.41549 6.85508 1.31502 7.00997 1.27651 7.13304C1.23549 7.26364 1.23465 7.46373 1.5193 7.9175C1.80982 8.37797 2.29958 8.95229 3.01456 9.78951L3.37791 10.214L3.4407 10.2868C3.7781 10.6803 4.0594 11.0085 4.18833 11.4237C4.31642 11.8365 4.27373 12.2693 4.22182 12.7951L4.21345 12.893L4.15819 13.4598C4.04935 14.575 3.97735 15.3436 4.00163 15.8961C4.02675 16.4487 4.14312 16.6011 4.23605 16.6714C4.3181 16.7342 4.47047 16.8028 4.96694 16.6605C5.47178 16.5165 6.14322 16.2092 7.12694 15.7563L7.62592 15.5269L7.71718 15.4851C8.17346 15.2732 8.56862 15.0907 9.00062 15.0907C9.43262 15.0907 9.82778 15.2732 10.2841 15.4842C10.3136 15.4987 10.3443 15.5127 10.3762 15.5261L10.8743 15.7563C11.858 16.2092 12.5295 16.5165 13.0343 16.6605C13.5308 16.8028 13.6831 16.7342 13.7652 16.6714C13.8581 16.6011 13.9745 16.4478 13.9996 15.8961C14.0247 15.3436 13.951 14.575 13.843 13.4598L13.7878 12.893L13.7794 12.7951C13.7275 12.2693 13.6848 11.8365 13.8129 11.4237C13.9418 11.0085 14.2231 10.6803 14.5605 10.2868L14.6233 10.214L14.9867 9.78951C15.7017 8.95229 16.1914 8.37797 16.4811 7.9175C16.7666 7.46373 16.7657 7.26448 16.7247 7.13304C16.6862 7.00997 16.5857 6.85508 16.1077 6.66755C15.6179 6.47415 14.903 6.31089 13.8523 6.07313L13.3198 5.95257L13.2243 5.9308C12.7337 5.82029 12.3118 5.72568 11.966 5.4628C11.6228 5.20327 11.4109 4.82066 11.1589 4.36773L11.1104 4.27898L10.8358 3.78754C10.2949 2.81805 9.92323 2.15331 9.59336 1.72298C9.2635 1.29265 9.09606 1.25582 9.00062 1.25582C8.90518 1.25582 8.7369 1.29265 8.40787 1.72298ZM7.41159 0.959443C7.80927 0.438698 8.30239 0 9.00062 0C9.69885 0 10.1911 0.438698 10.5905 0.959443C10.9823 1.47182 11.3984 2.21777 11.9066 3.12949L12.2071 3.66782C12.5353 4.25722 12.6199 4.3828 12.7254 4.46317C12.8258 4.53936 12.9573 4.58289 13.5961 4.72773L14.1821 4.86001C15.1667 5.08271 15.9779 5.26606 16.5682 5.4988C17.181 5.74075 17.7177 6.09657 17.9244 6.76048C18.1287 7.41769 17.8993 8.02215 17.5444 8.5856C17.1994 9.13397 16.6485 9.77862 15.9754 10.5656L15.5777 11.0303C15.1449 11.5359 15.0545 11.6598 15.0118 11.7963C14.9691 11.9361 14.9724 12.0977 15.0386 12.7716L15.098 13.3895C15.2002 14.441 15.283 15.2984 15.2537 15.9514C15.2244 16.617 15.0737 17.2549 14.5254 17.6718C13.9661 18.0955 13.3156 18.0486 12.6877 17.8678C12.079 17.6936 11.3205 17.3445 10.3996 16.92L9.85039 16.6672C9.24927 16.3909 9.12118 16.3465 9.00062 16.3465C8.88006 16.3465 8.75197 16.3909 8.15085 16.6672L7.60248 16.92C6.68071 17.3445 5.92219 17.6936 5.31354 17.8678C4.68564 18.0478 4.03512 18.0955 3.4767 17.6718C2.92749 17.2549 2.77679 16.617 2.74749 15.9522C2.71819 15.2992 2.80107 14.441 2.90321 13.3903L2.96349 12.7716C3.02879 12.0969 3.03214 11.9361 2.98861 11.7963C2.94675 11.6598 2.85633 11.5368 2.42349 11.0303L2.02582 10.5656C1.35354 9.77862 0.802651 9.13397 0.45772 8.58643C0.101906 8.02215 -0.12749 7.41769 0.0767894 6.76048C0.28358 6.09657 0.820233 5.74075 1.43307 5.4988C2.0233 5.26606 2.83456 5.08271 3.81912 4.86001L3.87187 4.84829L4.40433 4.72773C5.04396 4.58289 5.17457 4.53936 5.27587 4.46233C5.38136 4.3828 5.46591 4.25722 5.79494 3.66782L6.09466 3.12949C6.60285 2.21693 7.01894 1.47182 7.41076 0.959443"
        fill="#8D96AD" />
</svg>
