<svg
    width="18"
    height="18"
    viewBox="0 0 18 18"
    fill="none"
    xmlns="http://www.w3.org/2000/svg">
    <path
        d="M4.97729 0.195251C5.10388 0.320282 5.17505 0.489868 5.17505 0.666656V2.01157C5.47083 2.00586 5.7843 2.00296 6.11694 2.0015C6.45752 2 6.81799 2 7.19995 2H10.8C11.5551 2 12.2264 2 12.825 2.01157V0.666656C12.825 0.489868 12.8961 0.320282 13.0227 0.195251C13.1493 0.0702515 13.3209 0 13.5 0C13.6791 0 13.8507 0.0702515 13.9773 0.195251C14.1039 0.320282 14.175 0.489868 14.175 0.666656V2.07022C15.4701 2.17334 16.3206 2.42401 16.9452 3.04178C17.5707 3.65866 17.8245 4.49777 17.929 5.77777H0.0710449C0.175537 4.49866 0.429321 3.65866 1.05481 3.04178C1.67944 2.42401 2.52905 2.17334 3.82495 2.07111V0.666656C3.82495 0.489868 3.89612 0.320282 4.02271 0.195251C4.14929 0.0702515 4.32092 0 4.5 0C4.67908 0 4.85071 0.0702515 4.97729 0.195251Z"
        fill="#574FC1" />
    <path
        fill-rule="evenodd"
        clip-rule="evenodd"
        d="M18 9.11111V10.8889C18 14.2409 17.9991 15.9164 16.9452 16.9582C15.8914 18 14.1938 18 10.8 18H7.19995C3.80615 18 2.10962 17.9991 1.05481 16.9582C0 15.9173 0 14.2409 0 10.8889V9.11111C0 8.36533 0 7.70221 0.0117188 7.11111H17.9883C18 7.70221 18 8.36533 18 9.11111ZM12.2434 10.9236C12.5695 10.6137 12.5871 10.0933 12.2828 9.76127C11.9784 9.42922 11.4673 9.41127 11.1412 9.72119L7.84615 12.8526L6.8588 11.9143C6.53269 11.6044 6.02159 11.6223 5.71723 11.9544C5.41286 12.2864 5.43049 12.8068 5.75659 13.1167L7.29505 14.5788C7.60537 14.8737 8.08694 14.8737 8.39726 14.5788L12.2434 10.9236Z"
        fill="#574FC1" />
</svg>
