<svg
    width="20"
    height="20"
    viewBox="0 0 20 20"
    fill="none"
    xmlns="http://www.w3.org/2000/svg">
    <path
        fill-rule="evenodd"
        clip-rule="evenodd"
        d="M10.1885 8.15918C10.6239 8.20129 11.0336 8.38901 11.3457 8.69238C11.7024 9.03917 11.9033 9.50964 11.9033 10L11.8936 10.1836C11.8502 10.6066 11.6576 11.0044 11.3457 11.3076C10.9889 11.6544 10.5046 11.8496 10 11.8496C9.49542 11.8496 9.01109 11.6544 8.6543 11.3076C8.29765 10.9608 8.09668 10.4904 8.09668 10C8.09668 9.50964 8.29765 9.03917 8.6543 8.69238C9.01109 8.34557 9.49542 8.15039 10 8.15039L10.1885 8.15918ZM10 9.26953C9.80057 9.26953 9.6098 9.34635 9.46875 9.4834C9.32769 9.62051 9.24805 9.80609 9.24805 10C9.24805 10.1939 9.32769 10.3795 9.46875 10.5166C9.6098 10.6536 9.80057 10.7305 10 10.7305C10.1994 10.7305 10.3902 10.6536 10.5312 10.5166C10.6723 10.3795 10.752 10.1939 10.752 10L10.748 9.92773C10.7309 9.76038 10.6547 9.60336 10.5312 9.4834C10.4078 9.36349 10.2464 9.28907 10.0742 9.27246L10 9.26953Z"
        fill="#574FC1" />
    <path
        fill-rule="evenodd"
        clip-rule="evenodd"
        d="M10 2.61133C14.0807 2.61136 17.3887 5.91925 17.3887 10C17.3886 14.0807 14.0807 17.3886 10 17.3887C5.91925 17.3887 2.61136 14.0807 2.61133 10C2.61133 5.91923 5.91923 2.61133 10 2.61133ZM10 6C8.02635 6 6.66558 7.07996 5.8418 8.0498L5.68359 8.24219L5.65918 8.27246C5.48908 8.48714 5.31195 8.71138 5.19043 8.97852C5.05454 9.27743 5 9.5962 5 10C5 10.4034 5.05473 10.7217 5.19043 11.0205C5.31369 11.2918 5.4935 11.5196 5.66602 11.7373L5.68359 11.7588L5.8418 11.9502C6.66558 12.92 8.02635 14 10 14C12.1051 14 13.5137 12.7711 14.3164 11.7578L14.3408 11.7275C14.5109 11.5129 14.6881 11.2886 14.8096 11.0215C14.9455 10.7226 15 10.4038 15 10C15 9.59645 14.9454 9.2783 14.8096 8.97949C14.746 8.83958 14.6671 8.71108 14.582 8.58984L14.3164 8.24121L14.1582 8.0498C13.3344 7.07996 11.9736 6 10 6Z"
        fill="#574FC1" />
    <path
        fill-rule="evenodd"
        clip-rule="evenodd"
        d="M10 0.5C15.2467 0.5 19.5 4.75329 19.5 10C19.5 15.2467 15.2467 19.5 10 19.5C4.75329 19.5 0.5 15.2467 0.5 10C0.5 4.75329 4.75329 0.5 10 0.5ZM10 1.55566C5.33626 1.55566 1.55566 5.33626 1.55566 10C1.55566 14.6637 5.33626 18.4443 10 18.4443C14.6637 18.4443 18.4443 14.6637 18.4443 10C18.4443 5.33626 14.6637 1.55566 10 1.55566Z"
        fill="#574FC1" />
</svg>
