<svg
    width="16"
    height="16"
    viewBox="0 0 16 16"
    fill="none"
    xmlns="http://www.w3.org/2000/svg">
    <path
        d="M7.91667 11.3333C7.91667 11.6095 8.14052 11.8333 8.41667 11.8333C8.69281 11.8333 8.91667 11.6095 8.91667 11.3333H7.91667ZM8.295 6.99704L8.62846 6.62445L8.62591 6.62221L8.295 6.99704ZM7.58333 6.38889C7.30719 6.38889 7.08333 6.61275 7.08333 6.88889C7.08333 7.16503 7.30719 7.38889 7.58333 7.38889V6.38889ZM8.20833 4.16667C7.93219 4.16667 7.70833 4.39052 7.70833 4.66667C7.70833 4.94281 7.93219 5.16667 8.20833 5.16667V4.16667ZM8.21583 5.16667C8.49198 5.16667 8.71583 4.94281 8.71583 4.66667C8.71583 4.39052 8.49198 4.16667 8.21583 4.16667V5.16667ZM15 8C15 11.866 11.866 15 8 15V16C12.4183 16 16 12.4183 16 8H15ZM8 15C4.13401 15 1 11.866 1 8H0C0 12.4183 3.58172 16 8 16V15ZM1 8C1 4.13401 4.13401 1 8 1V0C3.58172 0 0 3.58172 0 8H1ZM8 1C11.866 1 15 4.13401 15 8H16C16 3.58172 12.4183 0 8 0V1ZM8.91667 11.3333V7.62963H7.91667V11.3333H8.91667ZM8.91667 7.62963C8.91667 7.47095 8.91799 7.2956 8.89588 7.14883C8.87063 6.98131 8.80658 6.78389 8.62845 6.62446L7.96155 7.36961C7.93919 7.3496 7.92168 7.3247 7.91118 7.3019C7.90259 7.28323 7.90393 7.27717 7.90704 7.29784C7.91026 7.31923 7.9133 7.35419 7.91497 7.41306C7.91663 7.47169 7.91667 7.54033 7.91667 7.62963H8.91667ZM8.62591 6.62221C8.45544 6.47171 8.25898 6.42488 8.0999 6.40592C7.94995 6.38805 7.76742 6.38889 7.58333 6.38889V7.38889C7.79258 7.38889 7.90463 7.38973 7.98156 7.39889C8.04935 7.40697 8.01206 7.41422 7.96409 7.37186L8.62591 6.62221ZM8.20833 5.16667H8.21583V4.16667H8.20833V5.16667Z"
        fill="#8D96AD" />
</svg>
