<svg
    width="22"
    height="22"
    viewBox="0 0 22 22"
    fill="none"
    xmlns="http://www.w3.org/2000/svg">
    <path
        fill-rule="evenodd"
        clip-rule="evenodd"
        d="M11.7458 0.745763C11.7458 0.333889 11.4119 0 11 0C10.5881 0 10.2542 0.333889 10.2542 0.745763V2.08195C8.15391 2.25751 6.17361 3.17038 4.67199 4.67199C3.17038 6.17361 2.25751 8.15391 2.08195 10.2542H0.745763C0.333889 10.2542 0 10.5881 0 11C0 11.4119 0.333889 11.7458 0.745763 11.7458H2.08195C2.25751 13.8461 3.17038 15.8264 4.67199 17.328C6.17361 18.8296 8.15391 19.7425 10.2542 19.918V21.2542C10.2542 21.6661 10.5881 22 11 22C11.4119 22 11.7458 21.6661 11.7458 21.2542V19.918C13.8461 19.7425 15.8264 18.8296 17.328 17.328C18.8296 15.8264 19.7425 13.8461 19.918 11.7458H21.2542C21.6661 11.7458 22 11.4119 22 11C22 10.5881 21.6661 10.2542 21.2542 10.2542H19.918C19.7425 8.15391 18.8296 6.17361 17.328 4.67199C15.8264 3.17038 13.8461 2.25751 11.7458 2.08195V0.745763ZM7.85918 11.9443L8.86092 12.3019V13.1377C8.86061 13.5592 9.01585 13.9659 9.29687 14.28C9.57789 14.594 9.96493 14.7933 10.3838 14.8396C10.8027 14.886 11.2239 14.776 11.5667 14.531C11.9096 14.2859 12.1499 13.9229 12.2417 13.5116L13.4214 13.9334C13.5827 13.9909 13.7555 14.0089 13.9253 13.9857C14.095 13.9625 14.2567 13.8989 14.3967 13.8002C14.5367 13.7016 14.651 13.5707 14.7299 13.4186C14.8088 13.2665 14.85 13.0977 14.85 12.9264V8.21941C14.85 8.048 14.8088 7.87909 14.7299 7.72693C14.6509 7.57477 14.5366 7.44382 14.3965 7.34511C14.2563 7.2464 14.0945 7.18282 13.9247 7.15974C13.7548 7.13666 13.5819 7.15475 13.4205 7.21248L7.85918 9.20154C7.43401 9.35382 7.15 9.75676 7.15 10.2093V10.9365C7.14982 11.1571 7.21787 11.3724 7.34484 11.5528C7.4718 11.7333 7.65146 11.87 7.85918 11.9443ZM11.4239 13.219C11.4042 13.4388 11.3003 13.6426 11.134 13.7876C10.9676 13.9326 10.7516 14.0078 10.5312 13.9973C10.3107 13.9868 10.1028 13.8915 9.95099 13.7313C9.79915 13.5711 9.71509 13.3584 9.71638 13.1377V12.6082L11.4239 13.219Z"
        fill="#574FC1" />
</svg>
