<svg
    width="24"
    height="24"
    viewBox="0 0 24 24"
    fill="none"
    xmlns="http://www.w3.org/2000/svg">
    <path
        d="M20.8 12C20.8 14.3339 19.8729 16.5722 18.2225 18.2225C16.5722 19.8729 14.3339 20.8 12 20.8M20.8 12C20.8 9.66609 19.8729 7.42778 18.2225 5.77746C16.5722 4.12714 14.3339 3.2 12 3.2M20.8 12H23M12 20.8C9.66609 20.8 7.42778 19.8729 5.77746 18.2225C4.12714 16.5722 3.2 14.3339 3.2 12M12 20.8V23M3.2 12C3.2 9.66609 4.12714 7.42778 5.77746 5.77746C7.42778 4.12714 9.66609 3.2 12 3.2M3.2 12H1M12 3.2V1M9.7108 14.0966L8.45437 13.7621C8.13172 13.6822 7.84535 13.4979 7.64073 13.2387C7.43612 12.9794 7.32499 12.66 7.325 12.3311L7.32559 10.9721C7.32568 10.6435 7.43678 10.3243 7.64127 10.0651C7.84576 9.80598 8.13192 9.62177 8.45436 9.54171L14.8192 7.64444C15.0393 7.58979 15.2691 7.58549 15.4911 7.63185C15.7132 7.67822 15.9216 7.77403 16.1005 7.91201C16.2794 8.04999 16.4242 8.2265 16.5237 8.4281C16.6233 8.62971 16.675 8.85111 16.675 9.07545V13.9501C16.675 14.1744 16.6233 14.3958 16.5237 14.5974C16.4242 14.799 16.2794 14.9755 16.1005 15.1135C15.9216 15.2515 15.7132 15.3473 15.4911 15.3937C15.2691 15.44 15.0393 15.4357 14.8192 15.3811L13.1783 14.9575M9.7108 14.0966C9.63739 14.3267 9.61175 14.5699 9.63663 14.81C9.66151 15.05 9.73577 15.2826 9.85487 15.4932C9.97396 15.7039 10.1354 15.8883 10.3292 16.035C10.523 16.1817 10.7451 16.2878 10.9818 16.3466C11.2186 16.4053 11.465 16.4157 11.706 16.3769C11.9469 16.3381 12.1773 16.251 12.3829 16.1209C12.5886 15.9909 12.7652 15.8207 12.9018 15.6207C13.0385 15.4207 13.133 15.1947 13.1783 14.9575M9.7108 14.0966L13.1783 14.9575"
        stroke="#574FC1"
        stroke-width="1.3"
        stroke-linecap="round" />
</svg>
