<svg
    width="20"
    height="20"
    viewBox="0 0 20 20"
    fill="none"
    xmlns="http://www.w3.org/2000/svg">
    <path
        fill-rule="evenodd"
        clip-rule="evenodd"
        d="M19.7888 19.7881C19.9242 19.6525 20.0003 19.4687 20.0003 19.2771C20.0003 19.0854 19.9242 18.9016 19.7888 18.7661L16.1228 15.1001C17.6585 13.3002 18.438 10.9759 18.2979 8.61403C18.1578 6.2522 17.109 4.03627 15.3712 2.43064C13.6335 0.825017 11.3417 -0.0456704 8.97616 0.00105549C6.61064 0.0477812 4.35502 1.00829 2.68203 2.68129C1.00903 4.35429 0.0485137 6.60991 0.00178791 8.97543C-0.044938 11.3409 0.825749 13.6327 2.43138 15.3705C4.037 17.1083 6.25293 18.1571 8.61476 18.2972C10.9766 18.4373 13.301 17.6578 15.1008 16.1221L18.7668 19.7881C18.9024 19.9235 19.0861 19.9996 19.2778 19.9996C19.4694 19.9996 19.6532 19.9235 19.7888 19.7881ZM11.3971 8.15907C11.0017 8.15907 10.6809 7.85466 10.6809 7.47957C10.6809 7.29935 10.7563 7.12652 10.8906 6.99908C11.025 6.87165 11.2071 6.80006 11.3971 6.80006H13.7845C13.9745 6.80006 14.1566 6.87165 14.291 6.99908C14.4253 7.12652 14.5007 7.29935 14.5007 7.47957V9.74459C14.5007 9.92481 14.4253 10.0976 14.291 10.2251C14.1566 10.3525 13.9745 10.4241 13.7845 10.4241C13.5946 10.4241 13.4124 10.3525 13.2781 10.2251C13.1437 10.0976 13.0683 9.92481 13.0683 9.74459V9.12035L11.1459 10.9432C10.8326 11.2403 10.4077 11.4072 9.96463 11.4072C9.52161 11.4072 9.09671 11.2403 8.78334 10.9432L7.26876 9.50631C7.24658 9.48522 7.22024 9.46848 7.19123 9.45706C7.16223 9.44564 7.13113 9.43977 7.09973 9.43977C7.06833 9.43977 7.03723 9.44564 7.00823 9.45706C6.97922 9.46848 6.95288 9.48522 6.9307 9.50631L4.74096 11.5838C4.67539 11.6505 4.59632 11.7041 4.50846 11.7412C4.4206 11.7784 4.32576 11.7983 4.22959 11.8C4.13343 11.8016 4.0379 11.7848 3.94872 11.7506C3.85954 11.7164 3.77852 11.6656 3.71051 11.601C3.6425 11.5365 3.58888 11.4597 3.55286 11.375C3.51684 11.2904 3.49915 11.1998 3.50084 11.1086C3.50254 11.0173 3.52359 10.9274 3.56274 10.844C3.60188 10.7606 3.65832 10.6856 3.72869 10.6234L5.91843 8.54594C6.23181 8.24884 6.65671 8.08195 7.09973 8.08195C7.54275 8.08195 7.96765 8.24884 8.28102 8.54594L9.7956 9.98287C9.81778 10.004 9.84413 10.0207 9.87313 10.0321C9.90214 10.0435 9.93323 10.0494 9.96463 10.0494C9.99604 10.0494 10.0271 10.0435 10.0561 10.0321C10.0851 10.0207 10.1115 10.004 10.1337 9.98287L12.056 8.15907H11.3971Z"
        fill="#574FC1" />
</svg>
