<svg
    width="20"
    height="16"
    viewBox="0 0 20 16"
    fill="none"
    xmlns="http://www.w3.org/2000/svg">
    <path
        d="M7.7039 0H11.5558C15.1873 0 17.0035 -1.13872e-07 18.1311 1.11952C18.9439 1.92478 19.1712 3.08442 19.2347 5.01493H0.0250377C0.0885948 3.08442 0.31586 1.92478 1.12862 1.11952C2.25628 -1.13872e-07 4.07247 0 7.7039 0Z"
        fill="#574FC1" />
    <path
        fill-rule="evenodd"
        clip-rule="evenodd"
        d="M19.2597 8.42316L18.8659 8.03248C18.6647 7.8329 18.4258 7.67458 18.1629 7.56657C17.9001 7.45856 17.6183 7.40297 17.3338 7.40297C17.0492 7.40297 16.7675 7.45856 16.5046 7.56657C16.2417 7.67458 16.0029 7.8329 15.8017 8.03248L15.0303 8.79761C14.8517 8.32642 14.5121 7.93233 14.0707 7.68399C13.6293 7.43564 13.114 7.3488 12.6146 7.43859C12.1153 7.52838 11.6635 7.78911 11.3381 8.17535C11.0126 8.56159 10.8341 9.04885 10.8336 9.55224V11.2373C10.4281 11.2822 10.0437 11.4399 9.72455 11.692C9.4054 11.9441 9.1645 12.2805 9.02958 12.6625C8.89465 13.0444 8.87119 13.4564 8.96189 13.851C9.05258 14.2455 9.25375 14.6067 9.54224 14.8929L9.9361 15.2836H7.7039C4.07247 15.2836 2.25628 15.2836 1.12862 14.1641C0.000962917 13.0445 0 11.2439 0 7.64179C0 7.22022 0.000642081 6.82221 0.00192606 6.44776H19.2578C19.2591 6.82221 19.2597 7.22022 19.2597 7.64179V8.42316ZM3.85195 10.7463C3.6604 10.7463 3.47669 10.8217 3.34125 10.9561C3.2058 11.0905 3.12971 11.2727 3.12971 11.4627C3.12971 11.6527 3.2058 11.8349 3.34125 11.9693C3.47669 12.1036 3.6604 12.1791 3.85195 12.1791H7.7039C7.89545 12.1791 8.07915 12.1036 8.2146 11.9693C8.35005 11.8349 8.42614 11.6527 8.42614 11.4627C8.42614 11.2727 8.35005 11.0905 8.2146 10.9561C8.07915 10.8217 7.89545 10.7463 7.7039 10.7463H3.85195Z"
        fill="#574FC1" />
    <path
        fill-rule="evenodd"
        clip-rule="evenodd"
        d="M13.0003 8.83582C13.1919 8.83582 13.3756 8.9113 13.511 9.04566C13.6465 9.18001 13.7226 9.36223 13.7226 9.55224V13.5546L14.4159 12.8669C14.482 12.7965 14.5618 12.74 14.6504 12.7009C14.739 12.6617 14.8346 12.6407 14.9316 12.639C15.0286 12.6373 15.1249 12.655 15.2148 12.691C15.3047 12.727 15.3864 12.7807 15.455 12.8487C15.5236 12.9167 15.5777 12.9977 15.614 13.087C15.6503 13.1762 15.6682 13.2717 15.6664 13.3679C15.6647 13.4641 15.6435 13.559 15.604 13.6468C15.5646 13.7347 15.5076 13.8138 15.4367 13.8794L13.5107 15.7899C13.3753 15.924 13.1917 15.9994 13.0003 15.9994C12.8089 15.9994 12.6254 15.924 12.4899 15.7899L10.564 13.8794C10.493 13.8138 10.4361 13.7347 10.3966 13.6468C10.3571 13.559 10.3359 13.4641 10.3342 13.3679C10.3325 13.2717 10.3503 13.1762 10.3867 13.087C10.423 12.9977 10.4771 12.9167 10.5456 12.8487C10.6142 12.7807 10.6959 12.727 10.7858 12.691C10.8758 12.655 10.9721 12.6373 11.0691 12.639C11.1661 12.6407 11.2617 12.6617 11.3503 12.7009C11.4389 12.74 11.5186 12.7965 11.5847 12.8669L12.2781 13.5546V9.55224C12.2781 9.36223 12.3542 9.18001 12.4896 9.04566C12.6251 8.9113 12.8088 8.83582 13.0003 8.83582ZM16.8234 9.04597C16.9588 8.91181 17.1424 8.83645 17.3338 8.83645C17.5252 8.83645 17.7087 8.91181 17.8442 9.04597L19.7701 10.9564C19.8411 11.022 19.898 11.1011 19.9375 11.189C19.977 11.2769 19.9982 11.3717 19.9999 11.4679C20.0016 11.5641 19.9838 11.6597 19.9474 11.7489C19.9111 11.8381 19.857 11.9191 19.7885 11.9871C19.7199 12.0552 19.6382 12.1088 19.5483 12.1448C19.4583 12.1809 19.362 12.1986 19.265 12.1969C19.168 12.1952 19.0724 12.1741 18.9838 12.135C18.8952 12.0958 18.8155 12.0393 18.7494 11.969L18.056 11.2812V15.2836C18.056 15.4736 17.9799 15.6558 17.8445 15.7902C17.709 15.9245 17.5253 16 17.3338 16C17.1422 16 16.9585 15.9245 16.8231 15.7902C16.6876 15.6558 16.6115 15.4736 16.6115 15.2836V11.2812L15.9182 11.969C15.8521 12.0393 15.7723 12.0958 15.6837 12.135C15.5951 12.1741 15.4995 12.1952 15.4025 12.1969C15.3055 12.1986 15.2092 12.1809 15.1193 12.1448C15.0294 12.1088 14.9477 12.0552 14.8791 11.9871C14.8105 11.9191 14.7564 11.8381 14.7201 11.7489C14.6838 11.6597 14.6659 11.5641 14.6677 11.4679C14.6694 11.3717 14.6906 11.2769 14.7301 11.189C14.7695 11.1011 14.8265 11.022 14.8974 10.9564L16.8234 9.04597Z"
        fill="#574FC1" />
</svg>
