<svg
    width="14"
    height="18"
    viewBox="0 0 14 18"
    fill="none"
    xmlns="http://www.w3.org/2000/svg">
    <path
        fill-rule="evenodd"
        clip-rule="evenodd"
        d="M0.683766 1.17C1.24277 0 3.16216 0 7 0C10.8378 0 12.7572 0 13.3162 1.17C13.3645 1.2696 13.4048 1.3734 13.4369 1.4814C13.8177 2.7297 12.4601 4.1769 9.74675 7.0704L7.92859 9L9.74675 10.9287C12.4601 13.8231 13.8167 15.2703 13.4369 16.5177C13.4048 16.6249 13.3644 16.7295 13.3162 16.8309C12.7572 18 10.8378 18 7 18C3.16216 18 1.24277 18 0.683766 16.83C0.635655 16.7292 0.595306 16.6251 0.56305 16.5186C0.18233 15.2703 1.53992 13.8231 4.25325 10.9296L6.07142 9L4.25325 7.0713C1.53992 4.176 0.184187 2.7297 0.56305 1.4823C0.595241 1.3743 0.63548 1.2708 0.683766 1.17ZM5.14283 14.175C4.95812 14.175 4.78098 14.2461 4.65037 14.3727C4.51977 14.4993 4.44639 14.671 4.44639 14.85C4.44639 15.029 4.51977 15.2007 4.65037 15.3273C4.78098 15.4539 4.95812 15.525 5.14283 15.525H8.85717C9.04188 15.525 9.21902 15.4539 9.34963 15.3273C9.48023 15.2007 9.55361 15.029 9.55361 14.85C9.55361 14.671 9.48023 14.4993 9.34963 14.3727C9.21902 14.2461 9.04188 14.175 8.85717 14.175H5.14283ZM4.44639 3.15C4.44639 2.97098 4.51977 2.79929 4.65037 2.6727C4.78098 2.54612 4.95812 2.475 5.14283 2.475H8.85717C9.04188 2.475 9.21902 2.54612 9.34963 2.6727C9.48023 2.79929 9.55361 2.97098 9.55361 3.15C9.55361 3.32902 9.48023 3.50071 9.34963 3.6273C9.21902 3.75388 9.04188 3.825 8.85717 3.825H5.14283C4.95812 3.825 4.78098 3.75388 4.65037 3.6273C4.51977 3.50071 4.44639 3.32902 4.44639 3.15Z"
        fill="#574FC1" />
</svg>
