<svg
    width="20"
    height="20"
    viewBox="0 0 20 20"
    fill="none"
    xmlns="http://www.w3.org/2000/svg">
    <path
        d="M15.2474 11.7312V15.9656H18.9949V11.7312C18.9949 11.4074 18.7324 11.1453 18.409 11.1453H15.8333C15.5095 11.1453 15.2474 11.4074 15.2474 11.7312Z"
        fill="#574FC1" />
    <path
        d="M11.0964 15.9656H13.5261V8.86369C13.5261 8.54026 13.2636 8.27776 12.9402 8.27776H10.1277C9.80423 8.27776 9.54173 8.54026 9.54173 8.86369V10.8254C10.5534 11.925 11.1718 13.3918 11.1718 15C11.1718 15.3285 11.146 15.6512 11.0964 15.9656Z"
        fill="#574FC1" />
    <path
        d="M7.6711 9.43635V3.39495C7.6711 3.07151 7.4086 2.80901 7.08517 2.80901H4.27267C3.94923 2.80901 3.68673 3.07151 3.68673 3.39495V8.96877C4.10977 8.87659 4.54923 8.82815 5.00001 8.82815C5.95626 8.82815 6.86251 9.0469 7.6711 9.43635Z"
        fill="#574FC1" />
    <path
        d="M2.47182 0.585988C2.47182 0.262551 2.20932 5.08521e-05 1.88589 5.08521e-05C1.56245 5.08521e-05 1.29995 0.262551 1.29995 0.585988V10.0633C1.66167 9.79145 2.05463 9.55824 2.47182 9.36996V0.585988Z"
        fill="#574FC1" />
    <path
        fill-rule="evenodd"
        clip-rule="evenodd"
        d="M0 15C0 12.243 2.24297 10 5 10C7.75703 10 10 12.243 10 15C10 17.757 7.75703 20 5 20C2.24297 20 0 17.757 0 15ZM2.91667 13.8426C2.91667 13.0058 3.59419 12.4033 4.40513 12.2025C4.41625 11.9048 4.67833 11.6667 5 11.6667C5.32168 11.6667 5.58375 11.9048 5.59487 12.2025C6.40581 12.4033 7.08334 13.0058 7.08334 13.8426C7.08334 14.1494 6.81684 14.3981 6.4881 14.3981C6.15936 14.3981 5.89286 14.1494 5.89286 13.8426C5.89286 13.6009 5.59927 13.2407 5 13.2407C4.40073 13.2407 4.10714 13.6009 4.10714 13.8426C4.10714 14.0842 4.40073 14.4444 5 14.4444C6.04458 14.4444 7.08334 15.1212 7.08334 16.1574C7.08334 16.9942 6.40581 17.5966 5.59487 17.7975C5.58375 18.0952 5.32167 18.3333 5 18.3333C4.67833 18.3333 4.41625 18.0952 4.40513 17.7975C3.59419 17.5966 2.91667 16.9942 2.91667 16.1574C2.91667 15.8506 3.18316 15.6018 3.51191 15.6018C3.84065 15.6018 4.10714 15.8506 4.10714 16.1574C4.10714 16.399 4.40073 16.7592 5 16.7592C5.59927 16.7592 5.89286 16.399 5.89286 16.1574C5.89286 15.9158 5.59927 15.5555 5 15.5555C3.95542 15.5555 2.91667 14.8787 2.91667 13.8426Z"
        fill="#574FC1" />
    <path
        d="M19.4141 17.1375H10.7902C10.6371 17.5508 10.4414 17.943 10.2074 18.3094H19.4141C19.7375 18.3094 20 18.0469 20 17.7234C20 17.4 19.7375 17.1375 19.4141 17.1375Z"
        fill="#574FC1" />
    <path
        d="M15.6164 2.80083L16.4168 2.00044L16.4168 7.54261C16.4168 7.86604 16.6789 8.12854 17.0027 8.12854C17.3261 8.12854 17.5886 7.86604 17.5886 7.54261L17.5887 2.00044L18.389 2.80083C18.6182 3.03005 18.9886 3.02985 19.2176 2.80083C19.4465 2.57231 19.4465 2.20122 19.2176 1.97231L17.4168 0.171533C17.188 -0.0572558 16.817 -0.0570995 16.5883 0.171533L14.7875 1.97231C14.559 2.20122 14.559 2.57231 14.7875 2.80083C15.0032 3.01649 15.392 3.02516 15.6164 2.80083Z"
        fill="#574FC1" />
</svg>
