<svg
    width="20"
    height="20"
    viewBox="0 0 20 20"
    fill="none"
    xmlns="http://www.w3.org/2000/svg">
    <path
        d="M9.1063 18.1H7.8445C4.618 18.1 3.0052 18.1 2.0026 17.0785C1 16.057 1 14.4127 1 11.125C1 7.83732 1 6.19302 2.0026 5.17152C3.0052 4.15002 4.618 4.15002 7.8445 4.15002H11.2672C14.4937 4.15002 16.1074 4.15002 17.11 5.17152C17.8813 5.95722 18.0586 7.11192 18.1 9.10002"
        stroke="#574FC1"
        stroke-width="1.3"
        stroke-linecap="round"
        stroke-linejoin="round" />
    <path
        d="M17.2153 17.2207L19 19M13.6 4.15L13.51 3.871C13.0645 2.485 12.8422 1.792 12.3121 1.396C11.7811 1 11.0773 1 9.667 1H9.4303C8.0218 1 7.3171 1 6.787 1.396C6.256 1.792 6.0337 2.485 5.5882 3.871L5.5 4.15M18.1477 14.9734C18.1548 14.5521 18.0779 14.1336 17.9216 13.7423C17.7653 13.351 17.5327 12.9948 17.2372 12.6944C16.9418 12.3939 16.5895 12.1553 16.2009 11.9924C15.8123 11.8295 15.3952 11.7457 14.9739 11.7457C14.5525 11.7457 14.1354 11.8295 13.7468 11.9924C13.3582 12.1553 13.0059 12.3939 12.7105 12.6944C12.415 12.9948 12.1824 13.351 12.0261 13.7423C11.8698 14.1336 11.7929 14.5521 11.8 14.9734C11.814 15.8059 12.1546 16.5996 12.7483 17.1833C13.3419 17.7671 14.1412 18.0943 14.9739 18.0943C15.8065 18.0943 16.6058 17.7671 17.1994 17.1833C17.7931 16.5996 18.1337 15.8059 18.1477 14.9734Z"
        stroke="#574FC1"
        stroke-width="1.3"
        stroke-linecap="round"
        stroke-linejoin="round" />
</svg>
