<svg
    width="20"
    height="20"
    viewBox="0 0 20 20"
    fill="none"
    xmlns="http://www.w3.org/2000/svg">
    <path
        d="M7.83328 2.07979L7.412 1.58479L7.41027 1.58627L7.83328 2.07979ZM8.94667 1.23889L8.66626 0.652484L8.66559 0.652806L8.94667 1.23889ZM10 1V0.35V1ZM11.0533 1.23889L10.7729 1.8253L10.7746 1.82612L11.0533 1.23889ZM12.1667 2.07979L11.7445 2.57399L11.7448 2.57424L12.1667 2.07979ZM12.613 2.43822L12.9749 1.89827L12.9736 1.89739L12.613 2.43822ZM13.4999 2.80545L13.6265 2.1679L13.6256 2.16774L13.4999 2.80545ZM14.0683 2.86795L14.0154 3.5158L14.0174 3.51596L14.0683 2.86795ZM15.4512 3.06036L15.2344 3.67312L15.2349 3.67331L15.4512 3.06036ZM16.9406 4.54878L17.5536 4.33255L17.5534 4.33207L16.9406 4.54878ZM17.133 5.93173L17.781 5.88104L17.781 5.87993L17.133 5.93173ZM17.1946 6.50112L16.5568 6.62687L16.5569 6.62708L17.1946 6.50112ZM17.5618 7.38695L18.1026 7.0264L18.1014 7.02458L17.5618 7.38695ZM17.9202 7.83328L17.4247 8.25394L17.4252 8.25456L17.9202 7.83328ZM18.7621 8.94667L19.3485 8.66626L19.3482 8.66559L18.7621 8.94667ZM19.001 10H18.351H19.001ZM18.7621 11.0533L18.1757 10.7729L18.1752 10.7739L18.7621 11.0533ZM17.9202 12.1667L18.4023 12.6027L18.4086 12.5957L18.4148 12.5885L17.9202 12.1667ZM17.5618 12.613L17.032 12.2365L17.0268 12.2437L17.0219 12.2511L17.5618 12.613ZM17.1946 13.4989L16.5569 13.3727L16.5568 13.3731L17.1946 13.4989ZM17.133 14.0683L17.781 14.1201L17.781 14.119L17.133 14.0683ZM16.9406 15.4512L16.3279 15.2344L16.3278 15.2345L16.9406 15.4512ZM15.4512 16.9396L15.2349 16.3267L15.2326 16.3275L15.4512 16.9396ZM14.0683 17.132L14.0174 16.484L14.0154 16.4842L14.0683 17.132ZM13.4999 17.1946L13.3741 16.5568L13.3741 16.5568L13.4999 17.1946ZM12.613 17.5618L12.2512 17.0218L12.2434 17.027L12.2358 17.0324L12.613 17.5618ZM12.1677 17.9202L12.589 18.4152L12.5967 18.4087L12.6042 18.4019L12.1677 17.9202ZM11.0543 18.7611L11.3347 19.3475L11.3354 19.3472L11.0543 18.7611ZM8.94765 18.7611L9.22806 18.1747L9.22634 18.1739L8.94765 18.7611ZM7.83426 17.9202L7.39826 18.4023L7.40506 18.4084L7.41204 18.4144L7.83426 17.9202ZM7.38793 17.5618L7.76452 17.032L7.75723 17.0268L7.7498 17.0218L7.38793 17.5618ZM6.50112 17.1946L6.62692 16.5568L6.61842 16.5552L6.60988 16.5537L6.50112 17.1946ZM5.93271 17.132L5.88185 17.7801L5.89072 17.7808L5.89961 17.7812L5.93271 17.132ZM4.54976 16.9396L4.76661 16.3269L4.76607 16.3267L4.54976 16.9396ZM3.06036 15.4512L3.67317 15.2345L3.67312 15.2344L3.06036 15.4512ZM2.86795 14.0683L2.21873 14.1001L2.21922 14.1101L2.22002 14.1201L2.86795 14.0683ZM2.80642 13.4989L3.44746 13.3913L3.44589 13.382L3.44406 13.3727L2.80642 13.4989ZM2.4392 12.613L1.89837 12.9736L1.89932 12.975L2.4392 12.613ZM2.08077 12.1667L2.5763 11.7461L2.57577 11.7454L2.08077 12.1667ZM1.23889 11.0533L0.652484 11.3337L0.652806 11.3344L1.23889 11.0533ZM1 10H1.65H1ZM1.23889 8.94667L0.652805 8.66559L0.652484 8.66626L1.23889 8.94667ZM2.08077 7.83328L2.57534 8.25507L2.5763 8.25394L2.08077 7.83328ZM2.4392 7.38695L1.89932 7.02497L1.89837 7.0264L2.4392 7.38695ZM2.80642 6.50112L3.44406 6.62728L3.44415 6.62687L2.80642 6.50112ZM2.86795 5.93173L2.22002 5.87993L2.21993 5.88104L2.86795 5.93173ZM3.06036 4.54878L2.44758 4.33197L2.44738 4.33255L3.06036 4.54878ZM4.55074 3.06036L4.76675 3.67341L4.76759 3.67312L4.55074 3.06036ZM5.93368 2.86795L5.98454 3.51596L5.98657 3.5158L5.93368 2.86795ZM6.5021 2.80545L6.62785 3.44317L6.62789 3.44316L6.5021 2.80545ZM7.38891 2.43822L7.02835 1.89739L7.02703 1.89827L7.38891 2.43822ZM7.0418 10.0292C6.78796 9.77536 6.37641 9.77536 6.12257 10.0292C5.86873 10.283 5.86873 10.6946 6.12257 10.9484L7.0418 10.0292ZM8.5355 12.4421L8.07588 12.9018C8.32972 13.1556 8.74128 13.1556 8.99512 12.9018L8.5355 12.4421ZM13.8784 8.01846C14.1323 7.76462 14.1323 7.35307 13.8784 7.09922C13.6246 6.84538 13.213 6.84538 12.9592 7.09922L13.8784 8.01846ZM8.25456 2.57479C8.8353 2.08055 9.0354 1.91722 9.22776 1.82497L8.66559 0.652806C8.28367 0.835972 7.93294 1.14144 7.41201 1.58479L8.25456 2.57479ZM9.22708 1.82529C9.46841 1.7099 9.73251 1.65 10 1.65V0.35C9.53842 0.35 9.08269 0.453357 8.66626 0.652484L9.22708 1.82529ZM10 1.65C10.2675 1.65 10.5316 1.7099 10.7729 1.82529L11.3337 0.652484C10.9173 0.453357 10.4616 0.35 10 0.35V1.65ZM10.7746 1.82612C10.9658 1.91683 11.165 2.07887 11.7445 2.57399L12.5889 1.58559C12.0687 1.14116 11.7171 0.834409 11.332 0.651662L10.7746 1.82612ZM11.7448 2.57424C11.9544 2.75308 12.0962 2.87486 12.2525 2.97906L12.9736 1.89739C12.8955 1.84533 12.8186 1.78154 12.5886 1.58535L11.7448 2.57424ZM12.2512 2.97818C12.591 3.20594 12.9727 3.36399 13.3741 3.44316L13.6256 2.16774C13.393 2.12185 13.1719 2.03026 12.9749 1.89827L12.2512 2.97818ZM13.3733 3.443C13.556 3.47928 13.7428 3.49355 14.0154 3.5158L14.1212 2.22011C13.8194 2.19548 13.7192 2.18631 13.6265 2.1679L13.3733 3.443ZM14.0174 3.51596C14.7772 3.57559 15.0338 3.60214 15.2344 3.67312L15.6681 2.4476C15.267 2.30566 14.8028 2.27361 14.1191 2.21995L14.0174 3.51596ZM15.2349 3.67331C15.487 3.76228 15.716 3.90655 15.9051 4.09553L16.8241 3.17599C16.4978 2.84988 16.1026 2.60093 15.6675 2.4474L15.2349 3.67331ZM15.9051 4.09553C16.0943 4.28452 16.2387 4.51344 16.3278 4.7655L17.5534 4.33207C17.3996 3.89712 17.1504 3.50211 16.8241 3.17599L15.9051 4.09553ZM16.3276 4.76501C16.3989 4.96701 16.4243 5.22289 16.4851 5.98353L17.781 5.87993C17.7265 5.19902 17.6953 4.73413 17.5536 4.33255L16.3276 4.76501ZM16.485 5.98243C16.5065 6.25677 16.5205 6.44287 16.5568 6.62687L17.8323 6.37538C17.8139 6.28201 17.8045 6.18097 17.781 5.88104L16.485 5.98243ZM16.5569 6.62708C16.636 7.02781 16.7943 7.41 17.0222 7.74932L18.1014 7.02458C17.9699 6.8287 17.8781 6.60731 17.8322 6.37516L16.5569 6.62708ZM17.0209 7.74751C17.1252 7.90382 17.2494 8.04746 17.4247 8.25394L18.4157 7.41263C18.2179 7.17961 18.1547 7.10448 18.1026 7.0264L17.0209 7.74751ZM17.4252 8.25456C17.9203 8.83626 18.0839 9.03565 18.176 9.22776L19.3482 8.66559C19.1649 8.28343 18.8577 7.93198 18.4152 7.41201L17.4252 8.25456ZM18.1757 9.22708C18.2911 9.4684 18.351 9.7325 18.351 10H19.651C19.651 9.53842 19.5476 9.08269 19.3485 8.66626L18.1757 9.22708ZM18.351 10C18.351 10.2675 18.2911 10.5316 18.1757 10.7729L19.3485 11.3337C19.5476 10.9173 19.651 10.4616 19.651 10H18.351ZM18.1752 10.7739C18.0844 10.9645 17.9218 11.1632 17.4256 11.7449L18.4148 12.5885C18.8582 12.0686 19.1663 11.7164 19.349 11.3328L18.1752 10.7739ZM17.4381 11.7307C17.293 11.8912 17.1574 12.0601 17.032 12.2365L18.0916 12.9896C18.1875 12.8547 18.2912 12.7255 18.4023 12.6027L17.4381 11.7307ZM17.0219 12.2511C16.7943 12.5905 16.6362 12.9718 16.5569 13.3727L17.8322 13.625C17.8782 13.3927 17.9698 13.1718 18.1017 12.975L17.0219 12.2511ZM16.5568 13.3731C16.5205 13.5571 16.5065 13.7432 16.485 14.0176L17.781 14.119C17.8045 13.819 17.8139 13.718 17.8323 13.6246L16.5568 13.3731ZM16.4851 14.0165C16.4242 14.7776 16.3988 15.0338 16.3279 15.2344L17.5534 15.6681C17.6953 15.267 17.7266 14.8005 17.781 14.1201L16.4851 14.0165ZM16.3278 15.2345C16.2387 15.4866 16.0943 15.7155 15.9051 15.9045L16.8241 16.824C17.1504 16.4979 17.3996 16.1029 17.5534 15.6679L16.3278 15.2345ZM15.9051 15.9045C15.716 16.0935 15.487 16.2377 15.2349 16.3267L15.6675 17.5526C16.1026 17.3991 16.4978 17.1501 16.8241 16.824L15.9051 15.9045ZM15.2326 16.3275C15.0334 16.3987 14.7792 16.4243 14.0174 16.484L14.1191 17.7801C14.8009 17.7265 15.2674 17.6955 15.6698 17.5518L15.2326 16.3275ZM14.0154 16.4842C13.7421 16.5065 13.5572 16.5207 13.3741 16.5568L13.6256 17.8323C13.7199 17.8137 13.8202 17.8045 14.1212 17.7799L14.0154 16.4842ZM13.3741 16.5568C12.9727 16.636 12.591 16.7941 12.2512 17.0218L12.9749 18.1017C13.1719 17.9697 13.3931 17.8781 13.6256 17.8323L13.3741 16.5568ZM12.2358 17.0324C12.0599 17.1578 11.8914 17.2934 11.7312 17.4386L12.6042 18.4019C12.7267 18.2908 12.8556 18.1871 12.9903 18.0911L12.2358 17.0324ZM11.7464 17.4252C11.1657 17.9194 10.9656 18.0828 10.7732 18.175L11.3354 19.3472C11.7173 19.164 12.068 18.8586 12.589 18.4152L11.7464 17.4252ZM10.7739 18.1747C10.5326 18.2901 10.2685 18.35 10.001 18.35V19.65C10.4626 19.65 10.9183 19.5466 11.3347 19.3475L10.7739 18.1747ZM10.001 18.35C9.73348 18.35 9.46938 18.2901 9.22806 18.1747L8.66724 19.3475C9.08366 19.5466 9.53939 19.65 10.001 19.65V18.35ZM9.22634 18.1739C9.03518 18.0832 8.836 17.9211 8.25648 17.426L7.41204 18.4144C7.93224 18.8588 8.28389 19.1656 8.66897 19.3483L9.22634 18.1739ZM8.27026 17.4381C8.10977 17.293 7.94089 17.1574 7.76452 17.032L7.01134 18.0916C7.14628 18.1875 7.27547 18.2912 7.39826 18.4023L8.27026 17.4381ZM7.7498 17.0218C7.40996 16.7941 7.02829 16.636 6.62692 16.5568L6.37533 17.8323C6.60793 17.8781 6.82911 17.9697 7.02605 18.1017L7.7498 17.0218ZM6.60988 16.5537C6.39675 16.5175 6.18169 16.4939 5.96581 16.4829L5.89961 17.7812C6.06478 17.7896 6.22931 17.8077 6.39237 17.8354L6.60988 16.5537ZM5.98357 16.484C5.22378 16.4244 4.96718 16.3979 4.76661 16.3269L4.33291 17.5524C4.73397 17.6943 5.19813 17.7264 5.88185 17.7801L5.98357 16.484ZM4.76607 16.3267C4.51395 16.2377 4.28494 16.0935 4.09583 15.9045L3.1769 16.824C3.50322 17.1501 3.8984 17.3991 4.33345 17.5526L4.76607 16.3267ZM4.09583 15.9045C3.90672 15.7155 3.7623 15.4866 3.67317 15.2345L2.44755 15.6679C2.60136 16.1029 2.85057 16.4979 3.1769 16.824L4.09583 15.9045ZM3.67312 15.2344C3.60213 15.0338 3.57674 14.7776 3.51589 14.0165L2.22002 14.1201C2.27442 14.8005 2.30567 15.267 2.4476 15.6681L3.67312 15.2344ZM3.51718 14.0365C3.50658 13.8202 3.4833 13.6048 3.44746 13.3913L2.16539 13.6065C2.19282 13.7698 2.21063 13.9347 2.21873 14.1001L3.51718 14.0365ZM3.44406 13.3727C3.36473 12.9718 3.20669 12.5905 2.97908 12.2511L1.89932 12.975C2.03123 13.1718 2.12281 13.3927 2.16879 13.625L3.44406 13.3727ZM2.98003 12.2525C2.87582 12.0962 2.75157 11.9525 2.5763 11.7461L1.58524 12.5874C1.78305 12.8204 1.84631 12.8955 1.89837 12.9736L2.98003 12.2525ZM2.57577 11.7454C2.08071 11.1637 1.91711 10.9644 1.82497 10.7722L0.652806 11.3344C0.83609 11.7166 1.14323 12.068 1.58577 12.588L2.57577 11.7454ZM1.82529 10.7729C1.7099 10.5316 1.65 10.2675 1.65 10H0.35C0.35 10.4616 0.453357 10.9173 0.652484 11.3337L1.82529 10.7729ZM1.65 10C1.65 9.73251 1.7099 9.46841 1.82529 9.22708L0.652484 8.66626C0.453357 9.08269 0.35 9.53842 0.35 10H1.65ZM1.82497 9.22776C1.9171 9.03567 2.08036 8.83546 2.57534 8.25507L1.5862 7.4115C1.14164 7.93278 0.836099 8.28341 0.652806 8.66559L1.82497 9.22776ZM2.5763 8.25394C2.75157 8.04747 2.87582 7.90382 2.98003 7.74751L1.89837 7.0264C1.84631 7.10448 1.78305 7.1796 1.58524 7.41263L2.5763 8.25394ZM2.97908 7.74893C3.20669 7.40946 3.36473 7.02823 3.44406 6.62728L2.16879 6.37496C2.12281 6.60731 2.03123 6.82824 1.89932 7.02497L2.97908 7.74893ZM3.44415 6.62687C3.48043 6.44287 3.49451 6.25677 3.51597 5.98243L2.21993 5.88104C2.19647 6.18096 2.18712 6.28201 2.1687 6.37538L3.44415 6.62687ZM3.51589 5.98353C3.5767 5.2229 3.60208 4.96701 3.67334 4.76501L2.44738 4.33255C2.30572 4.73413 2.27446 5.19902 2.22002 5.87993L3.51589 5.98353ZM3.67313 4.7656C3.76234 4.51347 3.90687 4.28451 4.09611 4.09551L3.17747 3.17567C2.85092 3.5018 2.60153 3.89689 2.44758 4.33197L3.67313 4.7656ZM4.09611 4.09551C4.28535 3.90652 4.5145 3.76229 4.76675 3.67341L4.33472 2.4473C3.89944 2.60067 3.50402 2.84955 3.17747 3.17567L4.09611 4.09551ZM4.76759 3.67312C4.96815 3.60214 5.22476 3.57559 5.98454 3.51596L5.88283 2.21995C5.19911 2.27361 4.73494 2.30566 4.33388 2.4476L4.76759 3.67312ZM5.98657 3.5158C6.25986 3.49349 6.4448 3.47926 6.62785 3.44317L6.37635 2.16773C6.28203 2.18633 6.18178 2.19554 5.8808 2.22011L5.98657 3.5158ZM6.62789 3.44316C7.02927 3.36399 7.41093 3.20594 7.75078 2.97818L7.02703 1.89827C6.83009 2.03026 6.60891 2.12185 6.37631 2.16774L6.62789 3.44316ZM7.74946 2.97906C7.90674 2.87421 8.04875 2.75121 8.2563 2.57331L7.41027 1.58627C7.18027 1.78341 7.10547 1.84598 7.02835 1.89739L7.74946 2.97906ZM6.12257 10.9484L8.07588 12.9018L8.99512 11.9825L7.0418 10.0292L6.12257 10.9484ZM8.99512 12.9018L13.8784 8.01846L12.9592 7.09922L8.07588 11.9825L8.99512 12.9018Z"
        fill="#574FC1" />
</svg>
