<svg
    width="16"
    height="16"
    viewBox="0 0 16 16"
    fill="none"
    xmlns="http://www.w3.org/2000/svg">
    <path
        fill-rule="evenodd"
        clip-rule="evenodd"
        d="M6.19372 1.40042C6.07535 1.50666 5.95142 1.60655 5.82247 1.69966C5.59898 1.84966 5.34773 1.95316 5.08374 2.00566C4.96899 2.02816 4.84899 2.03791 4.60974 2.05666C4.009 2.10466 3.70826 2.12866 3.45776 2.21716C3.17126 2.31814 2.91104 2.48206 2.69624 2.69686C2.48144 2.91166 2.31752 3.17188 2.21653 3.45838C2.12804 3.70888 2.10404 4.00963 2.05604 4.61037C2.04742 4.76915 2.0304 4.92737 2.00504 5.08436C1.95254 5.34835 1.84904 5.5996 1.69904 5.8231C1.63379 5.92059 1.5558 6.01209 1.3998 6.19434C1.00905 6.65333 0.813307 6.88283 0.698559 7.12283C0.433814 7.67782 0.433814 8.32281 0.698559 8.8778C0.813307 9.11779 1.00905 9.34729 1.3998 9.80628C1.5558 9.98853 1.63379 10.08 1.69904 10.1775C1.84904 10.401 1.95254 10.6523 2.00504 10.9163C2.02754 11.031 2.03729 11.151 2.05604 11.3903C2.10404 11.991 2.12804 12.2917 2.21653 12.5422C2.31752 12.8287 2.48144 13.089 2.69624 13.3038C2.91104 13.5186 3.17126 13.6825 3.45776 13.7835C3.70826 13.872 4.009 13.896 4.60974 13.944C4.84899 13.9627 4.96899 13.9725 5.08374 13.995C5.34773 14.0475 5.59898 14.1517 5.82247 14.301C5.91997 14.3662 6.01147 14.4442 6.19372 14.6002C6.65271 14.9909 6.88221 15.1867 7.1222 15.3014C7.67719 15.5662 8.32218 15.5662 8.87717 15.3014C9.11717 15.1867 9.34667 14.9909 9.80566 14.6002C9.98791 14.4442 10.0794 14.3662 10.1769 14.301C10.4004 14.151 10.6516 14.0475 10.9156 13.995C11.0304 13.9725 11.1504 13.9627 11.3896 13.944C11.9904 13.896 12.2911 13.872 12.5416 13.7835C12.8281 13.6825 13.0883 13.5186 13.3031 13.3038C13.5179 13.089 13.6819 12.8287 13.7828 12.5422C13.8713 12.2917 13.8953 11.991 13.9433 11.3903C13.9621 11.151 13.9718 11.031 13.9943 10.9163C14.0468 10.6523 14.1511 10.401 14.3003 10.1775C14.3656 10.08 14.4436 9.98853 14.5996 9.80628C14.9903 9.34729 15.1861 9.11779 15.3008 8.8778C15.5656 8.32281 15.5656 7.67782 15.3008 7.12283C15.1861 6.88283 14.9903 6.65333 14.5996 6.19434C14.4933 6.07597 14.3935 5.95205 14.3003 5.8231C14.1502 5.59964 14.0462 5.3485 13.9943 5.08436C13.969 4.92737 13.952 4.76915 13.9433 4.61037C13.8953 4.00963 13.8713 3.70888 13.7828 3.45838C13.6819 3.17188 13.5179 2.91166 13.3031 2.69686C13.0883 2.48206 12.8281 2.31814 12.5416 2.21716C12.2911 2.12866 11.9904 2.10466 11.3896 2.05666C11.2308 2.04805 11.0726 2.03102 10.9156 2.00566C10.6515 1.95378 10.4004 1.84975 10.1769 1.69966C10.048 1.60655 9.92403 1.50666 9.80566 1.40042C9.34667 1.00968 9.11717 0.813928 8.87717 0.69918C8.60323 0.568061 8.30339 0.5 7.99969 0.5C7.69599 0.5 7.39614 0.568061 7.1222 0.69918C6.88221 0.813928 6.65271 1.00968 6.19372 1.40042ZM11.2794 6.39759C11.3854 6.28157 11.4426 6.12915 11.439 5.97204C11.4355 5.81493 11.3715 5.66524 11.2604 5.55412C11.1492 5.443 10.9996 5.37901 10.8424 5.37547C10.6853 5.37192 10.5329 5.4291 10.4169 5.5351L6.77946 9.17254L5.58248 7.97631C5.46646 7.87031 5.31404 7.81313 5.15693 7.81668C4.99982 7.82022 4.85013 7.88421 4.73901 7.99533C4.62789 8.10645 4.5639 8.25614 4.56036 8.41325C4.55682 8.57036 4.61399 8.72278 4.71999 8.8388L6.34747 10.4663C6.46192 10.5805 6.61701 10.6446 6.77871 10.6446C6.94041 10.6446 7.0955 10.5805 7.20995 10.4663L11.2794 6.39759Z"
        fill="#574FC1" />
</svg>
