<svg
    width="20"
    height="16"
    viewBox="0 0 20 16"
    fill="none"
    xmlns="http://www.w3.org/2000/svg">
    <path
        d="M7.8625 8C7.8625 7.44056 8.0877 6.90403 8.48856 6.50845C8.88942 6.11286 9.4331 5.89062 10 5.89062C10.5669 5.89062 11.1106 6.11286 11.5114 6.50845C11.9123 6.90403 12.1375 7.44056 12.1375 8C12.1375 8.55944 11.9123 9.09597 11.5114 9.49155C11.1106 9.88714 10.5669 10.1094 10 10.1094C9.4331 10.1094 8.88942 9.88714 8.48856 9.49155C8.0877 9.09597 7.8625 8.55944 7.8625 8Z"
        fill="#574FC1" />
    <path
        fill-rule="evenodd"
        clip-rule="evenodd"
        d="M0.5 8C0.5 9.5375 0.90375 10.0541 1.71125 11.09C3.3234 13.1562 6.0271 15.5 10 15.5C13.9729 15.5 16.6766 13.1562 18.2887 11.09C19.0963 10.055 19.5 9.53656 19.5 8C19.5 6.4625 19.0963 5.94594 18.2887 4.91C16.6766 2.84375 13.9729 0.5 10 0.5C6.0271 0.5 3.3234 2.84375 1.71125 4.91C0.90375 5.94688 0.5 6.46344 0.5 8ZM10 4.48438C9.05517 4.48438 8.14903 4.85477 7.48093 5.51408C6.81283 6.17339 6.4375 7.0676 6.4375 8C6.4375 8.9324 6.81283 9.82661 7.48093 10.4859C8.14903 11.1452 9.05517 11.5156 10 11.5156C10.9448 11.5156 11.851 11.1452 12.5191 10.4859C13.1872 9.82661 13.5625 8.9324 13.5625 8C13.5625 7.0676 13.1872 6.17339 12.5191 5.51408C11.851 4.85477 10.9448 4.48438 10 4.48438Z"
        fill="#574FC1" />
</svg>
