<svg
    width="20"
    height="22"
    viewBox="0 0 20 22"
    fill="none"
    xmlns="http://www.w3.org/2000/svg">
    <path
        d="M8.3 17.2241H4.9M11.7 17.2241H10.425M1.5 12.3103H18.5M14.25 4.23038C13.9019 3.42221 13.3123 2.73143 12.5558 2.24542C11.7993 1.75941 10.9099 1.5 10 1.5C9.09011 1.5 8.20066 1.75941 7.44416 2.24542C6.68765 2.73143 6.09807 3.42221 5.75 4.23038M12.4082 5.24384C12.2557 4.74347 11.9387 4.30406 11.5046 3.99146C11.0705 3.67886 10.5428 3.5099 10.0004 3.5099C9.45803 3.5099 8.93026 3.67886 8.49618 3.99146C8.06209 4.30406 7.74507 4.74347 7.59261 5.24384M1.5 13.9483C1.5 10.86 1.5 9.31539 2.4962 8.35638C3.4924 7.39737 5.09465 7.39655 8.3 7.39655H11.7C14.9053 7.39655 16.5084 7.39655 17.5038 8.35638C18.4991 9.31621 18.5 10.86 18.5 13.9483C18.5 17.0366 18.5 18.5812 17.5038 19.5402C16.5076 20.4992 14.9053 20.5 11.7 20.5H8.3C5.09465 20.5 3.49155 20.5 2.4962 19.5402C1.50085 18.5803 1.5 17.0366 1.5 13.9483Z"
        stroke="#574FC1"
        stroke-width="1.3"
        stroke-linecap="round" />
</svg>
