<svg
    width="18"
    height="18"
    viewBox="0 0 18 18"
    fill="none"
    xmlns="http://www.w3.org/2000/svg">
    <path
        fill-rule="evenodd"
        clip-rule="evenodd"
        d="M0 8.325C0.170738 6.06127 1.19304 3.94549 2.86206 2.40165C4.53107 0.857814 6.7235 -3.73792e-05 9 1.22168e-09C8.2509 1.22168e-09 7.58303 0.3276 7.03249 0.8289C6.48646 1.3275 6.02527 2.0241 5.65162 2.8467C5.27617 3.6747 4.98375 4.6431 4.7861 5.6934C4.62579 6.56239 4.52987 7.44196 4.4991 8.325H0ZM0 9.675H4.4991C4.53159 10.5768 4.62816 11.4642 4.7861 12.3066C4.98466 13.3569 5.27617 14.3253 5.65162 15.1533C6.02527 15.9759 6.48646 16.6725 7.03249 17.1711C7.58303 17.6724 8.2509 18 9 18C4.24368 18 0.345668 14.3307 0 9.675Z"
        fill="#574FC1" />
    <path
        d="M9 1.2555C8.75181 1.2555 8.43141 1.3608 8.05866 1.701C7.68321 2.0439 7.30686 2.5812 6.97473 3.3129C6.6444 4.0401 6.37635 4.9176 6.19224 5.8986C6.04783 6.6708 5.95758 7.4898 5.92509 8.325H12.0749C12.0455 7.51077 11.9562 6.69979 11.8078 5.8986C11.6236 4.9176 11.3565 4.0401 11.0253 3.3129C10.6931 2.5812 10.3177 2.0439 9.94224 1.7019C9.56859 1.3608 9.2482 1.2555 9 1.2555ZM6.19224 12.1014C6.37635 13.0824 6.6444 13.9599 6.97473 14.6871C7.30686 15.4188 7.68321 15.9561 8.05776 16.2981C8.43141 16.6392 8.75271 16.7445 9 16.7445C9.2482 16.7445 9.56859 16.6392 9.94134 16.299C10.3177 15.9561 10.6931 15.4188 11.0253 14.6871C11.3556 13.9599 11.6236 13.0824 11.8078 12.1014C11.9531 11.3292 12.0433 10.5102 12.0749 9.675H5.92509C5.95668 10.5102 6.04693 11.3292 6.19224 12.1014Z"
        fill="#574FC1" />
    <path
        d="M9 1.22168e-09C9.75 1.22168e-09 10.417 0.3276 10.9675 0.8289C11.5135 1.3275 11.9756 2.0241 12.3484 2.8467C12.7247 3.6747 13.0162 4.6431 13.2139 5.6934C13.3718 6.5358 13.4684 7.4232 13.5009 8.325H18C17.8293 6.06127 16.807 3.94549 15.1379 2.40165C13.4689 0.857814 11.2765 -3.73792e-05 9 1.22168e-09ZM13.2139 12.3066C13.0162 13.3569 12.7247 14.3253 12.3484 15.1533C11.9756 15.9759 11.5135 16.6725 10.9675 17.1711C10.417 17.6724 9.75 18 9 18C13.7563 18 17.6543 14.3307 18 9.675H13.5009C13.4701 10.558 13.3742 11.4376 13.2139 12.3066Z"
        fill="#574FC1" />
</svg>
