<svg
    width="20"
    height="20"
    viewBox="0 0 20 20"
    fill="none"
    xmlns="http://www.w3.org/2000/svg">
    <path
        d="M13.8488 12.5002C13.9915 12.4992 14.1416 12.4994 14.3002 12.4997C14.2821 12.4994 14.2642 12.4986 14.2463 12.4978C14.2293 12.497 14.2123 12.4962 14.1955 12.4959C14.121 12.4945 14.0473 12.4962 13.9756 12.4979C13.9326 12.4989 13.8902 12.4999 13.8488 12.5002Z"
        fill="#574FC1" />
    <path
        d="M0.987407 8.14815C0.988596 8.36934 1.02709 8.58627 1.0992 8.78961C1.18692 9.037 1.32438 9.26425 1.5049 9.45454C1.83382 9.80122 2.27917 9.99722 2.74431 10H7.26207C7.72722 9.99722 8.17256 9.80122 8.50148 9.45454C8.6818 9.26447 8.81916 9.03751 8.90689 8.79045C9.01288 8.30653 9.01866 7.64795 9.01898 6.71108V4.65609C9.16884 4.71858 9.33422 4.72648 9.48883 4.67855C9.64344 4.63062 9.77843 4.5296 9.87233 4.39154C9.97697 4.22714 10.0195 4.02745 9.99167 3.83167C9.96381 3.63589 9.86753 3.45815 9.72174 3.33334L5.45499 0.15873C5.32465 0.0556967 5.16613 0 5.00321 0C4.84029 0 4.68177 0.0556967 4.55144 0.15873L0.284645 3.33334C0.14631 3.44916 0.0510147 3.61256 0.0154323 3.79495C-0.0201502 3.97735 0.00624553 4.16712 0.0900016 4.33107C0.173758 4.49503 0.309541 4.62272 0.473594 4.69181C0.637648 4.76089 0.819525 4.76698 0.987407 4.709V8.14815Z"
        fill="#574FC1" />
    <path
        d="M2.06551 11.2732C2.44145 11.1767 2.82379 11.3834 2.95516 11.74L2.9786 11.8132L3.04696 12.0623C3.80415 14.6194 5.93606 16.588 8.58407 17.1121C8.99013 17.1926 9.25412 17.5868 9.17391 17.9929C9.09353 18.3991 8.6992 18.6638 8.29305 18.5837C5.0939 17.9506 2.5237 15.5756 1.60946 12.488L1.52547 12.1873L1.51083 12.1121C1.45352 11.7361 1.68931 11.37 2.06551 11.2732ZM11.5636 1.39332L11.6397 1.40308L11.9669 1.47242C15.3288 2.2449 17.9502 4.95172 18.5968 8.36012C18.674 8.76707 18.4061 9.15987 17.9991 9.23707C17.5923 9.31407 17.2003 9.04627 17.1231 8.63941C16.5878 5.81781 14.4143 3.574 11.6309 2.93433L11.3604 2.87769L11.2852 2.85914C10.9211 2.75082 10.6905 2.38209 10.7628 2.00074C10.8351 1.61925 11.1849 1.36062 11.5636 1.39332Z"
        fill="#574FC1" />
    <path
        fill-rule="evenodd"
        clip-rule="evenodd"
        d="M11.0421 14.3007C11.0005 14.7951 11 15.4223 11 16.25C11 17.2213 11.0008 17.9164 11.0679 18.4448C11.1338 18.9637 11.2584 19.2721 11.4725 19.4993C11.6865 19.7263 11.9772 19.8584 12.4668 19.9282C12.9653 19.9993 13.6211 20 14.5374 20H16.4626C17.3788 20 18.0345 19.9992 18.533 19.928C19.0225 19.8582 19.3134 19.726 19.5277 19.4991C19.7418 19.2723 19.8664 18.964 19.9323 18.4451C19.9993 17.9166 20 17.2214 20 16.25C20 15.4094 19.9994 14.7757 19.9558 14.2778C18.7631 15.0977 18.0455 15.5778 17.3067 15.8213C16.1302 16.2088 14.8704 16.2088 13.6938 15.8213C12.9546 15.5778 12.235 15.121 11.0421 14.3007Z"
        fill="#574FC1" />
    <path
        d="M14.1634 11.9992C14.0551 12.0762 13.9704 12.1809 13.9184 12.3018C13.9707 12.1822 14.0563 12.0753 14.1634 11.9992Z"
        fill="#574FC1" />
    <path
        d="M13.8488 12.5002C13.9915 12.4992 14.1416 12.4994 14.3002 12.4997L14.5132 12.5L14.5374 12.5H16.4626C16.7121 12.5 16.9422 12.5001 17.1552 12.5016L17.1453 12.4769L17.1395 12.4636L17.1337 12.4481L17.1278 12.4308L17.1237 12.4187C17.1125 12.3837 17.1004 12.349 17.0875 12.3146C17.036 12.1881 16.9491 12.0787 16.837 11.999C16.7248 11.9194 16.592 11.8727 16.454 11.8646C16.4122 11.8631 16.3703 11.8627 16.3285 11.8634H14.6713C14.588 11.8634 14.5646 11.8634 14.546 11.8646C14.4081 11.8728 14.2754 11.9195 14.1634 11.9992C14.0551 12.0762 13.9704 12.1809 13.9184 12.3018L13.9131 12.3146L13.9066 12.3307C13.8907 12.3745 13.8758 12.4186 13.8617 12.4631L13.8576 12.4751L13.8488 12.5002ZM12.467 12.572C12.5718 12.557 12.6836 12.5452 12.8034 12.5358C12.9028 12.4388 12.9812 12.3185 13.0303 12.1903C13.0521 12.124 13.0755 12.0582 13.1003 11.9929C13.2136 11.7149 13.4046 11.4743 13.6511 11.2991C13.8976 11.1239 14.1895 11.0212 14.4928 11.0031C14.5419 11.0002 14.5933 11.0002 14.6598 11.0002H16.3408C16.3962 10.9996 16.4517 11.0005 16.5072 11.0031C16.8105 11.0212 17.1023 11.1238 17.3488 11.2989C17.5953 11.474 17.7863 11.7144 17.8997 11.9923C17.9154 12.0301 17.9303 12.074 17.9472 12.1237L17.9569 12.1523C18.0152 12.2978 18.1043 12.429 18.2181 12.5373C18.3298 12.5464 18.4346 12.5577 18.5332 12.5718C19.0228 12.6416 19.3135 12.7737 19.5275 13.0007C19.6334 13.1131 19.7175 13.2454 19.7833 13.4133C18.4527 14.3291 17.8005 14.764 17.121 14.9879C16.0654 15.3356 14.9351 15.3356 13.8794 14.9879C13.1995 14.764 12.5471 14.3294 11.2164 13.4132C11.2823 13.2454 11.3664 13.1132 11.4723 13.0009C11.6866 12.774 11.9775 12.6418 12.467 12.572Z"
        fill="#574FC1" />
</svg>
